<svg xmlns="http://www.w3.org/2000/svg" viewBox="0 0 794 663">

  <style>
    :root {
      /* Neutrals */
      --color-white: rgb(254 254 254);
      --color-black-900: rgb(11 11 11);
      --color-black-800: rgb(24 24 24); /* Eerie Black */
      --color-black-600: rgb(48 48 48);
      --color-black-400: rgb(76 76 76);
      --color-black-200: rgb(104 104 104);
      --color-black-90: rgb(133 133 133);
      --color-black-70: rgb(163 163 163);
      --color-black-50: rgb(191 191 191);
      --color-black-30: rgb(219 219 219);
      --color-black-10: rgb(245 245 245);

      /* Red */
      --color-red-800: rgb(107 0 0);
      --color-red-700: rgb(169 0 18);
      --color-red-600: rgb(228 0 44); /* Rojo */
      --color-red-200: rgb(238 67 91);
      --color-red-60: rgb(252 162 169);

      /* Purple */
      --color-purple-600: rgb(161 0 255); /* Veronica */

      /* Blue */
      --color-blue-600: rgb(0 61 72);
      --color-blue-500: rgb(0 80 109);
      --color-blue-200: rgb(0 122 189);
      --color-blue-90: rgb(0 153 255); /* Dodger Blue */
      --color-blue-80: rgb(66 167 255);
      --color-blue-70: rgb(113 171 255);
      --color-blue-50: rgb(169 197 255);

      /* Yellow */
      --color-yellow-100: rgb(148 124 31);
      --color-yellow-40: rgb(255 204 0); /* Jonquil */
      --color-yellow-20: rgb(248 233 179);
      --color-yellow-10: rgb(249 246 232);

      /* Green */
      --color-green-700: rgb(21 44 4);
      --color-green-400: rgb(35 102 11);
      --color-green-80: rgb(52 193 21); /* Kelly Green */
      --color-green-50: rgb(136 221 131);
      --color-green-10: rgb(226 247 228);
    }

    .paper {
      fill: var(--color-black-10);
    }

    .paper .line {
      fill: none;
      stroke: var(--color-black-50);
      stroke-width: 3;
      stroke-miterlimit: 10;
    }

    .flask {
      fill: var(--color-black-10);
    }

    .flask .liquid {
      fill: var(--color-purple-600);
    }

    .stool {
      fill: var(--color-black-400);
    }

    .stool .leg {
      fill: var(--color-black-200);
    }

    .pencil {
      fill: var(--color-yellow-40);
    }

    .pencil .rubber {
      fill: var(--color-red-600);
    }

    .pencil .nib {
      fill: var(--color-black-900);
    }

    #person1 .skin {
      fill: rgb(174 128 70);
    }

    #person1 .hair {
      fill: var(--color-black-900);
    }

    #person1 .trousers {
      fill: var(--color-black-800);
    }

    #person1 .shoes {
      fill: var(--color-black-800);
    }

    #person1 .top {
      fill: var(--color-red-600);
    }

    #person2 .skin {
      fill: rgb(132 92 50);
    }

    #person2 .skin-neck {
      fill: rgb(111 77 40);
    }

    #person2 .skin-legs {
      fill: rgb(111 77 40);
    }

    #person2 .hair {
      fill: var(--color-black-900);
    }

    #person2 .nose {
      fill: rgb(162 112 64);
    }

    #person2 .top {
      fill: var(--color-yellow-40);
    }

    #person2 .eyes {
      fill: var(--color-black-900);
    }

    #person2 .mouth {
      fill: var(--color-black-900);
    }

    #person2 .trousers {
      fill: var(--color-black-800);
    }

    #person2 .shoes {
      fill: var(--color-black-800);
    }
  </style>

  <g class="paper">
    <rect height="662.3" width="510.16" x="284.09" y="0" />
    <g class="line">
      <line x1="364.44" x2="707.41" y1="115.42" y2="115.42" />
      <line x1="364.44" x2="707.41" y1="188.66" y2="188.66" />
      <line x1="364.44" x2="707.41" y1="261.9" y2="261.9" />
      <line x1="364.44" x2="707.41" y1="335.14" y2="335.14" />
      <line x1="364.44" x2="707.41" y1="408.39" y2="408.39" />
      <line x1="364.44" x2="707.41" y1="481.63" y2="481.63" />
    </g>
  </g>
  <g id="person2">
    <rect class="paper" height="44.8" transform="rotate(-37.3993 117.189 342.935)" width="36.44" x="98.97" y="320.53" />
    <path
      class="skin"
      d="m108.18,364.43l-0.78,-0.78c-2.5,-1.85 -2.67,-5.91 -0.38,-9.01l1.84,-2.48c2.3,-3.1 6.22,-4.13 8.73,-2.28l0.8,0.59c2.5,1.85 2.67,5.91 0.38,9.01l-1.84,2.49c-2.3,3.1 -6.25,4.31 -8.75,2.46z"
    />
    <path
      class="top"
      d="m117.41,362.66c-0.36,-1.92 -3.77,-2.85 -5.09,-4.06c-1.67,-1.54 -5.32,-6.51 -7.56,-3.29c-1.25,1.79 -2.45,3.59 -3.85,5.27c-4.15,5 -9.17,9.18 -13.39,14.11c-4.59,5.36 -8.61,11.29 -12.9,16.89c-0.23,0.3 -0.46,0.61 -0.7,0.92c-1.83,1.97 -3.67,3.94 -5.51,5.89c-3.89,4.12 -7.94,8.12 -12.88,10.68c-4.18,1.15 -8.51,1.67 -12.6,3.1c-4.62,1.61 -8.17,4.67 -10.51,8.58c-0.41,0.3 -0.82,0.6 -1.22,0.92c-4.01,3.15 -5.44,6.77 -4.79,11.15l-0.1,0.01l3.95,56.6l62.34,-5.8l-6.77,-47.28c3.73,-10.42 7.45,-20.85 11.18,-31.27c4.9,-13.71 8.76,-29.18 18.61,-40.32c0.51,-0.61 1.94,-1.27 1.79,-2.1z"
    />
    <rect class="skin-neck" height="22.4" width="26.3" x="33.3" y="395.92" />
    <g class="hair">
      <path
        d="m64.79,347.73c-6.14,-7.15 -13.31,-14.76 -25.23,-12.88c-7.53,1.19 -4.34,10.54 3.17,9.36c5.14,-0.81 10.62,6.93 12.93,9.82c3.3,4.14 6.11,9.3 3.12,14.1c-3.47,5.56 6.83,10.48 10.3,4.9c5.38,-8.65 2.23,-17.7 -4.29,-25.3z"
      />
      <path
        d="m58.05,343.6c-1.93,-1.57 -4.7,1.17 -2.75,2.75c6.76,5.52 10.45,13.32 10.28,22.06c-0.05,2.51 3.85,2.51 3.9,0c0.18,-9.66 -3.92,-18.69 -11.43,-24.81z"
      />
    </g>
    <path
      class="skin-legs"
      d="m97.02,651.75l-11.39,-1.4c-1.06,-0.13 -1.81,-1.1 -1.68,-2.15l2.18,-17.79c0.13,-1.06 1.1,-1.81 2.15,-1.68l11.39,1.4c1.06,0.13 1.81,1.1 1.68,2.15l-2.18,17.79c-0.12,1.06 -1.09,1.81 -2.15,1.68z"
    />
    <path
      class="skin-legs"
      d="m47.1,652.82l-11.36,-1.64c-1.05,-0.15 -1.79,-1.14 -1.64,-2.19l2.56,-17.74c0.15,-1.05 1.14,-1.79 2.19,-1.64l11.36,1.64c1.05,0.15 1.79,1.14 1.64,2.19l-2.56,17.74c-0.15,1.05 -1.14,1.79 -2.19,1.64z"
    />
    <g class="trousers">
      <path
        d="m125.83,633.49l-50.61,7.05l-0.89,-61.5c-0.03,-1.83 -0.22,-3.66 -0.58,-5.46l-15.81,-78.51l33.81,-18.32l16.93,88.73c0.15,0.8 0.34,1.59 0.57,2.37l8.81,33.15l7.77,32.49z"
      />
      <path
        d="m71.29,641.36l-48.7,-1.05l9.32,-63.56c0.28,-1.89 0.4,-3.81 0.35,-5.72l-1.88,-85.5l31.17,1.95l4.85,80.94c0.01,0.85 0.06,1.7 0.14,2.54l2.79,35.62l1.96,34.78z"
      />
      <polygon
        points="95.9001235961914,508.6824951171875 34.790138244628906,516.6024780273438 30.240148544311523,484.75250244140625 91.35013580322266,476.8324890136719 "
      />
    </g>
    <g class="flask">
      <path
        d="m79,492.91l-11.44,-19.82l0,-14.14c0,-2.59 -2.12,-4.71 -4.71,-4.71l-4.87,0c-2.59,0 -4.71,2.12 -4.71,4.71l0,14.56l-11.2,19.4c-2.98,5.16 0.74,11.61 6.7,11.61l23.53,0c5.96,0 9.68,-6.45 6.7,-11.61z"
      />
      <path
        class="liquid"
        d="m75.87,487.47l-30.66,0l-3.14,5.43c-2.98,5.16 0.74,11.61 6.7,11.61l23.53,0c5.96,0 9.68,-6.45 6.7,-11.61l-3.13,-5.43z"
      />
    </g>
    <path
      class="skin"
      d="m43.38,475.45l0.1,-1.1c-0.23,-3.11 3.08,-5.9 7.35,-6.21l3.42,-0.25c4.27,-0.31 7.95,1.97 8.18,5.08l0.07,1c0.23,3.11 -3.08,5.9 -7.35,6.21l-3.42,0.25c-4.27,0.3 -8.12,-1.88 -8.35,-4.98z"
    />
    <g class="top">
      <path
        d="m51.26,466.3c-9.13,1.03 -18.09,-0.13 -26.56,-3.77c0,0 -0.01,0 -0.01,0c-1.86,-5.58 3.21,-14.73 5.14,-18.99c0.64,-1.41 -0.08,-2.72 -1.12,-3.35c0.1,-0.38 0.18,-0.78 0.23,-1.2c0.35,-2.83 0.25,-5.82 0.16,-8.76c0.24,-2.24 0.3,-4.52 0.17,-6.84c1.91,-1.27 3.89,-2.43 5.94,-3.45c2.8,-1.4 0.34,-5.61 -2.46,-4.2c-17.4,8.71 -32.68,27.73 -32.75,47.93c-0.08,27 36.59,21.87 53.05,16.96c0.29,-0.09 0.48,-0.35 0.48,-0.64l0.14,-11.25c0.04,-1.21 -1.11,-2.59 -2.41,-2.44z"
      />
      <path
        d="m59.53,407.95c-8.88,4.61 -20,2.46 -28.28,8.5c-4.84,2.63 -9.08,6.24 -10.76,10.68c-1.83,4.86 0.03,9 1.89,13.52c2.34,5.7 4.69,11.39 7.03,17.09c2.35,5.72 11.78,3.21 9.39,-2.59c-0.61,-1.49 -1.22,-2.98 -1.84,-4.47c1.25,-1.03 1.91,-2.68 1.19,-4.73c-1.58,-4.5 -2.76,-9.11 -3.13,-13.88c-0.28,-3.6 0.14,-5.96 2.09,-7.65c3.65,-1.69 7.68,-2.79 9.81,-3.13c0.78,-0.13 1.42,-0.38 1.92,-0.74c5.3,-0.93 10.61,-1.6 15.59,-4.18c5.58,-2.91 0.66,-11.31 -4.9,-8.42z"
      />
    </g>
    <path
      class="shoes"
      d="m65.85,662.79l-30.04,0c-2.46,0 -4.46,-2.37 -4.46,-5.29l0,-6.82c0,-3.32 2.55,-5.82 5.3,-5.19l30.04,6.82c1.94,0.44 3.4,2.34 3.6,4.67l0,0c0.26,3.1 -1.8,5.81 -4.44,5.81z"
    />
    <path
      class="shoes"
      d="m115.52,663.76l-30.04,0c-2.46,0 -4.46,-2.37 -4.46,-5.29l0,-6.82c0,-3.32 2.55,-5.82 5.3,-5.19l30.04,6.82c1.94,0.44 3.4,2.34 3.6,4.67l0,0c0.26,3.11 -1.8,5.81 -4.44,5.81z"
    />
    <path
      class="skin"
      d="m66.66,359.51c7.22,16.44 4.16,41.25 -10.18,39.99c-17.22,-1.51 -29.12,-3.1 -36.35,-19.54s-2.67,-34.34 10.18,-39.99c12.85,-5.65 29.12,3.1 36.35,19.54z"
    />
    <path
      class="hair"
      d="m31.62,333.78c0.39,-0.07 0.77,-0.14 1.16,-0.21c1.07,-0.19 2.17,-0.27 3.26,-0.19c1.9,0.15 3.74,0.9 4.87,2.49c0.47,0.65 0.79,1.4 1,2.17c0.44,1.6 0.41,3.29 -0.3,4.81c-0.85,1.83 -2.5,2.97 -3.78,4.46c-1.16,1.36 -2.23,2.76 -3.14,4.3c-1.73,2.92 -2.87,6.16 -3.49,9.49c-0.62,3.39 -0.71,6.85 -0.45,10.28c0.27,3.57 0.9,7.1 1.75,10.58c0.86,3.51 1.94,6.97 3.13,10.38c1.14,3.26 2.4,6.49 3.69,9.7c0.19,0.47 0.38,0.94 0.57,1.41c0.16,0.4 0.28,0.99 0.54,1.34c1.16,1.55 1.58,3.84 0.38,5.4c-3.19,4.17 -6.94,7.65 -11.57,10.2c-1.3,0.72 -2.83,0.7 -4.27,0.71c-1.44,0 -2.61,-0.28 -3.7,-1.31c-1.61,-1.53 -3.13,-3.16 -4.54,-4.88c-1.39,-1.69 -2.68,-3.46 -3.85,-5.3c-1.16,-1.81 -2.21,-3.7 -3.14,-5.64c-0.93,-1.92 -1.74,-3.89 -2.44,-5.9c-0.69,-2 -1.27,-4.03 -1.73,-6.09c-0.46,-2.05 -0.8,-4.13 -1.02,-6.22c-0.22,-2.08 -0.33,-4.18 -0.32,-6.28c0.01,-2.1 0.14,-4.19 0.39,-6.27c0.25,-2.08 0.61,-4.15 1.09,-6.19c0.48,-2.05 1.08,-4.07 1.8,-6.05c0.72,-1.99 1.55,-3.94 2.5,-5.84c0.96,-1.91 2.02,-3.77 3.2,-5.56c1.19,-1.81 2.5,-3.55 3.9,-5.21c1.43,-1.69 2.97,-3.29 4.6,-4.79c2.88,-2.66 5.98,-5.04 9.91,-5.79z"
    />
    <g class="eyes">
      <path
        d="m46.65,363.99c-0.05,1.15 0.59,2.29 1.59,2.86c0.15,0.08 0.31,0.11 0.48,0.09c0.15,-0.02 0.33,-0.08 0.43,-0.21c0.18,-0.22 0.33,-0.46 0.39,-0.74c0.05,-0.28 0.04,-0.54 -0.01,-0.83c-0.08,-0.4 -0.29,-0.8 -0.52,-1.14c-0.13,-0.19 -0.26,-0.39 -0.42,-0.54c-0.28,-0.27 -0.66,-0.42 -1.04,-0.33c-0.35,0.08 -0.61,0.36 -0.72,0.69c-0.13,0.41 0.04,0.84 0.4,1.06c0.34,0.2 0.84,0.08 1.03,-0.27c0.19,-0.36 0.09,-0.81 -0.27,-1.03c-0.01,0 -0.01,-0.01 -0.02,-0.01c0.05,0.04 0.1,0.08 0.15,0.12c-0.01,-0.01 -0.02,-0.02 -0.03,-0.03c0.04,0.05 0.08,0.1 0.12,0.15c0,-0.01 -0.01,-0.01 -0.01,-0.02c0.03,0.06 0.05,0.12 0.08,0.18c-0.01,-0.01 -0.01,-0.03 -0.01,-0.04c0.01,0.07 0.02,0.13 0.03,0.2c0,-0.01 0,-0.03 0,-0.04c-0.01,0.07 -0.02,0.13 -0.03,0.2c0,-0.02 0.01,-0.04 0.02,-0.07c-0.03,0.06 -0.05,0.12 -0.08,0.18c0.01,-0.02 0.02,-0.04 0.04,-0.06c-0.04,0.05 -0.08,0.1 -0.12,0.15c0.02,-0.02 0.03,-0.04 0.05,-0.05c-0.05,0.04 -0.1,0.08 -0.15,0.12c0.02,-0.02 0.04,-0.03 0.06,-0.04c-0.06,0.03 -0.12,0.05 -0.18,0.08c0.02,-0.01 0.03,-0.01 0.05,-0.01c-0.07,0.01 -0.13,0.02 -0.2,0.03c0.02,0 0.04,0 0.06,0c-0.07,-0.01 -0.13,-0.02 -0.2,-0.03c0.03,0.01 0.06,0.01 0.09,0.03c-0.06,-0.03 -0.12,-0.05 -0.18,-0.08c0.04,0.02 0.08,0.04 0.11,0.07c-0.05,-0.04 -0.1,-0.08 -0.15,-0.12c0.07,0.06 0.13,0.13 0.19,0.2c-0.04,-0.05 -0.08,-0.1 -0.12,-0.15c0.19,0.25 0.37,0.52 0.49,0.82c-0.03,-0.06 -0.05,-0.12 -0.08,-0.18c0.06,0.15 0.11,0.31 0.14,0.47c-0.01,-0.07 -0.02,-0.13 -0.03,-0.2c0.01,0.1 0.01,0.2 0,0.29c0.01,-0.07 0.02,-0.13 0.03,-0.2c-0.01,0.07 -0.03,0.15 -0.06,0.22c0.03,-0.06 0.05,-0.12 0.08,-0.18c-0.03,0.07 -0.07,0.14 -0.12,0.2c0.04,-0.05 0.08,-0.1 0.12,-0.15c-0.01,0.01 -0.01,0.02 -0.02,0.03c0.3,-0.04 0.61,-0.08 0.91,-0.12c-0.1,-0.06 -0.2,-0.12 -0.29,-0.19c0.05,0.04 0.1,0.08 0.15,0.12c-0.15,-0.12 -0.29,-0.26 -0.41,-0.41c0.04,0.05 0.08,0.1 0.12,0.15c-0.13,-0.17 -0.24,-0.36 -0.33,-0.56c0.03,0.06 0.05,0.12 0.08,0.18c-0.08,-0.2 -0.14,-0.41 -0.17,-0.63c0.01,0.07 0.02,0.13 0.03,0.2c-0.02,-0.14 -0.02,-0.27 -0.02,-0.41c0.02,-0.39 -0.36,-0.77 -0.75,-0.75c-0.45,0 -0.76,0.31 -0.78,0.73l0,0z"
      />
      <path
        d="m60.27,359.34c0.08,0.64 0.24,1.22 0.49,1.81c0.23,0.53 0.55,1.01 0.92,1.46c0.29,0.35 0.99,0.26 1.18,-0.15c0.32,-0.69 0.39,-1.47 0.16,-2.21c-0.23,-0.72 -0.69,-1.35 -1.35,-1.74c-0.34,-0.2 -0.84,-0.09 -1.03,0.27c-0.19,0.36 -0.09,0.81 0.27,1.03c0.06,0.03 0.11,0.07 0.16,0.1c0.12,0.08 -0.1,-0.09 -0.04,-0.03c0.02,0.02 0.05,0.04 0.07,0.06c0.05,0.04 0.09,0.09 0.14,0.14c0.02,0.02 0.04,0.05 0.06,0.07c0.08,0.09 -0.01,-0.01 -0.03,-0.05c0.07,0.11 0.15,0.21 0.21,0.33c0.01,0.03 0.03,0.06 0.04,0.09c0.03,0.06 0.03,0.14 -0.02,-0.05c0.02,0.06 0.05,0.12 0.07,0.18c0.02,0.06 0.04,0.12 0.05,0.19c0.01,0.05 0.01,0.15 0.04,0.19c-0.01,-0.01 -0.02,-0.19 -0.01,-0.08c0,0.04 0.01,0.08 0.01,0.12c0,0.06 0,0.12 0,0.17c0,0.06 -0.01,0.13 -0.01,0.19c0,0.09 0.03,-0.19 0.01,-0.07c-0.01,0.03 -0.01,0.06 -0.02,0.09c-0.01,0.06 -0.03,0.13 -0.05,0.19c-0.01,0.03 -0.02,0.06 -0.03,0.09c-0.04,0.13 0.07,-0.17 0.01,-0.04c0.39,-0.05 0.79,-0.1 1.18,-0.15c-0.02,-0.03 -0.04,-0.05 -0.06,-0.08c-0.05,-0.06 -0.04,-0.05 0.03,0.04c-0.03,-0.01 -0.1,-0.13 -0.11,-0.16c-0.07,-0.09 -0.13,-0.19 -0.19,-0.29c-0.12,-0.2 -0.23,-0.41 -0.33,-0.63c-0.02,-0.05 -0.01,-0.03 0.03,0.07c-0.01,-0.03 -0.02,-0.06 -0.04,-0.09c-0.02,-0.06 -0.05,-0.12 -0.07,-0.18c-0.04,-0.11 -0.07,-0.22 -0.1,-0.33c-0.03,-0.11 -0.06,-0.22 -0.08,-0.33c-0.01,-0.06 -0.03,-0.13 -0.04,-0.19c-0.01,-0.05 -0.04,-0.28 -0.01,-0.04c-0.03,-0.21 -0.07,-0.38 -0.22,-0.53c-0.13,-0.13 -0.34,-0.23 -0.53,-0.22c-0.19,0.01 -0.4,0.07 -0.53,0.22c-0.14,0.14 -0.26,0.35 -0.23,0.54l0,0z"
      />
    </g>
    <path
      class="mouth"
      d="m56.68,384.12c1.04,0.08 2.04,0.45 3.09,0.4c1.06,-0.05 2.08,-0.41 3.13,-0.54c0.38,-0.04 0.38,-0.65 0,-0.6c-1.05,0.12 -2.07,0.48 -3.13,0.54c-1.05,0.05 -2.06,-0.32 -3.09,-0.4c-0.39,-0.03 -0.39,0.58 0,0.6l0,0z"
    />
    <path
      class="nose"
      d="m58.17,368.57l0.68,4.24c0.14,0.86 1.07,1.34 1.85,0.95l2.33,-1.18c0.78,-0.39 0.95,-1.43 0.34,-2.05l-3.01,-3.07c-0.87,-0.89 -2.38,-0.13 -2.19,1.11z"
    />
  </g>

  <g class="stool">
    <polygon
      class="leg"
      points="351.7101135253906,662.9249877929688 333.0501403808594,663.3350219726562 306.3301086425781,498.93499755859375 324.6001281738281,495.9649963378906 "
    />
    <polygon
      class="leg"
      points="171.53012084960938,662.9249877929688 190.19015502929688,663.3350219726562 216.91012573242188,498.93499755859375 198.64010620117188,495.9649963378906 "
    />
    <path
      d="m330.77,505.14l-137.33,0c-4.02,0 -7.31,-3.29 -7.31,-7.31l0,-7.79c0,-4.02 3.29,-7.31 7.31,-7.31l137.33,0c4.02,0 7.31,3.29 7.31,7.31l0,7.79c0,4.02 -3.29,7.31 -7.31,7.31z"
    />
  </g>

  <g class="pencil">
    <path
      class="rubber"
      d="m310.42,136.47l-5.91,5.07c-0.93,0.8 -2.35,0.69 -3.15,-0.24l-6.38,-7.45c-0.8,-0.93 -0.69,-2.35 0.24,-3.15l5.91,-5.07c0.93,-0.8 2.35,-0.69 3.15,0.24l6.38,7.45c0.81,0.93 0.7,2.35 -0.24,3.15z"
    />
    <rect
      height="50.65"
      transform="matrix(0.739482 -0.673176 0.673176 0.739482 -20.1219 257.215)"
      width="12.66"
      x="315.93"
      y="129.28"
    />
    <polygon
      class="nib"
      points="345.32010574638844,178.11000537872314 344.4101326018572,172.3500108718872 339.5601570159197,177.17999744415283 "
    />
  </g>

  <g id="person1">
    <path
      class="skin"
      d="m284.92,474.98l-11.39,-1.4c-1.06,-0.13 -1.81,-1.1 -1.68,-2.15l2.18,-17.79c0.13,-1.06 1.1,-1.81 2.15,-1.68l11.39,1.4c1.06,0.13 1.81,1.1 1.68,2.15l-2.18,17.79c-0.13,1.05 -1.09,1.81 -2.15,1.68z"
    />
    <path
      class="skin"
      d="m235,476.04l-11.36,-1.64c-1.05,-0.15 -1.79,-1.14 -1.64,-2.19l2.56,-17.74c0.15,-1.05 1.14,-1.79 2.19,-1.64l11.36,1.64c1.05,0.15 1.79,1.14 1.64,2.19l-2.56,17.74c-0.15,1.06 -1.14,1.79 -2.19,1.64z"
    />
    <g class="trousers">
      <path
        d="m309.17,456.72l-48.2,7.05l-0.85,-61.5c-0.03,-1.83 -0.21,-3.66 -0.56,-5.46l-15.05,-78.51l30.74,-5.15l17.58,75.55c0.14,0.8 0.32,1.59 0.54,2.37l8.39,33.15l7.41,32.5z"
      />
      <path
        d="m259.18,464.58l-48.7,-1.05l9.32,-63.56c0.28,-1.89 0.4,-3.81 0.35,-5.72l-1.88,-83.55l31.17,0l4.85,80.94c0.01,0.85 0.06,1.7 0.14,2.54l2.79,35.62l1.96,34.78z"
      />
    </g>
    <path
      class="skin"
      d="m151.94,292.23l-0.43,-1.3c-1.65,-3.51 -0.12,-7.73 3.39,-9.37l2.81,-1.32c3.51,-1.65 7.73,-0.12 9.37,3.39l0.53,1.13c1.65,3.51 0.12,7.73 -3.39,9.37l-2.81,1.32c-3.51,1.64 -7.82,0.29 -9.47,-3.22z"
    />
    <path
      class="shoes"
      d="m253.75,486.01l-30.04,0c-2.46,0 -4.46,-2.37 -4.46,-5.29l0,-6.82c0,-3.32 2.55,-5.82 5.3,-5.19l30.04,6.82c1.94,0.44 3.4,2.34 3.6,4.67l0,0c0.26,3.11 -1.8,5.81 -4.44,5.81z"
    />
    <path
      class="shoes"
      d="m303.42,486.98l-30.04,0c-2.46,0 -4.46,-2.37 -4.46,-5.29l0,-6.82c0,-3.32 2.55,-5.82 5.3,-5.19l30.04,6.82c1.94,0.44 3.4,2.34 3.6,4.67l0,0c0.26,3.11 -1.8,5.81 -4.44,5.81z"
    />
    <path
      class="skin"
      d="m319.74,170.6l-0.77,-0.41c-3.51,-1.87 -4.86,-6.27 -2.99,-9.79l1.28,-2.41c1.87,-3.51 6.27,-4.86 9.79,-2.99l0.77,0.41c3.51,1.87 4.86,6.27 2.99,9.79l-1.28,2.41c-1.87,3.52 -6.27,4.86 -9.79,2.99z"
    />
    <g class="top">
      <path
        d="m238.18,237.71c2.85,-3.71 -0.81,-10.54 -6.74,-8.78c-28.15,8.4 -40.79,39.52 -68.98,47.02c-2.44,0.65 -4.1,3.4 -3.91,5.74c0.35,4.22 2.46,7.26 3.69,11.32c1.16,3.83 5.62,2.92 8.15,1.45c10.43,-6.07 21.44,-10.81 33.02,-14.42c10.79,-3.36 21.6,-6.41 31.13,-12.57c2.41,-1.56 2.92,-3.89 2.29,-5.95c0.44,-0.62 0.77,-1.38 0.92,-2.3c1.09,-6.73 1.35,-13.45 0.68,-20.23c-0.05,-0.46 -0.13,-0.88 -0.25,-1.28z"
      />
      <path
        d="m296.1,256.58c-0.54,-7.66 0.74,-15.28 3.68,-21.87l28.07,-62.83l-13.1,-11.4l-33.11,54.82c-3.5,5.79 -8.83,9.34 -14.67,9.75l-7.93,0.56c-2.2,-0.49 -4.52,-0.8 -6.98,-0.88l0,0c-5.26,-0.16 -10.15,0.71 -14.62,2.41l-6.14,0.44c-4.45,0.32 -4.99,2.38 -7.13,8.09c-7.54,7.31 -12.65,17.65 -14.57,29.05c-5.11,30.32 -36.76,117.36 -36.76,117.36s13.51,-9.14 30.49,-16.23c16.06,-6.71 35.4,-11.34 43.28,-13.7c12.98,-3.9 66.8,0.71 66.8,0.71s-7.9,-32.13 -14.67,-59.17l-2.64,-37.11z"
      />
    </g>
    <path
      class="hair"
      d="m290.89,236.54c0,0 -20.89,-0.63 -31.44,2.54c-6.4,1.92 -22.13,5.68 -35.18,11.13c-13.8,5.77 -22.85,0.64 -22.85,0.64s23.8,-58.18 27.95,-82.82c3.06,-18.18 16.09,-33.05 34.52,-32.5l0,0c18.43,0.56 31.32,15.76 32.5,34.52c1.03,16.65 -5.5,66.49 -5.5,66.49z"
    />
  </g>
</svg>
