<svg xmlns="http://www.w3.org/2000/svg" viewBox="0 0 2628 1833" width="2628" height="1833">

  <style>
    :root {
      --color-red-700: rgb(169 0 18);
      --color-heart: var(--color-red-700);
    }

    .heart {
      fill: var(--color-heart);
    }

    @media screen and (forced-colors: active) {
      :root {
        --color-heart: CanvasText;
      }
    }
  </style>


  <g clip-path="url(#a)">
    <path
      class="heart"
      d="M967.203 2222.69c25.087-11.23 50.847-22.72 77.187-34.47 300.34-133.93 675.96-301.44 985.97-506.45-108.2-111.83-228.51-229.22-308.81-232.38-56.14-2.23-139.06-45.24-207.35-80.65-14.46-7.5-28.26-14.66-41.02-21.02-22.92-11.43-70.4-17.64-119.55-24.06-77.9-10.18-159.99-20.91-155.13-53.85-1.12-35.36 99.38-16.54 135.24-7.84 18.17 4.33 110.24 17.46 110.62-2.22-5.1-16.96-101.43-48.5-144.05-62.45-6.37-2.09-11.54-3.78-15.03-4.97-8.35-2.88-18.56-5.64-29.53-8.61-51.35-13.87-119.41-32.27-91.95-88.59 14.09-15.82 50.58-3.76 97.35 11.7 32.89 10.88 70.86 23.43 109.71 29.15 8.55 1.32 18.24 5.41 28 9.52 16.62 7.01 33.44 14.1 45.15 7.75-4.61-18.92-176.95-117.04-207.32-130.38-29.1-12.77-97.12-42.771-50.26-82.385 24-20.134 73.46 6.356 101.21 21.218 2.03 1.085 3.94 2.109 5.71 3.048 15.21 8.027 31.44 15.119 47.6 22.18 19.65 8.589 39.21 17.129 56.69 27.259 1.84 1.1 5.6 3.73 10.62 7.22 28.41 19.8 97.07 67.64 84.83 26.39-5.81-19.83-60.13-62.549-111.9-103.272-47.5-37.356-92.87-73.035-96.7-87.83 1.23-98.88 195.89 55.5 222.22 78.579 6.67 5.875 13.41 12.054 20.26 18.325 31.06 28.459 64.19 58.808 101.38 71.208 35.22 11.64 84.73 24.9 114.35-.93 14.08-13.08 9.94-51.307 5.31-94.119-6.65-61.378-14.31-132.175 29.23-151.766 40.79-2.455 42.13 25.404 44.41 73.071 2.01 41.904 4.76 99.116 35.68 164.494 16.11 34.04 20.26 75.73 24.37 117.07 4.48 44.99 8.92 89.58 28.68 123.45 32.93 56.79 193.67 180.52 325.3 275.3 237.65-195.05 399.75-419.52 391.58-676.15-22.36-701.813-833.95-929.797-1202.05-631.073C1224.13-205.15 394.323-353.713 68.287 268.172-14.797 426.652-16.6 607.136 33.51 796.448c165.593-27.322 409.156-74.427 470.307-115.75 32.548-21.872 55.979-60.067 79.623-98.611 21.725-35.415 43.631-71.124 72.955-94.737 56.334-45.362 83.741-95.657 103.815-132.495 22.835-41.904 36.181-66.396 71.826-46.406 30.649 36.613-7.11 96.99-39.846 149.334-22.832 36.51-43.22 69.111-36.248 87.014 15.396 36.172 65.74 45.813 102.505 50.683 38.878 5.056 81.912-7.814 122.266-19.884 8.901-2.662 17.672-5.285 26.236-7.668 33.76-9.297 276.25-63.391 234.25 26.14-9.89 11.645-66.27 23.981-125.3 36.897-64.35 14.081-131.855 28.85-145.728 44.166-28.997 31.781 53.608 18.663 87.828 13.23 6.05-.961 10.59-1.681 12.72-1.871 20.16-1.498 41.49-.664 62.93.174 17.61.689 35.3 1.381 52.48.784 2-.07 4.16-.158 6.46-.251 31.45-1.282 87.52-3.567 100.35 25.022 24.91 56.078-49.39 53.433-81.14 52.229-33.15-1.218-231.029 11.964-243.419 26.98 7.767 10.816 25.99 11.767 43.999 12.708 10.58.552 21.09 1.101 29.36 3.641 37.46 11.78 77.11 17.035 111.45 21.586 48.83 6.473 86.92 11.522 92.72 31.898.15 62.662-69.12 49.552-121.38 39.661-11.17-2.114-21.56-4.081-30.33-5.13-3.65-.446-9.03-1.175-15.66-2.073-44.42-6.02-144.911-19.637-156.899-6.588-8.24 17.875 80.359 46.187 98.589 50.213 36.08 7.797 134.72 34.667 118.31 66.006-9.99 31.75-88.55 5.63-163.095-19.154-47.036-15.64-92.477-30.75-118.091-30.456-14.265.163-29.827.589-46.129 1.036-76.882 2.105-170.222 4.661-221.72-17.796-81.57-35.62-268.419 33.486-425.817 91.7-13.44 4.97-26.667 9.86-39.594 14.6 181.216 394.85 525.182 802.99 787.672 1114.45 18.61 22.08 36.811 43.68 54.515 64.75l.922.21Z"
    />
  </g>
  <defs>
    <clipPath id="a">
      <path d="M0 0h2628v1833H0z" />
    </clipPath>
  </defs>
</svg>
