<svg xmlns="http://www.w3.org/2000/svg" viewBox="0 0 107 97">
  <title xml:lang="en">PREreview</title>

  <style>
    :root {
      --color-text: rgb(52, 58, 64);
    }

    #text {
      fill: var(--color-text);
    }

    #logo {
      fill: none;
      stroke: var(--color-text);
    }

    .primary {
      fill: var(--color-text);
      stroke-width: 0;
    }

    @media screen and (forced-colors: active) {
      :root {
        --color-primary: CanvasText;
        --color-text: CanvasText;
      }
    }
  </style>

  <g id="text">
    <g class="primary">
      <path
        d="M8.42 88.32a3.72 3.72 0 0 1-1.24 3 5.2 5.2 0 0 1-3.49 1h-1.1v4.28H0V84.5h3.88a4.86 4.86 0 0 1 3.37 1 3.62 3.62 0 0 1 1.17 2.82Zm-5.85 1.91h.85a3 3 0 0 0 1.8-.45 1.8 1.8 0 0 0 .62-1.35 1.53 1.53 0 0 0-.51-1.35 2.26 2.26 0 0 0-1.57-.45H2.59Z"
      />
      <path
        d="M15.69 91.98v4.62h-2.53V84.5h3.54a5.94 5.94 0 0 1 3.65.9 3.61 3.61 0 0 1 .62 4.67 4.25 4.25 0 0 1-1.69 1.29c1.86 2.76 3 4.5 3.6 5.29h-2.86l-2.92-4.67Zm0-2.08h.84a3.37 3.37 0 0 0 1.8-.39 1.41 1.41 0 0 0 .56-1.29 1.26 1.26 0 0 0-.62-1.24 4.07 4.07 0 0 0-1.85-.38h-.79Z"
      />
      <path d="M33.74 96.6h-7V84.5h7v2.1H29.3v2.7h4.12v2.14h-4.1v3.16h4.44Z" />
    </g>
    <path
      d="M39.7 91.36v5.24h-.84V84.5h2.86a5.33 5.33 0 0 1 3.32.84 3.1 3.1 0 0 1 1.07 2.53 3.91 3.91 0 0 1-.62 2.08 3.82 3.82 0 0 1-2 1.24l3.32 5.51h-1l-3.15-5.29h-3v-.06Zm0-.73h2.31a3.54 3.54 0 0 0 2.36-.67 2.49 2.49 0 0 0 .84-2 2.33 2.33 0 0 0-.84-2 4.77 4.77 0 0 0-2.7-.62h-2Z"
    />
    <path d="M58.03 96.6h-6.61V84.5h6.63v.79h-5.79v4.61h5.45v.79h-5.45v5.23h5.79Z" />
    <path d="M70.34 84.5h.9l-4.49 12.1h-.73l-4.6-12.1h.9l3.09 8.27c.45 1.24.79 2.19 1 2.81.11-.39.34-1.07.67-1.91Z" />
    <path d="M75.42 96.6V84.5h.84v12.1Z" />
    <path d="M88.68 96.6h-6.63V84.5h6.63v.79h-5.79v4.61h5.45v.79h-5.45v5.23h5.79Z" />
    <path
      d="M103.52 96.6h-.67l-2.7-9.39c-.22-.79-.39-1.41-.51-1.91-.11.51-.22 1.07-.39 1.69s-1.07 3.82-2.7 9.62h-.73l-3.4-12.11h.9l2.14 7.82.22.9a2.78 2.78 0 0 0 .22.73 3 3 0 0 1 .17.67 2.82 2.82 0 0 1 .11.67 28.85 28.85 0 0 1 .84-3.43l2.08-7.37h1l2.42 8.43c.28 1 .51 1.74.62 2.36.06-.39.17-.84.28-1.29s1-3.65 2.59-9.56h.84Z"
    />
  </g>

  <g id="logo">
    <path d="M-32.9 80.6" />
    <path
      d="M67.99 62.2H29.53a1.88 1.88 0 0 1-1.82-1.82V2.32A1.88 1.88 0 0 1 29.53.5H77.3a1.88 1.88 0 0 1 1.82 1.82v58.05"
    />
    <path class="primary" d="m63.7 66.27 6.96-4.07-6.96-4.07" />
    <path d="M39.17 16.46h28.81" />
    <path d="M39.17 31.56h28.81" />
    <path d="M39.17 46.77h28.81" />
  </g>
</svg>
