<svg xmlns="http://www.w3.org/2000/svg" viewBox="54.6 59.4 106.7 96.8">
  <title xml:lang="en">PREreview</title>

  <style>
    :root {
      --color-black-800: rgb(24 24 24);
      --color-text: var(--color-black-800);
    }

    #text {
      fill: var(--color-text);
    }

    #logo {
      fill: none;
      stroke: var(--color-text);
    }

    .primary {
      fill: var(--color-text);
      stroke-width: 0;
    }

    @media screen and (forced-colors: active) {
      :root {
        --color-primary: CanvasText;
        --color-text: CanvasText;
      }
    }
  </style>

  <g id="text">
    <g class="primary">
      <path
        d="M63,147.7c0.1,1.1-0.4,2.2-1.2,3c-1,0.7-2.2,1.1-3.5,1h-1.1v4.3h-2.6v-12.1h3.9c1.2-0.1,2.4,0.2,3.4,1 C62.6,145.6,63.1,146.6,63,147.7z M57.2,149.6H58c0.6,0.1,1.2-0.1,1.8-0.4c0.4-0.3,0.6-0.8,0.6-1.3c0.1-0.5-0.1-1-0.5-1.3 c-0.4-0.3-1-0.5-1.6-0.4h-1.2L57.2,149.6z"
      />
      <path
        d="M70.3,151.4v4.7h-2.5v-12.1h3.5c1.6,0,2.9,0.3,3.7,0.9c1.3,1.2,1.6,3.1,0.6,4.7c-0.4,0.6-1,1-1.7,1.3 c1.9,2.8,3,4.5,3.6,5.3h-2.9l-2.9-4.7H70.3z M70.3,149.3h0.8c0.6,0.1,1.2-0.1,1.8-0.4c0.4-0.3,0.6-0.8,0.6-1.3 c0.1-0.5-0.2-1-0.6-1.2c-0.6-0.3-1.2-0.4-1.9-0.4h-0.8L70.3,149.3z"
      />
      <path d="M88.3,156h-7v-12.1h7v2.1h-4.4v2.7H88v2.1h-4.1v3.1h4.4V156z" />
    </g>
    <path
      d="M94.3,150.8v5.3h-0.8v-12.1h2.9c1.5,0,2.6,0.3,3.3,0.8c0.7,0.6,1.1,1.6,1.1,2.5c0,0.7-0.2,1.5-0.6,2.1 c-0.5,0.6-1.2,1-2,1.2l3.3,5.5h-1l-3.1-5.3L94.3,150.8L94.3,150.8L94.3,150.8z M94.3,150h2.3c0.8,0.1,1.7-0.2,2.4-0.7 c0.6-0.5,0.9-1.2,0.8-2c0.1-0.8-0.2-1.5-0.8-2c-0.6-0.4-1.5-0.6-2.7-0.6h-2L94.3,150z"
    />
    <path d="M112.6,156H106v-12.1h6.6v0.8h-5.8v4.6h5.5v0.8h-5.5v5.2h5.8V156z" />
    <path
      d="M124.9,143.9h0.9l-4.5,12.1h-0.7l-4.6-12.1h0.9l3.1,8.3c0.4,1.2,0.8,2.2,1,2.8c0.1-0.4,0.3-1.1,0.7-1.9L124.9,143.9z"
    />
    <path d="M130,156v-12.1h0.8V156H130z" />
    <path d="M143.3,156h-6.6v-12.1h6.6v0.8h-5.8v4.6h5.5v0.8h-5.5v5.2h5.8V156z" />
    <path
      d="M158.1,156h-0.7l-2.7-9.4c-0.2-0.8-0.4-1.4-0.5-1.9c-0.1,0.5-0.2,1.1-0.4,1.7c-0.2,0.6-1.1,3.8-2.7,9.6h-0.7l-3.4-12.1 h0.9l2.1,7.8l0.2,0.9c0.1,0.3,0.1,0.5,0.2,0.7c0.1,0.2,0.1,0.4,0.2,0.7s0.1,0.4,0.1,0.7c0.1-0.7,0.4-1.9,0.8-3.4l2.1-7.4h1 l2.4,8.4c0.3,1,0.5,1.7,0.6,2.4c0.1-0.4,0.2-0.8,0.3-1.3c0.1-0.4,1-3.7,2.6-9.6h0.8L158.1,156z"
    />
  </g>

  <g id="logo">
    <path
      d="M122.6,121.6H84.1c-1,0-1.8-0.9-1.8-1.8l0,0V61.7c0-1,0.9-1.8,1.8-1.8l0,0h47.8c1,0,1.8,0.9,1.8,1.8l0,0v58.1 "
    />
    <polyline class="primary" points="118.3,125.7 125.2,121.6 118.3,117.5 " />
    <line x1="93.8" y1="75.9" x2="122.6" y2="75.9" />
    <line x1="93.8" y1="91" x2="122.6" y2="91" />
    <line x1="93.8" y1="106.2" x2="122.6" y2="106.2" />
  </g>
</svg>
