<svg xmlns="http://www.w3.org/2000/svg" viewBox="0 0 518.37098 550.92795" width="518.37097" height="550.92798">
  <title xml:lang="en">AfricArXiv</title>

  <style>
    :root {
      --color-text: rgb(0 0 0);
    }

    .text {
      fill: var(--color-text);
    }

    @media screen and (forced-colors: active) {
      :root {
        --color-text: CanvasText;
      }

      .symbol path {
        fill: var(--color-text);
      }
    }
  </style>

  <clipPath clipPathUnits="userSpaceOnUse" id="clipPath662">
    <rect x="60.764442" width="455.57001" height="548.96002" y="1.8953664" />
  </clipPath>

  <clipPath clipPathUnits="userSpaceOnUse" id="clipPath670">
    <rect x="60.764442" width="455.57001" height="548.96002" y="1.8953664" />
  </clipPath>

  <clipPath clipPathUnits="userSpaceOnUse" id="clipPath678">
    <rect x="60.764442" width="455.57001" height="548.96002" y="1.8953664" />
  </clipPath>

  <clipPath clipPathUnits="userSpaceOnUse" id="clipPath686">
    <rect x="60.764442" width="455.57001" height="548.96002" y="1.8953664" />
  </clipPath>

  <clipPath clipPathUnits="userSpaceOnUse" id="clipPath694">
    <rect x="60.764442" width="455.57001" height="548.96002" y="1.8953664" />
  </clipPath>

  <clipPath clipPathUnits="userSpaceOnUse" id="clipPath702">
    <rect x="60.764442" width="455.57001" height="548.96002" y="1.8953664" />
  </clipPath>

  <clipPath clipPathUnits="userSpaceOnUse" id="clipPath710">
    <rect x="60.764442" width="455.57001" height="548.96002" y="1.8953664" />
  </clipPath>

  <clipPath clipPathUnits="userSpaceOnUse" id="clipPath718">
    <rect x="60.764442" width="455.57001" height="548.96002" y="1.8953664" />
  </clipPath>

  <clipPath clipPathUnits="userSpaceOnUse" id="clipPath726">
    <rect x="60.764442" width="455.57001" height="548.96002" y="1.8953664" />
  </clipPath>

  <clipPath clipPathUnits="userSpaceOnUse" id="clipPath734">
    <rect x="60.764442" width="455.57001" height="548.96002" y="1.8953664" />
  </clipPath>

  <clipPath clipPathUnits="userSpaceOnUse" id="clipPath742">
    <rect x="60.764442" width="455.57001" height="548.96002" y="1.8953664" />
  </clipPath>

  <clipPath clipPathUnits="userSpaceOnUse" id="clipPath750">
    <rect x="60.764442" width="455.57001" height="548.96002" y="1.8953664" />
  </clipPath>

  <clipPath clipPathUnits="userSpaceOnUse" id="clipPath758">
    <rect x="60.764442" width="455.57001" height="548.96002" y="1.8953664" />
  </clipPath>

  <clipPath clipPathUnits="userSpaceOnUse" id="clipPath766">
    <rect x="60.764442" width="455.57001" height="548.96002" y="1.8953664" />
  </clipPath>

  <clipPath clipPathUnits="userSpaceOnUse" id="clipPath774">
    <rect x="60.764442" width="455.57001" height="548.96002" y="1.8953664" />
  </clipPath>

  <clipPath clipPathUnits="userSpaceOnUse" id="clipPath782">
    <rect x="60.764442" width="455.57001" height="548.96002" y="1.8953664" />
  </clipPath>

  <clipPath clipPathUnits="userSpaceOnUse" id="clipPath790">
    <rect x="60.764442" width="455.57001" height="548.96002" y="1.8953664" />
  </clipPath>

  <clipPath clipPathUnits="userSpaceOnUse" id="clipPath798">
    <rect x="60.764442" width="455.57001" height="548.96002" y="1.8953664" />
  </clipPath>

  <clipPath clipPathUnits="userSpaceOnUse" id="clipPath806">
    <rect x="60.764442" width="455.57001" height="548.96002" y="1.8953664" />
  </clipPath>

  <clipPath clipPathUnits="userSpaceOnUse" id="clipPath814">
    <rect x="60.764442" width="455.57001" height="548.96002" y="1.8953664" />
  </clipPath>

  <clipPath clipPathUnits="userSpaceOnUse" id="clipPath822">
    <rect x="60.764442" width="455.57001" height="548.96002" y="1.8953664" />
  </clipPath>

  <clipPath clipPathUnits="userSpaceOnUse" id="clipPath830">
    <rect x="60.764442" width="455.57001" height="548.96002" y="1.8953664" />
  </clipPath>

  <g class="symbol">
    <path
      fill="#fcc300"
      d="m 163.28444,242.00537 c -7.28,1.26 -14.48,1.17 -21.28,-2 -4.36,-2 -8,-1.39 -10,2.82 -3.56,7.42 -9,6.52 -14.85,3.92 -6.3,-2.78 -12.49,-5.8 -18.719999,-8.72 -0.5,-5 3.999999,-5.43 6.849999,-7 53.53,-29.61 107.32,-58.76 160.92,-88.26 4.33,-2.38 7.85,-6 12.59,-7.69 8.9,-3 16.5,-8.69 25.1,-12.31 3.2,-1.35 6.26,-3.47 10.06,-2.8 15.48,-2.1 28.85,-10.19 43.25,-15.34 14.4,-5.150004 28.81,-10.860004 42.86,-17.120004 6.07,-2.7 9,-1.22 11.6,4.11 3,6.22 5.37,12.590004 5.84,19.540004 -8,8.07 -18.68,12.08 -28.51,17 -56,27.91 -111.06,57.7 -167,85.74 q -20.72,10.39 -41.05,21.65 c -2.67,1.88 -5.41,3.61 -8.84,3.64 -2.88,1.06 -6,1.48 -8.77,2.86"
      clip-path="url(#clipPath830)"
    />
    <path
      fill="#d1611f"
      d="m 349.41444,50.775366 a 57.59,57.59 0 0 0 19.8,-4.34 c 9.28,-3.71 15.7,-1 19.36,8.27 -2.82,6.32 -9.19,8 -14.56,10.95 -31.67,17.18 -63.34,34.370004 -94.7,52.110004 -16.88,7.86 -32.19,18.72 -49.47,25.81 -4.85,1 -9.19,3.36 -13.85,4.89 a 11.21,11.21 0 0 1 -5.11,1 q -52.66,23.11 -105.3,46.25 c -11.099999,4.89 -22.209999,9.78 -33.159999,15 -4.84,2.3 -7.77,2.54 -8.94,-3.76 -1.84,-9.95 -4.27,-19.8 -1.37,-29.93 38.269999,-16.97 76.469999,-34.13 114.719999,-51.13 52.51,-23.54 105.15,-46.780004 157.58,-70.480004 4.83,-2.19 10.12,-2.71 15,-4.66"
      clip-path="url(#clipPath822)"
    />
    <path
      fill="#782011"
      d="m 244.95444,283.56537 c -0.19,-7.14 0.92,-14.34 -2.74,-21.15 -2.8,-5.23 3.07,-5 5.16,-6.07 33.17,-17.18 66.51,-34 99.8,-51 28.33,-14.43 56.74,-28.72 84.9,-43.49 6.15,-3.23 9.81,-3 13.33,3.23 3.93,7 14.72,12.47 13,19.13 -1.32,5.14 -12.68,7.76 -19.63,11.4 q -23.91,12.51 -47.88,24.94 c -1.58,3.63 -5.18,5.24 -7.84,7.79 -16.37,6.22 -31,16.14 -47.52,22.11 -12.1,2.22 -23,7.83 -34.08,12.6 -15.09,6.47 -30.49,12.16 -45.45,18.94 -3.35,1.52 -6.93,4.27 -11.06,1.59"
      clip-path="url(#clipPath814)"
    />
    <path
      fill="#43aab9"
      d="m 279.58444,476.33537 c -2.75,-11.83 -7.66,-22.86 -13,-33.66 -2.19,-4.44 -1.27,-6 3,-7.78 q 83.88,-34.17 167.59,-68.72 c 5.08,-2.09 6.57,-0.35 6.92,4.19 1.05,13.74 -0.44,26.82 -10,37.76 -8.81,7.19 -19.79,10 -29.92,14.47 -40.25,17.62 -80.77,34.64 -120.83,52.69 a 15.62,15.62 0 0 1 -3.78,1.05"
      clip-path="url(#clipPath806)"
    />
    <path
      fill="#fcc300"
      d="m 234.11444,16.715366 c 7.07,1.1 13,-3.77 21.39,-4.34 -9.35,11.8 -0.95,18.31 7.14,26 l -186.999999,61.37 c 6.1,-10.42 12.39,-17.15 18.37,-24.12 12.639999,-10.62 28.809999,-14.14 43.269999,-21.07 17.5,-8.38 35.79,-15.08 53.35,-23.4 11.29,-4.57 22.38,-9.65 34,-13.36 3,-1 6,-3 9.44,-1.11"
      clip-path="url(#clipPath798)"
    />
    <path
      fill="#3a2a1f"
      d="m 279.58444,476.33537 c 0.51,-3.12 3.12,-3.9 5.5,-4.93 q 72.15,-31.15 144.31,-62.27 a 24.28,24.28 0 0 1 4.72,-1 c -6.59,16 -17.33,28.49 -33.1,35.52 -37.05,16.51 -74.51,32.09 -111.57,48.59 -8.1,3.6 -9.45,1.31 -8.95,-6.14 0.21,-3.22 -0.58,-6.51 -0.91,-9.76"
      clip-path="url(#clipPath790)"
    />
    <path
      fill="#4aa435"
      d="m 400.94444,451.24537 c -37.91,19.57 -74.13,38.67 -110.79,56.88 -9.42,4.69 -11.08,9.79 -6.23,18.24 2.06,7.64 7.42,12.45 14,16.23 3.15,0.79 5.8,-0.66 8.48,-1.92 23.87,-11.18 46.62,-24.53 70.31,-36.07 2.77,-1.36 4.64,-3.58 6.6,-5.77 1.85,-5.13 8.47,-6.41 9.73,-12 v 0 c -1.13,-12.07 9.05,-22 7.91,-35.57"
      clip-path="url(#clipPath782)"
    />
    <path
      fill="#4aa435"
      d="m 507.39444,398.44537 c -1.69,20.88 -5.34,40.63 -27.87,50 -3.25,1.36 -6.16,3.53 -9.22,5.32 -1.41,2.51 -3.82,3.8 -6.24,5.07 -2.52,1 -5,2.8 -7.68,0.34 -2.48,-11.8 5.61,-22.15 4.39,-34.24 -0.59,-5.79 7.79,-10.64 13.9,-9.67 8.69,1.38 10.88,-3.67 13.62,-9.32 5.57,-4.53 11.24,-8.8 19.1,-7.52"
      clip-path="url(#clipPath774)"
    />
    <path
      fill="#3a2a1f"
      d="m 515.58444,203.89537 c -1.12,-5.85 -3.69,-8.85 -10,-4.63 a 31.54,31.54 0 0 1 -13.43,5.51 51.11,51.11 0 0 1 -5,2.84 q -118.22,51.07 -236.42,102.1 l 4.05,5.39 9.49,11.88 122.65,-53.65 46.91,-19.38 c 2.5,-1.32 5.29,-1.45 8,-2 0.3,-0.62 0.6,-1.23 0.89,-1.85 5.76,-2.77 13.07,-2.1 17.49,-7.86 2.92,-1.4 5.87,-2.77 8.77,-4.22 15.3,-7.64 32.09,-12.09 46.49,-21.65 a 1.75,1.75 0 0 1 -1,-0.57 c 0.33,0.18 0.66,0.36 1,0.57 1.39,-4.17 0.87,-8.41 0.08,-12.54"
      clip-path="url(#clipPath766)"
    />
    <path
      fill="#fcc300"
      d="m 297.91444,542.59537 85.39,-43.76 c 1.48,7.81 -2.9,12.05 -9.12,15.48 -9.68,5.34 -19.22,11 -28.82,16.44 -11.63,7.66 -23.25,15.36 -37.67,16.81 -3.89,-0.42 -7.34,-1.7 -9.78,-5"
      clip-path="url(#clipPath758)"
    />
    <path
      fill="#3a2a1f"
      d="m 193.25444,10.375366 c -5.16,3.14 -10.59,7.69 -15.74,8.79 -16.85,3.61 -31.06,13.21 -47.1,18.31 -7.63,2.42 -11.3,7.09 -11.07,15 -3.13,5.67 -8.07,9.22 -13.81,11.93 -5.12,2.41 -9.999999,5.16 -11.479999,11.28 l 97.589999,-42.59 v 0 l 42.46,-16.35 c 4,-6 12.6,-4.72 17.19,-10.5899996 -20.23,-5.52 -39.44,-7.06 -58.05,4.2499996"
      clip-path="url(#clipPath750)"
    />
    <path
      fill="#fcc300"
      d="m 472.41444,455.68537 18,-5.46 c 0.57,5.85 -0.82,10.81 -2.71,15.72 -9.62,8.09 -20.55,13.32 -33.12,14.88 -1.63,-6.15 0.05,-12 1.59,-17.87 2.9,-3.59 7.42,-4.28 11.23,-6.22 1.54,-1 3.4,-0.4 5,-1"
      clip-path="url(#clipPath742)"
    />
    <path
      fill="#782111"
      d="m 454.58444,480.82537 33.13,-14.93 c -2.07,9.59 -2,20.23 -14.48,23.81 -10.3,2.94 -13.87,1.6 -18.64,-8.92"
      clip-path="url(#clipPath734)"
    />
    <path
      fill="#782111"
      d="m 307.69444,547.56537 37.67,-16.81 c -7.55,17.6 -23.94,24.91 -37.67,16.81"
      clip-path="url(#clipPath726)"
    />
    <path
      fill="#3a2a1f"
      d="m 388.58444,54.705366 q -55.21,30.59 -110.43,61.190004 v 0 l -48.38,25.55 c -4.59,1.91 -8.69,4.84 -13.44,6.41 -1.87,1.2 -4.29,1.67 -5.29,4 l -36,21.1 -54.21,27.62 c -15.53,2.68 -28.999999,11.07 -43.719999,15.83 -9.11,2.94 -7.3,6.11 -1.09,10.2 5.81,7 14.37,8.73 22.4,11.45 q 39.219999,-21.76 78.439999,-43.53 51.58,-28.63 103.22,-57.19 l 33.83,-17.38 c -0.14,-2.37 2,-2.1 3.29,-2.82 l 76.38,-42.530004 c 0.28,-7.13 -2.28,-13.54 -5,-19.9"
      clip-path="url(#clipPath718)"
    />
    <path
      fill="#3a2a1f"
      d="m 507.39444,398.44537 -19.1,7.52 c 1.57,-3.83 2.91,-7.77 4.76,-11.45 2.36,-4.71 5.83,-10.05 11.44,-8.48 6.1,1.7 3,7.94 2.9,12.41"
      clip-path="url(#clipPath710)"
    />
    <path
      fill="#fcc300"
      d="m 438.35444,334.82537 c 0.58,-3.09 1.17,-6.18 1.75,-9.28 l -49.3,23.08 v 0 c -7.29,3 -14.65,5.82 -21.86,9 q -57.36,25.27 -114.6,50.6 a 12.19,12.19 0 0 0 1.23,13.9 c 3.08,3.69 7.17,-0.66 10.55,-1.89 q 76.95,-27.9 153.76,-56.15 c 6.77,-2.48 15.46,-3.58 19.57,-8.43 4.42,-5.23 -1.56,-13.66 -1.1,-20.83"
      clip-path="url(#clipPath702)"
    />
    <path
      fill="#fcc300"
      d="m 464.58444,244.31537 c -7.19,0.47 -14.07,2.5 -21.05,4.09 a 12,12 0 0 0 -2.49,1.34 c -2.26,1.88 -5.15,1.83 -7.77,2.58 -16.49,4.63 -31.39,13.28 -47.51,18.86 -36.4,16.28 -73.05,32 -109.71,47.65 -4.43,1.9 -9.64,2.87 -11.78,8.15 1.62,11.05 7.25,11.17 16.75,7.92 34.44,-11.8 69.22,-22.64 103.87,-33.84 v 0 l 2,2.06 a 14.64,14.64 0 0 0 6.92,-3 c 1.25,-0.25 2.49,-0.53 3.73,-0.84 9.54,-2.26 18.11,-7.05 27.28,-10.26 21.57,-10.48 44.12,-18.85 65,-30.74 10.45,-6.41 14.92,-17.27 22.28,-28.57 l -47.52,14.6"
      clip-path="url(#clipPath694)"
    />
    <path
      fill="#4aa435"
      d="m 426.82444,137.40537 c -4.16,-8.38 -7.89,-16.92 -9.36,-26.26 -3,1.33 -6.07,2.49 -9,4 q -58.37,30 -116.67,60.08 -56.46,29.27 -112.78,58.81 v 0 c -2.83,0.91 -4.28,4.3 -7.67,4.2 -3.39,-0.1 -5.86,1.54 -8.09,3.78 2.8,0.25 5.57,0.31 8,-1.47 3.29,0 6.61,-0.26 9.86,0.07 15.48,1.58 31.6,-3.68 46.51,4.56 2.83,1.56 5.47,-1.53 8,-2.82 q 40.29,-20.62 80.5,-41.43 53.4,-27.52 106.76,-55.03 c 3.05,-1.58 10,-2.27 3.94,-8.44"
      clip-path="url(#clipPath686)"
    />
    <path
      fill="#c22023"
      d="m 344.07444,50.345366 c -7.44,-1.59 -12.12,-7.72 -18.43,-11.17 -7.88,0.49 -15.46,1.11 -22,6.77 -7.77,6.68 -16.5,8.58 -25.31,1.15 -6.65,-5.61 -13.13,-4.55 -20.67,-0.9 -17.41,8.45 -35.27,16 -52.93,23.91 q -61.46,27.66 -122.869999,55.370004 c -13.09,4.28 -13.67,5.47 -10.66,18.51 2.2,9.52 6.17,19.54 -5,26.64 v 0 a 6.91,6.91 0 0 0 -4.06,6.39 c 2.52,3 4.8,0.52 7,-0.44 17.39,-7.64 34.789999,-15.27 52.089999,-23.11 18.27,-8.27 36.45,-16.75 54.67,-25.15 a 7.54,7.54 0 0 0 1.44,-0.67 42.4,42.4 0 0 0 4.64,-1.46 c 35.6,-15.79 71.38,-31.290004 106.82,-47.560004 20.21,-9.26 41.16,-16.94 60.61,-27.85 l -5.34,-0.43"
      clip-path="url(#clipPath678)"
    />
    <path
      fill="#c22023"
      d="m 423.85444,287.27537 v 0 l -26.87,10.33 a 25.67,25.67 0 0 0 -10.05,5.51 l -37.78,17.88 c -6.29,1.68 -12,4.62 -17.65,7.81 a 4.53,4.53 0 0 0 -4.28,2 362.63,362.63 0 0 0 -43.75,19.66 v 0 a 1,1 0 0 0 -1.31,0.44 14.44,14.44 0 0 0 -8.17,3.69 c -5.25,1.18 -11.15,2.89 -10.87,9.15 0.7,15.66 -4.74,29.9 -8.78,44.51 3.38,2.22 6.32,0.16 9.22,-1.12 42.59,-18.69 85,-37.81 127.53,-56.6 q 13.33,-5.89 26.61,-11.88 c 7.9,-3.55 16.55,-6 22.4,-13.08 3.08,-9.47 10.62,-16.44 14.47,-25.48 l 17.56,-24.4 c 3.73,-8 12.88,-10.52 17.74,-17.39 -22.84,7.77 -44.35,18.57 -66,29"
      clip-path="url(#clipPath670)"
    />
    <path
      fill="#43aab9"
      d="m 468.31444,196.03537 c -2.82,-3.87 -5.82,-1.08 -8.68,0.06 q -33.15,13.32 -66.29,26.69 c -3.79,0.35 -7.22,1.84 -10.67,3.29 l -46.9,21.89 v 0 c -5.09,-0.13 -9.48,2.16 -14,4 q -38.43,15.76 -76.83,31.59 -0.12,5.26 -0.22,10.51 v 0 a 37,37 0 0 0 6,15.63 c 6.41,1.78 11.42,-2.16 16.72,-4.35 15.19,-6.25 30.14,-13.15 45.14,-19.64 q 86,-37 171.94,-74.34 c 3.15,-1.37 7.26,-1.91 7.6,-6.61 -8.77,-0.66 -17.82,-0.49 -23.84,-8.72"
      clip-path="url(#clipPath662)"
    />
  </g>

  <g class="text">
    <path
      d="m 42.265213,262.66539 c -0.58175,0 -1.04715,0.4654 -1.8616,1.3962 -0.81445,1.27985 -2.44335,4.30495 -3.4905,5.70115 -0.2327,0.34905 -0.2327,0.58175 -0.2327,0.9308 0,0.58175 -0.2327,1.51255 -0.6981,2.44335 -5.1194,12.5658 -18.3833,47.7035 -21.05935,53.63735 -3.374149,7.56275 -4.886699,7.9118 -10.7041991,9.88975 -1.74525,0.58175 -2.5596999,1.6289 -2.5596999,2.327 0,0.6981 0.5817499,1.1635 2.6760499,1.1635 1.74525,0 7.7954501,-0.58175 12.1003991,-0.58175 4.30495,0 7.2137,0.34905 9.19165,0.34905 1.51255,0 3.2578,-0.34905 3.2578,-1.51255 0,-0.81445 -1.1635,-1.51255 -3.14145,-2.0943 -5.23575,-1.6289 -5.70115,-3.60685 -5.70115,-5.00305 0,-2.90875 3.0251,-12.7985 6.0502,-20.36125 0.2327,-0.34905 0.81445,-0.9308 1.27985,-0.9308 2.44335,-0.34905 12.68215,-0.4654 19.0814,-0.4654 3.37415,0 3.83955,0.6981 3.9559,1.1635 2.67605,7.4464 5.5848,15.1255 6.5156,19.89585 0.4654,2.44335 0.9308,4.77035 -4.654,5.93385 -2.0943,0.34905 -2.7924,1.27985 -2.7924,1.8616 0,0.58175 0.6981,1.3962 3.60685,1.3962 2.90875,0 4.53765,-0.2327 8.26085,-0.2327 5.1194,0 10.82055,0.58175 14.6601,0.58175 2.90875,0 3.7232,-0.6981 3.7232,-1.51255 0,-0.81445 -0.9308,-1.3962 -2.7924,-1.97795 -5.23575,-1.27985 -7.09735,-2.21065 -10.9369,-11.75135 -1.97795,-4.77035 -10.7042,-27.80765 -16.7544,-44.79475 -2.21065,-6.0502 -4.1886,-11.28595 -5.1194,-14.4274 -0.9308,-2.5597 -1.3962,-3.0251 -1.8616,-3.0251 z m 5.23575,41.6533 c -3.83955,0.34905 -13.4966,0.2327 -18.1506,0.34905 -0.4654,0 -0.6981,-0.34905 -0.58175,-0.81445 0.9308,-3.60685 6.981,-19.89585 9.0753,-25.48065 0.34905,-0.81445 0.58175,-0.6981 0.9308,0 1.04715,1.6289 7.09735,19.0814 9.0753,25.01525 0.11635,0.34905 -0.2327,0.9308 -0.34905,0.9308 z"
    />
    <path
      d="m 100.08856,294.19624 c -0.349053,0 -0.698103,-0.58175 -0.698103,-1.04715 0,-15.24185 1.047153,-21.52475 3.839553,-26.41145 2.0943,-3.37415 4.4213,-4.77035 7.2137,-4.77035 3.0251,0 5.93385,1.6289 8.1445,3.60685 1.6289,1.6289 2.327,2.327 3.14145,2.327 0.6981,0 1.51255,-0.11635 2.0943,-0.34905 1.6289,-0.58175 3.14145,-3.2578 3.14145,-4.8867 0,-1.3962 -0.81445,-3.0251 -1.97795,-3.9559 -1.8616,-1.51255 -5.00305,-2.21065 -7.4464,-2.21065 -4.4213,0 -8.6099,1.27985 -13.2639,4.77035 -5.119403,3.7232 -8.028151,7.9118 -10.471501,13.7293 -2.0943,5.00305 -2.67605,10.35515 -2.90875,17.33615 0,0.58175 -0.6981,1.27985 -1.51255,1.97795 -2.67605,2.0943 -5.5848,3.37415 -5.70115,3.83955 -0.34905,0.81445 0.4654,1.97795 1.04715,1.97795 1.27985,-0.2327 3.7232,-0.2327 4.8867,-0.2327 0.4654,0 1.1635,0.34905 1.1635,4.30495 0,6.2829 -0.11635,20.2449 -0.2327,25.01525 -0.11635,5.23575 -0.2327,6.39925 -5.23575,7.79545 -1.27985,0.4654 -2.44335,1.27985 -2.44335,1.8616 0,0.81445 1.27985,1.27985 2.90875,1.27985 1.1635,0 7.4464,-0.58175 11.634998,-0.58175 2.908753,0 8.260853,0.2327 9.657053,0.2327 1.3962,0 3.0251,-0.2327 3.0251,-1.3962 0,-0.4654 -0.6981,-1.3962 -2.67605,-1.74525 -6.5156,-1.04715 -7.33005,-2.0943 -7.795453,-6.16655 -0.2327,-1.97795 -0.58175,-27.4586 -0.34905,-29.7856 0,-0.2327 0.58175,-0.9308 0.814453,-0.9308 1.27985,0 12.7985,0.34905 13.61295,0.34905 0.58175,0 1.74525,-0.81445 1.74525,-1.1635 0,-2.44335 -0.81445,-4.8867 -1.6289,-4.8867 -0.4654,0 -6.63195,0.11635 -13.7293,0.11635 z"
    />
    <path
      d="m 122.31126,298.61754 c 0,0.4654 1.1635,0.9308 3.9559,3.14145 1.27985,0.81445 1.27985,2.327 1.27985,3.4905 0,7.6791 0,19.3141 0,22.22285 -0.11635,6.981 -0.4654,8.1445 -5.00305,9.65705 -0.9308,0.34905 -2.327,0.81445 -2.327,1.51255 0,0.9308 1.1635,1.3962 2.44335,1.3962 2.7924,0 4.1886,-0.4654 7.6791,-0.4654 6.7483,0 10.82055,0.58175 13.7293,0.58175 1.74525,0 2.7924,-0.4654 2.7924,-1.04715 0,-0.4654 -0.2327,-1.27985 -2.0943,-1.8616 -1.74525,-0.4654 -3.83955,-1.04715 -5.3521,-1.3962 -2.0943,-0.34905 -2.7924,-2.5597 -3.0251,-5.93385 -0.11635,-1.74525 -0.6981,-22.8046 -0.6981,-25.1316 0,-0.58175 0.34905,-1.6289 1.1635,-2.5597 1.1635,-1.27985 3.14145,-1.6289 5.1194,-1.6289 2.327,0 5.1194,1.3962 6.39925,2.5597 0.34905,0.2327 1.3962,0.4654 1.6289,0.34905 0.6981,-0.34905 3.4905,-3.4905 4.77035,-5.3521 0.34905,-0.58175 0.6981,-1.3962 0.6981,-1.6289 0,-1.04715 -1.04715,-3.9559 -5.8175,-3.9559 -3.60685,0 -8.72625,2.90875 -13.2639,7.2137 -0.2327,0.11635 -0.81445,0 -0.81445,-0.4654 0,-2.21065 0.2327,-4.30495 0.2327,-6.39925 0,-0.34905 -0.58175,-1.3962 -1.04715,-1.3962 -0.34905,0 -0.9308,0.4654 -2.327,1.3962 -1.1635,0.6981 -4.77035,2.44335 -8.6099,3.7232 -1.27985,0.4654 -1.51255,1.6289 -1.51255,1.97795 z"
    />
    <path
      d="m 162.56801,298.03579 c 0,0.4654 0.2327,0.81445 0.9308,1.27985 3.37415,2.44335 4.654,3.37415 4.77035,4.1886 0.2327,1.3962 0.11635,17.9179 0.11635,18.1506 0,3.37415 -0.11635,10.35515 -0.4654,11.98405 -0.2327,1.1635 -1.97795,2.5597 -4.654,3.2578 -1.97795,0.58175 -2.7924,1.1635 -2.7924,1.8616 0,0.81445 1.1635,1.27985 3.0251,1.27985 1.97795,0 6.0502,-0.4654 9.88975,-0.4654 2.44335,0 8.26085,0.34905 9.0753,0.34905 1.27985,0 2.67605,-0.4654 2.67605,-1.1635 0,-0.81445 -0.6981,-1.3962 -2.5597,-1.97795 -2.90875,-0.9308 -5.46845,-1.1635 -5.5848,-4.8867 -0.11635,-4.07225 -0.2327,-8.95895 -0.2327,-15.47455 0,-6.63195 0.6981,-21.75745 0.6981,-23.0373 0,-0.11635 -0.58175,-1.27985 -1.04715,-1.27985 -1.74525,0.4654 -7.2137,3.0251 -11.51865,3.9559 -1.27985,0.2327 -2.327,1.1635 -2.327,1.97795 z m 10.58785,-29.0875 c -1.6289,0 -3.37415,0.4654 -4.53765,1.51255 -0.9308,1.27985 -1.3962,3.14145 -1.3962,4.1886 0,1.97795 0.81445,3.2578 1.74525,4.30495 1.04715,0.9308 2.90875,1.3962 3.7232,1.3962 2.327,0 5.5848,-2.5597 5.5848,-5.70115 0,-2.0943 -1.97795,-5.70115 -5.1194,-5.70115 z"
    />
    <path
      d="m 219.34661,292.91639 c -3.14145,0 -10.7042,1.6289 -15.24185,4.8867 -6.7483,4.53765 -11.28595,11.635 -11.28595,20.12855 0,4.8867 1.6289,10.35515 3.60685,13.61295 3.7232,5.46845 9.88975,9.308 17.2198,9.308 6.0502,0 12.68215,-2.67605 16.7544,-7.2137 0.9308,-0.9308 1.51255,-2.0943 1.51255,-3.37415 0,-0.58175 -0.9308,-0.9308 -2.21065,0 -3.0251,2.0943 -6.0502,3.4905 -10.35515,3.4905 -6.0502,0 -11.75135,-2.90875 -14.6601,-7.79545 -0.4654,-0.6981 -3.0251,-4.8867 -3.0251,-11.635 0,-5.1194 1.74525,-9.88975 4.8867,-13.38025 1.8616,-2.327 5.3521,-3.9559 7.2137,-3.9559 3.9559,0 5.93385,1.74525 9.7734,4.53765 1.8616,1.27985 3.83955,2.21065 4.53765,2.21065 0.4654,0 3.83955,-2.7924 3.83955,-4.654 0,-0.6981 -0.58175,-2.67605 -1.74525,-3.4905 -2.21065,-1.74525 -7.33005,-2.67605 -10.82055,-2.67605 z"
    />
    <path
      d="m 35.398691,346.40078 c -0.493337,0 -0.888006,0.39467 -1.578677,1.184 -0.690671,1.08534 -2.072013,3.65069 -2.960019,4.8347 -0.197334,0.296 -0.197334,0.49334 -0.197334,0.78934 0,0.49334 -0.197335,1.28267 -0.592004,2.07201 -4.341361,10.65607 -15.589433,40.45359 -17.858781,45.48563 -2.8613517,6.41337 -4.1440257,6.70937 -9.077391,8.38672 -1.4800094,0.49333 -2.1706805,1.38134 -2.1706805,1.97334 0,0.59201 0.4933365,0.98668 2.2693478,0.98668 1.4800095,0 6.610709,-0.49334 10.2613987,-0.49334 3.65069,0 6.117372,0.296 7.794716,0.296 1.282675,0 2.762685,-0.296 2.762685,-1.28267 0,-0.69067 -0.986673,-1.28268 -2.664017,-1.77601 -4.440029,-1.38135 -4.834698,-3.05869 -4.834698,-4.2427 0,-2.46668 2.56535,-10.8534 5.1307,-17.26678 0.197334,-0.296 0.690671,-0.78933 1.08534,-0.78933 2.072013,-0.29601 10.754735,-0.39467 16.181437,-0.39467 2.861351,0 3.25602,0.592 3.354688,0.98667 2.269348,6.31471 4.73603,12.82675 5.525368,16.87211 0.39467,2.07201 0.789339,4.04536 -3.946691,5.03203 -1.776012,0.296 -2.368016,1.08534 -2.368016,1.57868 0,0.49333 0.592004,1.184 3.058687,1.184 2.466682,0 3.848024,-0.19733 7.005378,-0.19733 4.341361,0 9.176058,0.49334 12.432079,0.49334 2.466683,0 3.157354,-0.59201 3.157354,-1.28268 0,-0.69067 -0.789339,-1.18401 -2.368015,-1.67734 -4.440029,-1.08534 -6.018706,-1.87468 -9.274726,-9.9654 -1.677344,-4.04536 -9.077392,-23.58148 -14.208091,-37.98691 -1.874679,-5.1307 -3.552023,-9.57073 -4.341361,-12.23474 -0.789339,-2.17068 -1.184008,-2.56535 -1.578677,-2.56535 z m 4.440028,35.32289 c -3.25602,0.296 -11.445406,0.19733 -15.392098,0.296 -0.394669,0 -0.592004,-0.296 -0.493337,-0.69067 0.789339,-3.05869 5.920038,-16.87211 7.69605,-21.60814 0.296002,-0.69067 0.493336,-0.592 0.789338,0 0.888006,1.38134 6.018705,16.18144 7.696049,21.21347 0.09867,0.296 -0.197334,0.78934 -0.296002,0.78934 z"
    />
    <path
      d="m 71.51066,376.88897 c 0,0.39467 0.986673,0.78934 3.354688,2.66402 1.08534,0.69067 1.08534,1.97334 1.08534,2.96002 0,6.51204 0,16.37877 0,18.84545 -0.09867,5.92004 -0.394669,6.90671 -4.242694,8.18939 -0.789338,0.296 -1.973346,0.69067 -1.973346,1.28267 0,0.78934 0.986673,1.18401 2.072014,1.18401 2.368015,0 3.552022,-0.39467 6.512041,-0.39467 5.722703,0 9.176059,0.49334 11.642741,0.49334 1.48001,0 2.368015,-0.39467 2.368015,-0.88801 0,-0.39467 -0.197334,-1.08534 -1.776011,-1.57868 -1.480009,-0.39467 -3.256021,-0.888 -4.538696,-1.184 -1.776011,-0.29601 -2.368015,-2.17068 -2.565349,-5.03204 -0.09867,-1.48001 -0.592004,-19.33879 -0.592004,-21.31213 0,-0.49334 0.296002,-1.38134 0.986673,-2.17068 0.986673,-1.08534 2.664017,-1.38135 4.341361,-1.38135 1.973346,0 4.341361,1.18401 5.426701,2.17069 0.296002,0.19733 1.184008,0.39466 1.381342,0.296 0.592004,-0.296 2.960021,-2.96002 4.045361,-4.5387 0.296,-0.49333 0.592,-1.18401 0.592,-1.38134 0,-0.88801 -0.888,-3.35469 -4.933362,-3.35469 -3.058687,0 -7.400048,2.46668 -11.248072,6.11737 -0.197335,0.0987 -0.690671,0 -0.690671,-0.39467 0,-1.87467 0.197334,-3.65069 0.197334,-5.4267 0,-0.296 -0.493336,-1.184 -0.888006,-1.184 -0.296001,0 -0.789338,0.39466 -1.973345,1.184 -0.986673,0.59201 -4.04536,2.07202 -7.30138,3.15736 -1.085341,0.39467 -1.282675,1.38134 -1.282675,1.67734 z"
    />
    <path
      d="m 100.71593,348.86746 c 0,0.69067 0.78934,1.38134 2.66402,1.77601 3.55202,0.78934 7.30138,2.66402 9.76806,6.0187 5.03204,6.90672 15.0961,22.69348 15.88544,24.66683 0.19733,0.296 0.19733,0.69067 -0.296,1.38134 -6.11738,8.48539 -11.44541,14.8001 -15.6881,19.43746 -2.36802,2.66402 -6.90671,5.7227 -11.54408,6.61071 -2.762683,0.49333 -3.749353,1.38134 -3.749353,2.26935 0,0.69067 0.78933,1.08534 2.565353,1.08534 2.26934,0 6.21604,-0.49334 10.26139,-0.49334 3.15736,0 7.69605,0.296 10.16274,0.296 1.28267,0 2.46668,-0.39467 2.46668,-1.28267 0,-0.69067 -0.69067,-1.18401 -2.36802,-1.77601 -3.84802,-1.38135 -5.4267,-2.36802 -0.78933,-9.47207 2.86135,-4.24269 7.59738,-10.45873 10.8534,-14.40542 0.296,-0.296 0.78934,0.0987 0.98667,0.296 1.18401,1.08534 10.95207,16.37877 13.41875,20.72013 0.49334,0.69067 0,1.48001 -0.39467,1.77602 -0.888,0.592 -2.26934,0.888 -3.74935,1.28267 -1.67735,0.49334 -2.17068,0.88801 -2.17068,1.67734 0,0.59201 0.69067,1.28268 2.46668,1.28268 1.18401,0 5.4267,-0.39467 8.18938,-0.39467 6.11738,0 10.2614,0.592 13.81343,0.592 2.17068,0 2.96001,-0.49333 2.96001,-1.184 0,-0.59201 -0.78933,-1.48001 -2.36801,-1.87468 -6.61071,-1.67735 -7.89338,-3.55203 -11.84008,-8.78139 -2.17068,-3.05869 -14.20809,-20.8188 -14.80009,-22.39748 -0.0987,-0.296 -0.0987,-0.98667 0,-1.18401 4.8347,-6.70937 11.84008,-14.70142 15.29343,-18.74678 3.74936,-4.44003 6.90671,-6.31471 12.13608,-7.30138 1.08534,-0.296 2.17068,-0.98668 2.17068,-1.77601 0.0987,-0.59201 -1.08534,-1.08534 -2.26935,-1.08534 -2.26935,0 -7.99205,0.296 -10.36007,0.296 -2.66401,0 -5.82137,-0.19734 -8.78138,-0.19734 -1.87468,0 -2.86136,0.49334 -2.86136,1.28268 0,0.49333 0.59201,1.28267 2.46669,1.67734 3.55202,0.78934 5.4267,1.77601 3.84802,4.8347 -1.67734,3.15735 -10.06406,14.50409 -13.41875,18.25345 -0.0987,0.19733 -0.69067,0.0987 -0.98667,-0.19734 -1.57868,-1.57867 -9.47207,-14.01075 -12.43208,-19.33879 -1.18401,-2.07201 -0.19734,-3.15735 1.87467,-3.74935 1.87468,-0.49334 2.26935,-0.98668 2.26935,-1.67735 0,-0.78934 -1.18401,-1.08534 -2.36801,-1.08534 -2.86135,0 -4.63737,0.19734 -8.48539,0.19734 -3.45336,0 -10.06406,-0.49334 -11.93874,-0.49334 -2.36802,0 -2.86136,0.592 -2.86136,1.18401 z"
    />
    <path
      d="m 171.36155,376.39563 c 0,0.39467 0.19734,0.69068 0.78934,1.08534 2.86135,2.07202 3.94669,2.86136 4.04536,3.55203 0.19734,1.184 0.0987,15.19476 0.0987,15.3921 0,2.86135 -0.0987,8.78139 -0.39467,10.16273 -0.19734,0.98667 -1.67735,2.17068 -3.94669,2.76268 -1.67735,0.49334 -2.36802,0.98667 -2.36802,1.57868 0,0.69067 0.98667,1.08534 2.56535,1.08534 1.67735,0 5.1307,-0.39467 8.38672,-0.39467 2.07201,0 7.00538,0.296 7.69605,0.296 1.08534,0 2.26935,-0.39467 2.26935,-0.98667 0,-0.69067 -0.59201,-1.18401 -2.17068,-1.67735 -2.46668,-0.78933 -4.63736,-0.98667 -4.73603,-4.14402 -0.0987,-3.45336 -0.19734,-7.59738 -0.19734,-13.12275 0,-5.62404 0.59201,-18.45079 0.59201,-19.53613 0,-0.0987 -0.49334,-1.08534 -0.88801,-1.08534 -1.48001,0.39467 -6.11737,2.56535 -9.76806,3.35469 -1.08534,0.19733 -1.97335,0.98667 -1.97335,1.67734 z m 8.97873,-24.66682 c -1.38135,0 -2.86135,0.39467 -3.84803,1.28267 -0.78934,1.08535 -1.18401,2.66402 -1.18401,3.55203 0,1.67734 0.69068,2.76268 1.48001,3.65069 0.88801,0.78934 2.46669,1.18401 3.15736,1.18401 1.97334,0 4.73603,-2.17069 4.73603,-4.8347 0,-1.77601 -1.67735,-4.8347 -4.34136,-4.8347 z"
    />
    <path
      d="m 191.09485,373.73162 c 0,0.592 0.39467,0.98667 1.87468,1.48001 2.46668,0.69067 3.45335,1.97334 4.14402,3.25602 2.66402,4.73603 7.89339,16.87211 10.2614,23.18681 2.26935,5.72271 2.46668,6.80805 3.55202,10.06407 0.29601,1.08534 0.88801,1.77601 1.28268,1.77601 0.78934,0 1.87468,-0.98667 2.36801,-2.56535 1.67735,-5.22937 1.67735,-6.21604 4.44003,-13.22142 2.96002,-6.90671 6.70938,-16.47744 8.09072,-18.64812 1.48001,-1.77601 2.56535,-2.96002 4.93337,-3.84802 1.48001,-0.59201 2.07201,-0.88801 2.07201,-1.48001 0,-0.59201 -0.98667,-1.08534 -1.97335,-1.08534 -1.87468,0 -4.93336,0.49333 -6.70937,0.49333 -2.46669,0 -3.35469,-0.296 -5.32804,-0.296 -1.28267,0 -1.97334,0.49334 -1.97334,1.08534 0,0.59201 0.78934,0.98667 1.57867,1.28268 2.96002,1.08534 3.84803,1.67734 3.05869,4.24269 -0.88801,3.05869 -6.21604,16.77344 -7.49871,19.83213 -0.19734,0.39467 -0.59201,0.69067 -0.78934,0.39467 -0.69067,-0.59201 -5.92004,-12.33342 -8.78139,-20.8188 -0.39467,-1.18401 -0.69067,-2.56535 2.17068,-3.35469 1.28267,-0.39467 2.17068,-0.78934 2.17068,-1.48001 0,-0.69067 -0.78934,-1.08534 -2.26935,-1.08534 -1.08534,0 -3.55202,0.19733 -6.11737,0.19733 -1.08534,0 -6.41338,-0.49333 -8.18939,-0.49333 -0.888,0 -2.36801,0.39467 -2.36801,1.08534 z"
    />
  </g>
</svg>
