<svg xmlns="http://www.w3.org/2000/svg" viewBox="0 0 1850.9959 308" width="1850.9959" height="308">
  <title xml:lang="en">ASAPbio</title>

  <style>
    :root {
      --color-primary: rgb(220 50 50);
      --color-text: rgb(0 0 0);
    }

    .text {
      fill: var(--color-text);
    }

    .symbol {
      fill: var(--color-primary);
    }

    @media screen and (forced-colors: active) {
      :root {
        --color-primary: CanvasText;
        --color-text: CanvasText;
      }
    }
  </style>

  <path
    class="symbol"
    d="m 77.593638,230.59854 76.495102,-76.5 -76.495102,-76.5 L 1.0985399,1.0985399 H 96.093658 191.08877 l 76.25245,76.2475601 76.25245,76.24757 -76.74758,76.75243 -76.74758,76.75244 H 95.598528 1.0985399 Z"
  />

  <g class="text" transform="translate(-88.406362,-92.90146)">
    <path
      d="m 1692.5,151.11927 c -4.7578,-2.1848 -6.8899,-4.41489 -8.9619,-9.37375 -3.067,-7.3405 -0.6617,-16.38514 5.53,-20.79399 4.4637,-3.17843 13.2379,-3.84924 18.3871,-1.40574 12.7552,6.05273 12.2118,25.6134 -0.8766,31.55788 -5.1506,2.33926 -9.0091,2.34354 -14.0786,0.0156 z"
    />
    <path
      d="m 1831.6597,383.95237 c -20.3013,-3.4074 -39.0935,-14.17827 -51.2703,-29.38595 -13.8325,-17.2755 -20.3768,-38.92521 -20.3854,-67.43808 -0.01,-23.90091 3.9525,-42.32833 12.8128,-59.62834 5.7436,-11.21447 18.9745,-25.15562 29.2835,-30.85544 21.5108,-11.89322 50.6928,-14.56609 76.7113,-7.02622 30.5828,8.86254 50.8153,32.65189 57.841,68.00926 2.4608,12.38382 2.4655,42.33828 0.01,54.6988 -9.2696,46.63584 -41.3881,73.02207 -88.3184,72.55598 -6.5136,-0.0647 -14.021,-0.48319 -16.6832,-0.93001 z m 34.3719,-25.55294 c 16.5559,-4.91216 27.8432,-16.0465 34.8718,-34.39943 4.7354,-12.36478 6.4087,-24.57075 5.8615,-42.75678 -0.5737,-19.0678 -2.3293,-27.39455 -8.4848,-40.24322 -9.6989,-20.24496 -26.6574,-31.02582 -48.7402,-30.98522 -16.4523,0.0302 -28.5108,4.97098 -38.8299,15.90973 -14.6609,15.54134 -21.692,42.11228 -18.7959,71.03102 1.4771,14.74995 4.0163,24.1921 9.1478,34.0171 8.701,16.65916 20.902,25.82018 38.7015,29.05883 6.4152,1.16726 19.5929,0.34854 26.2682,-1.63203 z"
    />
    <path
      d="m 1692.5,384.04597 c -2.8946,-1.1973 -6.0511,-5.03281 -7.3615,-8.94519 -0.8165,-2.43785 -1.1385,-27.95677 -1.1385,-90.22977 0,-97.02994 -0.3079,-92.66348 6.8465,-97.08514 2.6414,-1.6325 5.1598,-2.24727 9.1491,-2.23341 6.7773,0.0236 10.1603,2.07237 12.9553,7.8461 2.0169,4.16632 2.049,5.58439 2.0435,90.16716 0,58.90384 -0.3485,87.19247 -1.0958,89.93428 -1.2159,4.46094 -4.0429,7.98466 -8.0989,10.09501 -2.9375,1.52837 -10.1072,1.77147 -13.2997,0.45096 z"
    />
    <path
      d="m 1462,382.81857 c -1.925,-1.29714 -4.2905,-3.92447 -5.2568,-5.8385 -1.652,-3.2726 -1.7414,-10.96201 -1.5,-128.98007 l 0.2568,-125.5 2.4025,-3.86473 c 5.3953,-8.67914 19.2621,-8.84921 25.5264,-0.31307 2.0175,2.74916 2.0785,4.07567 2.3575,51.25 0.1576,26.63529 0.4577,48.4278 0.6669,48.4278 0.2093,0 3.2304,-2.96867 6.7136,-6.59705 3.4832,-3.62837 8.3726,-8.09477 10.8654,-9.92533 5.8838,-4.32081 18.9861,-10.82625 25.9677,-12.89322 18.4455,-5.46101 44.8296,-3.64549 60.5,4.16307 17.8049,8.87222 31.8725,24.67403 39.4649,44.33 5.3993,13.97838 7.3919,26.31193 7.4189,45.92253 0.041,29.72651 -5.2839,49.68081 -18.4285,69.05942 -6.1902,9.12604 -18.8957,20.32515 -28.2718,24.92 -12.939,6.34084 -18.7326,7.51116 -37.1835,7.51116 -19.074,0 -24.1755,-1.11634 -39.5,-8.64361 -9.2287,-4.53305 -11.62,-6.28681 -19.75,-14.48438 l -9.25,-9.32686 -0.022,10.23213 c -0.034,16.05849 -3.5422,21.79441 -13.7655,22.50954 -4.7558,0.33268 -6.2986,0.005 -9.2125,-1.95883 z m 92.7866,-22.85386 c 26.2114,-4.25353 44.2019,-24.2948 50.238,-55.96471 1.6636,-8.72876 1.3581,-32.29657 -0.538,-41.5 -7.8101,-37.90889 -35.4066,-58.32793 -68.7892,-50.8981 -11.5907,2.5797 -19.1357,6.82084 -28.2624,15.88681 -9.5812,9.5175 -15.2354,19.57073 -18.6436,33.14857 -2.9258,11.65634 -3.1705,39.7564 -0.4428,50.86272 5.5314,22.52272 21.1264,40.69572 39.5432,46.08017 11.4349,3.34317 17.6124,3.89088 26.8948,2.38454 z"
    />
    <path
      d="m 1233.5557,382.79081 c -2.1693,-1.26056 -4.8693,-3.86667 -6,-5.79137 C 1225.5119,373.52027 1225.5,372.79632 1225.5,252 c 0,-116.41336 0.079,-121.70354 1.8754,-126.36168 1.5953,-4.13575 2.5565,-5.163 6.4372,-6.87962 4.3127,-1.90773 6.8041,-2.02652 45.6246,-2.17536 67.9229,-0.26043 80.3753,1.32014 97.9761,12.43605 9.9004,6.25267 18.7226,16.27098 23.9705,27.22051 6.3764,13.30386 7.9983,20.6638 7.9907,36.2601 -0.021,43.81421 -24.092,71.38137 -68.123,78.01832 -7.1839,1.08286 -19.1647,1.47144 -45.5015,1.47578 L 1260,272 l -0.044,47.25 c -0.024,25.9875 -0.4224,49.21117 -0.8855,51.60816 -1.6271,8.42244 -7.2304,13.33841 -15.8075,13.86842 -4.6233,0.28569 -6.5437,-0.0972 -9.7077,-1.93577 z m 104.2046,-141.14828 c 13.6623,-3.54443 26.0791,-12.41947 31.6208,-22.60131 9.2701,-17.03232 6.4916,-44.31549 -5.9992,-58.90822 -4.6847,-5.47297 -9.8907,-8.73981 -18.7934,-11.79311 -9.6834,-3.32104 -21.9433,-4.26651 -55.8385,-4.30621 L 1260,144 v 50.0952 50.09521 l 35.75,-0.46189 c 28.6172,-0.36973 36.999,-0.78592 42.0103,-2.08599 z"
    />
    <path
      d="m 954.14924,383.35894 c -1.84292,-0.93849 -4.54292,-3.51017 -6,-5.71484 -5.25668,-7.95373 -7.08646,-2.58209 44.34107,-130.17132 25.70989,-63.78503 48.01169,-118.48677 49.55939,-121.55942 5.1229,-10.16997 12.9622,-14.69571 23.5727,-13.60889 10.8995,1.11643 16.8563,6.47272 22.8462,20.54305 13.2173,31.04764 94.4679,225.29018 95.3929,228.0517 4.037,12.05308 -2.7746,23.05013 -14.7961,23.88756 -7.1649,0.49911 -10.3305,-0.78967 -13.8401,-5.63445 -1.5628,-2.15742 -9.3312,-19.94927 -17.2631,-39.53745 L 1123.5406,304 h -59.1359 -59.136 l -12.28455,31.75 c -13.07542,33.7941 -17.4562,43.56981 -20.93043,46.70621 -3.02486,2.73073 -13.29774,3.24868 -17.90448,0.90273 z M 1111.4893,272.25 c -32.2159,-80.83636 -48.3095,-120.34472 -48.7339,-119.63759 -0.3869,0.6445 -35.7366,92.05346 -46.8464,121.13759 l -0.8595,2.25 h 48.9672 48.9671 z"
    />
    <path
      d="m 463.92168,382.7262 c -7.78938,-5.24926 -9.67691,-12.38899 -6.03284,-22.81965 C 458.9277,356.93295 474.94418,316.925 493.481,271 c 18.53683,-45.925 38.6644,-95.875 44.72795,-111 6.06354,-15.125 12.27455,-29.975 13.80225,-33 5.47443,-10.83992 10.8163,-14.43343 21.51549,-14.47361 8.65833,-0.0325 15.26845,2.99857 19.56943,8.97361 3.29945,4.58368 100.40038,235.29106 101.96091,242.25448 1.27259,5.67856 0.46663,9.75725 -2.78237,14.08066 -3.83101,5.09788 -7.93847,7.15738 -14.27466,7.15738 -7.32656,0 -10.78589,-2.23926 -14.354,-9.29149 -1.56633,-3.0958 -8.84049,-20.38249 -16.16482,-38.41487 L 634.16423,304.5 H 574.86535 515.56646 L 502.94665,337 c -15.33749,39.49891 -17.81154,44.62777 -22.46542,46.57229 -5.28239,2.20712 -12.58236,1.83414 -16.55955,-0.84609 z M 623,275.50075 c 0,-1.14262 -49.26956,-123.56453 -49.59745,-123.23663 -0.3968,0.3968 -45.68572,117.90183 -46.82322,121.48588 l -0.71411,2.25 h 48.56739 C 601.14468,276 623,275.77534 623,275.50075 Z"
    />
    <path
      d="m 809,384.97361 c -18.65488,-1.3824 -38.23338,-7.37528 -50.33331,-15.40675 -12.67647,-8.41416 -25.65873,-25.60876 -31.10528,-41.19798 -6.24403,-17.87178 -5.29024,-27.95143 3.17297,-33.53205 3.49619,-2.30539 11.93782,-2.45516 15.06154,-0.26722 2.69433,1.88719 6.16712,8.54153 10.81785,20.72851 5.38299,14.10583 9.03726,20.13043 16.45435,27.12733 12.11422,11.42794 26.12224,16.53069 45.43188,16.54963 30.95719,0.0304 54.43781,-11.99566 64.3833,-32.97508 2.31787,-4.88942 2.60785,-6.72311 2.61201,-16.51753 0.004,-10.42973 -0.16998,-11.37252 -3.26942,-17.67169 -3.96408,-8.05641 -11.13026,-14.94163 -20.84662,-20.02929 -8.20446,-4.296 -11.44777,-5.26555 -39.37927,-11.77198 -31.57027,-7.35407 -42.32122,-10.57417 -53.77557,-16.10676 -8.69995,-4.20219 -11.54252,-6.22361 -18.53819,-13.18299 C 736.41176,217.51414 730.79447,203.66871 730.73136,184 c -0.0625,-19.47833 5.46137,-33.24911 18.67058,-46.54503 C 761.30522,125.47356 773.5408,119.2456 794,114.7544 c 11.63019,-2.55306 37.23858,-3.01517 49,-0.88421 29.27251,5.30364 48.21112,17.77563 59.41828,39.12981 6.61781,12.6096 8.21272,24.38428 4.33172,31.97957 -3.31073,6.47924 -6.6497,8.52043 -13.93769,8.52043 -5.72925,0 -6.20701,-0.19201 -9.25708,-3.72042 -1.76883,-2.04623 -4.4855,-6.99623 -6.03704,-11 -9.17807,-23.684 -18.323,-32.71477 -38.36408,-37.88512 -9.79115,-2.526 -28.84305,-2.73475 -37.65411,-0.41259 -15.95565,4.20514 -28.1487,12.99654 -33.71943,24.31228 -3.01139,6.11701 -3.28051,7.44502 -3.27982,16.18482 6.1e-4,7.72018 0.42022,10.43003 2.21847,14.32687 4.53493,9.82726 17.78951,19.5895 33.28078,24.51189 3.575,1.13597 17.075,4.76691 30,8.06876 37.83575,9.66561 51.72569,14.92043 64.71571,24.48314 21.64348,15.93303 30.35655,49.39642 20.39022,78.31069 -3.99956,11.60352 -8.31184,18.4327 -17.60593,27.8818 -19.79001,20.12009 -50.34547,29.2389 -88.5,26.41149 z"
    />
  </g>
</svg>
