<svg xmlns="http://www.w3.org/2000/svg" viewBox="0 0 440.01 342.64" width="440.01" height="342.64">
  <title xml:lang="en">COAR</title>

  <style>
    :root {
      --color-primary: rgb(125 195 75);
      --color-text: rgb(0 0 0);
    }

    .text {
      fill: var(--color-primary);
    }

    .title {
      fill: var(--color-text);
    }

    .circle {
      fill: var(--color-text);
    }

    .dots {
      fill: var(--color-primary);
    }

    @media screen and (forced-colors: active) {
      :root {
        --color-background: Canvas;
        --color-primary: CanvasText;
        --color-text: CanvasText;
      }

      .dots {
        fill: var(--color-background);
      }
    }
  </style>

  <clipPath id="clip-circle" transform="translate(-290.2 -213.04)">
    <circle cx="451.73" cy="269.54" r="56.5" />
  </clipPath>

    <style>.b{fill:red}</style>

  <path
    class="title"
    d="M30.39 185.96a22 22 0 01-8.28-1.42 14.91 14.91 0 01-5.82-4.06 17.32 17.32 0 01-3.44-6.46 32.86 32.86 0 01.23-18 18.84 18.84 0 013.91-6.83 16.45 16.45 0 016.16-4.13 22.31 22.31 0 018.08-1.4 38.36 38.36 0 015.39.43 25.66 25.66 0 015.66 1.46c0 1.45 0 3-.08 4.67s-.27 3.25-.47 4.77H39.1l-1.15-5.56a2.52 2.52 0 00-.44-1 2.79 2.79 0 00-.85-.71 11.82 11.82 0 00-2.82-1 18 18 0 00-4.08-.46 11.51 11.51 0 00-9.46 4.4q-3.5 4.47-3.5 13.87a36.63 36.63 0 00.72 7.47 18.2 18.2 0 002.29 6 11.43 11.43 0 004 4 11.68 11.68 0 006 1.44 14.86 14.86 0 003.74-.47 11.7 11.7 0 003-1.18 2.8 2.8 0 00.88-.76 4 4 0 00.51-1l1.79-5.17 2.62.26a42.86 42.86 0 01-.18 4.42 56.54 56.54 0 01-.58 4.47 24.17 24.17 0 01-5.16 1.49 33.6 33.6 0 01-6.04.46zM48.94 170.43a19.94 19.94 0 011.12-7 13.42 13.42 0 013-4.92 12 12 0 014.47-2.87 15.53 15.53 0 015.42-.95 14.07 14.07 0 016 1.17 10.53 10.53 0 014 3.24 13.81 13.81 0 012.35 4.86 25.33 25.33 0 01.72 6.19 19.81 19.81 0 01-1.12 7 13.42 13.42 0 01-3 4.9 12.28 12.28 0 01-4.48 2.86 15.66 15.66 0 01-5.43.94 14 14 0 01-6-1.17 10.41 10.41 0 01-4-3.22 13.37 13.37 0 01-2.26-4.91 25.69 25.69 0 01-.79-6.12zm22.2.21a31.25 31.25 0 00-.43-5.3 12.89 12.89 0 00-1.46-4.21 7.54 7.54 0 00-2.74-2.78 8.26 8.26 0 00-4.27-1 7.19 7.19 0 00-6.36 3.05q-2.08 3.05-2.08 9.56a31.15 31.15 0 00.42 5.26 12.7 12.7 0 001.45 4.23 7.59 7.59 0 002.75 2.79 8.38 8.38 0 004.31 1 7.16 7.16 0 006.35-3.07q2.06-3.07 2.06-9.53zM95.88 182.96v2.31h-13.9v-2.31l3.35-.5a1.79 1.79 0 001.12-.52 1.69 1.69 0 00.38-1.16v-20.27a1.73 1.73 0 00-.37-1.17 1.58 1.58 0 00-1.07-.51l-3.81-.47v-2.15a27.13 27.13 0 014.15-1 30.32 30.32 0 014.14-.38l.82.84.31 3.36a12.19 12.19 0 015.11-3.36 17.93 17.93 0 015.57-.91c3.47 0 5.82 1 7.07 3.05s1.88 4.88 1.88 8.52v14.51a1.58 1.58 0 00.39 1.14 1.89 1.89 0 001.1.51l3.36.5v2.31h-13.9v-2.34l3.22-.5a2.15 2.15 0 001.07-.48 1.49 1.49 0 00.43-1.17v-13.45a15.42 15.42 0 00-1.22-6.89c-.81-1.56-2.47-2.35-5-2.35a15.28 15.28 0 00-4.75.76 13.55 13.55 0 00-4.2 2.26v19.68a1.69 1.69 0 00.38 1.16 1.76 1.76 0 001.09.52zM124.72 151.96a14.61 14.61 0 011.05-5.62 14.35 14.35 0 012.71-4.34 12.31 12.31 0 013.78-2.8 9.91 9.91 0 014.24-1 10.76 10.76 0 013.15.48 19.65 19.65 0 013.15 1.28l-.63 3.15c-1-.17-2-.31-3.15-.4s-2.09-.15-3-.15q-3.75 0-5.37 1.68t-1.6 5.72v5.59h9.1v3.17h-9.1v22.17a1.64 1.64 0 00.39 1.16 1.62 1.62 0 001.13.47l5.64.5v2.31h-16.35v-2.37l3.36-.5a1.91 1.91 0 001.12-.5 1.57 1.57 0 00.38-1.13v-21.87l-5.46-.58v-2.12l5.46-.68zM167.36 178.8a10 10 0 01-4 5.08 12.76 12.76 0 01-7.38 2 13.26 13.26 0 01-5.71-1.15 11.26 11.26 0 01-4.07-3.19 13.82 13.82 0 01-2.41-4.82 21.45 21.45 0 01-.8-6 20.8 20.8 0 011-6.72 14.83 14.83 0 012.81-5.04 12.17 12.17 0 014.35-3.17 13.65 13.65 0 015.65-1.13 13.29 13.29 0 014.14.63 9.48 9.48 0 013.39 1.9 8.94 8.94 0 012.28 3.24 11.76 11.76 0 01.84 4.62c0 .44 0 1-.07 1.64s-.11 1.25-.19 1.77H147.7v1.13a21.51 21.51 0 00.78 6.27 11.05 11.05 0 002.08 4 7.19 7.19 0 003 2.12 10.08 10.08 0 003.51.63 9.83 9.83 0 005-1.29 9.63 9.63 0 003.53-3.44zm-11.44-21.46a7.17 7.17 0 00-5.3 2.1c-1.4 1.4-2.3 3.56-2.71 6.5h14.83c0-.22 0-.43.05-.63a6.05 6.05 0 000-.63 7.65 7.65 0 00-1.83-5.31 6.46 6.46 0 00-5.04-2.03zM199.42 185.73a3.74 3.74 0 01-3.06-1.2 5.73 5.73 0 01-1.24-2.79 14.55 14.55 0 01-3.88 2.93 11.52 11.52 0 01-5.44 1.29 12.22 12.22 0 01-4.5-.83 9.76 9.76 0 01-3.76-2.61 12.77 12.77 0 01-2.59-4.59 20.82 20.82 0 01-1-6.71 21.41 21.41 0 011.14-7.35 14.05 14.05 0 013.17-5.15 12.71 12.71 0 014.82-3 18.06 18.06 0 016.12-1 22.49 22.49 0 013.12.21c1 .14 1.89.31 2.68.5v-11.6a1.51 1.51 0 00-.4-1.13 1.91 1.91 0 00-1.1-.5l-4.17-.57v-2a27.44 27.44 0 014.66-1c1.74-.24 3.29-.38 4.65-.43l.69.73v41.8a1.66 1.66 0 00.44 1.33 2 2 0 001.13.4l3.15.26v2.13a16.72 16.72 0 01-2.19.62 11.32 11.32 0 01-2.44.26zm-12-3.2a10.39 10.39 0 004.18-.82 12.8 12.8 0 003.43-2.15v-20.6a11.83 11.83 0 00-2.76-1.08 14.2 14.2 0 00-3.7-.47 11.24 11.24 0 00-3.76.63 7.5 7.5 0 00-3.14 2.11 10.88 10.88 0 00-2.14 4 21 21 0 00-.8 6.25 20.33 20.33 0 00.74 5.95 10.13 10.13 0 001.93 3.73 6.48 6.48 0 002.76 1.92 10 10 0 003.22.53zM233.61 178.8a10 10 0 01-4 5.08 12.77 12.77 0 01-7.39 2 13.29 13.29 0 01-5.71-1.15 11.35 11.35 0 01-4.07-3.19 13.82 13.82 0 01-2.41-4.82 21.82 21.82 0 01-.8-6 21.08 21.08 0 011-6.72 14.68 14.68 0 012.81-5.05 12.13 12.13 0 014.34-3.17 13.68 13.68 0 015.59-1.12 13.4 13.4 0 014.15.63 9.44 9.44 0 013.38 1.9 8.94 8.94 0 012.28 3.24 11.76 11.76 0 01.84 4.62c0 .44 0 1-.06 1.64s-.11 1.25-.2 1.77h-19.4a4.93 4.93 0 000 .55v.58a21.14 21.14 0 00.79 6.27 10.89 10.89 0 002.07 4 7.32 7.32 0 003 2.12 10.09 10.09 0 003.52.63 9.77 9.77 0 005-1.29 9.56 9.56 0 003.53-3.44zm-11.44-21.46a7.19 7.19 0 00-5.3 2.1c-1.4 1.4-2.3 3.56-2.7 6.5h14.82q0-.33.06-.63v-.63a7.69 7.69 0 00-1.82-5.31 6.5 6.5 0 00-5.06-2.03zM256.02 183.1v2.21H239.7v-2.35l3.36-.5a1.81 1.81 0 001.11-.51 1.62 1.62 0 00.38-1.14V160.7a2.12 2.12 0 00-.34-1.3 1.61 1.61 0 00-1.15-.57l-3.76-.47v-2.15a32.62 32.62 0 014.18-1 28.09 28.09 0 014.14-.41l.71.74.42 4.67a16.22 16.22 0 011.94-2 18.38 18.38 0 012.51-1.8 15.13 15.13 0 012.86-1.31 9.32 9.32 0 013-.51 10.39 10.39 0 011.73.17 6.14 6.14 0 011.63.51 35 35 0 010 4.8 36.5 36.5 0 01-.59 4.73h-2.29l-.7-4.41a2 2 0 00-.53-1.18 1.61 1.61 0 00-1.15-.37 11.26 11.26 0 00-4.31.88 11.65 11.65 0 00-4 2.77v18.29a1.58 1.58 0 00.41 1.15 1.78 1.78 0 001.14.5zM288.69 185.73a3.92 3.92 0 01-2.85-1 5.11 5.11 0 01-1.4-2.82 12.93 12.93 0 01-4.24 2.93 13.24 13.24 0 01-5.4 1.12 11 11 0 01-3.24-.46 7.73 7.73 0 01-2.62-1.34 6 6 0 01-1.76-2.23 7.11 7.11 0 01-.64-3.11 6.49 6.49 0 011.09-3.88 8.09 8.09 0 012.76-2.43 13.73 13.73 0 013.73-1.32 34.75 34.75 0 013.94-.58l6.24-.55v-3.8q0-4.37-1.65-6.13c-1.1-1.18-2.83-1.77-5.17-1.77a13.77 13.77 0 00-4.8.84 12 12 0 00-4.2 2.68l-1.08-1.18a6.28 6.28 0 011.59-2.54 10.12 10.12 0 012.62-1.82 13.64 13.64 0 013.34-1.1 18.31 18.31 0 013.71-.37q4.86 0 7.39 2.53c1.68 1.69 2.53 4.31 2.53 7.86v15.46a1.68 1.68 0 00.41 1.26 1.77 1.77 0 001.16.44l3.15.26v2.13q-.25.11-.81.27a11.19 11.19 0 01-1.21.31l-1.35.23a8.61 8.61 0 01-1.24.11zm-12.47-3a12.39 12.39 0 004.37-.84 12 12 0 003.74-2.15v-7.19l-5.72.55a12.83 12.83 0 00-5.33 1.47 4.09 4.09 0 00-1.94 3.8 4.22 4.22 0 001.22 3.21 5.17 5.17 0 003.66 1.13zM301.47 178.33v-19.37l-4.73-.52v-2.18l3.36-.39a1.83 1.83 0 001.09-.46 2 2 0 00.51-1l1.52-7.53h2.58v8.71h10.34v3.17H305.8v17.9c0 2.36.42 3.93 1.25 4.71a4.66 4.66 0 003.32 1.17 8 8 0 003.36-.68 7 7 0 002.46-1.89l1.58 1.31a7.91 7.91 0 01-3.47 3.49 10.73 10.73 0 01-5.09 1.23 11.93 11.93 0 01-2.87-.34 6.48 6.48 0 01-2.48-1.18 6 6 0 01-1.75-2.32 9.25 9.25 0 01-.64-3.83zM330.64 155.58v25.21a1.71 1.71 0 00.38 1.17 1.78 1.78 0 001.12.54l3.36.5v2.31h-14v-2.35l3.36-.5a1.76 1.76 0 001.11-.52 1.64 1.64 0 00.38-1.16v-20.27a1.78 1.78 0 00-.36-1.17 1.63 1.63 0 00-1.08-.51l-3.8-.47v-2.15a25 25 0 014.44-1c1.6-.21 3.09-.34 4.45-.4zm.61-8.82a3.31 3.31 0 01-1 2.49 3.61 3.61 0 111-2.49zM340.72 170.43a20.18 20.18 0 011.11-7 13.57 13.57 0 013-4.92 12 12 0 014.47-2.87 15.49 15.49 0 015.42-.95 14.1 14.1 0 016 1.17 10.53 10.53 0 014 3.24 13.81 13.81 0 012.27 4.93 25.33 25.33 0 01.72 6.19 19.81 19.81 0 01-1.12 7 13.42 13.42 0 01-3 4.9 12.28 12.28 0 01-4.48 2.86 15.67 15.67 0 01-5.44.94 14 14 0 01-6-1.17 10.51 10.51 0 01-4-3.22 13.52 13.52 0 01-2.25-4.91 25.69 25.69 0 01-.7-6.19zm22.2.21a31.25 31.25 0 00-.43-5.3 12.89 12.89 0 00-1.46-4.21 7.54 7.54 0 00-2.74-2.78 8.26 8.26 0 00-4.27-1 7.19 7.19 0 00-6.36 3.05q-2.08 3.06-2.09 9.54a31.15 31.15 0 00.42 5.26 12.48 12.48 0 001.45 4.23 7.59 7.59 0 002.75 2.79 8.38 8.38 0 004.31 1 7.13 7.13 0 006.34-3.07q2.09-3.05 2.08-9.51zM387.66 182.96v2.31H373.8v-2.31l3.36-.5a1.81 1.81 0 001.12-.52 1.69 1.69 0 00.38-1.16v-20.27a1.73 1.73 0 00-.37-1.17 1.58 1.58 0 00-1.07-.51l-3.81-.47v-2.15a27.13 27.13 0 014.15-1 30.32 30.32 0 014.14-.38l.82.84.31 3.36a12.22 12.22 0 015.1-3.36 18 18 0 015.58-.91q5.19 0 7.07 3.05t1.88 8.52v14.51a1.58 1.58 0 00.34 1.12 1.86 1.86 0 001.1.51l3.36.5v2.31h-13.9v-2.32l3.22-.5a2.15 2.15 0 001.07-.48 1.52 1.52 0 00.43-1.17v-13.45a15.42 15.42 0 00-1.22-6.89c-.81-1.56-2.47-2.35-5-2.35a15.28 15.28 0 00-4.75.76 13.55 13.55 0 00-4.2 2.26v19.68a1.69 1.69 0 00.38 1.16 1.76 1.76 0 001.09.52zM11.39 242.59a19.94 19.94 0 011.12-7 13.42 13.42 0 013-4.92 12.11 12.11 0 014.47-2.88 15.52 15.52 0 015.42-.94 14.07 14.07 0 016 1.17 10.53 10.53 0 014 3.24 13.73 13.73 0 012.4 4.9 25.33 25.33 0 01.72 6.19 20 20 0 01-1.11 7 13.69 13.69 0 01-3 4.9 12.4 12.4 0 01-4.49 2.86 15.66 15.66 0 01-5.43.94 14 14 0 01-6-1.17 10.48 10.48 0 01-4-3.22 13.37 13.37 0 01-2.26-4.91 25.69 25.69 0 01-.84-6.16zm22.2.21a30.26 30.26 0 00-.43-5.3 12.89 12.89 0 00-1.46-4.21 7.46 7.46 0 00-2.74-2.78 8.24 8.24 0 00-4.26-1 7.17 7.17 0 00-6.37 3q-2.08 3.06-2.08 9.54a31.15 31.15 0 00.42 5.26 12.7 12.7 0 001.44 4.23 7.59 7.59 0 002.75 2.79 8.38 8.38 0 004.31 1 7.13 7.13 0 006.35-3.07c1.38-1.98 2.07-5.16 2.07-9.46zM49.36 224.06a14.6 14.6 0 011.05-5.61 14.06 14.06 0 012.72-4.34 12.39 12.39 0 013.77-2.8 9.93 9.93 0 014.24-1 10.77 10.77 0 013.15.49 19.65 19.65 0 013.12 1.27l-.63 3.15c-1-.17-2-.31-3.15-.41s-2.09-.14-3-.14q-3.75 0-5.37 1.68c-1.07 1.12-1.61 3-1.61 5.75v5.59h9.15v3.17h-9.11v22.17a1.48 1.48 0 001.52 1.63l5.64.5v2.31H44.51v-2.31l3.35-.5a1.89 1.89 0 001.12-.5 1.57 1.57 0 00.38-1.13v-22l-5.46-.58v-2.12l5.46-.68zM101.02 258.07a17.42 17.42 0 01-7.24-1.43 14.07 14.07 0 01-5.26-4.07 18.14 18.14 0 01-3.2-6.45 30.87 30.87 0 01-1.09-8.52 29.64 29.64 0 011.35-9.32 19.54 19.54 0 013.74-6.81 15.62 15.62 0 015.76-4.16 18.54 18.54 0 017.36-1.43 17.55 17.55 0 017.24 1.41 14.08 14.08 0 015.27 4.06 18 18 0 013.18 6.44 31.12 31.12 0 011.08 8.5 29.61 29.61 0 01-1.33 9.26 19.59 19.59 0 01-3.71 6.84 15.7 15.7 0 01-5.75 4.22 18.41 18.41 0 01-7.4 1.46zm.78-39.41a10.71 10.71 0 00-9.22 4.6q-3.33 4.6-3.32 13.69 0 8.73 3.09 13.52t9.32 4.79a10.71 10.71 0 009.21-4.63q3.33-4.64 3.33-13.73 0-8.71-3.1-13.48t-9.31-4.76zM139.99 268.17v2.31h-15.14v-2.31l3.38-.5a1.81 1.81 0 001.11-.51 1.66 1.66 0 00.36-1.14V232.7a1.83 1.83 0 00-.35-1.17 1.44 1.44 0 00-1-.54l-3.85-.47v-2.15a32.79 32.79 0 014.14-1 28.09 28.09 0 014.16-.41l.81.84.34 3.2a12.41 12.41 0 013.66-3 11.54 11.54 0 015.6-1.23 12.89 12.89 0 014.69.83 9.77 9.77 0 013.74 2.54 12.31 12.31 0 012.48 4.44 20.6 20.6 0 01.9 6.46 23 23 0 01-1 7.08 15 15 0 01-2.92 5.35 12.83 12.83 0 01-4.71 3.37 16.14 16.14 0 01-6.34 1.18 23.42 23.42 0 01-3-.21 13.6 13.6 0 01-3-.71v8.9a1.62 1.62 0 00.38 1.14 1.74 1.74 0 001.12.48zm.18-12.83a9.51 9.51 0 007.26-2.91q2.75-2.91 2.85-10 .07-6-2.05-9.19t-6.61-3.16a10 10 0 00-4.49.93 12.41 12.41 0 00-3.1 2.08v20.71a9.3 9.3 0 002.57 1.16 13.65 13.65 0 003.57.38zM185.73 250.96a10 10 0 01-4 5.08 12.77 12.77 0 01-7.39 2 13.21 13.21 0 01-5.7-1.15 11.26 11.26 0 01-4.07-3.19 13.65 13.65 0 01-2.41-4.82 21.44 21.44 0 01-.81-6 21 21 0 011-6.72 14.85 14.85 0 012.81-5.05 12.31 12.31 0 014.35-3.18 13.76 13.76 0 015.58-1.11 13.36 13.36 0 014.15.63 9.44 9.44 0 013.38 1.9 8.85 8.85 0 012.29 3.24 11.69 11.69 0 01.84 4.62c0 .44 0 1-.07 1.64s-.11 1.25-.19 1.77h-19.42a5 5 0 000 .55v.58a21.51 21.51 0 00.78 6.27 11.14 11.14 0 002.08 4 7.17 7.17 0 003 2.11 10 10 0 003.51.63 9.83 9.83 0 005-1.28 9.53 9.53 0 003.52-3.44zm-11.45-21.46a7.22 7.22 0 00-5.3 2.09q-2.1 2.1-2.7 6.51h14.83c0-.22 0-.43.05-.63a6.05 6.05 0 000-.63 7.63 7.63 0 00-1.83-5.31 6.45 6.45 0 00-5.05-2.03zM205.72 255.16v2.31H191.8v-2.31l3.36-.5a1.77 1.77 0 001.12-.53 1.64 1.64 0 00.38-1.15v-20.31a1.78 1.78 0 00-.37-1.17 1.56 1.56 0 00-1.08-.51l-3.8-.47v-2.15a27.28 27.28 0 014.14-1 30.46 30.46 0 014.15-.38l.81.84.32 3.36a12.12 12.12 0 015.1-3.36 18 18 0 015.58-.92q5.19 0 7.07 3.06t1.88 8.52V253a1.58 1.58 0 00.39 1.14 1.86 1.86 0 001.1.51l3.36.5v2.31h-13.9v-2.3l3.23-.5a2 2 0 001.06-.49 1.46 1.46 0 00.44-1.16v-13.49a15.42 15.42 0 00-1.22-6.89c-.82-1.56-2.47-2.35-5-2.35a15.33 15.33 0 00-4.75.76 13.5 13.5 0 00-4.19 2.26v19.66a1.6 1.6 0 00.38 1.15 1.69 1.69 0 001.09.53zM256.41 255.16v2.31h-13.09v-2.31l3.09-.74a2.29 2.29 0 001-.48 2 2 0 00.6-.93l12.7-36.66h4.41l13.38 36.66a2 2 0 00.61.93 2.42 2.42 0 001 .48l2.91.74v2.31h-14.09v-2.31l5.25-1-3.38-9.37h-16.49l-3.15 9.37zm13.39-13.15l-7.51-21.05-7.06 21.07zM285.67 242.88a22.26 22.26 0 01.85-6.25 14.47 14.47 0 012.6-5.1 12.44 12.44 0 014.45-3.44 14.67 14.67 0 016.32-1.27 24.31 24.31 0 014.88.51 16.4 16.4 0 014 1.25 32.37 32.37 0 010 4.14c-.1 1.54-.25 2.94-.44 4.2h-2.31l-1-4.07a8.43 8.43 0 00-.37-1.19 2.56 2.56 0 00-.76-1 6.16 6.16 0 00-1.94-.95 8.82 8.82 0 00-2.71-.39 7.41 7.41 0 00-6.43 3.14c-1.48 2.09-2.23 5.16-2.23 9.2q0 6.58 2.52 9.84a8.1 8.1 0 006.75 3.25 10 10 0 004.52-1 10.89 10.89 0 003.32-2.48l1.44 1.37a9.33 9.33 0 01-4.08 4 13.46 13.46 0 01-6.31 1.43 13.28 13.28 0 01-5.61-1.13 11.32 11.32 0 01-4.08-3.13 13.84 13.84 0 01-2.48-4.82 21.23 21.23 0 01-.9-6.11zM315.16 242.88a22.63 22.63 0 01.85-6.25 14.47 14.47 0 012.6-5.1 12.53 12.53 0 014.45-3.44 14.67 14.67 0 016.32-1.27 24.23 24.23 0 014.88.51 16.35 16.35 0 014 1.25 32.51 32.51 0 01-.06 4.14c-.1 1.54-.25 2.94-.44 4.2h-2.31l-1-4.07a8.43 8.43 0 00-.37-1.19 2.46 2.46 0 00-.76-1 6.16 6.16 0 00-1.94-.95 8.8 8.8 0 00-2.7-.39 7.4 7.4 0 00-6.43 3.14q-2.24 3.13-2.23 9.2 0 6.58 2.52 9.84a8.06 8.06 0 006.74 3.25 10 10 0 004.53-1 11 11 0 003.31-2.48l1.45 1.37a9.33 9.33 0 01-4.08 4 13.49 13.49 0 01-6.31 1.43 13.3 13.3 0 01-5.62-1.13 11.32 11.32 0 01-4.08-3.13 13.84 13.84 0 01-2.48-4.85 21.23 21.23 0 01-.84-6.08zM369.01 250.96a10 10 0 01-4 5.08 12.77 12.77 0 01-7.39 2 13.21 13.21 0 01-5.7-1.15 11.26 11.26 0 01-4.07-3.19 13.65 13.65 0 01-2.41-4.82 21.44 21.44 0 01-.81-6 20.71 20.71 0 011-6.72 14.67 14.67 0 012.8-5.05 12.31 12.31 0 014.37-3.15 13.8 13.8 0 015.58-1.11 13.36 13.36 0 014.15.63 9.57 9.57 0 013.39 1.9 8.94 8.94 0 012.28 3.24 11.69 11.69 0 01.84 4.62c0 .44 0 1-.07 1.64s-.11 1.25-.19 1.77h-19.43a5 5 0 000 .55v.58a21.51 21.51 0 00.78 6.27 11.14 11.14 0 002.08 4 7.17 7.17 0 003 2.11 10 10 0 003.51.63 9.83 9.83 0 005-1.28 9.63 9.63 0 003.53-3.44zm-11.44-21.46a7.23 7.23 0 00-5.31 2.09q-2.1 2.1-2.7 6.51h14.83v-.63a6.05 6.05 0 000-.63 7.63 7.63 0 00-1.83-5.31 6.44 6.44 0 00-4.99-2.03zM376.04 255.79a26.66 26.66 0 01-.21-4.15 31.61 31.61 0 01.29-3.72h2.44l1 4a4.61 4.61 0 00.5 1.37 2.77 2.77 0 00.86.84 12.2 12.2 0 002.28 1 11.54 11.54 0 003.6.51 6.85 6.85 0 004.59-1.33 5.11 5.11 0 001-5.89 5.1 5.1 0 00-1.52-1.64 14.19 14.19 0 00-2.55-1.38c-1-.43-2.22-.91-3.58-1.44s-2.32-1-3.35-1.45a11.06 11.06 0 01-2.62-1.74 7 7 0 01-1.71-2.31 7.42 7.42 0 01-.61-3.16 7.91 7.91 0 01.84-3.74 7.55 7.55 0 012.27-2.62 10 10 0 013.37-1.55 16.15 16.15 0 014.12-.51 21.91 21.91 0 014.54.5 20 20 0 013.8 1.15c0 1.28 0 2.55-.06 3.81a32.58 32.58 0 01-.46 3.72h-2.31l-.76-3.6a3.92 3.92 0 00-.47-1.25 2.86 2.86 0 00-1-.93 9 9 0 00-1.54-.64 7.8 7.8 0 00-2.4-.35 7 7 0 00-4.14 1.07 4 4 0 00-1.71 3.57 4.37 4.37 0 00.62 2.4 5.68 5.68 0 001.54 1.63 11.57 11.57 0 002.28 1.15l2.6 1c1.19.43 2.35.91 3.47 1.44a13.74 13.74 0 013 1.86 8.5 8.5 0 012.1 2.56 7.27 7.27 0 01.8 3.53 7.9 7.9 0 01-.8 3.62 7.51 7.51 0 01-2.25 2.7 10.28 10.28 0 01-3.52 1.68 16.61 16.61 0 01-4.55.58 19.68 19.68 0 01-5.62-.76 29.44 29.44 0 01-4.17-1.53zM403.67 255.79a26.66 26.66 0 01-.21-4.15 31.61 31.61 0 01.34-3.68h2.44l1 4a4.61 4.61 0 00.5 1.37 2.77 2.77 0 00.86.84 12.2 12.2 0 002.28 1 11.54 11.54 0 003.6.51 6.85 6.85 0 004.59-1.33 5.11 5.11 0 001-5.89 5.1 5.1 0 00-1.52-1.64 14.19 14.19 0 00-2.55-1.38c-1-.43-2.22-.91-3.58-1.44s-2.32-1-3.35-1.45a11.06 11.06 0 01-2.62-1.74 7 7 0 01-1.71-2.31 7.42 7.42 0 01-.61-3.16 7.91 7.91 0 01.84-3.74 7.55 7.55 0 012.27-2.62 10 10 0 013.37-1.55 16.15 16.15 0 014.12-.51 21.91 21.91 0 014.54.5 20 20 0 013.8 1.15c0 1.28 0 2.55-.06 3.81a32.58 32.58 0 01-.46 3.72h-2.35l-.79-3.54a3.92 3.92 0 00-.47-1.25 2.86 2.86 0 00-1-.93 9 9 0 00-1.54-.64 7.8 7.8 0 00-2.4-.35 7 7 0 00-4.2.97 4 4 0 00-1.7 3.6 4.37 4.37 0 00.62 2.4 5.68 5.68 0 001.61 1.63 11.57 11.57 0 002.28 1.15l2.6 1c1.19.43 2.35.91 3.47 1.44a13.74 13.74 0 013 1.86 8.5 8.5 0 012.12 2.52 7.27 7.27 0 01.8 3.53 7.9 7.9 0 01-.8 3.62 7.51 7.51 0 01-2.25 2.7 10.28 10.28 0 01-3.52 1.68 16.61 16.61 0 01-4.55.58 19.68 19.68 0 01-5.62-.76 29.44 29.44 0 01-4.19-1.52zM27.35 327.32v2.31H11.21v-2.31l4.14-.79a2 2 0 001.11-.53 1.51 1.51 0 00.39-1.12v-31.41a1.58 1.58 0 00-.39-1.14 2 2 0 00-1.08-.54l-4.17-.84v-2.31h7.95a41 41 0 004.28-.21 44 44 0 014.56-.21q7.56 0 10.75 2.74t3.18 8.1a13.18 13.18 0 01-.91 5.23 11 11 0 01-2.26 3.44 9.71 9.71 0 01-2.89 2 15.24 15.24 0 01-2.8 1 12.5 12.5 0 012.24 2.48 39.24 39.24 0 012.14 3.53l4.3 8a4.24 4.24 0 001 1.38 3.57 3.57 0 001.45.56l3.05.66v2.31h-7c-.81 0-1.57-.61-2.3-1.83s-1.6-2.84-2.61-4.87l-2.6-5.16a56.72 56.72 0 00-2-3.7 14.23 14.23 0 00-1.94-2.68h-7.51v13.54a1.51 1.51 0 00.38 1.11 2 2 0 001.12.51zm-6-36.08v17.45h7.77a7.84 7.84 0 005.81-2.3q2.22-2.26 2.22-7a12.9 12.9 0 00-.46-3.53 6 6 0 00-1.6-2.69 7.65 7.65 0 00-3.11-1.71 17.32 17.32 0 00-5-.6 32.91 32.91 0 00-3.36.16zM75.21 323.12a10 10 0 01-4 5.08 12.77 12.77 0 01-7.39 2 13.24 13.24 0 01-5.7-1.16 11.24 11.24 0 01-4.07-3.18 13.65 13.65 0 01-2.41-4.82 21.45 21.45 0 01-.8-6 20.71 20.71 0 011-6.72 14.83 14.83 0 012.8-5.05 12.31 12.31 0 014.35-3.18 13.81 13.81 0 015.59-1.11 13.29 13.29 0 014.14.63 9.48 9.48 0 013.39 1.9 8.94 8.94 0 012.28 3.24 11.69 11.69 0 01.84 4.62c0 .44 0 1-.07 1.64s-.11 1.24-.19 1.77H55.55V313.96a21.51 21.51 0 00.78 6.27 11.14 11.14 0 002.08 4 7.17 7.17 0 003 2.11 10.08 10.08 0 003.51.63 9.93 9.93 0 005-1.28 9.71 9.71 0 003.53-3.44zM63.8 301.65a7.16 7.16 0 00-5.3 2.1q-2.1 2.1-2.71 6.51h14.83v-.63a6.05 6.05 0 000-.63 7.63 7.63 0 00-1.83-5.31 6.43 6.43 0 00-4.99-2.04zM95.8 340.33v2.31H80.66v-2.31l3.39-.5a1.75 1.75 0 001.1-.51 1.61 1.61 0 00.37-1.14v-33.32a1.82 1.82 0 00-.36-1.17 1.42 1.42 0 00-1-.54l-3.86-.47v-2.15a32.94 32.94 0 014.15-1 28.08 28.08 0 014.14-.38l.82.84.34 3.2a12 12 0 013.66-3 11.51 11.51 0 015.6-1.23 13 13 0 014.68.82 9.72 9.72 0 013.74 2.55 12.12 12.12 0 012.48 4.43 20.36 20.36 0 01.91 6.47 23.21 23.21 0 01-1 7.07 15 15 0 01-2.93 5.36 12.83 12.83 0 01-4.71 3.37 16.07 16.07 0 01-6.34 1.18 23.54 23.54 0 01-3-.21 13.51 13.51 0 01-3-.71v8.9a1.57 1.57 0 00.38 1.14 1.69 1.69 0 001.11.48zm.19-12.83a9.48 9.48 0 007.25-2.91q2.74-2.91 2.85-10c0-4-.63-7.09-2.05-9.19s-3.62-3.17-6.61-3.17a9.94 9.94 0 00-4.49.94 12.16 12.16 0 00-3.09 2.08v20.71a9.16 9.16 0 002.57 1.07 13.65 13.65 0 003.57.47zM117.24 314.75a19.9 19.9 0 011.12-7 13.42 13.42 0 013-4.92 12.11 12.11 0 014.47-2.88 15.52 15.52 0 015.42-.94 14.07 14.07 0 016 1.17 10.35 10.35 0 014 3.24 13.73 13.73 0 012.27 4.93 25.33 25.33 0 01.72 6.19 20 20 0 01-1.11 7 13.56 13.56 0 01-3 4.89 12.14 12.14 0 01-4.49 2.86 15.67 15.67 0 01-5.43.95 14 14 0 01-6-1.17 10.5 10.5 0 01-4-3.23 13.25 13.25 0 01-2.26-4.9 25.69 25.69 0 01-.71-6.19zm22.2.21a30.18 30.18 0 00-.43-5.3 12.89 12.89 0 00-1.46-4.21 7.54 7.54 0 00-2.74-2.78 8.24 8.24 0 00-4.26-1 7.18 7.18 0 00-6.37 3.06q-2.08 3.06-2.08 9.54a31.15 31.15 0 00.42 5.26 12.78 12.78 0 001.44 4.23 7.59 7.59 0 002.75 2.79 8.38 8.38 0 004.31 1 7.13 7.13 0 006.35-3.07c1.43-2.04 2.07-5.22 2.07-9.52zM151.22 327.96a29.36 29.36 0 01-.21-4.15 34.3 34.3 0 01.29-3.73h2.44l1 4a4.91 4.91 0 00.5 1.37 2.7 2.7 0 00.87.84 12.31 12.31 0 002.28 1 11.18 11.18 0 003.59.52 7 7 0 004.6-1.33 5.12 5.12 0 001-5.89 5.1 5.1 0 00-1.52-1.64 13.53 13.53 0 00-2.55-1.38c-1-.43-2.21-.92-3.58-1.44-1.2-.47-2.32-1-3.34-1.46a10.81 10.81 0 01-2.63-1.73 7.07 7.07 0 01-1.7-2.31 7.42 7.42 0 01-.62-3.16 7.91 7.91 0 01.84-3.74 7.56 7.56 0 012.27-2.62 10 10 0 013.37-1.55 16.2 16.2 0 014.12-.51 21.25 21.25 0 014.54.5 19.21 19.21 0 013.81 1.15c0 1.28 0 2.55-.07 3.81a30.48 30.48 0 01-.46 3.72h-2.26l-.78-3.54a4.08 4.08 0 00-.48-1.25 2.86 2.86 0 00-1.05-.93 8.81 8.81 0 00-1.53-.64 8.2 8.2 0 00-2.4-.36 7.13 7.13 0 00-4.15 1.08 4 4 0 00-1.7 3.57 4.37 4.37 0 00.61 2.4 5.59 5.59 0 001.62 1.63 11 11 0 002.28 1.15l2.6 1c1.19.44 2.34.92 3.46 1.45a13.67 13.67 0 013 1.86 8.81 8.81 0 012.1 2.56 7.36 7.36 0 01.8 3.53 8 8 0 01-.8 3.62 7.64 7.64 0 01-2.26 2.7 10.23 10.23 0 01-3.51 1.68 16.74 16.74 0 01-4.56.58 19.56 19.56 0 01-5.61-.76 29.16 29.16 0 01-4.22-1.6zM187.09 299.9v25.21a1.73 1.73 0 00.38 1.17 1.75 1.75 0 001.12.54l3.36.5v2.31h-14v-2.31l3.36-.5a1.77 1.77 0 001.11-.53 1.66 1.66 0 00.38-1.15v-20.31a1.73 1.73 0 00-.37-1.17 1.54 1.54 0 00-1.07-.51l-3.81-.47v-2.15a25.29 25.29 0 014.45-1c1.6-.21 3.08-.35 4.45-.4zm.6-8.82a3.32 3.32 0 01-1 2.49 3.536 3.536 0 01-5-5 3.47 3.47 0 015.95 2.48zM200.45 322.65v-19.42l-4.73-.53v-2.17l3.36-.4a1.72 1.72 0 001.09-.46 2 2 0 00.51-1l1.52-7.53h2.6v8.71h10.34v3.11H204.8v17.9c0 2.36.42 3.93 1.25 4.71a4.66 4.66 0 003.32 1.17 7.82 7.82 0 003.36-.69 6.77 6.77 0 002.46-1.89l1.58 1.32a8 8 0 01-3.47 3.48 10.73 10.73 0 01-5.09 1.23 12 12 0 01-2.87-.34 6.48 6.48 0 01-2.48-1.18 6 6 0 01-1.75-2.33 9.16 9.16 0 01-.66-3.69zM220.94 314.75a20.14 20.14 0 011.11-7 13.57 13.57 0 013-4.92 12 12 0 014.47-2.88 15.48 15.48 0 015.42-.94 14.1 14.1 0 016 1.17 10.42 10.42 0 014 3.24 13.73 13.73 0 012.27 4.93 25.33 25.33 0 01.72 6.19 19.81 19.81 0 01-1.12 7 13.29 13.29 0 01-3 4.89 12 12 0 01-4.48 2.86 15.68 15.68 0 01-5.44.95 14 14 0 01-6-1.17 10.54 10.54 0 01-4-3.23 13.4 13.4 0 01-2.25-4.9 25.69 25.69 0 01-.7-6.19zm22.2.21a30.14 30.14 0 00-.44-5.3 12.66 12.66 0 00-1.45-4.21 7.54 7.54 0 00-2.74-2.78 8.26 8.26 0 00-4.27-1 7.17 7.17 0 00-6.36 3.06q-2.08 3.06-2.09 9.54a31.15 31.15 0 00.42 5.26 12.56 12.56 0 001.45 4.23 7.59 7.59 0 002.75 2.79 8.38 8.38 0 004.31 1 7.11 7.11 0 006.34-3.07c1.39-2.04 2.08-5.22 2.08-9.52zM270.3 327.42v2.21h-16.33v-2.31l3.36-.5a1.86 1.86 0 001.12-.51 1.62 1.62 0 00.38-1.14v-20.16a2.21 2.21 0 00-.34-1.3 1.67 1.67 0 00-1.16-.56l-3.75-.47v-2.15a32.85 32.85 0 014.17-1 28.34 28.34 0 014.15-.41l.71.74.42 4.67a14.89 14.89 0 011.94-2 17.47 17.47 0 012.5-1.8 15.73 15.73 0 012.86-1.31 9.37 9.37 0 013-.51 10.49 10.49 0 011.73.17 5.49 5.49 0 011.63.51 39.91 39.91 0 01-.61 9.53h-2.28l-.71-4.41a2 2 0 00-.52-1.18 1.62 1.62 0 00-1.16-.37 11.21 11.21 0 00-4.3.88 11.42 11.42 0 00-4 2.77v18.29a1.58 1.58 0 00.4 1.15 1.83 1.83 0 001.15.5zM290.8 299.9v25.21a1.68 1.68 0 00.38 1.17 1.73 1.73 0 001.11.54l3.36.5v2.31h-14v-2.31l3.36-.5a1.82 1.82 0 001.12-.53 1.66 1.66 0 00.38-1.15v-20.31a1.73 1.73 0 00-.37-1.17 1.54 1.54 0 00-1.07-.51l-3.81-.47v-2.15a25.1 25.1 0 014.45-1c1.6-.21 3.08-.35 4.45-.4zm.6-8.82a3.47 3.47 0 11-6-2.48 3.31 3.31 0 012.49-1 3.35 3.35 0 013.46 3.46zM325.16 323.12a10 10 0 01-4 5.08 12.77 12.77 0 01-7.39 2 13.29 13.29 0 01-5.71-1.16 11.2 11.2 0 01-4.06-3.18 13.67 13.67 0 01-2.42-4.82 21.82 21.82 0 01-.8-6 21 21 0 011-6.72 14.68 14.68 0 012.81-5.05 12.28 12.28 0 014.34-3.18 13.84 13.84 0 015.59-1.11 13.4 13.4 0 014.15.63 9.44 9.44 0 013.38 1.9 8.94 8.94 0 012.28 3.24 11.69 11.69 0 01.84 4.62c0 .44 0 1-.06 1.64s-.11 1.24-.2 1.77h-19.4a4.93 4.93 0 000 .55v.63a21.14 21.14 0 00.79 6.27 11 11 0 002.07 4 7.3 7.3 0 003 2.11 10.09 10.09 0 003.52.63 9.86 9.86 0 005-1.28 9.63 9.63 0 003.53-3.44zm-11.44-21.47a7.19 7.19 0 00-5.3 2.1q-2.1 2.1-2.7 6.51h14.82q0-.34.06-.63V309a7.68 7.68 0 00-1.82-5.31 6.47 6.47 0 00-5.06-2.04zM332.19 327.96a29.36 29.36 0 01-.21-4.15 34.3 34.3 0 01.29-3.73h2.44l1 4a4.91 4.91 0 00.5 1.37 2.7 2.7 0 00.87.84 12.31 12.31 0 002.28 1 11.18 11.18 0 003.59.52 7 7 0 004.6-1.33 5.12 5.12 0 001-5.89 5.1 5.1 0 00-1.52-1.64 13.73 13.73 0 00-2.54-1.38c-1-.43-2.22-.92-3.59-1.44-1.2-.47-2.32-1-3.34-1.46a11 11 0 01-2.63-1.73 7.07 7.07 0 01-1.7-2.31 7.42 7.42 0 01-.62-3.16 7.91 7.91 0 01.84-3.74 7.56 7.56 0 012.27-2.62 10.14 10.14 0 013.37-1.55 16.2 16.2 0 014.12-.51 21.18 21.18 0 014.54.5 19.21 19.21 0 013.81 1.15c0 1.28 0 2.55-.07 3.81a30.48 30.48 0 01-.46 3.72h-2.31l-.78-3.54a4.08 4.08 0 00-.48-1.25 2.86 2.86 0 00-1-.93 8.49 8.49 0 00-1.53-.64 8.2 8.2 0 00-2.4-.36 7.13 7.13 0 00-4.15 1.08 4 4 0 00-1.7 3.57 4.37 4.37 0 00.61 2.4 5.59 5.59 0 001.62 1.63 11 11 0 002.28 1.15l2.6 1c1.19.44 2.34.92 3.46 1.45a13.67 13.67 0 013 1.86 8.5 8.5 0 012.1 2.56 7.36 7.36 0 01.8 3.53 8 8 0 01-.8 3.62 7.54 7.54 0 01-2.26 2.7 10.23 10.23 0 01-3.51 1.68 16.69 16.69 0 01-4.56.58 19.56 19.56 0 01-5.61-.76 29.16 29.16 0 01-4.22-1.6z"
  />
  <path
    class="text"
    d="M27.19 102.6A50.52 50.52 0 017.25 83.82a54.87 54.87 0 010-54.52 50.52 50.52 0 0119.94-18.78A60.12 60.12 0 0155.8 3.78a61.38 61.38 0 0125.08 4.93 48.31 48.31 0 0118.59 14.25L81.2 39.45q-9.86-11.88-23.92-11.89a29.5 29.5 0 00-14.72 3.63 25 25 0 00-10 10.22 34 34 0 000 30.3 25.13 25.13 0 0010 10.23 29.6 29.6 0 0014.72 3.62q14.06 0 23.92-11.89L99.47 90.2a48.12 48.12 0 01-18.56 14.21 61.38 61.38 0 01-25.11 4.93 60.12 60.12 0 01-28.61-6.74zM296.38 87.59h-42.92l-8 19.72H216.2L261 5.81h28.28l44.95 101.5h-29.87zm-8.41-21.17l-13-32.48-13 32.48z"
  />
  <circle class="circle" cx="161.52" cy="56.5" r="56.5" />

  <g class="dots" clip-path="url(#clip-circle)">
    <path d="M204.4 23.11h3.92v3.92h-3.92zM146.68 7.83h3.92v3.92h-3.92z" />
    <path d="M150.8 7.67h-4.25v4.29h4.25V7.71zm-.33 3.92h-3.58V7.96h3.58zM155.64 38.89h3.91v3.92h-3.91z" />
    <path d="M159.72 38.73h-4.25v4.23h4.25v-4.25zm-.33 3.91h-3.59v-3.58h3.59zM158.02 53.82h3.92v3.92h-3.92z" />
    <path d="M162.11 53.66h-4.25v4.3h4.25v-4.3zm-.33 3.92h-3.59v-3.62h3.61zM168.18 54.42h3.92v3.92h-3.92z" />
    <path d="M172.26 54.26h-4.25v4.25h4.25v-4.25zm-.33 3.91h-3.58v-3.58h3.58zM174.15 46.06h3.91v3.92h-3.91z" />
    <path d="M178.24 45.89h-4.25v4.25h4.25v-4.25zm-.34 3.92h-3.58v-3.58h3.58zM164.59 44.27h3.92v3.92h-3.92z" />
    <path d="M168.68 44.1h-4.25v4.25h4.25V44.1zm-.33 3.92h-3.55v-3.58h3.59zM163.02 15.88h3.91v3.92h-3.91z" />
    <path d="M167.1 15.71h-4.25v4.25h4.25v-4.25zm-.33 3.92h-3.58v-3.58h3.61zM120.4 36.5h3.92v3.92h-3.92z" />
    <path d="M124.48 36.34h-4.25v4.25h4.25v-4.25zm-.33 3.92h-3.58v-3.59h3.58zM117.41 71.15h3.92v3.92h-3.92z" />
    <path d="M121.5 70.96h-4.26v4.25h4.26v-4.25zm-.34 3.92h-3.58v-3.59h3.58zM150.26 99.22h3.92v3.92h-3.92z" />
    <path d="M154.34 99.05h-4.25v4.25h4.25v-4.25zm-.33 3.92h-3.58v-3.59h3.58zM201.04 88.62h3.92v3.92h-3.92z" />
    <path
      d="M205.13 88.45h-4.25v4.25h.33l3.59.71.33-.71v-4.25zm-.33 3.92h-3.59v-3.58h3.59zM171.16 108.77h3.92v3.92h-3.92z"
    />
    <path d="M175.25 108.61H171v4.25h4.25v-4.25zm-.33 3.91h-3.59v-3.56h3.59zM155.64 60.39h3.91v3.92h-3.91z" />
    <path d="M159.72 60.23h-4.25v4.25h4.25v-4.25zm-.33 3.92h-3.59v-3.59h3.59zM172.36 74.13h3.92v3.92h-3.92z" />
    <path d="M176.44 73.96h-4.25v4.25h4.25v-4.25zm-.33 3.91h-3.58v-3.58h3.58zM201.03 71.74h3.92v3.92h-3.92z" />
    <path d="M205.11 71.58h-4.25v4.25h4.25v-4.25zm-.33 3.91h-3.58v-3.53h3.6zM147.27 59.2h3.92v3.92h-3.92z" />
    <path d="M151.36 59.03h-4.25v4.25h4.25v-4.25zm-.33 3.92h-3.59v-3.58h3.59zM131.15 50.84h3.92v3.92h-3.92z" />
    <path d="M135.23 50.67h-4.25v4.29h4.25v-4.25zm-.33 3.92h-3.58v-3.58h3.58zM174.75 30.53h3.91v3.92h-3.91z" />
    <path d="M178.8 30.37h-4.25v4.25h4.25v-4.25zm-.33 3.91h-3.58V30.7h3.58zM205.21 57.41h3.92v3.92h-3.92z" />
    <path d="M209.29 57.24h-4.25v4.25h4.25v-4.25zm-.33 3.92h-3.58v-3.58h3.58zM162.2 77.72h3.92v3.92h-3.92z" />
    <path d="M166.29 77.55h-4.25v4.25h4.25v-4.25zm-.33 3.92h-3.59v-3.59h3.59zM129.95 92.05h3.92v3.92h-3.92z" />
    <path d="M134.04 91.88h-4.24v4.25h4.25v-4.25zm-.34 3.92h-3.58v-3.58h3.58zM120.14 12.96h3.92v3.92h-3.92z" />
    <path d="M124.23 12.79h-4.25v4.25h4.25v-4.25zm-.33 3.92h-3.58v-3.58h3.58zM102.7 62.78h3.92v3.92h-3.92z" />
    <path d="M106.8 62.62h-4.25v4.25h4.25v-4.25zm-.34 3.92h-3.58v-3.58h3.58zM186.2 31.43h3.92v3.92h-3.92z" />
    <path d="M190.29 31.26h-4.25v4.25h4.25v-4.25zm-.33 3.92h-3.59v-3.59h3.59zM194.46 46.06h3.91v3.92h-3.91z" />
    <path d="M198.54 45.89h-4.25v4.25h4.25v-4.25zm-.33 3.92h-3.58v-3.58h3.58zM164.71 4.4h3.92v3.92h-3.92z" />
  </g>
  <path
    class="text"
    d="M414.24 67.55a29.65 29.65 0 0014.39-10.82c3.39-4.93 5.11-11.16 5.11-18.53 0-10.46-3.36-18.57-10-24.11s-16.17-8.34-28.42-8.34h-48.45v101.54h26.55V70.48h15.14l21.42 36.62.11.19h29.92zm-40.82-41.2h17.49c5.49 0 9.52 1 12 3s3.67 5.09 3.67 9.32-1.23 7.53-3.67 9.48-6.5 3-12 3h-17.49z"
  />
</svg>
