<svg xmlns="http://www.w3.org/2000/svg" viewBox="0 0 279.89334 133.89333" width="1399.4667" height="669.46665">
  <title xml:lang="en">Cold Spring Harbor Laboratory</title>

  <style>
    :root {
      --color-primary: rgb(0 73 130);
      --color-text: rgb(0 0 0);
    }

    .text {
      fill: var(--color-primary);
    }

    .symbol {
      fill: var(--color-primary);
    }

    .symbol .initials {
      fill: var(--color-text);
    }

    @media screen and (forced-colors: active) {
      :root {
        --color-primary: CanvasText;
        --color-text: CanvasText;
      }
    }
  </style>

  <g class="text">
    <path
      d="m 166.688,17.5788 h -0.24 c -0.28534,-0.5756 -1.12667,-2.2568 -4.58534,-2.2568 -4.008,0 -6.144,2.640666 -6.144,7.178666 0,0.8396 0,3.072933 1.464,5.016667 0.86534,1.129066 2.16,2.1848 4.344,2.1848 2.95334,0 4.46667,-1.464534 5.54667,-2.736934 l 0.26267,0.168267 -0.26267,2.3776 c -1.82533,1.007733 -3.89067,1.511467 -6.07467,1.511467 -4.68,0 -8.56933,-2.904667 -8.56933,-8.305734 0,-4.825599 2.95333,-8.691733 9.36267,-8.691733 1.96933,0 3.696,0.3376 5.61733,1.200534 l -0.72133,2.3532"
    />
    <path
      d="m 176.88666,30.014666 c 2.616,0 3.02534,-3.001067 3.02534,-5.0416 0,-2.040133 -0.40934,-5.018266 -3.02534,-5.018266 -2.61733,0 -3.02666,3.025999 -3.02666,5.018266 0,2.040533 0.40933,5.0416 3.02666,5.0416 z m 0,-11.0192 c 3.69734,0 6.02534,2.088533 6.02534,6.000933 0,3.721467 -2.328,5.978134 -6.02534,5.978134 -3.62533,0 -6.02666,-2.256667 -6.02666,-5.978134 0,-3.696266 2.40133,-6.000933 6.02666,-6.000933"
    />
    <path
      d="m 188.86,13.040666 c 0.792,0 1.05733,-0.07133 1.536,-0.1432 -0.23867,2.5928 -0.23867,6.362 -0.23867,8.834933 0,0.480267 -0.0733,6.242134 0.216,8.954134 -0.48,-0.04787 -0.96133,-0.144267 -1.464,-0.144267 -0.40933,0 -0.81733,0.048 -1.65867,0.144267 0.26534,-1.848934 0.24267,-8.9792 0.24267,-9.554667 0,-4.464533 -0.12,-6.362 -0.28933,-8.2344 0.59866,0.0964 0.888,0.1432 1.656,0.1432"
    />
    <path
      d="m 203.47733,24.901599 c 0,-2.2812 -0.576,-4.585866 -2.88,-4.585866 -2.37733,0 -2.93067,2.544266 -2.93067,4.369733 0,1.847467 0.36267,4.896933 2.83333,4.896933 1.77734,0 2.97734,-1.513066 2.97734,-4.6808 z m 0.096,4.128667 c -0.57467,0.840133 -1.776,1.992267 -3.648,1.992267 -3.14667,0 -5.25867,-2.6172 -5.25867,-5.857867 0,-4.009333 2.42534,-6.121333 5.37867,-6.121333 1.776,0 2.61733,0.768267 3.432,1.584933 0,-3.098 -0.0467,-5.738533 -0.28667,-7.7308 0.52933,0.0964 1.008,0.1432 1.70267,0.1432 0.50533,0 0.96133,-0.0468 1.37066,-0.1432 -0.16933,2.8568 -0.26533,5.737067 -0.26533,8.593733 0,0.3844 0.0493,7.7552 0.26533,9.195334 -0.24,-0.04787 -0.768,-0.144267 -1.37066,-0.144267 -0.59867,0 -1.00667,0.0964 -1.39067,0.144267 l 0.0707,-1.656267"
    />
    <path
      d="m 153.19733,56.418265 c 1.104,2.401067 2.304,2.762 3.72133,2.762 1.896,0 3.144,-1.273333 3.144,-3.001466 0,-1.896934 -1.51066,-2.5688 -1.96666,-2.760534 -0.67467,-0.288933 -1.80134,-0.719733 -2.47467,-1.0088 -2.328,-1.0312 -3.024,-2.2568 -3.024,-4.248933 0,-2.113066 1.248,-4.802133 5.59333,-4.802133 1.752,0 2.808,0.457333 3.984,0.9844 -0.47866,1.177067 -0.528,1.3688 -0.744,2.2812 h -0.336 c -0.35866,-1.368133 -1.632,-2.088533 -3.144,-2.088533 -1.896,0 -2.83333,1.176133 -2.83333,2.5928 0,1.752533 1.22533,2.232799 3.33733,3.049466 1.84934,0.719733 2.56934,0.9844 3.26534,1.752533 1.00666,1.0792 1.176,2.495867 1.176,3.167734 0,2.449466 -1.704,5.257866 -6.09734,5.257866 -2.06533,0 -3.62533,-0.791733 -4.48933,-1.224 0.40933,-1.2484 0.432,-1.560933 0.552,-2.7136 h 0.336"
    />
    <path
      d="m 173.02133,49.625599 c -2.352,0 -2.904,2.783866 -2.904,4.6328 0,2.088533 0.48,4.6328 3,4.6328 2.30533,0 2.81067,-2.7604 2.81067,-4.512934 0,-1.343733 -0.19334,-4.752666 -2.90667,-4.752666 z m -3,0.552133 c 0.62533,-0.8896 1.8,-2.0172 3.74533,-2.0172 3.26534,0 5.16134,2.976533 5.16134,5.978133 0,2.7604 -1.51334,6.001067 -5.40134,6.001067 -1.84933,0 -2.664,-0.791733 -3.40933,-1.56 0,3.553733 0.0707,5.642266 0.264,7.6824 -0.48,-0.0964 -0.76933,-0.144267 -1.584,-0.144267 -0.57467,0 -0.93733,0.04787 -1.48933,0.144267 0.24,-2.9776 0.28933,-7.514133 0.28933,-8.9792 0,-2.544267 -0.0493,-6.3136 -0.26533,-8.786533 0.45733,0.04853 0.96,0.1448 1.46533,0.1448 0.552,0 0.93467,-0.09627 1.29733,-0.1448 l -0.0733,1.681333"
    />
    <path
      d="m 183.436,57.667332 c 0.0493,-1.056267 0.0493,-2.9052 0.0493,-3.8412 0,-2.6172 -0.0493,-3.216133 -0.16933,-5.329733 0.552,0.0964 0.96133,0.1448 1.58533,0.1448 0.576,0 0.98533,-0.0484 1.368,-0.1448 -0.144,1.224 -0.144,1.345333 -0.144,2.520933 0.64933,-1.0324 1.60667,-2.640667 3.52933,-2.640667 0.23867,0 0.432,0.02347 0.624,0.07187 -0.192,0.3604 -0.216,1.3932 -0.216,1.7292 0,0.383867 0.048,0.7432 0.12,1.0312 l -0.16933,0.1208 c -0.408,-0.336933 -1.296,-0.336933 -1.416,-0.336933 -1.08133,0 -1.84933,0.672933 -2.136,1.296933 -0.16933,0.3604 -0.28933,0.719733 -0.28933,2.376 0,1.5364 0.0733,3.866133 0.21733,5.354133 -0.2893,-0.02347 -0.8893,-0.144269 -1.3933,-0.144269 -0.40667,0 -0.936,0.07293 -1.65734,0.144266 l 0.0973,-2.352533"
    />
    <path
      d="m 194.18266,57.427732 c 0.0467,-1.2256 0.0707,-2.088533 0.0707,-2.976533 0,-1.705734 -0.0707,-4.273467 -0.24,-5.9548 0.48267,0.07187 0.91467,0.1448 1.60933,0.1448 0.71867,0 1.104,-0.07293 1.488,-0.1448 l -0.048,1.0808 c -0.0467,1.007733 -0.14266,3.241066 -0.14266,4.105733 0,1.055733 0.0467,3.528667 0.0707,4.368267 0,0.3124 0.096,1.6812 0.096,1.968666 -0.456,-0.07133 -0.864,-0.144266 -1.39066,-0.144266 -0.552,0 -1.08134,0.07293 -1.63334,0.144266 z m -0.28933,-12.795866 c 0,-0.889067 0.76933,-1.680667 1.65733,-1.680667 0.888,0 1.68134,0.7916 1.68134,1.680667 0,0.911466 -0.81734,1.656266 -1.68134,1.656266 -0.86533,0 -1.65733,-0.7448 -1.65733,-1.656266"
    />
    <path
      d="m 212.37866,57.066799 c 0,1.200533 0.0693,2.401066 0.16667,2.953066 -0.52934,-0.04787 -1.032,-0.144266 -1.56,-0.144266 -0.52934,0 -1.104,0.0964 -1.56,0.144266 0.18933,-1.152 0.28666,-3.4088 0.28666,-4.537466 0,-1.247467 0,-3.216134 -0.16666,-3.864534 -0.28934,-1.1292 -1.20134,-1.584933 -2.23467,-1.584933 -0.912,0 -1.75333,0.600533 -2.136,1.392133 -0.336,0.6964 -0.408,2.352667 -0.408,3.169334 0,2.184933 0.0493,3.792666 0.16933,5.425466 -0.24,-0.02347 -1.29733,-0.144266 -1.51333,-0.144266 -0.47867,0 -1.008,0.07293 -1.51333,0.144266 0.216,-3.192666 0.24,-3.553066 0.24,-6.409866 0,-3.0484 -0.024,-3.337467 -0.19067,-5.1136 0.24,0.04853 0.71867,0.1448 1.584,0.1448 0.648,0 0.93733,-0.07293 1.32,-0.1448 -0.12,0.696933 -0.12,0.791733 -0.12,1.992266 0.984,-1.3204 1.872,-2.112 3.72133,-2.112 2.61734,0 4.008,1.488534 4.008,4.057334 0,0.671866 -0.0933,3.4572 -0.0933,4.6328"
    />
    <path
      d="m 223.72666,52.097999 c 0,-0.6484 -0.11867,-2.809867 -2.01467,-2.809867 -2.06533,0 -2.06533,2.090133 -2.06533,3.072933 0,1.3932 0.312,2.785334 2.06533,2.785334 1.104,0 2.01467,-0.9364 2.01467,-3.0484 z m 1.75333,10.298399 c 0,-1.968666 -2.06533,-2.111866 -3.576,-2.111866 -0.864,0 -2.04133,0.119733 -2.66666,0.623333 -0.14267,0.119867 -0.74134,0.696933 -0.74134,1.6328 0,1.920933 1.44,2.712533 3.26267,2.712533 1.70533,0 3.72133,-0.840133 3.72133,-2.8568 z m -0.144,-12.603066 c 1.05467,1.007867 1.152,1.967733 1.152,2.616133 0,1.3932 -0.792,3.2656 -3.93733,3.5052 -0.336,0.02453 -1.824,0.048 -2.112,0.0964 -0.43333,0.07133 -0.888,0.312534 -0.888,1.007734 0,1.0324 0.81733,1.128666 1.44,1.1772 0.288,0.02333 3.096,0.02333 3.67467,0.09627 1.46266,0.1912 1.89466,0.5756 2.15866,0.8396 0.744,0.743734 0.864,1.512 0.864,2.1604 0,3.072933 -2.83333,5.065067 -5.976,5.065067 -2.85733,0 -5.23466,-1.0796 -5.23466,-3.288 0,-2.209334 1.63333,-2.736933 1.992,-2.833333 l 0.57866,-0.167734 c -1.08133,-0.360933 -1.68266,-1.152533 -1.68266,-1.897333 0,-0.646933 0.0733,-1.847333 2.16133,-2.5208 -2.304,-0.863067 -2.664,-2.2084 -2.664,-3.3604 0,-2.569333 2.016,-3.9376 4.656,-3.9376 0.60133,0 1.104,0.07293 1.72933,0.167733 1.32,0.1928 1.464,0.216134 2.52134,0.216134 0.50266,0 1.46266,-0.02333 1.896,-0.119734 -0.048,0.241067 -0.0733,0.3844 -0.0733,0.624934 0,0.288133 0.0253,0.5276 0.0733,0.7204 -0.24,-0.02507 -1.224,-0.119867 -1.44134,-0.119867 l -0.888,-0.0484"
    />
    <path
      d="m 164.31333,81.263598 c -1.29733,-0.0484 -2.59333,-0.09627 -3.88933,-0.09627 -1.36934,0 -2.73734,0.04787 -4.10534,0.09627 v 2.399467 c 0,3.098 0.096,4.177199 0.216,5.690133 -0.36,-0.02347 -0.98533,-0.144267 -1.65733,-0.144267 -0.576,0 -1.128,0.0964 -1.704,0.144267 0.192,-3.649467 0.216,-7.2744 0.216,-10.922933 0,-1.8724 -0.0733,-3.6968 -0.24133,-5.545733 0.48133,0.0484 1.34533,0.1448 1.72933,0.1448 0.456,0 1.344,-0.0964 1.65733,-0.1448 -0.12,1.320266 -0.216,2.353066 -0.216,6.842666 1.2,0.0468 2.424,0.0948 3.624,0.0948 1.46534,0 2.904,-0.048 4.37067,-0.0948 0,-0.625067 -0.0267,-3.530267 -0.0493,-4.130267 0,-0.743733 -0.024,-0.9364 -0.12,-2.712399 0.456,0.0484 1.224,0.1448 1.752,0.1448 0.43333,0 1.224,-0.0964 1.68,-0.1448 -0.30934,2.496266 -0.336,8.306133 -0.336,10.803599 0,1.895867 0,3.937467 0.24266,5.665067 -0.57866,-0.04787 -1.17733,-0.144267 -1.75333,-0.144267 -0.50533,0 -1.12933,0.0964 -1.632,0.144267 0.0227,-0.432267 0.18933,-3.336933 0.18933,-4.224933 l 0.0267,-3.864667"
    />
    <path
      d="m 178.39866,83.399065 c -2.736,0.721333 -3.72133,0.9844 -3.72133,2.7136 0,1.271866 0.62533,2.065066 1.584,2.065066 1.296,0 2.13733,-1.0328 2.13733,-2.281333 z m -1.752,-0.598934 c 1.416,-0.3844 1.60667,-0.457333 1.72934,-0.673466 0.0693,-0.1432 0.0933,-0.310934 0.0933,-0.4792 0,-1.825467 -1.03067,-2.545334 -2.328,-2.545334 -1.82267,0 -2.448,1.128667 -2.59067,1.704267 -0.12266,-0.02347 -0.24266,-0.048 -0.36266,-0.048 -0.12,0 -0.26267,0.02453 -0.38267,0.048 0.0707,-0.455733 0.12,-0.768267 0.12,-1.1756 0,-0.216133 0,-0.432267 -0.024,-0.6484 1.82267,-1.104133 2.568,-1.343733 3.816,-1.343733 2.59333,0 4.36933,1.175466 4.36933,3.6 0,0.888 -0.0707,3.314 -0.0707,4.105733 0,2.352533 0.024,2.928133 0.83866,2.928133 0.24,0 0.456,-0.0948 0.672,-0.1912 -0.0467,0.1432 -0.096,0.287467 -0.096,0.432267 0,0.143333 0.0493,0.2876 0.096,0.4324 -0.62266,0.239466 -1.36666,0.527066 -2.03866,0.527066 -1.41734,0 -1.70667,-0.6964 -1.992,-1.464666 -0.74534,0.9844 -1.96934,1.6328 -3.21867,1.6328 -2.784,0 -3.31333,-1.992134 -3.31333,-2.928533 0,-2.6652 1.63333,-3.097467 3.86533,-3.6964 l 0.81733,-0.216134"
    />
    <path
      d="m 186.532,87.000665 c 0.0493,-1.056267 0.0493,-2.9052 0.0493,-3.8412 0,-2.6172 -0.0493,-3.216134 -0.16933,-5.329734 0.552,0.0964 0.96133,0.1448 1.58666,0.1448 0.57467,0 0.984,-0.0484 1.36667,-0.1448 -0.14267,1.224 -0.14267,1.345334 -0.14267,2.520934 0.648,-1.0324 1.60667,-2.640667 3.528,-2.640667 0.24,0 0.432,0.02347 0.62534,0.07187 -0.19334,0.3604 -0.216,1.3932 -0.216,1.7292 0,0.383866 0.0467,0.7432 0.11866,1.0312 l -0.168,0.1208 c -0.40933,-0.336934 -1.29733,-0.336934 -1.41733,-0.336934 -1.08133,0 -1.84933,0.672934 -2.136,1.296934 -0.168,0.3604 -0.288,0.719733 -0.288,2.376 0,1.5364 0.072,3.866133 0.216,5.354133 -0.28933,-0.02347 -0.888,-0.144267 -1.39333,-0.144267 -0.40667,0 -0.93467,0.07293 -1.656,0.144267 l 0.096,-2.352533"
    />
    <path
      d="m 205.44533,83.568265 c 0,-1.5848 -0.216,-4.466134 -2.88,-4.466134 -2.49734,0 -2.90267,2.760534 -2.90267,4.705734 0,1.488133 0.14267,4.729199 2.856,4.729199 2.472,0 2.92667,-2.953066 2.92667,-4.968799 z m -2.49467,6.072933 c -1.44267,0 -2.71333,-0.288 -3.74666,-1.6796 -0.71867,0.479066 -0.81467,0.575466 -1.51067,1.3916 H 196.876 c 0.14533,-2.4244 0.23866,-3.841067 0.23866,-8.666667 0,-3.144266 -0.0227,-4.680666 -0.28533,-9.122399 0.47867,0.0964 0.93467,0.1432 1.60667,0.1432 0.67466,0 1.05733,-0.07133 1.46533,-0.1432 -0.14533,2.664133 -0.14533,3.192799 -0.192,8.114666 0.91066,-1.248533 2.06533,-2.040133 3.67466,-2.040133 2.37467,0 5.03867,1.6796 5.03867,5.688533 0,3.241067 -1.96667,6.314 -5.472,6.314"
    />
    <path
      d="m 218.35733,88.681331 c 2.61733,0 3.02666,-3.001066 3.02666,-5.0416 0,-2.040133 -0.40933,-5.018266 -3.02666,-5.018266 -2.61734,0 -3.02534,3.026 -3.02534,5.018266 0,2.040534 0.408,5.0416 3.02534,5.0416 z m 0,-11.0192 c 3.69866,0 6.02666,2.088534 6.02666,6.000934 0,3.721466 -2.328,5.978133 -6.02666,5.978133 -3.62534,0 -6.02534,-2.256667 -6.02534,-5.978133 0,-3.696267 2.4,-6.000934 6.02534,-6.000934"
    />
    <path
      d="m 228.91466,87.000665 c 0.0493,-1.056267 0.0493,-2.9052 0.0493,-3.8412 0,-2.6172 -0.0493,-3.216134 -0.16933,-5.329734 0.552,0.0964 0.96133,0.1448 1.58667,0.1448 0.57466,0 0.984,-0.0484 1.36666,-0.1448 -0.14266,1.224 -0.14266,1.345334 -0.14266,2.520934 0.648,-1.0324 1.60666,-2.640667 3.528,-2.640667 0.24,0 0.432,0.02347 0.62533,0.07187 -0.19333,0.3604 -0.216,1.3932 -0.216,1.7292 0,0.383866 0.0467,0.7432 0.12,1.0312 l -0.16933,0.1208 c -0.40934,-0.336934 -1.29734,-0.336934 -1.41734,-0.336934 -1.08,0 -1.84933,0.672934 -2.13466,1.296934 -0.16934,0.3604 -0.28934,0.719733 -0.28934,2.376 0,1.5364 0.072,3.866133 0.216,5.354133 -0.28933,-0.02347 -0.888,-0.144267 -1.39333,-0.144267 -0.40667,0 -0.93467,0.07293 -1.656,0.144267 l 0.096,-2.352533"
    />
    <path
      d="m 153.43733,108.77146 c 0,-1.05626 0,-1.29586 -0.072,-3.43226 -0.024,-0.50427 -0.072,-2.6656 -0.0947,-3.12134 0.6,0.11974 1.056,0.1448 1.656,0.1448 0.6,0 1.08,-0.0485 1.68,-0.1448 -0.16933,3.62494 -0.24133,6.65 -0.24133,10.34627 0,1.68133 0.0493,3.2412 0.072,4.56253 h 0.43333 c 0.696,0 4.15334,0 5.57067,-0.21613 -0.0733,0.26307 -0.12,0.40773 -0.12,0.95987 0,0.3604 0.0227,0.5036 0.12,0.81613 -1.22667,-0.0479 -3.28933,-0.14427 -4.58667,-0.14427 -1.536,0 -2.832,0.048 -4.584,0.14427 0,-0.38387 0.16667,-5.95413 0.16667,-6.55307 v -3.362"
    />
    <path
      d="m 171.824,112.7324 c -2.73734,0.72133 -3.72134,0.9844 -3.72134,2.7136 0,1.27186 0.624,2.06506 1.58267,2.06506 1.29733,0 2.13867,-1.0328 2.13867,-2.28133 z m -1.75334,-0.59894 c 1.41734,-0.3844 1.60667,-0.45733 1.72934,-0.67346 0.0707,-0.1432 0.0933,-0.31094 0.0933,-0.4792 0,-1.82547 -1.03067,-2.54534 -2.328,-2.54534 -1.82267,0 -2.448,1.12867 -2.59067,1.70427 -0.12266,-0.0235 -0.24266,-0.048 -0.36266,-0.048 -0.11867,0 -0.26267,0.0245 -0.38267,0.048 0.0707,-0.45573 0.12,-0.76827 0.12,-1.1756 0,-0.21613 0,-0.43227 -0.0227,-0.6484 1.82267,-1.10413 2.56667,-1.34373 3.81467,-1.34373 2.59333,0 4.36933,1.17546 4.36933,3.6 0,0.888 -0.0693,3.314 -0.0693,4.10573 0,2.35253 0.0227,2.92813 0.83733,2.92813 0.24,0 0.456,-0.0948 0.672,-0.1912 -0.0467,0.1432 -0.096,0.28747 -0.096,0.43227 0,0.14333 0.0493,0.2876 0.096,0.4324 -0.62133,0.23947 -1.36666,0.52707 -2.03866,0.52707 -1.416,0 -1.70534,-0.6964 -1.992,-1.46467 -0.74534,0.9844 -1.96934,1.6328 -3.21867,1.6328 -2.784,0 -3.312,-1.99213 -3.312,-2.92853 0,-2.6652 1.632,-3.09747 3.864,-3.6964 l 0.81733,-0.21614"
    />
    <path
      d="m 187.95066,112.9016 c 0,-1.5848 -0.216,-4.46614 -2.88,-4.46614 -2.49733,0 -2.904,2.76054 -2.904,4.70574 0,1.48813 0.144,4.7292 2.85734,4.7292 2.472,0 2.92666,-2.95307 2.92666,-4.9688 z m -2.49466,6.07293 c -1.44267,0 -2.71334,-0.288 -3.74667,-1.6796 -0.71867,0.47907 -0.816,0.57547 -1.51067,1.3916 h -0.81733 c 0.14533,-2.4244 0.23867,-3.84107 0.23867,-8.66667 0,-3.14426 -0.0227,-4.68066 -0.28667,-9.1224 0.48,0.0964 0.936,0.1432 1.608,0.1432 0.67333,0 1.05733,-0.0713 1.46533,-0.1432 -0.14533,2.66414 -0.14533,3.1928 -0.192,8.11467 0.91067,-1.24853 2.064,-2.04013 3.67467,-2.04013 2.37467,0 5.03867,1.6796 5.03867,5.68853 0,3.24107 -1.96667,6.314 -5.472,6.314"
    />
    <path
      d="m 200.49999,118.01466 c 2.61734,0 3.02667,-3.00106 3.02667,-5.0416 0,-2.04013 -0.40933,-5.01826 -3.02667,-5.01826 -2.61333,0 -3.02266,3.026 -3.02266,5.01826 0,2.04054 0.40933,5.0416 3.02266,5.0416 z m 0,-11.0192 c 3.69867,0 6.02667,2.08854 6.02667,6.00094 0,3.72146 -2.328,5.97813 -6.02667,5.97813 -3.62399,0 -6.02266,-2.25667 -6.02266,-5.97813 0,-3.69627 2.39867,-6.00094 6.02266,-6.00094"
    />
    <path
      d="m 210.70133,116.334 c 0.0467,-1.05627 0.0467,-2.9052 0.0467,-3.8412 0,-2.6172 -0.0467,-3.21614 -0.16666,-5.32974 0.552,0.0964 0.95866,0.1448 1.584,0.1448 0.57466,0 0.984,-0.0484 1.36933,-0.1448 -0.14533,1.224 -0.14533,1.34534 -0.14533,2.52094 0.648,-1.0324 1.60933,-2.64067 3.528,-2.64067 0.24266,0 0.432,0.0235 0.62533,0.0719 -0.19333,0.3604 -0.216,1.3932 -0.216,1.7292 0,0.38386 0.0493,0.7432 0.11867,1.0312 l -0.16667,0.1208 c -0.408,-0.33694 -1.296,-0.33694 -1.416,-0.33694 -1.08133,0 -1.84933,0.67294 -2.13867,1.29694 -0.16666,0.3604 -0.28533,0.71973 -0.28533,2.376 0,1.5364 0.0693,3.86613 0.216,5.35413 -0.28933,-0.0235 -0.888,-0.14427 -1.39333,-0.14427 -0.40934,0 -0.93734,0.0729 -1.656,0.14427 l 0.096,-2.35253"
    />
    <path
      d="m 226.44533,112.7324 c -2.736,0.72133 -3.72134,0.9844 -3.72134,2.7136 0,1.27186 0.62534,2.06506 1.584,2.06506 1.29734,0 2.13734,-1.0328 2.13734,-2.28133 z m -1.752,-0.59894 c 1.41733,-0.3844 1.60666,-0.45733 1.72933,-0.67346 0.0707,-0.1432 0.0933,-0.31094 0.0933,-0.4792 0,-1.82547 -1.03066,-2.54534 -2.328,-2.54534 -1.82266,0 -2.448,1.12867 -2.59066,1.70427 -0.12267,-0.0235 -0.24267,-0.048 -0.36267,-0.048 -0.12,0 -0.26267,0.0245 -0.38267,0.048 0.0707,-0.45573 0.12,-0.76827 0.12,-1.1756 0,-0.21613 0,-0.43227 -0.024,-0.6484 1.824,-1.10413 2.568,-1.34373 3.816,-1.34373 2.59334,0 4.36934,1.17546 4.36934,3.6 0,0.888 -0.0707,3.314 -0.0707,4.10573 0,2.35253 0.024,2.92813 0.83867,2.92813 0.24,0 0.456,-0.0948 0.672,-0.1912 -0.0467,0.1432 -0.096,0.28747 -0.096,0.43227 0,0.14333 0.0493,0.2876 0.096,0.4324 -0.62267,0.23947 -1.36667,0.52707 -2.03867,0.52707 -1.41733,0 -1.70533,-0.6964 -1.992,-1.46467 -0.74533,0.9844 -1.96933,1.6328 -3.21867,1.6328 -2.784,0 -3.31333,-1.99213 -3.31333,-2.92853 0,-2.6652 1.63333,-3.09747 3.86533,-3.6964 l 0.81734,-0.21614"
    />
    <path
      d="m 237.70133,103.00946 c -0.096,0.336 -0.096,0.7448 -0.16934,4.34534 1.08,0 1.22667,0 1.656,-0.0235 l 0.89067,-0.0719 c -0.0493,0.21614 -0.0733,0.35934 -0.0733,0.60054 0,0.26306 0.024,0.4792 0.0733,0.71973 -1.03333,-0.0963 -1.29733,-0.0963 -2.61733,-0.0963 0,1.0328 -0.072,3.60147 -0.072,4.60934 0,3.5536 0.11866,4.586 1.728,4.586 0.52933,0 0.96133,-0.16774 1.44,-0.5052 -0.0227,0.12133 -0.096,0.38426 -0.096,0.57706 0,0.2396 0.0493,0.38387 0.096,0.552 -0.69467,0.3604 -1.92134,0.6964 -2.71334,0.6964 -0.672,0 -1.60666,-0.19266 -2.15866,-0.62506 -0.81734,-0.6468 -1.01067,-1.75254 -1.01067,-2.71187 0,-1.05627 0.14667,-5.25787 0.14667,-7.17867 h -0.72134 c -0.456,0 -0.84133,0.0484 -1.128,0.0719 0.024,-0.11987 0.0707,-0.288 0.0707,-0.5276 0,-0.26413 -0.024,-0.48027 -0.0707,-0.76827 0.16667,0.0235 0.50267,0.0953 0.81467,0.0953 h 1.05733 c 0,-0.67187 0,-1.63174 -0.0493,-2.736 1.37067,-0.62494 2.30533,-1.2968 2.73733,-1.68067 l 0.16934,0.0713"
    />
    <path
      d="m 248.88666,118.01466 c 2.616,0 3.02533,-3.00106 3.02533,-5.0416 0,-2.04013 -0.40933,-5.01826 -3.02533,-5.01826 -2.61733,0 -3.02667,3.026 -3.02667,5.01826 0,2.04054 0.40934,5.0416 3.02667,5.0416 z m 0,-11.0192 c 3.69733,0 6.02533,2.08854 6.02533,6.00094 0,3.72146 -2.328,5.97813 -6.02533,5.97813 -3.62533,0 -6.02667,-2.25667 -6.02667,-5.97813 0,-3.69627 2.40134,-6.00094 6.02667,-6.00094"
    />
    <path
      d="m 259.08399,116.334 c 0.0467,-1.05627 0.0467,-2.9052 0.0467,-3.8412 0,-2.6172 -0.0467,-3.21614 -0.16667,-5.32974 0.552,0.0964 0.95867,0.1448 1.584,0.1448 0.57467,0 0.984,-0.0484 1.36934,-0.1448 -0.14534,1.224 -0.14534,1.34534 -0.14534,2.52094 0.648,-1.0324 1.60934,-2.64067 3.528,-2.64067 0.24267,0 0.432,0.0235 0.62534,0.0719 -0.19334,0.3604 -0.216,1.3932 -0.216,1.7292 0,0.38386 0.0493,0.7432 0.12,1.0312 l -0.16667,0.1208 c -0.40933,-0.33694 -1.29733,-0.33694 -1.41733,-0.33694 -1.08,0 -1.84934,0.67294 -2.13734,1.29694 -0.16666,0.3604 -0.28666,0.71973 -0.28666,2.376 0,1.5364 0.0693,3.86613 0.216,5.35413 -0.28934,-0.0235 -0.888,-0.14427 -1.39334,-0.14427 -0.40933,0 -0.93733,0.0729 -1.656,0.14427 l 0.096,-2.35253"
    />
    <path
      d="m 274.75066,115.63706 0.432,-1.00773 c 0.52933,-1.224 1.656,-4.56107 1.68,-4.63293 0.24267,-0.79267 0.62533,-2.0416 0.89067,-2.83334 0.38266,0.0964 0.672,0.1448 1.05466,0.1448 0.40934,0 0.74534,-0.0729 1.08134,-0.1448 -1.224,2.40107 -6.652,14.5485 -7.39334,17.71776 -0.31333,-0.0719 -0.62533,-0.14478 -1.08133,-0.14478 -0.38533,0 -0.69733,0.0484 -1.104,0.14478 l 0.38267,-0.625 c 0.50533,-0.81509 2.088,-3.93649 2.69066,-5.13702 -0.21733,-0.71974 -0.43333,-1.20054 -2.328,-5.59374 l -2.86,-6.362 c 0.84134,0.11987 1.29734,0.1448 1.68267,0.1448 0.38267,0 0.91067,-0.0484 1.656,-0.1448 0.26267,0.9844 1.82533,5.09014 2.088,5.73854 l 1.128,2.73546"
    />
  </g>

  <g class="symbol">
    <path
      d="m 129.59893,77.742798 c -0.60053,3.001067 -4.19013,5.8932 -7.63853,7.774533 -1.24587,-3.031333 -1.64734,-6.268266 -1.06507,-8.613066 0.4964,-1.486934 2.39067,-3.364533 5.59733,-5.571867 2.28387,2.683867 3.41414,5.3036 3.10627,6.4104 z m -8.32493,21.688533 -0.10574,0.182267 c -0.85213,1.703202 -4.25106,2.790662 -6.98226,3.664132 -0.9224,0.29587 -1.80574,0.58333 -2.6292,0.8896 0.0979,-6.255199 0.89626,-7.618799 2.17133,-9.540666 0.764,-0.700533 2.23747,-1.528666 3.79267,-2.4036 0.92706,-0.520933 1.92186,-1.086 2.91826,-1.699066 1.51974,3.833333 1.89267,7.317733 0.83494,8.907333 z m -15.41467,17.342669 -0.23013,0.0948 c -2.15987,1.08333 -6.424002,0.93653 -9.820802,0.41573 2.0624,-5.06 3.4864,-6.36987 5.431202,-7.6772 0.76613,-0.33227 2.5812,-0.54053 4.33853,-0.74213 0.86093,-0.0989 1.78173,-0.20574 2.7344,-0.33747 0.13747,5.02347 -1.0708,7.78907 -2.4532,8.24627 z m -20.913465,11.06621 c -1.571334,0 -5.687067,-1.35157 -8.666667,-2.72136 2.362533,-3.02864 5.3072,-5.22499 6.746267,-5.97499 1.817733,-0.54586 5.521866,-0.0771 8.134399,0.6052 -1.586933,3.90782 -3.754133,8.09115 -6.213999,8.09115 z m -21.297467,2.58749 -0.1536,-0.007 c -3.1932,0 -5.210399,-2.60416 -6.830799,-4.69635 -0.256134,-0.33229 -0.494267,-0.63281 -0.724934,-0.91562 3.319334,-1.84896 5.785467,-2.7849 7.482267,-2.83334 2.603733,0.48334 4.9016,2.12916 6.933333,3.58334 0.338533,0.24218 0.657867,0.46093 0.983333,0.68906 -2.4292,3.18594 -4.7776,4.45676 -7.6896,4.17968 z m -22.685332,-4.17604 c -2.6068,-1.04166 -3.695334,-4.54426 -4.4016,-7.10673 0.7412,-0.0964 1.511466,-0.2276 2.327066,-0.388 2.046934,-0.40107 4.365067,-0.85427 6.249467,-0.38813 2.526533,0.50946 4.466666,3.12401 5.958933,5.44276 -3.0448,2.12656 -6.378133,3.68229 -10.133866,2.4401 z M 24.051599,116.07973 c -2.5172,-1.51147 -2.674533,-7.0572 -2.2516,-10.44893 2.069334,0.16933 4.380667,0.66413 6.343734,2.13653 2.2464,1.6848 3.280266,5.63693 3.964666,8.25253 0.0604,0.23174 0.116134,0.43747 0.173867,0.65267 -2.2792,0.63387 -5.068667,0.9844 -8.230667,-0.5928 z m -7.414133,-14.42027 c -2.342666,-0.29946 -4.99736,-0.6396 -7.7036129,-3.346396 -0.67292,-0.6708 -1.7374933,-3.071866 2.0817729,-10.966133 0.385934,0.219867 0.764067,0.433333 1.12292,0.633867 2.68172,1.5016 4.452654,2.4948 6.16932,4.7776 1.0228,1.534933 0.794267,5.5792 0.658267,7.994802 -0.02653,0.4724 -0.04787,0.8984 -0.06507,1.29946 -0.715066,-0.18386 -1.468266,-0.2916 -2.2636,-0.3932 z M 3.4322932,75.499065 c 0,-2.922933 1.47344,-5.672933 4.0703066,-7.747467 0.34948,0.393334 0.6895867,0.770934 1.0099067,1.124 1.8437465,2.032267 3.0614535,3.376 3.5494665,5.3292 0.513547,2.051067 -0.714573,5.5484 -2.3645732,8.433867 -3.1416666,-1.949467 -6.2651066,-5.1276 -6.2651066,-7.1396 z M 4.2380266,52.753732 c 0.7343733,-2.9328 3.8697865,-4.9672 6.4755194,-5.616666 0.07864,-0.0192 0.167187,-0.04787 0.24948,-0.07027 1.398427,2.459866 2.555774,6.473866 1.957814,8.287466 -0.525,2.095334 -2.85,5.363067 -5.0255335,7.566133 C 5.7104132,60.573998 3.5828132,55.380265 4.2380266,52.753732 Z M 13.421333,31.864666 c 1.0604,-1.5224 3.0464,-3.5416 8,-3.551067 0.01147,0.0604 0.01827,0.1324 0.0308,0.1896 -0.0016,2.25 -0.0412,7.0708 -1.428667,9.150533 -0.983866,1.477067 -4.276133,3.6984 -7.265133,5.083334 -0.77448,-3.150534 -0.816147,-8.724934 0.663,-10.8724 z m 14.8052,-16.609333 c 1.273466,-0.631333 4.208933,-1.434933 9.543733,0.0208 l -0.01667,0.164133 c 0,2.826534 -1.588533,6.553067 -3.9672,7.704667 l -0.466133,0.1172 c -2.4848,0.624933 -5.052533,1.259866 -8.663467,1.506666 0.226,-3.6952 1.604134,-8.513466 3.569734,-9.513466 z M 47.844265,5.8818665 c 1.989067,-0.5630666 6.0588,1.0484 9.6984,2.5036 0.07133,0.048 0.134934,0.093867 0.2052,0.1412 -0.0244,0.046933 -0.05467,0.0948 -0.07813,0.1416 -1.35,2.6990665 -3.5192,5.9162665 -6.188,5.9162665 -3.237467,0 -5.964,-0.5292 -9.4276,-1.5688 1.3136,-3.0379999 3.628667,-5.9911998 5.790133,-7.1338665 z M 69.502132,3.4282666 c 2.247333,0 4.841599,2.2071999 7.435866,4.7333332 -0.01773,0.014533 -0.04787,0.040533 -0.05733,0.0484 -0.02187,0.021867 -2.314534,2.1708002 -7.497333,2.9401332 -2.440134,-0.03387 -3.8416,-1.102133 -6.354667,-3.0171999 -0.170267,-0.1302666 -0.352133,-0.2677333 -0.531333,-0.4035999 2.0964,-2.3162667 5.142266,-4.3010666 7.0048,-4.3010666 z m 20.261866,3.4014666 c 5.5172,1.4422666 6.317733,7.6797328 6.365733,8.0562668 0.02707,0.151066 0.0916,0.495866 0.180667,0.955733 -1.378667,0.3932 -4.2396,1.005733 -7.466667,0.508933 -2.355733,-0.9948 -3.418666,-2.615733 -5.0088,-5.040133 -0.512,-0.7792 -1.077066,-1.6343999 -1.732266,-2.5354665 2.035333,-1.1473333 4.873866,-2.3062666 7.661333,-1.9453333 z M 108.97866,19.504266 c 4.81254,2.75 3.52294,9.033333 3.4536,9.3588 -0.0255,0.140133 -0.062,0.344267 -0.1016,0.573467 -0.4348,-0.07027 -0.85933,-0.144267 -1.26453,-0.224934 -3.214,-0.8068 -6.2536,-1.569866 -8.474,-3.701066 -0.73533,-1.233867 -1.5948,-4.340667 -2.26347,-7.2516 2.152,-0.4276 5.72974,-0.700533 8.65,1.245333 z m 13.42187,16.9364 c 1.98547,1.819866 0.59373,8.758933 -0.33227,10.747466 l -0.3896,0.578133 c -0.236,-0.1188 -0.4656,-0.233333 -0.68906,-0.344266 -2.4808,-1.665067 -5.37814,-3.918267 -6.10107,-6.784933 -0.3172,-0.951067 -0.112,-4.0312 0.31253,-7.268267 2.68747,0.4688 5.2984,1.174 7.19947,3.071867 z m -3.3724,50.915198 c -1.07027,0.676 -2.1708,1.3036 -3.18907,1.874934 -1.926,1.083333 -3.5896,2.018266 -4.6484,3.074533 l -0.21666,0.264 c -1.948,2.929733 -2.82134,5.048533 -2.8568,12.509469 -1.0136,0.14573 -2.00987,0.2708 -2.92974,0.376 -2.4068,0.276 -4.30773,0.4948 -5.559862,1.1172 l -0.186934,0.10826 c -2.8344,1.88907 -4.678666,3.92187 -7.031866,9.85427 -2.6364,-0.73707 -7.611867,-1.61093 -10.583333,-0.60947 l -0.216134,0.0885 c -1.794266,0.88906 -5.493733,3.586 -8.331199,7.36722 l -0.01613,0.0245 c -0.301066,-0.21093 -0.595333,-0.41145 -0.909333,-0.63645 -2.254267,-1.61459 -5.060933,-3.62392 -8.5084,-4.20472 l -0.2844,-0.0235 c -2.398933,0 -5.3968,1.06934 -9.568133,3.4235 -1.778133,-2.76456 -4.324533,-6.1839 -8.100533,-6.9427 -2.550533,-0.6344 -5.266133,-0.1032 -7.662533,0.3672 -0.9756,0.19107 -1.893734,0.3656 -2.625067,0.42187 -0.0572,-0.21507 -0.113467,-0.42453 -0.1744,-0.65893 -0.8052,-3.07707 -2.021333,-7.72654 -5.2256,-10.12907 -2.5468,-1.91147 -5.411866,-2.56093 -7.875466,-2.78907 0.01613,-0.39173 0.03747,-0.8152 0.06453,-1.28653 0.181867,-3.208266 0.429733,-7.602532 -1.283867,-10.170266 -2.207733,-2.941733 -4.450933,-4.199466 -7.292666,-5.790666 -0.363067,-0.203067 -0.743733,-0.416667 -1.146867,-0.645733 1.3922,-2.455734 3.658334,-7.2292 2.721934,-10.9672 -0.695334,-2.788133 -2.302134,-4.56 -4.336507,-6.803733 -0.29428,-0.323867 -0.606253,-0.6708 -0.92552,-1.029067 2.50364,-2.464133 5.34376,-6.252133 6.084427,-9.2276 0.9536,-2.866266 -0.411467,-7.4672 -2.006267,-10.481333 3.319733,-1.535333 7.161466,-4.0068 8.6724,-6.273466 2.004666,-3.005734 2.004666,-8.3672 2.004666,-11.247867 l -0.01467,-0.118266 c 3.940133,-0.268667 6.755733,-0.964534 9.288133,-1.601467 l 0.6172,-0.1548 0.278,-0.0952 c 3.693866,-1.633867 5.808933,-6.195333 6.098,-10.014133 3.675466,1.097467 6.733866,1.690667 10.330666,1.690667 3.4636,0 6.509467,-2.521334 9.064666,-7.4604 0.133867,0.102533 0.271867,0.2072 0.401467,0.305733 2.7272,2.079067 4.881867,3.721333 8.554267,3.721333 l 0.242666,-0.01773 c 6.497867,-0.928133 9.4292,-3.794267 9.454133,-3.827067 0.0032,-0.0027 0.02813,-0.02347 0.0568,-0.04693 0.633867,0.864667 1.178667,1.693733 1.7088,2.5016 1.769334,2.6964 3.297467,5.025467 6.775067,6.414533 l 0.355733,0.09907 c 3.790133,0.628 7.1344,-0.0089 8.931733,-0.498533 0.692267,3.001599 1.705734,6.708933 2.793734,8.340133 l 0.215205,0.262 c 2.90146,2.899466 6.60986,3.830133 10.31346,4.757733 0.47027,0.0944 0.9708,0.164667 1.45787,0.2444 -0.4224,3.1052 -0.78653,7.066666 -0.21147,8.783733 0.98014,3.914667 4.564,6.726666 7.5776,8.7396 l 0.188,0.109466 c 0.14374,0.07133 0.2948,0.1468 0.4448,0.221867 -1.22453,2.0656 -2.25466,4.3708 -2.25466,6.818133 0,3.2396 2.90986,7.9068 5.6484,10.654267 l 0.14533,0.1296 c 0.24267,0.193333 0.45467,0.398933 0.68533,0.598533 -3.61346,2.558267 -5.67226,4.799467 -6.428,7.076533 -0.83493,3.338533 -0.29066,7.5364 1.42547,11.411466 z m 9.80213,-29.233332 0.0739,0.159867 c 1.0156,1.936933 -0.77347,5.645333 -2.4672,8.104133 -0.28853,-0.2536 -0.5796,-0.500534 -0.87187,-0.7364 -2.44786,-2.484934 -4.5812,-6.280267 -4.5812,-8.164667 0,-1.697333 0.84067,-3.508266 1.85467,-5.203066 2.49787,1.457866 4.99747,3.353066 5.99173,5.840133 z m 0.052,10.709866 c 2.0948,-2.875466 5.06307,-8.172933 3.10374,-12.061466 -1.362,-3.3276 -4.35374,-5.654667 -7.26934,-7.3708 l 0.2708,-0.402133 0.1084,-0.187467 c 0.5916,-1.186933 3.84734,-11.030266 -0.32293,-14.848933 -2.5688,-2.566666 -5.88493,-3.440133 -9.0536,-3.986 0.0255,-0.144266 0.05,-0.290666 0.0765,-0.4328 0.0812,-0.3656 1.90987,-9.005199 -5.0136,-12.956266 -3.8588,-2.574933 -8.42186,-2.239067 -11.161996,-1.685333 -0.03387,-0.174534 -0.06613,-0.348534 -0.09627,-0.511467 -0.04013,-0.3636 -1.081867,-8.9286665 -9.014134,-10.9114664 l -0.173866,-0.0344 c -4.052133,-0.574 -7.9776,1.1692 -10.538133,2.7103999 -3.2452,-3.2005332 -6.611867,-6.15826649 -10.295733,-6.15826649 -3.134934,0 -7.158934,2.70466659 -9.788533,5.71919989 -0.139067,-0.0948 -0.2688,-0.1874667 -0.414134,-0.2838667 L 58.984932,5.2662665 C 54.270799,3.3793333 49.816132,1.5974666 46.648399,2.6599999 l -0.222933,0.092667 c -2.9952,1.4974666 -6.042134,5.2838665 -7.6708,9.2379991 -6.185333,-1.6952 -9.975467,-0.843733 -12.062,0.194267 l -0.0099,0.0053 c -3.574,1.806134 -5.210933,8.097867 -5.4244,12.6984 -4.776133,0.04533 -8.363613,1.727067 -10.654759,5.0156 l -0.0042,0.0057 C 8.3775268,33.127667 8.4191935,39.813533 9.5468068,43.910466 5.9447135,44.9146 1.9598203,47.720333 0.90878164,51.920866 -0.05215633,55.768199 2.4139936,61.991132 5.2759669,65.155266 1.925,67.899065 0,71.623998 0,75.499065 c 0,4.056266 4.7911465,8.1344 8.0244798,10.131733 -1.8380266,3.7032 -5.2192665,11.4152 -1.5166666,15.110402 3.5333328,3.53386 7.0943198,3.9896 9.6948528,4.32186 0.852,0.10947 1.588,0.2032 2.1312,0.38387 l 0.03693,0.0131 c -0.506267,4.2448 -0.2656,11.05106 4.029733,13.62653 4.305733,2.15211 8.0724,1.64951 10.8276,0.88547 0.842666,3.07133 2.294799,7.80206 6.557333,9.50258 5.216666,1.73438 9.576533,-0.28021 13.223333,-2.8125 0.269866,0.29948 0.595866,0.71718 0.941733,1.16406 1.7364,2.24219 4.6364,5.98698 9.466133,6.02709 0.328133,0.0281 0.6484,0.0401 0.963067,0.0401 4.526533,0 7.652,-2.76771 9.962399,-5.90729 3.284934,1.57292 8.172934,3.28645 10.603734,3.28645 4.512933,0 7.315066,-4.9776 9.593199,-10.72649 3.736,0.65254 9.20054,1.04056 12.5208,-0.55574 3.27814,-1.17866 4.95627,-5.65106 4.66414,-12.18133 0.94573,-0.43587 2.18533,-0.8396 3.50773,-1.26293 3.48187,-1.11307 7.4224,-2.37347 8.95733,-5.30214 2.0068,-3.137996 1.02187,-8.255196 -0.80053,-12.596396 3.03907,-1.625999 8.5708,-5.210933 9.54533,-10.102533 0.76347,-2.7152 -1.21933,-6.501599 -4.0516,-9.712533"
    />

    <g class="initials">
      <path
        d="m 51.687999,81.371465 c -1.0724,0.8568 -4.633867,2.445333 -8.926,2.445333 -9.050533,0 -15.657866,-5.619867 -15.657866,-15.3568 0,-9.740133 6.607333,-15.361466 16.086533,-15.361466 3.691599,0 6.994266,0.9 9.311999,1.975467 -0.428133,0.7724 -0.7276,2.444266 -0.901066,3.349066 l -0.257867,0.08227 c -1.200533,-1.332267 -4.117733,-3.816667 -8.153066,-3.816667 -6.7328,0 -11.882267,4.2448 -11.882267,13.771333 0,9.5208 5.149467,13.768267 11.882267,13.768267 4.077599,0 7.082266,-2.317734 8.710933,-3.557334 l 0.172933,0.171867 -0.386533,2.528667"
      />
      <path
        d="m 57.176532,77.556398 c 0.943733,2.012933 3.089066,4.460933 6.7808,4.460933 3.818666,0 6.1348,-2.789066 6.1348,-6.224 0,-7.893199 -13.5156,-4.502666 -13.5156,-14.589066 0,-4.761466 3.604133,-8.105733 9.308933,-8.105733 2.704667,0 4.635333,0.643733 6.351467,2.0172 -0.514,0.985867 -0.813467,1.970267 -1.1588,3.604133 h -0.513067 c -0.601467,-1.5896 -1.8896,-4.0312 -5.107733,-4.0312 -3.219334,0 -5.532267,2.187467 -5.532267,5.317734 0,8.023866 13.512933,4.675466 13.512933,14.161866 0,5.2292 -3.906266,9.648533 -10.510933,9.648533 -3.562,0 -5.578133,-1.2396 -7.079733,-2.445333 0.516667,-1.3308 0.643867,-2.187467 0.814133,-3.815067 h 0.515067"
      />
      <path
        d="m 101.02546,64.770932 c 0,-3.6916 -0.1692,-7.423467 -0.34106,-11.116133 0.72546,0.131733 1.414,0.220266 2.1016,0.220266 0.6848,0 1.3724,-0.08853 2.10146,-0.220266 -0.17186,3.692666 -0.34533,7.424533 -0.34533,11.116133 v 7.3792 c 0,3.687466 0.17347,7.419199 0.34533,11.114533 -0.72906,-0.135334 -1.41666,-0.221334 -2.10146,-0.221334 -0.6876,0 -1.37614,0.086 -2.1016,0.221334 0.17186,-3.695334 0.34106,-7.427067 0.34106,-11.114533 v -3.862 c -3.002529,-0.04693 -5.963462,-0.08333 -8.967596,-0.08333 -3.001066,0 -5.962533,0.0364 -8.967199,0.08333 v 3.862 c 0,3.687466 0.172933,7.419199 0.342133,11.114533 -0.728667,-0.135334 -1.414,-0.221334 -2.101067,-0.221334 -0.688,0 -1.373333,0.086 -2.100533,0.221334 0.169867,-3.695334 0.340133,-7.427067 0.340133,-11.114533 v -7.3792 c 0,-3.6916 -0.170266,-7.423467 -0.340133,-11.116133 0.7272,0.131733 1.412533,0.220266 2.100533,0.220266 0.687067,0 1.3724,-0.08853 2.101067,-0.220266 -0.1692,3.692666 -0.342133,7.424533 -0.342133,11.116133 v 1.497333 c 3.004666,0.0428 5.966133,0.130267 8.967199,0.130267 3.004134,0 5.965067,-0.08747 8.967596,-0.130267 v -1.497333"
      />
    </g>
  </g>
</svg>
