<svg xmlns="http://www.w3.org/2000/svg" viewBox="0 0 895 927" width="895" height="927">
  <title xml:lang="en">Eider Africa</title>

  <style>
    :root {
      --color-primary: rgb(27 119 115);
      --color-secondary: rgb(156 144 115);
    }

    .text {
      fill: var(--color-primary);
    }

    .dot {
      fill: var(--color-secondary);
    }

    .primary {
      fill: var(--color-primary);
    }

    .secondary {
      fill: var(--color-secondary);
    }

    @media screen and (forced-colors: active) {
      :root {
        --color-primary: CanvasText;
        --color-secondary: CanvasText;
      }
    }
  </style>

  <path
    class="dot"
    d="M 866.88148,432.49691 C 863.81598,430.831 861,425.44456 861,421.24675 c 0,-4.47767 3.90897,-9.51808 8.66749,-11.17626 3.57234,-1.24484 4.59954,-1.24025 7.9515,0.0355 9.76138,3.71521 11.27983,17.79224 2.41374,22.37707 -3.64775,1.88633 -9.69394,1.89269 -13.15125,0.0138 z"
  />
  <path
    class="dot"
    d="m 11.755662,432.24521 c -5.5533688,-3.44326 -7.263024,-11.26058 -3.7300274,-17.05539 6.0036164,-9.8471 21.3956244,-6.50401 22.6840544,4.92691 0.931402,8.26337 -4.129881,13.91465 -12.410029,13.85666 -2.089813,-0.0146 -5.034612,-0.79232 -6.543998,-1.72818 z"
  />

  <g class="text">
    <path
      d="m 490.36382,100.21808 c -1.56597,-1.268038 -3.65927,-5.898502 -6.44202,-14.249996 l -4.12227,-12.371573 -9.41876,-0.756644 c -5.18032,-0.416154 -13.65905,-0.641154 -18.84163,-0.5 l -9.42288,0.256644 -5.07712,12.356568 c -5.83571,14.202782 -6.76173,15.054081 -16.43412,15.108001 -5.39424,0.0301 -6.26506,-0.204126 -5.75,-1.546356 0.33385,-0.869984 0.60699,-3.513734 0.60699,-5.875 0,-3.917478 0.2488,-4.342972 2.8428,-4.861772 2.71177,-0.542355 3.64506,-2.54144 20.25,-43.375 l 17.4072,-42.8064412 7.43097,0.5 7.43097,0.5 14.229,42.7890542 c 7.82595,23.53398 14.77461,43.44648 15.44147,44.25 0.66686,0.80352 2.05738,1.460946 3.09003,1.460946 1.60916,0 1.87756,0.786227 1.87756,5.5 v 5.499999 h -6.38922 c -4.76141,0 -6.98023,-0.47857 -8.70897,-1.87843 z M 475.96652,59.846511 C 472.85993,50.87252 465.14958,25.738124 464.3278,21.90633 c -1.22589,-5.716133 -2.06828,-5.375134 -4.17535,1.690181 -0.82012,2.75 -4.2206,11.930351 -7.55662,20.400779 -3.33601,8.470429 -5.8293,15.782929 -5.54063,16.25 0.28866,0.467072 7.00916,0.849221 14.93444,0.849221 11.0918,0 14.30997,-0.287812 13.97688,-1.25 z"
    />
    <path
      d="m 522.70064,108.2521 c -4.8448,-1.1673 -6.15415,-1.86459 -5.78747,-3.0821 0.52105,-1.73011 20.54884,-83.218933 20.54884,-83.608894 0,-0.133107 -1.68407,-0.557947 -3.74238,-0.944089 -2.05832,-0.386141 -4.04227,-0.887413 -4.40879,-1.113936 -0.63133,-0.390179 1.53622,-10.1249517 2.46014,-11.0488708 0.95161,-0.9516162 55.87466,13.4985068 57.74723,15.1931598 2.38371,2.157228 2.42713,3.991877 0.30887,13.05026 l -1.66056,7.101119 -5.89351,-1.48458 -5.89352,-1.484579 0.65055,-4.338182 c 0.58647,-3.910878 0.41817,-4.437393 -1.70874,-5.34542 -2.48509,-1.060946 -22.02575,-6.049477 -23.69651,-6.049477 -1.14648,0 -8.54201,29.569357 -7.84792,31.378129 0.2601,0.677815 7.02165,2.741122 15.02565,4.585128 8.00401,1.844006 15.08381,3.680951 15.73288,4.082101 1.5426,0.953379 -0.71759,10.954642 -2.47564,10.954642 -0.66153,0 -7.61711,-1.575 -15.45684,-3.5 -7.83974,-1.925 -14.8028,-3.5 -15.47346,-3.5 -0.7542,0 -3.07091,7.534519 -6.07273,19.75 -2.66933,10.8625 -5.13265,20.011949 -5.47403,20.332099 -0.34138,0.32016 -3.4383,-0.0968 -6.88206,-0.92651 z"
    />
    <path
      d="m 300.27555,83.209856 c -13.49587,-44.987713 -12.337,-42.486258 -18.85476,-40.698401 -2.36417,0.648506 -2.65822,0.331175 -4.22072,-4.554881 -0.92373,-2.888573 -1.5113,-5.42016 -1.30571,-5.625749 0.20559,-0.205589 9.97992,-3.320963 21.72073,-6.923054 31.39033,-9.630584 39.55641,-9.264555 49.67117,2.226412 4.77674,5.426665 7.48484,12.776255 7.53835,20.458502 0.0515,7.400716 -1.8429,12.484707 -6.55846,17.600484 -3.85754,4.184937 -3.89112,4.286423 -1.79041,5.410691 1.17748,0.630168 6.92676,6.099452 12.77617,12.153966 10.27155,10.6317 10.76465,10.995872 14.4169,10.647573 3.77645,-0.360142 3.78364,-0.353581 5.2874,4.819147 0.82819,2.848874 1.5058,5.399544 1.5058,5.668154 0,0.2686 -3.10156,1.24845 -6.89236,2.17743 -9.1223,2.23554 -9.70965,1.89751 -25.05872,-14.421609 -6.80705,-7.237245 -13.38539,-13.349338 -14.73121,-13.687117 -2.28661,-0.573903 -17.94926,3.213704 -18.74641,4.533337 -0.19993,0.330973 2.09281,8.861198 5.09497,18.956059 3.00217,10.09485 5.25382,18.55895 5.00367,18.8091 -0.25015,0.25015 -3.13637,1.26673 -6.41382,2.25906 l -5.95899,1.80424 z M 322.93726,68.00328 c 11.61932,-3.631995 13.80901,-5.020919 16.51022,-10.472493 2.43299,-4.910266 2.53443,-8.552185 0.4117,-14.782043 -2.01655,-5.918255 -6.32976,-10.287721 -11.54024,-11.690757 -3.51834,-0.947392 -5.47419,-0.6794 -15.19747,2.082383 -6.1377,1.743339 -11.43463,3.334688 -11.77094,3.536331 -0.98485,0.590487 9.4628,34.41981 10.63002,34.41981 0.58354,0 5.51405,-1.391954 10.95671,-3.093231 z"
    />
    <path
      d="m 638.96201,151.74608 c -7.88368,-4.37096 -8.37218,-5.88967 -8.44356,-26.25035 -0.0319,-9.09412 -0.54118,-17.4913 -1.17034,-19.2961 -0.90731,-2.60271 -2.57238,-3.92864 -8.9778,-7.149225 -4.32515,-2.174642 -8.13221,-3.953894 -8.46013,-3.953894 -0.32793,0 -4.38604,7.874999 -9.01804,17.499999 -4.632,9.625 -8.5943,17.5 -8.80513,17.5 -1.19595,0 -11.625,-5.26632 -11.625,-5.87023 0,-0.39799 8.325,-18.17686 18.5,-39.508602 10.175,-21.331743 18.5,-38.904785 18.5,-39.051203 0,-0.146418 -1.8,-1.077902 -4,-2.069964 -2.2,-0.992062 -4,-1.975365 -4,-2.185118 0,-0.209753 1.12341,-2.598304 2.49646,-5.307891 l 2.49646,-4.926522 6.25354,2.844664 c 21.96089,9.989758 37.97444,18.27964 41.54905,21.509089 5.93752,5.364194 8.63031,11.548196 8.55613,19.649218 -0.13953,15.23828 -11.01348,28.200489 -24.85575,29.629139 -4.6362,0.4785 -5.48218,0.85364 -4.92205,2.18261 0.37201,0.88265 0.90471,8.70248 1.18378,17.37742 l 0.5074,15.7726 3.01179,2.53426 3.0118,2.53426 -2.31524,4.94313 c -1.27339,2.71873 -2.57582,4.93777 -2.89431,4.93122 -0.31848,-0.007 -3.27906,-1.50889 -6.57906,-3.33851 z m 9.21509,-59.318658 c 7.14182,-3.389019 12.36694,-14.598845 10.3303,-22.162357 -1.43235,-5.319319 -6.22151,-9.440502 -16.39496,-14.108237 -4.86726,-2.233174 -9.18593,-4.060317 -9.59705,-4.060317 -0.71482,0 -14.63272,28.296521 -15.25384,31.012624 -0.40701,1.77982 19.71301,10.963205 24.04933,10.976843 1.84188,0.0058 4.93168,-0.740557 6.86622,-1.658556 z"
    />
    <path
      d="m 242.09635,152.34651 c -1.31672,-2.0625 -10.39227,-18.375 -20.16788,-36.25 -9.77562,-17.874999 -17.9251,-32.682911 -18.10996,-32.906471 -0.18486,-0.223559 -2.14529,0.409353 -4.3565,1.406472 -2.21121,0.997119 -4.17495,1.630031 -4.36385,1.406472 -0.18891,-0.22356 -1.5184,-2.443843 -2.95443,-4.933963 l -2.61097,-4.527491 26.79287,-14.722509 c 27.54596,-15.136325 31.23765,-16.529922 34.36469,-12.972509 1.69983,1.933782 7.77169,12.531055 7.77169,13.564011 0,0.358763 -2.34824,1.842239 -5.2183,3.296612 -4.85732,2.461386 -5.28968,2.523527 -6.25,0.898281 -3.84202,-6.502194 -2.90799,-6.578625 -17.63194,1.442818 -7.36987,4.015023 -13.52134,7.402472 -13.66993,7.527664 -0.32368,0.272704 13.61111,25.663923 14.73018,26.840523 0.4289,0.45096 7.33763,-2.811542 15.35274,-7.249995 8.01511,-4.438453 14.80468,-8.069914 15.08793,-8.069914 0.28326,0 1.73754,2.086091 3.23175,4.635759 3.27226,5.583688 4.37101,4.453718 -14.13243,14.53393 -7.15,3.89514 -13.13883,7.20176 -13.30852,7.34804 -0.77223,0.66574 14.65688,27.01503 15.9688,27.27094 1.53471,0.29937 26.22177,-12.87681 28.80484,-15.37395 1.2856,-1.24284 1.25497,-1.77212 -0.25,-4.31984 -0.94332,-1.59691 -1.71512,-3.38895 -1.71512,-3.98233 0,-0.59337 2.29184,-2.24022 5.09299,-3.65967 5.92379,-3.00181 5.77849,-3.09581 10.52457,6.80818 4.40931,9.20123 4.51012,9.09139 -21.49188,23.4143 -25.66537,14.13748 -27.60313,14.6651 -31.49134,8.57464 z"
    />
    <path
      d="m 664.45796,170.45047 c -5.22277,-3.65532 -10.95068,-7.7223 -12.72868,-9.03772 l -3.23273,-2.39167 3.21136,-4.85303 3.21136,-4.85302 4.08474,2.81037 4.08473,2.81038 21.43664,-30.57065 c 11.79014,-16.81386 21.5458,-30.840191 21.67924,-31.169633 0.13343,-0.329442 -1.32907,-1.669492 -3.25,-2.977888 -1.92094,-1.308396 -3.49261,-2.811497 -3.49261,-3.340224 0,-1.875223 5.51865,-8.742811 6.68654,-8.320949 2.29203,0.827925 25.21895,17.049576 25.26593,17.876597 0.0261,0.460088 -1.37654,2.819503 -3.11707,5.243147 l -3.16459,4.40662 -3.36501,-2.56661 c -1.85075,-1.41164 -3.81971,-2.41504 -4.37548,-2.22979 -0.55576,0.18526 -10.62839,14.04084 -22.38361,30.79018 l -21.37313,30.45336 3.66321,2.43745 c 2.01477,1.34059 3.81909,2.56145 4.0096,2.71301 0.52155,0.4149 -5.83397,9.41611 -6.64848,9.41611 -0.3883,0 -4.97918,-2.99072 -10.20196,-6.64604 z"
    />
    <path
      d="m 168.08498,215.01458 c -2.31179,-1.81846 -51.98189,-56.56447 -53.8203,-59.32033 -0.4437,-0.66512 -1.53486,-0.2906 -3,1.0297 -4.14778,3.73773 -4.80727,3.76043 -8.38908,0.28881 -1.87747,-1.81972 -3.413585,-3.86124 -3.413585,-4.53671 0,-1.57143 30.343445,-28.70488 37.501835,-33.53456 22.30267,-15.04736 49.61033,-8.69847 66.59179,15.48226 11.45671,16.31376 12.79574,31.91015 4.21808,49.13005 -2.57669,5.17278 -21.50892,24.77544 -29.56265,30.60953 -4.80527,3.48092 -6.59205,3.63112 -10.12609,0.85125 z m 14.22068,-20.16807 c 9.03872,-8.17553 11.64748,-11.39681 14.79166,-18.26458 2.29756,-5.01855 2.55431,-6.65058 2.1769,-13.83751 -0.5371,-10.22791 -4.24356,-17.75926 -13.0972,-26.6129 -7.59165,-7.59165 -14.96464,-11.32877 -23.41178,-11.86664 -10.99349,-0.70001 -19.9338,3.52702 -33.01327,15.60888 l -6.21005,5.73638 12.09915,13.49318 c 28.19682,31.44561 37.94856,41.99319 38.82473,41.99319 0.51149,0 4.03943,-2.8125 7.83986,-6.25 z"
    />
    <path
      d="m 739.46201,231.20872 c -9.55827,-3.09381 -16.28577,-7.18829 -23.00725,-14.00264 -10.15768,-10.29801 -14.99275,-21.45938 -14.99275,-34.60957 0,-22.46731 17.91498,-45.63391 39.79254,-51.45739 7.10653,-1.89165 20.11774,-1.43096 27.22715,0.96402 12.42035,4.18412 24.20253,14.41741 30.7486,26.70638 6.9851,13.11316 6.54552,21.59819 -1.53104,29.55331 l -4.81352,4.74114 -4.36485,-4.44747 -4.36486,-4.44747 3.15299,-3.59105 c 2.14809,-2.44655 3.14988,-4.61579 3.14322,-6.80627 -0.0256,-8.43004 -10.70002,-22.46396 -20.87844,-27.44942 -4.85055,-2.37584 -6.83264,-2.74986 -14.61179,-2.75724 -7.60656,-0.007 -9.85155,0.39187 -14.5,2.57762 -18.05369,8.48904 -28.69257,29.70001 -23.63055,47.11275 4.30351,14.80357 18.4135,25.99434 34.70337,27.52358 l 5.57283,0.52316 -0.76321,4.62717 c -0.41977,2.54495 -0.79004,5.18968 -0.82283,5.87718 -0.0886,1.85763 -9.50547,1.48365 -16.05961,-0.63779 z"
    />
    <path
      d="m 137.06123,255.51666 c -4.72336,-3.60655 -4.74077,-3.64148 -2.87821,-5.77433 4.90682,-5.61886 6.62498,-3.66682 -23.94006,-27.19885 -15.554516,-11.97543 -29.08147,-22.45657 -30.05989,-23.29142 -1.605814,-1.37019 -1.9142,-1.32997 -3.168726,0.41327 -4.615744,6.41384 -3.892712,6.1603 -8.487297,2.97625 -2.283939,-1.58277 -4.37905,-3.24414 -4.655801,-3.69194 -0.456647,-0.73887 18.273483,-25.85313 19.281177,-25.85313 0.236266,0 2.421413,1.52088 4.855882,3.37974 l 4.426307,3.37973 -3.049585,3.83741 c -2.475704,3.11526 -2.793032,4.03177 -1.686272,4.87026 0.749821,0.56807 14.018245,10.82036 29.485385,22.78286 15.46714,11.9625 28.57649,21.75 29.13188,21.75 0.55539,0 1.97109,-1.35 3.14599,-3 1.1749,-1.65 2.66805,-2.99331 3.31809,-2.98512 0.65005,0.008 2.90925,1.47647 5.02044,3.26288 l 3.83853,3.248 -9.21242,11.98712 c -5.06683,6.59292 -9.52762,12.33557 -9.91286,12.76145 -0.38525,0.42588 -2.83889,-0.8585 -5.45256,-2.85418 z"
    />
    <path
      d="m 96.962015,311.93461 c -3.3,-1.73669 -19.473901,-10.54276 -35.942002,-19.56904 l -29.942002,-16.41143 -1.791474,2.32118 c -0.985311,1.27666 -2.036584,3.05308 -2.336162,3.94761 -0.47757,1.426 -1.156299,1.30278 -5.508113,-1 -2.729883,-1.44453 -4.967209,-2.97199 -4.971835,-3.39436 -0.01338,-1.22141 26.051861,-48.88451 28.700559,-52.48206 3.190665,-4.33367 6.789776,-4.26168 14.944929,0.29894 3.490355,1.95192 6.3461,3.69524 6.3461,3.87405 0,0.32428 -5.06888,9.73097 -5.637797,10.46247 -0.164883,0.212 -1.422998,-0.3505 -2.795811,-1.25 -4.994827,-3.27274 -5.910062,-2.49823 -13.543915,11.46142 -3.939127,7.20329 -6.897086,13.36184 -6.573244,13.68569 0.725474,0.72547 26.994953,15.12822 27.156856,14.88927 0.06404,-0.0945 3.825703,-7.03397 8.359262,-15.42101 l 8.242835,-15.24917 4.89489,2.74917 c 2.69219,1.51204 4.895348,3.02192 4.895907,3.35527 5.59e-4,0.33336 -3.631957,7.23789 -8.072259,15.34339 -4.440302,8.10551 -7.927802,14.87926 -7.75,15.05278 1.115892,1.089 26.545541,14.48221 27.510551,14.48917 1.31717,0.01 15.42015,-25.10261 16.10262,-28.67271 0.3331,-1.7425 -0.36446,-2.72518 -3.06591,-4.31908 l -3.49712,-2.06335 2.97269,-5.48849 2.9727,-5.4885 5.97869,3.27035 c 7.73279,4.22983 9.84905,6.25894 9.84905,9.44346 0,2.71419 -22.16748,44.49436 -25.23523,47.56211 -2.5267,2.5267 -5.43926,2.19492 -12.264765,-1.39713 z"
    />
    <path
      d="m 788.49162,316.84651 c -4.65596,-8.11859 -4.5174,-8.58692 6.61202,-22.34898 4.0471,-5.00444 7.35837,-9.34832 7.35837,-9.65307 0,-0.43955 -17.62033,-30.49172 -18.47902,-31.5167 -0.12383,-0.14781 -5.08349,0.66882 -11.02147,1.81473 -12.48664,2.40967 -17.92168,2.67847 -19.95962,0.98712 -1.70313,-1.41347 -6.53989,-9.44984 -6.53989,-10.86615 0,-0.5373 2.04196,-2.17357 4.53769,-3.63617 l 4.53769,-2.65926 1.80919,2.23426 1.80919,2.23426 44.40312,-8.17861 c 24.42172,-4.49824 45.08675,-8.17475 45.9223,-8.17002 2.10563,0.0119 8.45257,11.71387 7.21274,13.29827 -0.5209,0.66568 -13.63291,16.91664 -29.1378,36.11326 -16.5625,20.50604 -27.96455,35.45859 -27.64242,36.25 0.30157,0.74088 0.79921,1.96412 1.10588,2.7183 0.35652,0.87677 -1.05992,2.31915 -3.92807,4 -2.46711,1.44582 -4.73392,2.62876 -5.03735,2.62876 -0.30344,0 -1.90658,-2.3625 -3.56255,-5.25 z m 34.48024,-55.25 c 5.38805,-6.6 11.86504,-14.18636 14.3933,-16.85857 3.18255,-3.36375 3.98152,-4.68876 2.59685,-4.30662 -1.1,0.30358 -4.475,1.23182 -7.5,2.06275 -3.025,0.83094 -12.025,2.71404 -20,4.18468 -7.975,1.47063 -15.02364,2.95375 -15.66365,3.29582 -0.76521,0.40898 1.45512,4.98078 6.48442,13.3518 5.83517,9.71238 7.9141,12.43834 8.77034,11.5 0.61726,-0.67642 5.53068,-6.62986 10.91874,-13.22986 z"
    />
    <path
      d="m 880.94642,556.07928 c -1.77655,-1.96306 -1.75714,-2.09062 0.72282,-4.75 3.56021,-3.81779 4.79277,-6.54266 4.79277,-10.5956 0,-3.35281 -2.04725,-6.63717 -4.13717,-6.63717 -2.36275,0 -4.88347,2.31676 -7.8709,7.23401 -5.46786,9.00002 -8.70377,11.76599 -13.76502,11.76599 -3.50856,0 -4.96274,-0.58198 -7.30383,-2.92308 -2.58728,-2.58727 -2.92308,-3.61886 -2.92308,-8.97976 0,-6.76492 2.3017,-13.65307 5.05451,-15.12633 0.9977,-0.53396 3.19359,-0.97083 4.87975,-0.97083 2.51716,0 3.063,0.40261 3.05043,2.25 -0.0203,2.98333 -1.05456,4.43705 -3.48469,4.89798 -2.93244,0.5562 -4.94017,7.16133 -3.24921,10.68941 2.65875,5.54729 6.45464,3.7015 12.35173,-6.00616 1.92826,-3.17426 4.66721,-6.68484 6.08656,-7.8013 2.8299,-2.226 7.88314,-2.63759 11.5986,-0.94472 7.67371,3.49638 7.65769,19.14094 -0.0278,27.16479 -3.1488,3.28742 -3.43111,3.32324 -5.77545,0.73277 z"
    />
    <path
      d="M 20.817356,573.70842 C 15.722745,571.39692 9.8514862,565.42935 7.6600862,560.3353 6.5375219,557.72583 4.8320728,551.18482 3.8701993,545.79971 2.3605761,537.348 2.3156353,535.82524 3.5416764,534.66814 c 0.7811859,-0.73726 9.7453386,-2.78613 19.9203386,-4.55306 29.046193,-5.04397 28.263921,-4.83089 27.590251,-7.51501 -0.596909,-2.37827 0.797242,-3.50356 4.340651,-3.50356 1.477551,0 2.119991,2.01818 3.918212,12.3088 1.182987,6.76984 2.150886,14.56467 2.150886,17.32186 0,10.61905 -5.59722,19.50173 -14.930134,23.69383 -5.905871,2.65276 -21.035722,3.41025 -25.714525,1.28742 z m 19.921993,-7.67204 c 4.013527,-1.11456 10.061592,-5.83613 11.917269,-9.30349 2.211176,-4.13162 2.69581,-9.17031 1.57527,-16.3779 -0.792487,-5.09749 -1.553773,-7.25848 -2.55705,-7.25848 -2.934255,0 -40.741031,7.131 -41.424825,7.81343 -1.2646409,1.26211 2.105319,14.42697 4.69461,18.33965 3.474043,5.24964 8.609352,7.74947 16.017392,7.79715 3.3,0.0212 7.6998,-0.43342 9.777334,-1.01036 z"
    />
    <path
      d="m 878.96201,587.5358 c -0.55,-0.22155 -7.4427,-1.93589 -15.31711,-3.80964 l -14.31711,-3.40681 -0.91691,2.41164 c -0.76649,2.01602 -1.37066,2.30276 -3.68289,1.74791 -1.52129,-0.36506 -2.86525,-0.7372 -2.98657,-0.82699 -0.12133,-0.0898 0.32938,-2.38898 1.00157,-5.10932 l 1.22216,-4.94608 h 4.69922 4.69922 l -2.38717,-2.5 c -2.52447,-2.64378 -4.52462,-7.00725 -4.4991,-9.8151 0.0283,-3.11605 1.47355,-4.23713 4.64464,-3.60291 2.83046,0.56609 3.0213,0.8873 2.93372,4.93783 -0.17691,8.18214 5.97519,13.08545 20.15046,16.06022 8.77814,1.84214 9.89942,2.71971 8.84466,6.9222 -0.58811,2.34323 -1.73344,2.88583 -4.08879,1.93705 z"
    />
    <path
      d="m 26.148876,622.88694 c -4.509933,-3.28526 -7.866747,-10.11722 -8.392197,-17.08023 -0.393618,-5.21604 -0.08223,-6.93059 1.945121,-10.7102 6.240186,-11.63364 23.156019,-15.42794 32.758596,-7.34791 4.528543,3.81052 7.001619,9.34193 7.001619,15.66019 0,6.54877 -2.695844,11.10193 -8.529571,14.40604 -7.388015,4.18444 -7.608356,3.97738 -12.470429,-11.71832 -2.385236,-7.7 -4.763956,-14 -5.286044,-14 -0.522087,0 -2.696309,1.74706 -4.831603,3.88235 -3.523737,3.52374 -3.882353,4.36727 -3.882353,9.13197 0,5.58383 2.386307,10.742 6.207859,13.41872 2.023649,1.41742 2.024799,1.45572 0.116577,3.88164 l -1.927243,2.45009 z m 24.390062,-13.71351 c 5.882195,-5.88219 2.599617,-15.59551 -6.157066,-18.21908 -2.163013,-0.64805 -4.182657,-0.92837 -4.488097,-0.62293 -0.814148,0.81414 5.745726,21.76509 6.814789,21.76509 0.499014,0 2.222682,-1.31538 3.830374,-2.92308 z"
    />
    <path
      d="m 847.6838,631.67862 c -12.61449,-4.09189 -18.5551,-16.64617 -13.32546,-28.16071 3.53636,-7.78629 11.00777,-11.2787 20.00217,-9.34975 2.80582,0.60174 5.1015,1.63803 5.1015,2.30285 0,0.66483 -2.025,7.2463 -4.5,14.6255 -2.475,7.3792 -4.5,13.54796 -4.5,13.70836 0,0.1604 1.95845,0.29164 4.35212,0.29164 9.11254,0 15.17245,-7.29473 14.23742,-17.13858 -0.52343,-5.51065 -0.47381,-5.65045 2.18744,-6.1617 1.49766,-0.28771 2.91999,-0.32838 3.16073,-0.0904 0.24074,0.23801 0.63345,3.13879 0.87269,6.44619 0.71412,9.87263 -3.39488,18.16134 -10.90173,21.99105 -5.20272,2.65423 -11.46237,3.23024 -16.68688,1.53552 z m 0.91412,-18.46797 c 1.52771,-4.54654 3.05242,-9.13217 3.38826,-10.19029 0.5405,-1.70298 0.0964,-1.92385 -3.86789,-1.92385 -3.77329,0 -4.88615,0.48447 -7.06739,3.07673 -3.88286,4.61452 -3.41114,10.89497 1.21662,16.1976 0.85168,0.97588 1.99946,1.62401 2.55063,1.44029 0.55116,-0.18372 2.25206,-4.05394 3.77977,-8.60048 z"
    />
    <path
      d="m 35.910988,654.62863 c -0.796935,-1.90734 -1.448973,-3.82659 -1.448973,-4.26501 0,-0.43842 5.625,-6.40862 12.5,-13.26711 6.875,-6.85849 12.5,-13.27538 12.5,-14.25974 0,-1.40658 3.411235,-3.74026 5.467275,-3.74026 0.458651,0 2.532725,6.03518 2.532725,7.36977 0,0.58923 -5.5125,6.39409 -12.25,12.89969 l -12.25,11.82837 4,-0.50795 c 2.2,-0.27938 9.904102,-0.79833 17.120227,-1.15324 12.94256,-0.63654 13.142296,-0.61377 14.75,1.68155 0.896375,1.27975 1.629773,3.11812 1.629773,4.08526 0,2.11459 -4.455126,3.49364 -6.31089,1.9535 -0.89501,-0.74279 -6.277318,-0.78771 -17.737015,-0.14803 -9.048652,0.50511 -17.037557,0.93473 -17.753122,0.95472 -0.715564,0.02 -1.953064,-1.52419 -2.75,-3.43152 z"
    />
    <path
      d="m 821.47336,673.44927 c -21.3919,-10.43435 -21.49623,-10.47218 -23.17179,-8.40295 -1.45415,1.7958 -2.03389,1.91877 -4.26135,0.90387 -1.41801,-0.64609 -2.57081,-1.43998 -2.56176,-1.7642 0.059,-2.11366 4.88187,-8.63939 6.56538,-8.88345 1.11528,-0.16169 5.98542,1.52581 10.82254,3.75 4.83712,2.22418 8.952,4.04397 9.14417,4.04397 0.19217,0 -0.30263,-1.56055 -1.09957,-3.46788 -1.92206,-4.60014 -1.79734,-8.1683 0.45919,-13.13714 4.64748,-10.23368 9.93537,-10.89898 26.43496,-3.32592 10.78126,4.94844 11.08113,5.02281 12.60048,3.12537 1.3148,-1.64198 1.95604,-1.76912 4.13089,-0.81907 l 2.57449,1.12464 -1.85384,4.23052 c -3.01934,6.89026 -3.95124,6.92042 -17.25075,0.5584 -6.46418,-3.09224 -13.12623,-5.62225 -14.80455,-5.62225 -7.78294,0 -10.30671,12.41463 -3.93623,19.36259 1.48301,1.61745 7.32133,5.19583 12.97404,7.95196 l 10.27766,5.01115 -1.55334,3.00381 c -0.85433,1.6521 -2.10427,2.96654 -2.77765,2.92097 -0.67338,-0.0456 -10.89421,-4.79954 -22.71297,-10.56439 z"
    />
    <path
      d="m 64.336393,706.2318 c -12.199097,-7.73644 -13.886741,-24.67302 -3.38009,-33.92135 12.615504,-11.10461 30.29457,-6.42761 34.596445,9.1525 1.867846,6.76478 -2.385764,15.66629 -9.160189,19.16948 -1.557173,0.80524 -3.037451,1.46408 -3.289506,1.46408 -0.252055,0 -3.178555,-4.8375 -6.503333,-10.75 -3.324778,-5.9125 -6.738322,-11.65 -7.585654,-12.75 -1.514368,-1.96594 -1.590874,-1.94541 -4.492718,1.20578 -1.623663,1.76317 -3.248544,4.78588 -3.610846,6.71712 -0.913271,4.86815 2.613023,11.92766 7.609669,15.23428 3.460573,2.2901 3.713672,2.7495 2.718337,4.93402 -0.603638,1.32484 -1.38719,2.4088 -1.741227,2.4088 -0.354038,0 -2.676437,-1.28912 -5.160888,-2.86471 z m 23.56563,-16.68407 c 2.723795,-4.15704 2.013085,-9.19813 -1.840008,-13.05122 -2.881159,-2.88116 -4.101961,-3.4 -8,-3.4 -2.53,0 -4.6,0.45354 -4.6,1.00788 0,0.55433 2.285024,5.02677 5.07783,9.93875 5.317781,9.35289 6.417144,9.99928 9.362178,5.50459 z"
    />
    <path
      d="m 806.6838,719.62679 c -14.95601,-4.67023 -20.03112,-21.78687 -10.17501,-34.31688 4.5514,-5.78617 11.1984,-7.85878 15.28072,-4.76469 1.71981,1.3035 1.72941,1.53481 0.16279,3.92576 -1.316,2.00847 -2.23681,2.42623 -4.39602,1.99438 -2.2348,-0.44696 -3.30967,0.11244 -5.91279,3.07724 -7.97447,9.08241 -0.48809,23.55391 12.18488,23.55391 7.95103,0 14.63364,-7.67909 14.63364,-16.81572 0,-3.98253 0.14465,-4.18428 3,-4.18428 2.98149,0 3,0.0351 3,5.68428 0,9.91982 -6.98512,19.82938 -15.67922,22.2436 -4.80467,1.33418 -6.75875,1.26996 -12.09899,-0.3976 z"
    />
    <path
      d="m 78.06535,730.0733 c -1.431834,-2.16365 -2.603335,-4.81777 -2.603335,-5.89804 0,-1.4332 5.271231,-5.53676 19.5,-15.18043 18.771535,-12.72257 21.087535,-14.91078 18.509805,-17.48851 -0.65358,-0.65358 0.007,-1.57941 1.94408,-2.7235 l 2.93426,-1.73331 2.63302,4.49291 c 1.54892,2.64303 2.38228,5.22604 2.02404,6.2735 -0.33494,0.97933 -9.25713,7.66 -19.82709,14.84594 -10.569962,7.18595 -19.138956,13.48595 -19.042207,14 0.09675,0.51406 0.456852,1.65559 0.800227,2.53673 0.407175,1.04486 -0.226733,2.15971 -1.822573,3.20535 -2.390029,1.566 -2.50739,1.51184 -5.050227,-2.33064 z"
    />
    <path
      d="m 788.34472,741.60836 c -12.36044,-9.47109 -14.46512,-10.52944 -16.63136,-8.3632 -0.86487,0.86487 -1.78968,0.72864 -3.7433,-0.55142 l -2.59465,-1.70008 3.12733,-3.94857 c 3.43861,-4.34161 5.6601,-4.84594 9.69634,-2.20129 2.59963,1.70335 2.64477,1.69706 1.79472,-0.25 -1.7393,-3.9839 -1.79441,-10.44754 -0.11098,-13.01677 1.93723,-2.95659 2.3813,-2.99563 5.40547,-0.47519 2.17783,1.81507 2.22569,2.08239 0.75,4.18923 -2.16866,3.09619 -1.97491,9.63939 0.40081,13.53579 1.08329,1.77669 4.76204,5.37669 8.17501,8 11.99199,9.21739 11.46644,8.56049 9.2642,11.57965 -1.05396,1.44493 -2.19408,2.64129 -2.53359,2.65858 -0.33951,0.0173 -6.18951,-4.23825 -13,-9.45673 z"
    />
    <path
      d="m 106.96201,765.23085 c -4.98384,-2.26981 -10.864386,-8.67839 -12.493842,-13.6157 -5.159178,-15.63246 8.681342,-31.14474 24.608132,-27.58048 6.2523,1.39921 12.88581,6.75154 15.49958,12.50603 2.18606,4.81285 2.43689,13.3169 0.52613,17.83793 -4.3501,10.29273 -17.89715,15.51716 -28.14,10.85222 z m 14.14657,-7.20529 c 5.37557,-2.60227 8.35463,-7.2573 8.34969,-13.04708 -0.007,-8.14703 -5.74739,-14.2153 -13.44734,-14.2153 -15.75287,0 -21.381993,20.62178 -7.52899,27.58178 4.53877,2.28035 7.40609,2.20782 12.62664,-0.3194 z"
    />
    <path
      d="m 762.8772,784.68708 c -9.68563,-4.25475 -9.71309,-14.54919 -0.0709,-26.58929 3.4034,-4.24981 3.50738,-4.59214 1.87924,-6.18695 -3.36911,-3.30016 -6.66088,-3.24721 -10.55258,0.16974 -4.09867,3.59869 -5.34746,6.49583 -3.67078,8.5161 0.90646,1.09222 0.75819,1.96325 -0.66738,3.92058 -1.00802,1.38402 -2.1376,2.53054 -2.51018,2.54783 -1.08319,0.0502 -4.82261,-5.10094 -4.82261,-6.64328 0,-5.01323 8.77,-15.43423 14.61141,-17.36207 5.1751,-1.70794 9.50063,0.27007 18.92288,8.65317 8.42089,7.49219 10.10859,8.34072 12.27682,6.17249 0.94815,-0.94815 1.6701,-0.75213 3.32503,0.9028 l 2.11391,2.11392 -2.74371,3.59719 c -2.7469,3.60137 -5.16597,4.38497 -8.32208,2.69575 -1.47318,-0.78848 -1.64342,-0.38118 -1.35836,3.25 0.73702,9.3882 -10.20007,17.84883 -18.41071,14.24202 z m 11.13026,-9.04512 c 3.95689,-3.95688 2.93783,-13.40969 -1.87635,-17.40511 -1.20193,-0.99751 -2.01369,-0.54564 -4.55222,2.53403 -4.1336,5.01478 -6.37317,9.94276 -5.61055,12.34556 1.71199,5.39402 7.87729,6.68736 12.03912,2.52552 z"
    />
    <path
      d="m 195.6518,785.10419 -2.31022,-1.92578 2.2136,-2.99405 c 1.69187,-2.28837 2.60929,-2.78227 3.89246,-2.09554 3.60948,1.93173 3.95152,3.38131 1.47654,6.25769 -2.78261,3.2339 -2.37255,3.17497 -5.27238,0.75768 z"
    />
    <path
      d="m 145.58481,805.05485 c -6.48287,-1.45462 -13.1228,-8.59214 -13.1228,-14.10622 0,-1.56867 -0.22231,-2.85212 -0.49402,-2.85212 -0.27171,0 -3.57176,3.22754 -7.33346,7.1723 l -6.83945,7.17231 -2.63511,-1.92231 c -1.44931,-1.05726 -2.64925,-2.29682 -2.66654,-2.75456 -0.0173,-0.45775 7.28108,-8.46344 16.21858,-17.79042 8.9375,-9.32699 16.39966,-17.63659 16.58258,-18.46578 0.18291,-0.82919 -0.14897,-2.08784 -0.73752,-2.797 -0.79468,-0.95753 -0.46801,-1.855 1.2693,-3.48711 l 2.33939,-2.19775 3.71369,4.11062 c 3.61805,4.00474 3.67119,4.17549 2.06328,6.62948 -1.58882,2.42484 -1.57444,2.49474 0.38526,1.87276 3.3262,-1.0557 9.48255,1.189 12.85779,4.68814 7.55433,7.83163 7.08394,17.442 -1.30839,26.7313 -5.99478,6.63551 -13.38278,9.54677 -20.29258,7.99636 z m 8.19294,-8.07657 c 4.28979,-2.19616 9.73326,-8.35001 10.76045,-12.1647 1.40988,-5.23592 -1.15073,-10.52053 -6.32203,-13.04744 -4.91006,-2.39926 -8.81405,-1.51247 -14.01942,3.18451 -7.57322,6.83357 -8.82643,14.25417 -3.33474,19.74586 3.6619,3.6619 8.53744,4.52324 12.91574,2.28177 z"
    />
    <path
      d="m 724.92064,813.21685 c -7.3573,-3.34196 -12.74434,-11.62975 -12.74434,-19.60675 0,-16.89839 18.18875,-25.58582 30.43737,-14.53771 l 4.34834,3.92214 -6.5,5.78818 c -3.575,3.1835 -8.72852,7.88271 -11.45227,10.44268 l -4.95226,4.65451 3.45226,2.10456 c 8.19627,4.99661 19.17556,0.14358 21.89809,-9.67931 0.57808,-2.0857 1.28888,-2.64619 3.09069,-2.43708 3.16057,0.3668 3.30082,0.61679 2.56036,4.56375 -2.30684,12.29656 -18.32119,20.15277 -30.13824,14.78503 z M 732.68,788.5617 c 4.39567,-3.92532 4.60062,-4.31891 3,-5.76126 -8.28114,-7.46227 -20.37737,2.85607 -16.20702,13.82493 l 1.01097,2.65906 3.73903,-3.25479 c 2.05647,-1.79013 5.86213,-5.1507 8.45702,-7.46794 z"
    />
    <path
      d="m 168.25049,826.40852 c -6.41495,-4.88504 -6.42031,-4.86673 5.81613,-19.85456 8.40622,-10.29639 9.34236,-12.11048 7.30229,-14.15055 -0.7908,-0.7908 -0.62609,-1.80584 0.59557,-3.67032 l 1.68866,-2.57723 3.90444,3.13769 c 2.46928,1.98437 3.90443,3.97135 3.90443,5.40572 0,1.37303 -3.55156,6.617 -9,13.28873 -8.70112,10.65471 -10.16252,13.54599 -7.96008,15.74843 0.71989,0.71989 0.48618,1.72375 -0.75942,3.26201 l -1.79934,2.22208 z"
    />
    <path
      d="m 694.46201,839.90859 c 0,-3.2621 0.17181,-3.44048 2.92461,-3.03645 3.98275,0.58454 9.36505,-1.33802 12.48761,-4.46057 3.22835,-3.22836 3.29179,-5.80767 0.1928,-7.8382 -2.16928,-1.42137 -3.02327,-1.42354 -9.06205,-0.0231 -10.52083,2.43994 -15.14502,2.098 -18.61989,-1.37688 -5.49351,-5.4935 -3.1329,-13.90034 5.46941,-19.47818 6.95915,-4.5124 13.04517,-4.38651 15.56507,0.32196 0.81165,1.51658 0.50895,2.19884 -1.58398,3.57018 -1.87183,1.22647 -2.88968,1.39302 -3.68048,0.60222 -2.97438,-2.97438 -11.6931,1.96913 -11.6931,6.62998 0,4.56864 4.04232,5.29341 14.65507,2.62757 8.56397,-2.1512 12.88289,-1.17483 16.14269,3.64935 5.86308,8.67676 -3.19706,20.50045 -16.64317,21.7197 l -6.15459,0.55812 z"
    />
    <path
      d="m 211.61205,857.09024 c -2.28252,-1.65345 -4.14368,-3.56595 -4.1359,-4.25 0.008,-0.68405 3.38278,-6.35272 7.5,-12.59703 8.55491,-12.97466 9.14134,-15.57592 4.40913,-19.55781 -3.89828,-3.28019 -10.65132,-3.53811 -15.42299,-0.58906 -1.82706,1.12918 -5.96305,6.13582 -9.50017,11.5 -3.4454,5.22509 -6.44575,9.50017 -6.66743,9.50017 -1.03945,0 -5.33268,-3.33417 -5.33268,-4.14142 0,-0.50127 4.11196,-7.0552 9.13768,-14.56429 8.91663,-13.32262 9.08966,-13.69178 7.15248,-15.26042 -1.79744,-1.45547 -1.84622,-1.81685 -0.51571,-3.82069 1.87696,-2.82685 2.79101,-2.78199 6.88116,0.33771 3.31671,2.52978 4.51869,6.60532 2.34439,7.94911 -2.11189,1.30522 -0.9265,2.42255 1.5651,1.47525 6.36581,-2.42028 16.02197,0.74019 19.58828,6.41126 3.49092,5.55118 2.21142,10.58025 -5.72427,22.4992 -6.90212,10.3666 -6.90894,10.38374 -4.71024,11.84362 2.06775,1.37293 2.10591,1.60846 0.62649,3.86633 -0.86646,1.32239 -1.90611,2.40434 -2.31033,2.40434 -0.40422,0 -2.60247,-1.35282 -4.88499,-3.00627 z"
    />
    <path
      d="m 655.67584,862.97332 c -8.227,-4.07228 -13.6432,-15.90156 -11.28174,-24.63994 2.12484,-7.8628 10.99711,-15.15874 18.50219,-15.21491 4.48286,-0.0335 11.35687,3.7768 14.10233,7.8171 1.35486,1.99387 2.45657,4.08325 2.44824,4.64307 -0.008,0.55983 -5.65774,4.31965 -12.55424,8.35516 -6.8965,4.03551 -12.36748,7.86051 -12.15775,8.5 0.20973,0.63949 1.87568,2.17521 3.70212,3.41271 7.02048,4.75673 17.21707,1.87923 21.49597,-6.0662 1.86959,-3.47161 1.96149,-3.51154 4.75613,-2.06637 l 2.84971,1.47364 -2.2884,4.08803 c -5.77045,10.30846 -19.34693,14.76028 -29.57456,9.69771 z m 5.60167,-21.98774 c 4.77648,-2.81101 8.87377,-5.28779 9.10511,-5.50394 0.82695,-0.7727 -4.15568,-5.22731 -6.50702,-5.81746 -3.54113,-0.88877 -9.08792,1.84965 -11.38796,5.62215 -2.53435,4.15684 -2.71497,10.81018 -0.29346,10.81018 0.21936,0 4.30686,-2.29992 9.08333,-5.11093 z"
    />
    <path
      d="m 422.21201,873.38026 c -2.43445,-0.36879 -2.75,-0.84491 -2.75,-4.14937 0,-3.6772 0.0521,-3.72669 3.5,-3.32417 3.33025,0.38878 3.5,0.5973 3.5,4.2992 0,2.13982 -0.3375,3.82317 -0.75,3.74076 -0.4125,-0.0824 -1.9875,-0.3373 -3.5,-0.56642 z"
    />
    <path
      d="m 235.77795,889.77043 c -4.27475,-1.57605 -12.22662,-7.27759 -13.01488,-9.33175 -0.40754,-1.06203 0.19927,-2.32889 1.69602,-3.54089 2.32222,-1.88042 2.34349,-1.87489 5.91676,1.53753 4.68165,4.4709 7.36168,5.77655 11.98825,5.8404 5.13513,0.0709 7.7138,-1.50597 10.09464,-6.17281 2.55831,-5.01468 2.55219,-5.03987 -0.90671,-3.73428 -2.15934,0.81506 -3.95339,0.78578 -6.95493,-0.1135 -15.15579,-4.54079 -17.44198,-23.51768 -4.26717,-35.42033 8.41308,-7.60071 21.08128,-5.45501 26.67561,4.51823 1.88751,3.36493 2.21562,3.55576 3.64911,2.12227 1.43348,-1.43348 1.99018,-1.39151 6.19124,0.46682 5.15136,2.27869 5.04767,2.11314 3.47945,5.555 -0.90658,1.98972 -1.66645,2.38877 -3.75378,1.9713 -2.49122,-0.49824 -2.99676,0.21376 -10.50989,14.80233 -8.28539,16.08811 -10.38142,19.12179 -14.8,21.42077 -3.21959,1.67516 -11.046,1.71504 -15.48372,0.0789 z m 21.17449,-22.84506 c 3.15584,-2.48238 7.50247,-11.11748 7.46437,-14.82886 -0.0563,-5.48 -5.79352,-10.98429 -11.4548,-10.98967 -7.0144,-0.007 -13.5,8.11494 -13.5,16.90539 0,9.01243 10.53748,14.38234 17.49043,8.91314 z"
    />
    <path
      d="m 602.96201,869.06715 c -5.5,-12.63716 -10.45,-22.79348 -11,-22.56958 -0.55,0.22389 -1.73387,0.70281 -2.63082,1.06426 -1.20255,0.4846 -1.91467,-0.15706 -2.71169,-2.44338 -0.96956,-2.78128 -0.85311,-3.19089 1.13082,-3.97758 1.21643,-0.48235 6.85652,-2.92533 12.53354,-5.42885 13.30157,-5.86588 15.80908,-6.3147 21.41791,-3.83365 9.65781,4.27211 13.08282,15.9721 7.2718,24.84083 -0.85671,1.30752 -1.20979,2.37786 -0.78461,2.37853 0.42518,6.7e-4 4.11195,2.73028 8.19283,6.0658 5.56289,4.54683 7.96496,5.92774 9.59817,5.51783 1.65176,-0.41456 2.45991,0.0711 3.34292,2.00914 1.46114,3.20684 0.97841,3.97392 -3.41282,5.42315 -4.13022,1.3631 -4.95513,0.94223 -16.03542,-8.18135 -3.89806,-3.20969 -7.55335,-5.83579 -8.12288,-5.83579 -1.33801,0 -10.28975,3.95259 -10.28975,4.54338 0,0.24739 1.98511,4.9604 4.41136,10.47336 l 4.41136,10.02357 -2.8617,1.47985 c -1.57393,0.81391 -3.22155,1.46798 -3.66136,1.45349 -0.43981,-0.0145 -5.29966,-10.36584 -10.79966,-23.00301 z m 11.85585,-9.53327 c 6.22829,-2.85141 9.64415,-6.45391 9.64415,-10.1711 0,-4.34554 -3.10968,-9.41415 -6.69477,-10.9121 -3.08527,-1.28911 -3.88202,-1.18946 -10.07768,1.26035 -3.70015,1.46307 -6.90062,2.80891 -7.11215,2.99074 -0.60939,0.52384 7.39047,19.39474 8.22193,19.39474 0.23154,0 2.93987,-1.15319 6.01852,-2.56263 z"
    />
    <path
      d="m 337.46201,910.34496 c -3.43555,-1.71626 -3.51841,-1.9044 -4.5,-10.21807 l -1,-8.46961 -8.5,-2.70283 c -4.675,-1.48655 -9.27292,-2.73772 -10.21761,-2.78038 -0.96816,-0.0437 -3.54557,2.34357 -5.90703,5.4713 -5.20878,6.89898 -6.55618,7.65417 -11.31307,6.34073 -2.69927,-0.74531 -3.56353,-1.44398 -3.14272,-2.54059 0.31924,-0.83192 0.58043,-1.90122 0.58043,-2.37622 0,-0.47501 1.19249,-1.4507 2.64998,-2.16821 1.4575,-0.71752 9.4866,-10.30457 17.84245,-21.30457 14.53167,-19.1301 15.33456,-19.99307 18.45936,-19.84066 1.79679,0.0876 3.74754,0.63999 4.335,1.22745 0.61372,0.61372 1.73711,12.15552 2.64066,27.13021 1.17838,19.52937 1.91267,26.27153 2.92944,26.89763 0.93892,0.57816 1.14547,1.79812 0.67055,3.96045 -0.79998,3.64226 -0.92396,3.67306 -5.52744,1.37337 z m -5.59948,-38.49845 c -0.37013,-7.2875 -0.74934,-13.35017 -0.84267,-13.47259 -0.0933,-0.12243 -2.0497,2.57757 -4.34748,6 -2.29777,3.42242 -5.78101,8.33011 -7.74053,10.90596 l -3.56276,4.68338 7.79646,2.46481 c 4.28805,1.35565 8.1505,2.51064 8.58321,2.56663 0.43271,0.056 0.48391,-5.86069 0.11377,-13.14819 z"
    />
    <path
      d="m 531.92717,898.91744 c -3.91663,-16.12117 -3.99757,-16.3188 -6.61306,-16.14665 -2.13601,0.1406 -2.74651,-0.3416 -3.15803,-2.4943 -0.69073,-3.61333 -0.33536,-3.96127 4.83832,-4.73711 4.93952,-0.74072 7.46761,0.50496 7.46761,3.67957 0,1.03266 0.45,1.87756 1,1.87756 0.55,0 1,-0.64047 1,-1.42327 0,-2.28617 5.12467,-7.73087 8.67119,-9.2127 3.92366,-1.63941 10.34187,-1.77083 13.61649,-0.27882 3.59587,1.63839 5.61039,5.89164 8.62793,18.21612 2.63603,10.76625 2.84379,11.19725 5.3805,11.16178 2.10258,-0.0294 2.76613,0.54378 3.2664,2.82151 0.3453,1.57212 0.40736,3.07884 0.13793,3.34827 -0.26943,0.26944 -2.97889,0.74677 -6.02101,1.06075 l -5.53112,0.57086 -1.00034,-3.88225 c -6.7983,-26.38374 -7.24874,-27.38225 -12.35262,-27.38225 -7.14513,0 -12.79984,6.1986 -12.77157,14 0.009,2.475 1.10984,8.75995 2.44637,13.96656 1.33653,5.20661 2.34001,9.55398 2.22996,9.66082 -0.11006,0.10684 -1.79079,0.4913 -3.73495,0.85436 l -3.53484,0.66011 z"
    />
    <path
      d="m 355.86051,914.41024 c -2.09662,-0.41295 -2.09372,-0.4525 1.25,-17.0416 1.84333,-9.14523 3.3515,-16.99769 3.3515,-17.44991 0,-0.45222 -1.17748,-0.82222 -2.61663,-0.82222 -2.22554,0 -2.52651,-0.3363 -2.01366,-2.25 0.33164,-1.2375 0.60913,-2.63996 0.61664,-3.11658 0.008,-0.47661 1.13925,-0.6514 2.51498,-0.38841 2.18097,0.41691 2.6476,-0.0101 3.64339,-3.33372 1.78697,-5.96435 5.81478,-9.17157 12.08315,-9.62145 6.45112,-0.46299 8.27866,0.55584 7.38487,4.11699 -0.52612,2.09625 -1.20442,2.58434 -3.38535,2.43608 -4.06798,-0.27655 -6.75445,0.90488 -8.20015,3.6062 -1.87783,3.50874 -0.75387,5.17908 3.99606,5.93862 3.72444,0.59557 4.12793,0.91971 3.59934,2.89151 -0.32743,1.22142 -0.60148,2.58858 -0.60899,3.03815 -0.008,0.44956 -0.80115,0.59566 -1.76365,0.32465 -0.9625,-0.271 -3.14862,-0.77305 -4.85803,-1.11566 l -3.10804,-0.62293 -3.24571,17.04828 c -3.43754,18.0559 -3.11742,17.44966 -8.63972,16.362 z"
    />
    <path
      d="m 384.71201,919.39078 c -2.7137,-0.52268 -2.69655,0.68982 -0.25801,-18.2409 2.03712,-15.81451 1.9166,-16.99324 -1.74199,-17.03806 -1.43453,-0.0176 -1.6355,-2.85832 -0.34622,-4.89387 0.67897,-1.07196 1.95437,-1.18206 5.73469,-0.49508 4.82096,0.87611 4.8657,0.91969 5.36153,5.22197 l 0.5,4.33849 2.3093,-2.66921 c 4.52758,-5.23324 13.1907,-6.89616 13.1907,-2.53201 0,3.7858 -1.15221,5.0144 -4.70262,5.0144 -7.35655,0 -11.84091,6.13981 -13.4055,18.35428 -1.89558,14.79854 -1.45445,13.93913 -6.64188,12.93999 z"
    />
    <path
      d="m 489.7317,920.61392 c -7.87351,-3.42283 -9.37122,-13.28697 -2.91566,-19.20304 3.30347,-3.02741 11.60724,-6.29659 16.07747,-6.32968 3.42494,-0.0254 4.7482,-1.42054 4.03655,-4.25595 -0.98934,-3.94188 -3.86704,-5.9728 -8.37493,-5.91059 -5.00996,0.0691 -8.09312,1.67567 -8.09312,4.21703 0,1.08065 -0.5625,1.97096 -1.25,1.97847 -0.6875,0.008 -2.2625,0.285 -3.5,0.61664 -1.9883,0.53284 -2.25,0.23283 -2.25,-2.5794 0,-1.75031 0.43687,-3.99868 0.97083,-4.99638 2.63802,-4.9292 19.33917,-6.9583 24.41429,-2.96621 3.99058,3.13898 5.27832,6.46828 6.5413,16.9117 1.70315,14.08308 1.77152,14.2909 4.5285,13.76387 2.03715,-0.38943 2.4148,-0.006 2.74072,2.78621 0.36939,3.1641 0.27613,3.24935 -4.09303,3.74182 -5.62528,0.63405 -6.96272,0.11367 -7.74787,-3.01464 l -0.628,-2.50214 -2.5304,3.23326 c -4.36517,5.57766 -11.39889,7.34683 -17.92665,4.50903 z m 14.34353,-7.80176 c 2.86836,-2.62866 3.68995,-4.22578 4.11536,-8 0.52449,-4.65327 0.49343,-4.71558 -2.34853,-4.71007 -8.08812,0.0157 -15.39246,4.25559 -15.36474,8.91873 0.0181,3.05313 0.78731,4.35116 3.48469,5.88074 3.41578,1.93697 6.39026,1.32244 10.11322,-2.0894 z"
    />
    <path
      d="m 418.04509,921.53674 c -1.32517,-1.32518 -1.45301,-3.39324 -0.84998,-13.75 1.1128,-19.11199 1.11057,-19.14142 -1.4831,-19.50978 -1.80292,-0.25606 -2.25,-0.96128 -2.25,-3.5492 0,-3.12721 0.11894,-3.21862 3.75,-2.88179 2.0625,0.19132 4.80891,0.57118 6.10312,0.84413 l 2.35313,0.49628 -0.35313,16.70506 c -0.35267,16.68384 -0.35026,16.70548 1.89688,17.02462 2.43661,0.34605 2.52367,0.55733 1.61971,3.93045 -0.5071,1.89224 -1.2886,2.25 -4.91491,2.25 -2.57294,0 -4.941,-0.62905 -5.87172,-1.55977 z"
    />
    <path
      d="m 447.46201,921.84462 c -6.80352,-3.63367 -10.5,-10.20625 -10.5,-18.66969 0,-9.02909 3.35233,-14.8293 10.68184,-18.48175 5.91895,-2.94953 13.80243,-3.46611 19.10028,-1.25157 3.97654,1.66222 5.26223,3.23528 6.05217,7.4049 0.5989,3.16129 0.52086,3.25 -2.85929,3.25 -2.39812,0 -3.475,-0.4577 -3.475,-1.47695 0,-2.76163 -4.66286,-4.82116 -9.64412,-4.2597 -11.38474,1.28323 -16.45853,15.51905 -8.78248,24.64152 4.83068,5.74093 13.65674,6.46403 20.68482,1.69464 l 3.45938,-2.34759 1.6647,2.81811 1.6647,2.81812 -4.7735,2.79841 c -6.83444,4.0066 -16.8997,4.4657 -23.2735,1.06155 z"
    />
  </g>

  <g class="symbol">
    <path
      class="secondary"
      d="m 649,467.48587 c 0,-0.28277 2.10247,-3.09527 4.67216,-6.25 2.56968,-3.15473 6.21642,-8.14981 8.10385,-11.10019 7.0623,-11.03954 13.34494,-30.17264 11.21468,-34.15307 -1.58552,-2.96258 -7.31389,-2.53993 -14.99069,1.10603 -7.28754,3.46109 -21.13519,6.85694 -28.09501,6.88972 -5.4021,0.0254 -7.90499,-2.08003 -7.90499,-6.64982 0,-4.95453 -4.15358,-11.3909 -10.56112,-16.36545 -3.26638,-2.53589 -8.34081,-7.72749 -11.2765,-11.5369 -2.93569,-3.8094 -8.50765,-10.52619 -12.38212,-14.92619 -4.32931,-4.91652 -8.29071,-10.69804 -10.27775,-15 C 573.23932,350.2702 565.83,337.81384 553.81732,319.68107 548.41779,311.53065 544,303.98784 544,302.91925 c 0,-1.69872 0.49069,-1.86442 3.90458,-1.31852 4.63137,0.74059 6.09542,-1.03982 6.09542,-7.41254 0,-4.47057 -0.74238,-5.30781 -6.88075,-7.75996 -3.96777,-1.58504 -5.38495,-1.6306 -15.03265,-0.48329 l -10.6519,1.26674 -18.96735,-4.57586 c -27.37797,-6.60491 -26.15724,-6.51891 -31.76558,-2.23797 L 466,283.98679 v -51.9934 c 0,-28.59636 0.3375,-51.99024 0.75,-51.98638 2.0028,0.0187 19.00516,4.44918 29.25,7.62195 24.13064,7.47314 49.61451,17.63571 115,45.8602 37.81979,16.3254 60.48766,25.29308 79.3894,31.40741 15.4405,4.99469 32.88164,9.09264 38.8029,9.11708 1.81923,0.008 4.34705,0.29202 5.61737,0.63224 l 2.30968,0.61858 -0.38048,94.11777 c -0.20927,51.76477 -0.7386,95.13026 -1.17631,96.36776 L 734.76674,468 H 691.88337 C 668.29752,468 649,467.76864 649,467.48587 Z"
    />
    <path
      class="secondary"
      d="M 524.58475,548.96195 C 507.10289,546.20956 484.76811,536.40451 468.5,524.34053 457.203,515.96299 435.66876,494.48241 426.0537,482 418.01287,471.56128 407.87093,456.68906 400.73074,444.86624 396.01097,437.05119 380,407.61832 380,406.75706 c 0,-0.26295 5.0625,-0.71874 11.25,-1.01286 27.67155,-1.31536 48.99799,-15.16247 62.56205,-40.62109 5.19566,-9.75181 8.89272,-13.63489 16.18186,-16.99604 4.76291,-2.19626 7.2403,-2.59502 18.35457,-2.95432 13.82596,-0.44697 22.38999,0.54749 37.7297,4.38122 9.82417,2.45527 28.57195,8.67848 32.78063,10.88133 2.34844,1.22918 2.33744,1.25031 -2.5,4.80261 -18.27177,13.41761 -37.94074,44.03176 -40.28513,62.70257 -1.59764,12.72365 1.68024,30.64216 9.46519,51.74155 4.62626,12.53845 19.32183,42.7708 27.29917,56.161 3.38908,5.68867 6.16196,10.50502 6.16196,10.703 0,2.24064 -24.57242,3.9656 -34.41525,2.41592 z"
    />
    <path
      class="secondary"
      d="M 414,785.8163 C 288.04102,732.31656 196.82865,633.85712 166.12783,518.25 L 163.14026,507 H 281.00143 398.8626 l 5.67117,7.75 c 9.25807,12.65171 14.6026,25.02449 18.08651,41.8709 l 1.58442,7.66147 -6.51889,13.60881 c -11.06152,23.09202 -11.31193,29.76571 -1.67099,44.53414 2.73607,4.19125 6.10488,9.85078 7.48622,12.57674 l 2.51154,4.95628 -0.25629,75.37123 L 425.5,790.7008 Z"
    />
    <path
      class="primary"
      d="m 377.32615,396.06746 c -2.84562,-1.04164 -7.12062,-2.99723 -9.5,-4.34575 C 365.44677,390.37319 360.575,388.50606 357,387.57253 342.09092,383.67937 335.09117,380.89706 332.52081,377.84236 329.54784,374.30919 329.9805,373 334.12107,373 c 1.65167,0 7.28337,-0.98322 12.51489,-2.18494 l 9.51184,-2.18495 2.97514,-6.56152 c 3.62226,-7.98872 6.85352,-11.51228 12.55356,-13.68914 8.60311,-3.28556 22.21995,0.19765 31.95385,8.17385 5.22614,4.28243 9.52942,12.70718 12.59894,24.66561 2.22709,8.67643 2.22833,8.72609 0.25435,10.19086 -8.09792,6.00897 -28.7539,8.46595 -39.15749,4.65769 z M 379,367 c 4.25148,-4.25148 1.32744,-13 -4.34501,-13 -3.32715,0 -5.85499,3.23807 -5.85499,7.5 0,6.63765 5.88764,9.81236 10.2,5.5 z"
    />
    <path
      class="primary"
      d="m 156.4422,465.75 c -0.43509,-1.2375 -0.9663,-44.63062 -1.18048,-96.42915 l -0.38942,-94.17915 4.81385,-0.60633 c 14.16472,-1.78411 24.52741,-4.2256 40.31385,-9.4981 21.00962,-7.01698 38.92537,-14.54074 86.59907,-36.36746 56.24371,-25.75039 82.41119,-36.44852 105.72314,-43.22311 C 402.91488,182.3684 422.02991,178 424.90708,178 425.68335,178 426,192.77609 426,229 c 0,28.05 -0.18655,51 -0.41456,51 -0.22801,0 -4.0455,-1.38652 -8.48331,-3.08116 -7.77053,-2.96729 -8.10908,-3.23093 -9.15988,-7.13333 -0.60013,-2.22868 -1.18987,-6.80466 -1.31055,-10.16883 L 406.41229,253.5 395.45615,252.55452 c -24.70365,-2.13184 -37.98494,-0.55533 -51.52768,6.11641 -7.85939,3.87189 -6.15424,3.75489 -24.99227,1.71482 -4.88119,-0.5286 -6.29846,-0.23167 -11.55191,2.42026 -6.52071,3.29165 -15.52751,9.88326 -19.20879,14.05794 -1.27848,1.44983 -3.80137,5.81294 -5.60642,9.69581 -2.8716,6.17714 -4.12691,7.66274 -10.04083,11.88283 -20.56574,14.67541 -38.70291,32.08368 -43.11572,41.38297 -1.4975,3.15577 -1.46075,3.69756 0.63018,9.28866 l 2.22045,5.93741 -3.13158,5.97419 c -1.72237,3.2858 -4.48864,8.56168 -6.14726,11.72418 -5.07556,9.67758 -6.09962,24.09311 -2.24901,31.65902 2.88099,5.66076 16.19133,21.35067 21.11091,24.88503 2.82855,2.03212 8.26874,7.91565 12.56614,13.59022 12.29585,16.23626 15.23251,17.57205 32.22656,14.65881 7.36336,-1.26228 12.64727,-1.52846 20.86108,-1.0509 10.836,0.63003 11.20007,0.57895 24.41938,-3.42631 19.43526,-5.88859 23.85373,-5.38799 32.97804,3.73631 5.22252,5.22252 7.80287,6.19396 16.47758,6.2034 6.18599,0.007 11.96537,1.49468 13.63921,3.51154 C 396.10067,467.82622 382.23995,468 276.73908,468 H 157.23326 Z"
    />
    <path
      class="primary"
      d="m 466,753.67019 v -36.32981 l 15.69015,-0.23622 c 10.97162,-0.16518 16.73303,-0.67196 19.15793,-1.68515 11.08292,-4.63074 33.97303,-29.21672 41.99297,-45.10412 3.07189,-6.0854 8.11111,-10.73963 15.9523,-14.7336 5.15586,-2.62617 5.76936,-5.0601 4.30191,-17.06701 -0.69835,-5.71406 -1.00866,-11.21178 -0.68957,-12.21715 0.3191,-1.00537 6.69312,-5.64601 14.16449,-10.31254 7.47138,-4.66652 16.13706,-10.52086 19.25707,-13.00964 7.25561,-5.78766 9.18007,-10.93064 9.90675,-26.47495 l 0.51424,-11 -3.61413,-6.56487 c -2.3261,-4.22523 -4.14269,-9.39285 -5.09723,-14.5 -0.81571,-4.36432 -2.13129,-10.52982 -2.92351,-13.7011 l -1.44039,-5.76597 4.58926,-6.10507 c 2.5241,-3.35779 6.37769,-7.40061 8.56355,-8.98403 L 610.30008,507 h 58.84996 c 56.582,0 58.84996,0.0713 58.84996,1.84906 0,2.60595 -7.15913,26.75599 -11.40149,38.4609 C 688.71867,624.23193 634.22948,691.57646 559.5,741.4719 539.46698,754.84756 528.34082,761.31133 506.56017,772.22741 490.95421,780.04884 468.75417,790 466.91131,790 466.37962,790 466,774.86619 466,753.67019 Z m 165.38131,-89.76413 c 12.10948,-4.10871 13.14198,-5.17781 12.69774,-13.14778 -0.67633,-12.13377 -0.76083,-11.82105 5.85087,-21.65406 7.17214,-10.6665 9.57101,-15.68136 10.57361,-22.10422 0.38634,-2.475 1.5561,-7.0733 2.59945,-10.21845 C 666.36511,586.94805 665.21397,579 660.52763,579 c -3.53852,0 -9.96567,6.13078 -12.93512,12.33864 -2.50306,5.23284 -3.46137,6.04071 -17.36153,14.63608 -8.26453,5.1105 -8.98971,6.47971 -8.44209,15.93952 l 0.46628,8.05467 -4.11163,6.31078 c -2.2614,3.47092 -4.39489,7.72708 -4.7411,9.45812 -1.03761,5.18805 2.8225,18.40318 5.98709,20.49688 1.66927,1.10439 2.14736,1.01155 11.99178,-2.32863 z"
    />
  </g>
</svg>
