<svg xmlns="http://www.w3.org/2000/svg" viewBox="0 0 129 44">

  <title xml:lang="en">eLife</title>

  <style>
    :root {
      --color-background: rgb(255 255 255);
      --color-circle: rgb(190 195 197);
      --color-text: rgb(102 107 110);
    }

    .logo circle {
      fill: var(--color-background);
      stroke: var(--color-circle);
      stroke-width: 2;
    }

    .text {
      fill: var(--color-text);
    }

    @media screen and (forced-colors: active) {
      :root {
        --color-background: Canvas;
        --color-circle: CanvasText;
        --color-text: CanvasText;
      }

      .logo path {
        fill: var(--color-circle);
      }
    }
  </style>

  <g class="logo">
    <circle cx="21.88" cy="22.04" r="20.5" />
    <path
      d="m18.83,18.99c1.1,1.1 2.89,1.1 3.98,0l10.29,-10.29c-1.47,-1.25 -3.15,-2.26 -4.97,-2.97l-9.3,9.29c-1.09,1.09 -1.09,2.88 0,3.97"
      fill="#7CB13F"
    />
    <path
      d="m24.8,24.96c1.09,1.09 1.09,2.88 0,3.98l-7.95,7.95c-1.1,1.1 -2.89,1.1 -3.98,0c-1.1,-1.09 -1.1,-2.88 0,-3.97l7.95,-7.96c1.1,-1.09 2.89,-1.09 3.98,0"
      fill="#D71D62"
    />
    <path
      d="m16.85,20.98c1.09,1.1 1.09,2.89 0,3.98c-1.1,1.09 -2.89,1.09 -3.98,0c-1.1,-1.09 -1.1,-2.88 0,-3.98c1.09,-1.09 2.88,-1.09 3.98,0"
      fill="#336A2D"
    />
    <path
      d="m26.79,11.04c1.09,1.09 1.09,2.88 0,3.98c-1.09,1.09 -2.88,1.09 -3.98,0c-1.09,-1.1 -1.09,-2.89 0,-3.98c1.1,-1.09 2.89,-1.09 3.98,0"
      fill="#336A2D"
    />
    <path
      d="m18.83,30.93c1.1,1.09 1.1,2.88 0,3.97c-1.09,1.1 -2.88,1.1 -3.97,0c-1.1,-1.09 -1.1,-2.88 0,-3.97c1.09,-1.1 2.88,-1.1 3.97,0"
      fill="#861450"
    />
    <path
      d="m36.73,13.03c1.1,1.09 1.1,2.88 0,3.98c-1.09,1.09 -2.88,1.09 -3.97,0c-1.1,-1.1 -1.1,-2.89 0,-3.98c1.09,-1.1 2.88,-1.1 3.97,0"
      fill="#861450"
    />
    <path
      d="m30.77,18.99c1.09,1.1 1.09,2.89 0,3.98c-1.1,1.1 -2.89,1.1 -3.98,0c-1.09,-1.09 -1.09,-2.88 0,-3.98c1.09,-1.09 2.88,-1.09 3.98,0"
      fill="#D71D62"
    />
    <path
      d="m32.76,28.94c1.09,1.09 1.09,2.88 0,3.98c-1.1,1.09 -2.89,1.09 -3.98,0c-1.1,-1.1 -1.1,-2.89 0,-3.98c1.09,-1.1 2.88,-1.1 3.98,0"
      fill="#2994D2"
    />
    <path
      d="m16.85,9.05c1.09,1.09 1.09,2.88 0,3.98c-1.1,1.09 -2.89,1.09 -3.98,0c-1.1,-1.1 -1.1,-2.89 0,-3.98c1.09,-1.09 2.88,-1.09 3.98,0"
      fill="#08589B"
    />
    <path
      d="m10.88,26.95c-1.09,-1.09 -2.88,-1.09 -3.98,0l-1.33,1.34c0.71,1.82 1.72,3.5 2.97,4.97l2.34,-2.33c1.09,-1.1 1.09,-2.89 0,-3.98"
      fill="#861450"
    />
    <path
      d="m18.83,7.06c1.1,1.1 2.89,1.1 3.98,0l1.99,-1.99c0.07,-0.07 0.13,-0.15 0.19,-0.23c-1.03,-0.2 -2.09,-0.3 -3.17,-0.3c-1.31,0 -2.57,0.15 -3.8,0.42c-0.03,0.76 0.24,1.53 0.81,2.1"
      fill="#D71D62"
    />
    <path
      d="m10.88,18.99c1.09,-1.09 1.09,-2.88 0,-3.97c-1.09,-1.1 -2.88,-1.1 -3.98,0l-1.71,1.71c-0.53,1.66 -0.81,3.42 -0.81,5.25c0,0.92 0.07,1.83 0.21,2.72c0.49,-0.12 0.94,-0.36 1.32,-0.73l4.97,-4.98z"
      fill="#2994D2"
    />
    <path
      d="m34.74,22.97c-1.09,1.1 -1.09,2.89 0,3.98c1.02,1.01 2.63,1.07 3.73,0.2c0.51,-1.63 0.78,-3.37 0.78,-5.17c0,-1.09 -0.1,-2.15 -0.29,-3.18c-0.08,0.06 -0.16,0.12 -0.24,0.19l-3.98,3.98z"
      fill="#08589B"
    />
    <path
      d="m26.79,34.9c-1.09,-1.09 -2.88,-1.09 -3.98,0l-3.98,3.98c-0.07,0.08 -0.13,0.16 -0.19,0.24c1.03,0.19 2.09,0.29 3.18,0.29c1.8,0 3.54,-0.27 5.17,-0.78c0.87,-1.1 0.81,-2.71 -0.2,-3.73"
      fill="#7CB13F"
    />
  </g>
  <g class="text">
    <path
      d="m57.71,18.35c-1.13,0 -2.02,0.36 -2.67,1.08c-0.64,0.72 -1.01,1.75 -1.11,3.07l7.53,0c-0.03,-1.32 -0.37,-2.35 -1.04,-3.07c-0.67,-0.72 -1.57,-1.08 -2.71,-1.08m0.76,16.56c-3.16,0 -5.64,-0.87 -7.42,-2.62c-1.78,-1.74 -2.67,-4.22 -2.67,-7.42c0,-3.29 0.82,-5.83 2.47,-7.63c1.65,-1.8 3.92,-2.7 6.83,-2.7c2.78,0 4.94,0.79 6.49,2.37c1.54,1.58 2.32,3.77 2.32,6.56l0,2.6l-12.68,0c0.06,1.52 0.51,2.71 1.36,3.57c0.84,0.85 2.02,1.28 3.55,1.28c1.18,0 2.3,-0.12 3.35,-0.37c1.06,-0.24 2.16,-0.64 3.31,-1.18l0,4.15c-0.94,0.47 -1.94,0.82 -3.01,1.05c-1.06,0.23 -2.36,0.34 -3.9,0.34"
    />
    <polygon
      points="69.3846206665039,34.538466826081276 69.3846206665039,9.538459196686745 74.3846206665039,9.538459196686745 74.3846206665039,30.538466826081276 84.3846206665039,30.538466826081276 84.3846206665039,34.538466826081276 "
    />
    <path
      d="m87.38,34.54l5,0l0,-19l-5,0l0,19zm0,-23.51c0,-1.66 0.83,-2.49 2.5,-2.49c1.67,0 2.5,0.83 2.5,2.49c0,0.79 -0.21,1.41 -0.62,1.85c-0.42,0.44 -1.05,0.66 -1.88,0.66c-1.67,0 -2.5,-0.84 -2.5,-2.51l0,0z"
    />
    <path
      d="m108.38,19.54l-5,0l0,15l-5,0l0,-15l-3,0l0,-3l3,-1l0,-1c0,-2.24 0.61,-4.42 1.71,-5.45c1.1,-1.04 2.86,-1.55 5.29,-1.55c1.85,0 3.5,0.27 4.94,0.82l-1.45,3.69c-1.08,-0.34 -2.58,-0.51 -3.49,-0.51c-0.76,0 -1.31,0.22 -1.65,0.67c-0.34,0.46 -0.35,1.63 -0.35,2.33l0,1l5,0l0,4z"
    />
    <path
      d="m119.71,18.35c-1.13,0 -2.02,0.36 -2.67,1.08c-0.64,0.72 -1.01,1.75 -1.11,3.07l7.53,0c-0.03,-1.32 -0.37,-2.35 -1.04,-3.07c-0.67,-0.72 -1.57,-1.08 -2.71,-1.08m0.76,16.56c-3.16,0 -5.64,-0.87 -7.42,-2.62c-1.78,-1.74 -2.67,-4.22 -2.67,-7.42c0,-3.29 0.82,-5.83 2.47,-7.63c1.65,-1.8 3.92,-2.7 6.83,-2.7c2.78,0 4.94,0.79 6.48,2.37c1.55,1.58 2.33,3.77 2.33,6.56l0,2.6l-12.68,0c0.06,1.52 0.51,2.71 1.35,3.57c0.85,0.85 2.03,1.28 3.56,1.28c1.18,0 2.3,-0.12 3.35,-0.37c1.06,-0.24 2.16,-0.64 3.31,-1.18l0,4.15c-0.94,0.47 -1.94,0.82 -3.01,1.05c-1.06,0.23 -2.36,0.34 -3.9,0.34"
    />
  </g>

</svg>
