<svg xmlns="http://www.w3.org/2000/svg" viewBox="0 0 2000 221.65" width="2000" height="221.65">

  <title xml:lang="en">Gates Foundation</title>

  <style>
    :root {
      --color-text: rgb(49 58 68);
    }

    .text {
      fill: var(--color-text);
    }
  </style>

  <g class="text">
    <path
      d="M1987.7,197.05v-89.1c0-27.06-13.12-44.82-39.9-44.82-22.14,0-37.17,14.76-47.01,29.24v-29.79l-46.19,22.41v4.37c12.57-1.64,12.57,2.46,12.57,21.59v86.09c0,14.49-4.65,16.67-11.48,16.67v4.65h59.85v-4.65c-10.66,0-14.76-2.19-14.76-16.67v-91.28c6.56-9.29,15.85-19.68,31.16-19.68s22.14,8.75,22.14,25.42v85.54c0,14.49-4.65,16.67-14.48,16.67v4.65h60.4v-4.65c-7.65,0-12.3-2.19-12.3-16.67Z"
    />

    <path
      d="M1778.08,63.95c-39.63,0-69.97,32.52-69.97,78.16s30.88,78.16,69.97,78.16,69.97-31.98,69.97-77.62-30.88-78.71-69.97-78.71ZM1783.82,209.9c-28.15,0-41.27-48.1-41.27-90.19,0-30.61,13.94-45.09,30.06-45.09,28.42,0,41,46.46,41,89.1,0,30.61-13.67,46.19-29.79,46.19Z"
    />

    <path
      d="M1689.53,197.05V59.58h-4.92c-4.65,6.01-10.93,9.84-25.42,9.84h-56.3V21.32h-6.83c-6.83,28.42-22.68,50.83-40.18,56.3v4.1h13.39v101.12c0,1.64,0,3.55.27,4.92-5.19,9.02-11.75,15.58-19.68,15.58-6.56,0-11.21-3.28-11.21-15.58v-79.53c0-31.98-20.77-45.09-51.38-45.09-37.44,0-60.67,19.4-60.67,39.36,0,9.57,6.29,16.12,16.4,16.12,10.66,0,15.58-6.83,17.22-17.49,2.19-15.58,5.19-27.6,23.5-27.6,15.03,0,23.23,9.84,23.23,26.24,0,15.03-6.01,22.41-14.76,26.51-8.75,4.65-19.68,7.11-30.61,10.93-21.59,7.11-38.26,18.58-38.26,44.82,0,4.65.65,8.97,1.85,12.93-3.91,5.07-8.51,8.39-13.88,8.39-6.01,0-10.39-3.28-10.39-15.58V0l-46.73,20.5v4.37c13.12-1.37,13.12,2.46,13.12,19.68v25.42c-7.11-4.1-16.4-6.83-28.42-6.83-36.9,0-71.6,31.7-71.6,85,0,46.46,23.23,72.15,53.84,72.15,19.95,0,36.35-12.85,46.46-27.33.55,16.12,9.57,28.15,27.88,28.15,15.19,0,25.35-7.66,32.63-19.15,6.66,12.37,19.76,19.7,35.7,19.7,19.4,0,32.8-12.57,41.82-25.42,1.37,13.94,10.93,24.87,28.7,24.87s28.7-9.29,36.9-22.96c4.65,15.85,16.94,23.23,33.07,23.23,25.96,0,34.98-21.32,36.9-46.19l-4.65-.55c-3.83,18.86-9.84,27.06-18.86,27.06s-14.76-6.29-14.76-20.77v-99.21h41c12.03,0,12.03,3.28,12.03,22.41v92.92c0,14.48-4.65,16.67-11.75,16.67v4.65h57.94v-4.65c-8.2,0-12.57-2.19-12.57-16.67ZM1367.31,179.29c-7.65,10.39-16.12,18.86-30.34,18.86-25.42,0-36.35-32.25-36.35-71.06,0-36.62,15.58-53.29,34.44-53.29s32.25,15.85,32.25,39.63v65.87ZM1505.33,183.66c-7.93,10.66-15.85,17.22-26.51,17.22-13.67,0-21.59-9.57-21.59-25.14,0-13.12,6.29-21.59,16.67-27.88,7.93-4.37,15.3-6.56,21.86-10.66,4.92-3.28,8.2-6.83,9.57-9.84v56.3Z"
    />

    <path
      d="M1672.31,51.11c12.3,0,20.5-8.47,20.5-19.95s-8.2-19.95-20.5-19.95-20.22,8.75-20.22,19.95,8.47,19.95,20.22,19.95Z"
    />

    <path
      d="M1248.7,197.05v-89.1c0-27.06-13.12-44.82-39.9-44.82-22.14,0-37.17,14.76-47.01,29.24v-29.79l-46.19,22.41v4.37c12.57-1.64,12.57,2.46,12.57,21.59v80.9c0,13.67-6.29,19.13-16.4,19.13s-16.67-5.47-16.67-19.13V62.59l-46.46,21.86v4.37c12.85-1.91,12.85,3.83,12.85,22.14v70.24c-6.29,8.47-15.85,17.49-29.52,17.49s-21.04-8.47-21.04-25.69V62.59l-46.73,21.86v4.37c12.85-1.91,12.85,3.83,12.85,22.14v65.59c0,27.33,12.85,45.09,39.9,45.09,20.22,0,35.26-13.39,45.09-27.06,1.37,13.94,9.57,23.78,34.98,23.78h79.53v-4.65c-10.66,0-14.76-2.19-14.76-16.67v-91.28c6.56-9.29,15.85-19.68,31.16-19.68s22.14,8.75,22.14,25.42v85.54c0,14.49-4.65,16.67-14.48,16.67v4.65h60.4v-4.65c-7.65,0-12.3-2.19-12.3-16.67Z"
    />

    <path
      d="M888.49,63.95c-39.63,0-69.97,32.52-69.97,78.16s30.88,78.16,69.97,78.16,69.97-31.98,69.97-77.62-30.88-78.71-69.97-78.71ZM894.23,209.9c-28.15,0-41.27-48.1-41.27-90.19,0-30.61,13.94-45.09,30.06-45.09,28.42,0,41,46.46,41,89.1,0,30.61-13.66,46.19-29.79,46.19Z"
    />

    <path
      d="M776.71,24.6c31.43,0,41.82,7.93,42.91,40.45h5.74V13.39h-138.56v4.65c12.57,0,17.49,1.37,17.49,21.04v153.32c0,19.4-4.92,21.04-17.49,21.04v4.92h72.42v-4.92c-14.21,0-19.95-1.64-19.95-21.04v-73.24h30.34c19.13,0,25.69,7.65,26.51,27.6h5.47v-66.69h-5.47c-.82,21.04-7.38,27.6-26.51,27.6h-30.34V24.6h37.44Z"
    />

    <path
      d="M599.07,131.18l-21.04-13.67c-13.12-8.47-21.04-14.49-21.04-25.42s8.2-18.04,21.04-18.04c16.94,0,33.62,12.85,37.99,37.44h4.92v-45.09h-4.92c-.27,3.83-1.64,5.74-5.19,5.74-5.19,0-14.49-8.2-33.62-8.2-23.5,0-45.09,13.94-45.09,41,0,17.22,9.57,30.61,27.33,42.09l20.77,13.39c15.03,9.84,20.77,15.3,20.77,27.6s-8.2,21.59-25.96,21.59c-22.68,0-45.64-14.21-49.19-53.02h-3.55c-8.47,26.24-24.05,39.9-45.91,39.9-29.79,0-48.37-25.69-48.37-68.87v-1.09h93.2c-1.09-38.26-22.68-62.59-56.57-62.59s-69.42,30.61-69.42,83.08c0,11.98,2.1,23.31,6.15,33.33-6.13,14.04-13.81,21.33-23.92,21.33-11.48,0-17.49-6.29-17.49-21.04v-101.94h36.08v-12.3h-36.08V21.32h-6.83c-6.83,27.6-22.68,47.83-40.18,53.29v4.1h13.39v104.13c0,1.64,0,3.28.27,4.65-5.47,9.29-12.03,15.85-19.68,15.85-6.56,0-11.21-3.28-11.21-15.58v-79.53c0-31.98-20.77-45.09-51.38-45.09-37.44,0-60.67,19.4-60.67,39.36,0,9.57,6.29,16.12,16.4,16.12,10.66,0,15.58-6.83,17.22-17.49,2.19-15.58,5.19-27.6,23.5-27.6,15.03,0,23.23,9.84,23.23,26.24,0,15.03-6.01,22.41-14.76,26.51-8.75,4.65-19.68,7.11-30.61,10.93-21.59,7.11-38.26,18.58-38.26,44.82,0,24.05,17.22,39.63,40.45,39.63,19.4,0,32.8-12.57,41.82-25.42,1.37,13.94,10.93,24.87,28.7,24.87s28.7-9.29,37.17-22.96c4.92,15.85,18.31,23.23,36.08,23.23,22.37,0,34.41-14.22,41.06-32.13,10.73,18.72,29.47,31.04,55.15,31.04,30.06,0,49.74-14.48,60.67-45.37v43.45h5.19c.27-3.28,2.19-7.65,6.29-7.65,6.01,0,15.3,9.57,41.27,9.57,33.34,0,56.03-19.13,56.03-44,0-21.32-12.3-32.8-31.16-45.09ZM459.42,74.61c16.12,0,25.69,14.76,27.33,41.82h-58.21c3.01-28.15,16.67-41.82,30.88-41.82ZM262.37,183.66c-7.93,10.66-15.85,17.22-26.51,17.22-13.67,0-21.59-9.57-21.59-25.14,0-13.12,6.29-21.59,16.67-27.88,7.93-4.37,15.3-6.56,21.86-10.66,4.92-3.28,8.2-6.83,9.57-9.84v56.3Z"
    />

    <path
      d="M106.86,127.36c13.39,0,19.13,1.64,19.13,21.86v40.45c0,14.48-6.83,20.77-22.68,21.04-45.37.27-66.96-51.11-66.96-114.51,0-50.83,24.6-74.88,55.21-74.88s54.39,17.76,59.58,53.29h5.74V13.39h-5.47c-.27,4.37-2.73,7.38-7.11,7.38-6.83,0-23.5-10.66-47.28-10.66C45.91,10.11,0,49.74,0,117.52c0,58.21,36.62,104.13,99.21,103.85,29.79,0,51.11-9.02,61.77-18.31v-53.84c0-20.22,4.65-21.86,15.58-21.86v-4.92h-69.69v4.92Z"
    />
  </g>
</svg>
