<svg xmlns="http://www.w3.org/2000/svg" viewBox="0 0 500 100" width="500" height="100">

  <title xml:lang="en">Bill &amp; Melinda Gates Foundation</title>

  <style>
    :root {
      --color-text: rgb(0 0 0);
    }

    .text {
      fill: var(--color-text);
    }

    @media screen and (forced-colors: active) {
      :root {
        --color-text: CanvasText;
      }
    }
  </style>

  <path
    d="M156.154 93.09C156.154 94.046 155.758 94.668 155.024 95.066C153.552 95.912 150.608 96.258 148.574 96.258C143.36 96.258 138.21 94.558 133.742 90.194C131.762 88.28 127.742 82.494 127.742 74.522C127.742 67.89 130.058 62.754 133.342 60.146C137.648 56.746 141.89 56.41 145.462 56.41C152.758 56.41 157.346 58.838 158.764 60.994C159.616 62.35 159.894 63.936 159.952 64.73C160.012 65.236 160.068 65.576 160.352 65.576C160.746 65.576 160.852 65.296 160.852 64.394C160.852 58.718 161.252 57.146 161.252 56.354C161.252 56.122 161.146 55.9 160.568 55.848C159.154 55.788 157.168 55.564 155.98 55.284C154.912 55.058 150.892 54.314 147.324 54.314C142.972 54.314 137.364 54.714 132.27 57.882C127.23 61.052 122.816 67.442 122.816 76.508C122.816 83.582 126.1 89.628 129.55 92.638C135.84 98.124 143.876 98.688 148.17 98.688C151.46 98.688 156.542 98.068 160.17 96.138C160.846 95.744 160.904 95.638 160.904 93.09V86.746C160.904 84.37 160.904 82.674 161.016 80.866C161.13 78.878 161.578 77.916 163.112 77.628C163.792 77.522 164.132 77.46 164.526 77.46C164.756 77.46 164.978 77.354 164.978 77.12C164.978 76.792 164.698 76.676 164.074 76.676C162.372 76.676 158.808 76.84 158.528 76.84C158.25 76.84 154.682 76.676 152.128 76.676C151.508 76.676 151.224 76.786 151.224 77.118C151.224 77.354 151.454 77.458 151.68 77.458C152.186 77.458 153.152 77.522 153.6 77.628C155.87 78.254 156.144 78.878 156.144 83.472V93.09H156.154ZM172.95 92.54C172.07 94.966 171.098 96.808 168.862 97.096C168.396 97.1555 167.926 97.1875 167.456 97.192C167.212 97.192 167.024 97.298 167.024 97.49C167.024 97.778 167.312 97.874 167.948 97.874C170.222 97.874 172.892 97.734 173.426 97.734C173.958 97.734 176.042 97.874 177.21 97.874C177.642 97.874 177.936 97.774 177.936 97.49C177.936 97.302 177.792 97.19 177.446 97.19H176.966C176.138 97.19 175.114 96.75 175.114 95.792C175.114 94.918 175.358 93.758 175.8 92.542L178.706 83.958C178.806 83.706 178.956 83.558 179.196 83.558H189.628C189.868 83.558 189.968 83.658 190.068 83.86L194.58 95.792C194.87 96.562 194.58 96.994 194.278 97.096C194.086 97.154 193.94 97.24 193.94 97.436C193.94 97.73 194.474 97.73 195.4 97.768C198.74 97.87 202.284 97.87 203.016 97.87C203.544 97.87 203.988 97.77 203.988 97.486C203.988 97.24 203.794 97.186 203.496 97.186C203.012 97.186 202.28 97.148 201.558 96.898C200.538 96.6 199.134 95.83 197.39 91.512C194.43 84.14 186.818 64.104 186.078 62.262C185.5 60.758 185.304 60.522 185.016 60.522C184.716 60.522 184.524 60.816 183.948 62.408L172.948 92.542L172.95 92.54ZM179.73 81.816C179.596 81.816 179.49 81.716 179.596 81.476L183.86 68.38C184.1 67.65 184.34 67.65 184.588 68.38L189.194 81.476C189.242 81.672 189.242 81.816 189.006 81.816H179.73ZM215.576 63.288L221.862 63.388C226.65 63.48 227.802 64.6 228.002 66.048L228.046 66.588C228.094 67.264 228.198 67.408 228.452 67.408C228.648 67.408 228.792 67.208 228.792 66.778C228.792 66.244 228.94 62.898 228.94 61.44C228.94 61.152 228.94 60.864 228.694 60.864C228.486 60.864 228.04 60.96 227.294 61.104C226.498 61.204 225.35 61.344 223.746 61.344H205.04C204.446 61.344 202.546 61.248 201.096 61.104C199.756 61.004 199.252 60.526 198.91 60.526C198.712 60.526 198.514 61.156 198.4 61.44C198.306 61.826 197.308 66.004 197.308 66.49C197.308 66.784 197.408 66.928 197.554 66.928C197.754 66.928 197.912 66.832 198.06 66.438C198.202 66.106 198.352 65.754 198.91 64.938C199.706 63.768 200.894 63.432 203.99 63.388L211.38 63.288V83.812C211.38 88.464 211.38 92.296 211.128 94.336C210.93 95.74 210.684 96.812 209.678 97C209.228 97.1 208.636 97.196 208.186 97.196C207.878 97.196 207.786 97.346 207.786 97.496C207.786 97.784 208.036 97.88 208.58 97.88C210.084 97.88 213.22 97.74 213.464 97.74C213.72 97.74 216.866 97.88 219.596 97.88C220.156 97.88 220.408 97.74 220.408 97.494C220.408 97.35 220.304 97.196 219.998 97.196C219.558 97.196 218.45 97.1 217.762 97C216.262 96.812 215.962 95.74 215.812 94.336C215.566 92.296 215.566 88.464 215.566 83.812V63.288H215.576ZM238.256 83.808C238.256 88.458 238.256 92.292 238.01 94.33C237.812 95.73 237.572 96.808 236.606 96.994C236.13 97.1091 235.644 97.1754 235.154 97.192C234.86 97.192 234.764 97.34 234.764 97.49C234.764 97.778 235.004 97.874 235.534 97.874C236.268 97.874 237.374 97.826 238.352 97.774C239.366 97.774 240.192 97.73 240.29 97.73C241.698 97.73 244.944 98.014 252.27 98.014C254.174 98.014 254.55 98.014 254.88 96.75C255.13 95.73 255.516 92.44 255.516 92.05C255.516 91.714 255.516 91.32 255.232 91.32C254.986 91.32 254.88 91.518 254.788 92.05C254.452 94.038 253.87 95.01 252.61 95.552C251.35 96.076 249.21 96.076 247.95 96.076C243.198 96.076 242.472 95.446 242.324 92.104C242.28 91.08 242.324 85.458 242.324 83.808V79.528C242.324 79.34 242.414 79.188 242.656 79.188C243.492 79.188 248.292 79.288 249.59 79.442C251.494 79.628 251.928 80.456 252.12 81.138C252.312 81.778 252.312 82.25 252.312 82.736C252.312 82.98 252.408 83.182 252.644 83.182C252.984 83.182 252.984 82.644 252.984 82.254C252.984 81.908 253.086 80.128 253.178 79.148C253.332 77.548 253.568 76.728 253.568 76.44C253.568 76.152 253.476 76.056 253.332 76.056C253.134 76.056 252.938 76.3 252.6 76.686C252.164 77.176 251.49 77.262 250.32 77.364C249.2 77.464 243.232 77.464 242.608 77.464C242.362 77.464 242.314 77.316 242.314 76.978V63.596C242.314 63.258 242.406 63.104 242.608 63.104C243.146 63.104 248.428 63.152 249.248 63.254C251.874 63.542 252.36 64.12 252.702 64.904C252.942 65.48 252.99 66.304 252.99 66.644C252.99 67.038 253.09 67.274 253.384 67.274C253.572 67.274 253.674 66.986 253.722 66.75C253.818 66.158 253.908 64.028 253.956 63.542C254.106 62.186 254.352 61.6 254.352 61.258C254.352 61.012 254.292 60.826 254.164 60.826C253.908 60.826 253.722 61.012 253.48 61.06C253.086 61.16 252.312 61.258 251.384 61.306C250.278 61.354 240.622 61.354 240.274 61.354C240.024 61.354 236.972 61.214 234.788 61.214C234.264 61.214 234.014 61.31 234.014 61.6C234.014 61.786 234.206 61.888 234.402 61.888C234.846 61.888 235.668 61.946 236.062 62.036C237.658 62.378 238.034 63.152 238.144 64.808C238.24 66.356 238.24 67.712 238.24 75.276V83.808H238.256ZM271.366 98.558C274.082 98.558 276.816 97.97 278.982 96.508C282.458 94.142 283.268 90.444 283.268 88.458C283.268 84.582 281.854 81.578 275.892 77.06L274.496 75.998C269.74 72.262 268.344 70.598 268.344 67.846C268.344 64.312 271.06 62.22 274.536 62.22C279.188 62.22 280.544 64.26 280.834 64.788C281.148 65.322 281.448 66.634 281.504 67.212C281.564 67.602 281.618 67.846 281.904 67.846C282.168 67.846 282.264 67.51 282.264 66.74C282.264 63.432 282.458 61.83 282.458 61.584C282.458 61.344 282.358 61.254 281.958 61.254C281.558 61.254 281.148 61.204 280.188 61.008C278.928 60.714 277.472 60.528 275.492 60.528C269.094 60.528 265.058 64.062 265.058 69.256C265.058 72.556 266.258 75.56 271.616 79.774L273.88 81.582C278.228 85.016 279.692 86.954 279.692 90.306C279.692 93.412 277.308 96.75 272.476 96.75C269.096 96.75 265.764 95.408 264.998 91.81C264.858 91.132 264.858 90.45 264.858 90.016C264.858 89.628 264.808 89.478 264.498 89.478C264.254 89.478 264.158 89.732 264.098 90.262C264.048 91.036 263.852 92.97 263.852 95.408C263.852 96.71 263.902 96.908 264.604 97.244C266.664 98.206 269.006 98.558 271.366 98.558ZM315.56 74.8C316.17 74.378 316.26 73.776 315.966 73.328H310.856C311.956 69.952 312.772 66.74 314.7 64.072C315.674 62.724 316.694 61.932 317.88 61.932C318.954 61.932 320.256 62.648 320.384 65.032C320.424 65.316 320.586 65.672 320.952 65.672C321.612 65.672 322.708 64.442 322.708 63.206C322.708 61.608 321.068 60.58 319.356 60.58C316.952 60.58 314.542 61.532 312.484 63.884C310.08 66.664 309.006 69.76 307.944 73.334H304.446C303.898 73.694 303.728 74.454 304.146 74.806H307.538C305.578 81.292 304.224 88.122 302.136 94.764C301.286 97.462 300.31 98.064 299.564 98.064C298.744 98.064 297.68 97.51 297.12 96.582C296.784 96.072 296.502 95.754 295.924 96.234C295.642 96.432 295.162 96.778 295.162 97.668C295.162 98.342 295.922 99.692 297.808 99.692C300.222 99.692 301.972 98.14 302.458 97.668C303.324 96.908 304.56 94.72 305.698 91.148C307.048 86.78 308.23 82.366 309.542 77.95C309.898 76.768 310.238 75.484 310.476 74.81H315.562V74.8H315.56ZM330.04 72.786C328.414 72.786 326.63 73.376 324.552 75.368C321.854 77.94 320.384 81.802 320.224 84.268C319.988 87.68 321.658 89.56 324.196 89.56C325.284 89.56 327.41 89.352 329.876 86.814C332.83 83.794 333.978 79.974 334.094 77.786C334.258 74.896 332.868 72.786 330.04 72.786ZM329.78 73.974C331.16 73.974 331.396 75.368 331.358 76.594C331.28 78.7 329.414 83.942 327.654 86.29C326.384 87.996 325.39 88.362 324.528 88.362C323.364 88.362 322.812 87.208 322.904 85.822C323.004 83.716 324.558 78.984 326.866 75.882C328.01 74.334 328.972 73.974 329.78 73.974ZM346.666 73.974C346.91 73.29 345.96 72.786 345.416 72.786C343.48 72.786 339.338 75.916 338.274 77.498C338.234 77.858 338.558 78.178 338.978 78.098C339.964 77.104 342.114 75.368 342.904 75.368C343.234 75.368 343.19 75.762 342.904 76.512L339.104 86.178C338.398 87.914 338.604 89.554 340.294 89.554C342.52 89.554 347.652 84.462 350.636 80.85L350.712 80.89L347.896 88.156C347.652 88.786 348.276 89.556 348.932 89.556C351.142 89.556 355.088 86.416 356.168 84.5C356.128 84.03 355.788 83.87 355.418 83.942C354.344 85.182 352.168 87.05 351.382 87.05C350.962 87.05 351.002 86.574 351.218 86.054C352.948 81.336 355.634 74.8 356.044 73.738C355.888 73.258 354.884 72.858 354.024 73.018C352.668 75.44 350.506 80.052 346.744 83.63C344.596 85.654 342.944 86.924 342.33 86.924C341.87 86.924 341.654 86.53 342.044 85.584L346.666 73.974ZM370.266 74.416C370.632 73.492 370.19 72.786 369.232 72.786C367.252 72.786 364.818 74.416 363.318 76.478C363.278 76.792 363.466 77.07 363.798 77.07C365.102 75.926 366.496 75.094 367.414 75.094C367.732 75.094 367.732 75.478 367.534 75.998C367.328 76.56 363.12 87.998 362.922 88.52C362.558 89.426 363.624 89.56 364.068 89.56C364.424 89.56 364.592 89.43 364.78 89.07C367.126 84.702 368.76 81.606 370.878 78.98C373.038 76.244 375.402 74.256 376.346 74.256C376.946 74.256 376.994 74.734 376.994 75.204C376.994 75.998 376.47 77.388 376.158 78.104C375.238 80.09 373.768 83.99 372.936 85.938C372.098 87.918 371.978 88.208 371.978 88.558C371.978 89.036 372.578 89.558 372.936 89.558C375.114 89.558 378.26 87.65 379.778 85.098C379.778 84.784 379.688 84.466 379.124 84.548C377.99 85.938 376.07 87.256 375.408 87.256C375.114 87.256 375.158 86.896 375.312 86.496C375.44 86.188 378.288 79.7 379.014 77.716C379.342 76.802 379.654 75.576 379.654 74.936C379.654 73.622 378.97 72.796 377.428 72.796C374.44 72.796 370.512 77.162 367.698 81.456L367.578 81.38L370.266 74.416ZM399.948 74.02C399.52 73.18 398.554 72.786 397.924 72.786C396.02 72.786 393.508 73.892 390.806 76.316C387.67 79.134 385.53 83.87 385.53 86.684C385.53 88.276 386.352 89.554 387.902 89.554C391.754 89.554 394.754 85.698 397.482 82.038L397.63 82.072L396.25 86.012C395.856 87.16 395.73 87.794 395.73 88.276C395.73 88.916 396.17 89.556 397.006 89.556C399.082 89.556 402.68 86.284 403.762 84.106C403.728 83.746 403.532 83.592 403.166 83.592C401.926 85.14 399.428 87.164 398.798 87.164C398.444 87.164 398.396 86.77 398.554 86.252C398.92 85.058 400.78 78.706 404.714 67.846C405.906 64.556 406.508 63.046 407.214 60.816L407.056 60.58C405.358 60.54 403.142 61.06 402.368 61.334C402.208 61.488 402.16 61.73 402.248 61.884L403.166 62.528C403.728 62.888 403.608 63.604 402.81 65.828L399.95 74.022L399.948 74.02ZM397.842 73.974C398.838 73.974 399.356 75.162 398.876 76.83C398.294 78.936 397.12 81.336 394.038 84.506C391.288 87.318 389.268 88.046 388.666 88.046C388.31 88.046 387.906 87.68 387.906 87.204C387.906 86.688 387.906 85.972 389.142 83.432C390.368 80.928 393.226 77.152 394.822 75.68C395.862 74.734 396.922 73.974 397.842 73.974ZM423.088 74.416C422.895 74.0733 422.62 73.7839 422.288 73.574C421.999 73.4128 421.673 73.3268 421.342 73.324C420.308 73.324 419.302 73.612 417.762 74.484C416.128 75.396 414.422 76.988 412.512 79.604C409.882 83.23 409.006 86.41 409.006 87.314C409.006 88.434 409.646 89.554 410.762 89.554C412.622 89.554 416.686 86.808 419.504 83.314L419.624 83.36L418.312 86.92C418.004 87.842 417.918 88.204 417.918 88.472C417.918 88.78 418.162 89.554 419.062 89.554C421.25 89.554 424.068 87.314 425.752 85.092C425.752 84.78 425.458 84.582 425.19 84.582C422.934 86.574 421.77 87.252 421.09 87.252C420.774 87.252 420.578 87.006 420.808 86.332C422.088 82.716 425.54 73.934 426.142 72.458C425.896 71.954 424.862 71.55 424.202 71.878L423.088 74.416ZM420.1 74.848C421.134 74.848 421.804 75.528 422.092 76.282C421.452 78.622 419.784 82.042 416.768 84.862C414.504 86.924 413.31 87.438 412.908 87.438C412.55 87.438 412.314 87.164 412.314 86.688C412.314 83.876 414.738 78.662 417.282 76.398C418.522 75.282 419.152 74.848 420.1 74.848ZM443.224 74.648C443.734 74.354 443.988 73.534 443.71 73.124H439.37L440.526 69.064C440.208 68.652 439.41 68.568 439.02 68.822L436.788 72.908L433.608 73.484C433.22 73.648 433.09 74.228 433.182 74.638H436.264L432.548 86.048C432.152 87.282 431.984 87.858 431.984 88.404C431.984 88.898 432.498 89.528 433.066 89.528C434.73 89.528 438.466 86.992 440.684 83.582C440.78 83.086 440.536 82.836 440.14 82.836C438.832 84.396 436.206 86.548 435.616 86.548C435.288 86.548 435.1 86.298 435.322 85.522L438.91 74.642H443.224V74.648ZM446.374 88.116C446.286 88.2926 446.256 88.4925 446.288 88.6872C446.321 88.8819 446.414 89.0614 446.554 89.2C446.764 89.43 447.014 89.56 447.226 89.56C450.16 89.56 454.53 85.976 455.152 84.818C455.152 84.472 454.942 84.188 454.532 84.154C453.09 85.702 450.832 87.088 450.12 87.088C449.776 87.088 449.82 86.612 449.986 86.212L455.044 74.926C455.556 73.776 455.556 73.416 455.296 73.18C455.116 73.016 454.906 72.786 454.608 72.786C453.218 72.786 449.956 74.256 447.62 76.752C447.528 77.066 447.78 77.388 448.17 77.432C450.284 75.796 451.402 75.324 451.69 75.324C451.982 75.324 451.982 75.638 451.782 76.084L446.374 88.116ZM455.71 63.244C454.058 63.244 453.418 64.88 453.418 65.75C453.418 66.462 453.848 67.254 454.942 67.254C456.264 67.254 457.194 65.99 457.194 64.754C457.194 63.884 456.686 63.244 455.71 63.244ZM472.362 72.786C470.726 72.786 468.934 73.376 466.87 75.368C464.162 77.94 462.696 81.802 462.536 84.268C462.302 87.68 463.966 89.56 466.518 89.56C467.592 89.56 469.732 89.352 472.194 86.814C475.142 83.794 476.286 79.974 476.412 77.786C476.57 74.896 475.172 72.786 472.362 72.786ZM472.078 73.974C473.478 73.974 473.708 75.368 473.67 76.594C473.584 78.7 471.718 83.942 469.976 86.29C468.708 87.996 467.712 88.362 466.822 88.362C465.686 88.362 465.13 87.208 465.206 85.822C465.316 83.716 466.874 78.984 469.178 75.882C470.332 74.334 471.28 73.974 472.078 73.974ZM488.338 74.416C488.712 73.492 488.252 72.786 487.278 72.786C485.212 72.786 482.686 74.416 481.106 76.478C481.066 76.792 481.28 77.07 481.606 77.07C482.97 75.926 484.426 75.094 485.376 75.094C485.692 75.094 485.692 75.478 485.492 75.998C485.286 76.56 480.9 87.998 480.696 88.52C480.324 89.426 481.436 89.56 481.896 89.56C482.276 89.56 482.43 89.43 482.636 89.07C485.076 84.702 486.766 81.606 488.962 78.98C491.234 76.244 493.684 74.256 494.674 74.256C495.29 74.256 495.33 74.734 495.33 75.204C495.33 75.998 494.8 77.388 494.46 78.104C493.514 80.09 491.988 83.99 491.12 85.938C490.248 87.918 490.122 88.208 490.122 88.558C490.122 89.036 490.738 89.558 491.118 89.558C493.394 89.558 496.654 87.65 498.23 85.098C498.23 84.784 498.136 84.466 497.566 84.548C496.354 85.938 494.386 87.256 493.69 87.256C493.394 87.256 493.434 86.896 493.59 86.496C493.714 86.188 496.694 79.7 497.44 77.716C497.77 76.802 498.106 75.576 498.106 74.936C498.106 73.622 497.39 72.796 495.78 72.796C492.694 72.796 488.598 77.162 485.66 81.456L485.536 81.38L488.336 74.416H488.338ZM5.54803 28.26C5.54803 33.814 5.54803 38.386 5.26003 40.82C5.02403 42.496 4.73603 43.774 3.56403 43.994C3.04003 44.114 2.34403 44.23 1.81203 44.23C1.47203 44.23 1.34803 44.402 1.34803 44.58C1.34803 44.92 1.64003 45.038 2.27803 45.038C4.02803 45.038 7.69403 44.866 7.98203 44.866C8.45203 44.866 14.386 45.214 15.728 45.214C25.68 45.214 30.572 38.788 30.572 32.6C30.572 25.83 24.81 21.726 20.5 20.398C23.236 17.558 25.966 14.72 25.966 9.976C25.966 7.086 23.87 1.3 14.322 1.3C11.646 1.3 9.38203 1.472 7.98203 1.472C7.69003 1.472 4.02403 1.3 1.40803 1.3C0.760027 1.3 0.478027 1.418 0.478027 1.756C0.478027 1.996 0.710027 2.11 0.942027 2.11C1.46603 2.11 2.45003 2.17 2.92203 2.288C4.84603 2.69 5.30603 3.62 5.42203 5.582C5.53803 7.434 5.53803 9.046 5.53803 18.078V28.258L5.54803 28.26ZM10.2 3.84C10.2 3.5 10.38 3.324 10.902 3.2C11.832 2.97 13.06 2.916 13.692 2.916C19.4 2.916 21.552 8.068 21.552 12.866C21.552 15.236 20.682 17.32 19.46 18.706C18.24 20.098 17.418 20.216 14.158 20.216C12.01 20.216 10.962 20.048 10.606 19.986C10.318 19.866 10.2 19.754 10.2 19.346V3.84ZM10.2 22.182C10.2 21.888 10.32 21.774 10.552 21.774C11.422 21.774 14.332 21.774 15.088 21.888C16.488 22.064 17.942 22.232 19.926 23.568C24.402 26.636 25.58 31.666 25.58 35.142C25.58 41.68 20.514 43.362 17.368 43.362C16.32 43.362 13.816 43.248 12.244 42.49C10.444 41.62 10.444 40.814 10.264 37.972C10.204 37.108 10.204 29.936 10.204 25.482V22.182H10.2ZM46.748 22.416C46.748 14.856 46.748 13.5 46.856 11.942C46.954 10.24 47.37 9.418 48.764 9.176C49.384 9.076 49.698 9.032 50.064 9.032C50.268 9.032 50.484 8.932 50.484 8.734C50.484 8.446 50.216 8.35 49.642 8.35C48.092 8.35 44.834 8.494 44.574 8.494C44.316 8.494 41.06 8.35 39.352 8.35C38.782 8.35 38.526 8.45 38.526 8.734C38.526 8.932 38.73 9.034 38.936 9.034C39.3 9.034 39.972 9.08 40.536 9.226C41.686 9.47 42.198 10.298 42.3 11.942C42.408 13.496 42.408 14.852 42.408 22.416V30.952C42.408 35.608 42.408 39.446 42.148 41.476C41.942 42.884 41.686 43.956 40.648 44.158C40.1363 44.2643 39.6164 44.3258 39.094 44.342C38.782 44.342 38.68 44.49 38.68 44.634C38.68 44.928 38.94 45.02 39.51 45.02C41.064 45.02 44.322 44.88 44.574 44.88C44.84 44.88 48.098 45.02 50.94 45.02C51.514 45.02 51.77 44.88 51.77 44.634C51.77 44.494 51.662 44.342 51.354 44.342C50.894 44.342 49.75 44.246 49.026 44.158C47.472 43.958 47.174 42.884 47.01 41.476C46.75 39.44 46.75 35.604 46.75 30.952L46.748 22.416ZM67.588 22.416C67.588 14.856 67.588 13.5 67.694 11.942C67.798 10.24 68.198 9.418 69.658 9.176C70.264 9.076 70.97 9.032 71.33 9.032C71.524 9.032 71.73 8.932 71.73 8.734C71.73 8.446 71.474 8.35 70.92 8.35C69.404 8.35 65.722 8.494 65.472 8.494C65.218 8.494 62.036 8.35 59.772 8.35C59.22 8.35 58.966 8.45 58.966 8.734C58.966 8.932 59.166 9.034 59.366 9.034C59.82 9.034 60.682 9.08 61.082 9.176C62.746 9.514 63.152 10.292 63.252 11.942C63.356 13.496 63.356 14.852 63.356 22.416V30.952C63.356 35.608 63.356 39.446 63.096 41.476C62.896 42.884 62.642 43.956 61.632 44.158C61.1345 44.2643 60.6285 44.3259 60.12 44.342C59.816 44.342 59.716 44.49 59.716 44.634C59.716 44.928 59.97 45.02 60.52 45.02C61.28 45.02 62.392 44.976 63.396 44.924C64.412 44.924 65.268 44.876 65.468 44.876C68.394 44.876 71.724 45.168 78.988 45.168C81.662 45.168 81.808 44.976 82.168 43.86C82.572 42.452 82.922 39.542 82.922 39.012C82.922 38.474 82.868 38.282 82.612 38.282C82.318 38.282 82.212 38.528 82.162 38.916C82.012 39.836 81.502 41.048 80.848 41.826C79.642 43.23 77.416 43.278 74.74 43.278C70.81 43.278 69.494 42.942 68.688 42.162C67.784 41.292 67.578 38.19 67.578 31.054V22.416H67.588ZM95.454 22.416C95.454 14.856 95.454 13.5 95.554 11.942C95.656 10.24 96.036 9.418 97.446 9.176C98.026 9.076 98.71 9.032 99.052 9.032C99.24 9.032 99.436 8.932 99.436 8.734C99.436 8.446 99.192 8.35 98.662 8.35C97.204 8.35 93.67 8.494 93.42 8.494C93.174 8.494 90.116 8.35 87.938 8.35C87.404 8.35 87.158 8.45 87.158 8.734C87.158 8.932 87.356 9.034 87.548 9.034C87.986 9.034 88.808 9.08 89.202 9.176C90.8 9.514 91.188 10.292 91.29 11.942C91.386 13.496 91.386 14.852 91.386 22.416V30.952C91.386 35.608 91.386 39.446 91.146 41.476C90.948 42.884 90.706 43.956 89.742 44.158C89.2614 44.2642 88.772 44.3258 88.28 44.342C87.986 44.342 87.894 44.49 87.894 44.634C87.894 44.928 88.134 45.02 88.668 45.02C89.394 45.02 90.468 44.976 91.428 44.924C92.406 44.924 93.222 44.876 93.42 44.876C96.234 44.876 99.436 45.168 106.42 45.168C108.988 45.168 109.14 44.976 109.482 43.86C109.862 42.452 110.204 39.542 110.204 39.012C110.204 38.474 110.156 38.282 109.91 38.282C109.618 38.282 109.526 38.528 109.478 38.916C109.334 39.836 108.844 41.048 108.208 41.826C107.048 43.23 104.914 43.278 102.342 43.278C98.556 43.278 97.292 42.942 96.522 42.162C95.646 41.292 95.45 38.19 95.45 31.054V22.416H95.454ZM128.026 39.506C130.892 39.506 134.986 38.24 137.862 34.916C141.012 31.25 141.916 27.076 142.036 25.81C142.116 25.01 142.2 22.99 142.2 22.23C143.468 23.282 144.82 24.88 145.022 25.22C145.238 25.552 145.556 25.76 146.008 25.468C146.744 25.004 148.384 24.504 149.082 24.414C149.534 24.33 149.902 24.296 150.148 23.994C150.655 23.46 150.934 22.7502 150.928 22.014C150.928 20.922 150.52 19.656 149.414 19.656C148.678 19.656 148.104 20.206 148.104 20.71C148.104 20.838 148.186 21.046 148.268 21.342C148.35 21.596 148.432 21.932 148.432 22.396C148.432 23.114 148.024 23.702 147.604 23.702C146.878 23.702 146.748 23.49 145.81 22.604C143.796 20.754 142.612 19.32 140.358 19.32C139.786 19.32 137.938 19.656 136.304 21.052C134.254 22.782 133.514 24.672 133.514 25.766C133.514 26.898 134.418 27.456 135.278 27.456C136.428 27.456 136.63 26.572 136.63 26.276C136.63 26.022 136.466 25.556 136.336 25.102C136.222 24.632 136.01 24.094 136.01 23.708C136.01 22.272 137.726 21.012 139.002 21.012C139.828 21.012 140.684 21.304 141.132 21.732C141.012 25.182 140.472 27.292 138.92 30.242C136.544 34.752 132.364 37.112 128.964 37.112C125.814 37.112 121.63 35.308 121.712 29.912V29.574C125.972 26.586 132.856 21.224 136.256 17.772C140.064 13.942 141.416 11.326 141.416 9.134C141.416 7.494 140.472 6.904 139.53 6.904C138.75 6.904 137.89 7.492 137.89 8.636C137.89 9.096 138.006 9.224 138.338 9.566C138.63 9.856 138.838 10.238 138.838 10.832C138.838 11.924 137.934 13.612 137.362 14.364C136.216 15.922 133.384 18.874 131.586 20.394C131.216 19.854 130.806 18.75 129.002 18.75C128.102 18.75 125.56 19.17 122.896 22.036C119.62 25.488 118.966 28.99 118.966 31.096C118.976 35.426 121.558 39.506 128.026 39.506ZM121.804 27.962C122.088 26.196 122.742 24.508 124.016 22.782C125.248 21.136 126.588 20.506 127.17 20.506C127.95 20.506 128.518 21.012 128.518 21.806C128.518 21.896 128.518 22.442 128.478 22.822C127.128 24.042 124.714 25.894 121.804 27.962ZM204.06 1.692C203.944 0.592002 203.766 0.134003 203.372 0.134003C202.972 0.134003 202.746 0.538003 202.52 1.058L185.88 37.4L168.56 1.004C168.27 0.360003 168.054 0.134003 167.708 0.134003C167.37 0.134003 167.202 0.538003 167.082 1.176L163.008 38.902C162.782 41.1 162.614 43.35 160.738 43.704C159.892 43.882 159.498 43.882 159.04 43.882C158.758 43.882 158.484 43.99 158.484 44.166C158.484 44.58 158.872 44.688 159.44 44.688C160.97 44.688 163.68 44.516 164.192 44.516C164.648 44.516 167.36 44.688 169.462 44.688C170.136 44.688 170.472 44.58 170.472 44.168C170.472 43.994 170.252 43.882 170.02 43.882C169.68 43.882 168.832 43.818 167.87 43.586C167.457 43.5024 167.085 43.279 166.817 42.9534C166.548 42.6278 166.401 42.2198 166.398 41.798C166.398 40.814 166.398 39.772 166.458 38.842L168.722 11.996H168.948C169.578 13.556 175.912 27.448 176.422 28.484C176.71 29.064 181.572 39.074 183.048 41.91C184.12 43.99 184.4 44.574 184.794 44.574C185.304 44.574 185.482 44.048 186.67 41.498L200.534 11.418H200.702L203.414 41.266C203.53 42.308 203.478 43.292 203.188 43.35C202.91 43.414 202.794 43.528 202.794 43.764C202.794 44.048 203.084 44.226 204.376 44.34C206.478 44.512 212.582 44.684 213.832 44.684C214.52 44.684 215.02 44.512 215.02 44.162C215.02 43.93 214.852 43.876 214.568 43.876C213.996 43.876 212.534 43.876 210.894 43.35C208.45 42.544 208.054 39.306 207.83 37.22L204.06 1.692ZM221.33 30.616C221.33 35.272 221.33 39.104 221.074 41.138C220.874 42.548 220.624 43.61 219.62 43.812C219.16 43.908 218.554 44 218.104 44C217.798 44 217.694 44.15 217.694 44.294C217.694 44.586 217.948 44.682 218.508 44.682C219.264 44.682 220.424 44.63 221.434 44.582C222.494 44.582 223.35 44.538 223.454 44.538C224.914 44.538 228.296 44.828 235.908 44.828C237.88 44.828 238.284 44.828 238.628 43.562C238.884 42.548 239.29 39.248 239.29 38.854C239.29 38.514 239.29 38.124 238.98 38.124C238.734 38.124 238.63 38.33 238.534 38.854C238.174 40.84 237.57 41.812 236.254 42.346C234.948 42.88 232.722 42.88 231.418 42.88C226.466 42.88 225.716 42.25 225.56 38.908C225.516 37.888 225.56 32.256 225.56 30.612V26.34C225.56 26.144 225.66 26 225.916 26C226.776 26 231.762 26.1 233.128 26.244C235.098 26.438 235.548 27.264 235.748 27.948C235.948 28.572 235.948 29.054 235.948 29.544C235.948 29.784 236.048 29.986 236.294 29.986C236.65 29.986 236.65 29.452 236.65 29.058C236.65 28.722 236.754 26.932 236.86 25.956C237.004 24.356 237.26 23.528 237.26 23.244C237.26 22.95 237.16 22.85 237.004 22.85C236.81 22.85 236.604 23.09 236.244 23.484C235.798 23.97 235.094 24.062 233.878 24.168C232.712 24.268 226.506 24.268 225.856 24.268C225.606 24.268 225.55 24.118 225.55 23.778V10.384C225.55 10.048 225.65 9.898 225.856 9.898C226.416 9.898 231.908 9.942 232.768 10.042C235.494 10.332 235.998 10.914 236.354 11.692C236.61 12.274 236.654 13.096 236.654 13.432C236.654 13.828 236.76 14.064 237.064 14.064C237.264 14.064 237.364 13.774 237.414 13.538C237.51 12.958 237.614 10.822 237.67 10.332C237.82 8.98 238.074 8.398 238.074 8.052C238.074 7.806 238.02 7.618 237.87 7.618C237.614 7.618 237.414 7.806 237.164 7.868C236.445 7.99731 235.718 8.07484 234.988 8.1C233.834 8.152 223.786 8.152 223.44 8.152C223.176 8.152 220 8.008 217.728 8.008C217.178 8.008 216.918 8.104 216.918 8.398C216.918 8.59 217.124 8.686 217.328 8.686C217.784 8.686 218.644 8.734 219.038 8.836C220.71 9.172 221.11 9.942 221.21 11.596C221.314 13.15 221.314 14.506 221.314 22.08V30.616H221.33ZM254.2 22.076C254.2 14.506 254.2 13.15 254.306 11.592C254.41 9.892 254.81 9.076 256.266 8.832C256.882 8.73 257.586 8.682 257.936 8.682C258.142 8.682 258.356 8.586 258.356 8.394C258.356 8.094 258.092 8.004 257.536 8.004C256.01 8.004 252.344 8.148 252.09 8.148C251.834 8.148 248.65 8.004 246.382 8.004C245.832 8.004 245.578 8.1 245.578 8.394C245.578 8.586 245.782 8.682 245.988 8.682C246.438 8.682 247.294 8.73 247.698 8.83C249.368 9.168 249.774 9.936 249.864 11.59C249.974 13.144 249.974 14.5 249.974 22.076V30.612C249.974 35.266 249.974 39.1 249.724 41.132C249.524 42.542 249.264 43.606 248.248 43.812C247.798 43.904 247.188 43.996 246.734 43.996C246.434 43.996 246.328 44.144 246.328 44.288C246.328 44.582 246.582 44.678 247.138 44.678C247.898 44.678 249.008 44.626 250.018 44.578C251.024 44.578 251.89 44.53 252.084 44.53C255.01 44.53 258.352 44.822 265.598 44.822C268.274 44.822 268.418 44.626 268.784 43.514C269.184 42.11 269.534 39.206 269.534 38.662C269.534 38.118 269.494 37.936 269.24 37.936C268.924 37.936 268.83 38.18 268.78 38.57C268.634 39.49 268.134 40.7 267.47 41.476C266.25 42.884 264.038 42.936 261.362 42.936C257.422 42.936 256.106 42.596 255.306 41.826C254.396 40.946 254.19 37.846 254.19 30.718V22.076H254.2ZM282.736 22.076C282.736 14.506 282.736 13.15 282.844 11.592C282.95 9.892 283.362 9.076 284.752 8.832C285.382 8.73 285.696 8.682 286.05 8.682C286.264 8.682 286.464 8.586 286.464 8.394C286.464 8.094 286.214 8.004 285.644 8.004C284.08 8.004 280.832 8.148 280.586 8.148C280.314 8.148 277.052 8.004 275.348 8.004C274.788 8.004 274.512 8.1 274.512 8.394C274.512 8.586 274.718 8.682 274.938 8.682C275.288 8.682 275.97 8.73 276.544 8.882C277.688 9.124 278.204 9.942 278.298 11.592C278.406 13.144 278.406 14.5 278.406 22.076V30.612C278.406 35.266 278.406 39.1 278.15 41.132C277.95 42.542 277.682 43.606 276.646 43.812C276.132 43.9186 275.61 43.9802 275.086 43.996C274.786 43.996 274.666 44.144 274.666 44.288C274.666 44.582 274.938 44.678 275.498 44.678C277.052 44.678 280.314 44.534 280.586 44.534C280.838 44.534 284.086 44.678 286.936 44.678C287.506 44.678 287.762 44.534 287.762 44.288C287.762 44.148 287.666 43.996 287.358 43.996C286.886 43.996 285.752 43.9 285.034 43.812C283.458 43.606 283.162 42.542 283.008 41.132C282.736 39.094 282.736 35.262 282.736 30.612V22.076ZM301.1 14.846C302.694 16.586 308.284 22.706 314.044 28.77C319.304 34.296 326.448 41.432 326.988 41.912C329.628 44.486 330.214 45.02 330.608 45.02C330.95 45.02 331.058 44.774 331.058 41.566L331.158 13.146C331.158 10.234 331.348 9.166 332.982 8.83C333.596 8.682 333.93 8.682 334.186 8.682C334.534 8.682 334.726 8.532 334.726 8.35C334.726 8.056 334.372 8.01 333.832 8.01C331.806 8.01 330.164 8.152 329.628 8.152C329.068 8.152 326.678 8.008 324.472 8.008C323.856 8.008 323.464 8.062 323.464 8.348C323.464 8.532 323.528 8.682 323.856 8.682C324.26 8.682 325.4 8.73 326.286 8.926C327.826 9.312 328.168 10.384 328.226 13.538L328.772 38.18C327.18 36.58 321.772 30.664 316.866 25.524C309.232 17.516 301.838 9.706 301.1 8.884C300.6 8.394 299.768 7.324 299.366 7.324C298.966 7.324 298.826 7.864 298.826 9.754L298.766 37.546C298.766 41.96 298.514 43.374 297.276 43.706C296.538 43.952 295.644 44 295.256 44C295 44 294.856 44.1 294.856 44.294C294.856 44.63 295.156 44.682 295.644 44.682C297.88 44.682 299.956 44.538 300.408 44.538C300.86 44.538 302.84 44.682 305.658 44.682C306.262 44.682 306.542 44.582 306.542 44.294C306.542 44.102 306.41 44 306.16 44C305.716 44 304.62 43.952 303.672 43.706C302.34 43.318 301.838 42.052 301.74 38.08L301.1 14.846ZM343.232 30.62C343.232 35.272 343.232 39.104 342.972 41.144C342.774 42.552 342.53 43.616 341.532 43.818C341.046 43.9272 340.55 43.9895 340.052 44.004C339.742 44.004 339.648 44.154 339.648 44.298C339.648 44.592 339.9 44.688 340.444 44.688C341.934 44.688 345.056 44.544 345.292 44.544C345.804 44.544 352.042 45.124 356.304 45.124C364.734 45.124 369.204 41.724 371.332 39.546C374.1 36.686 376.692 31.978 376.692 25.866C376.692 20.094 374.356 16.068 371.878 13.544C365.974 7.58 356.894 8.014 352.002 8.014C349.028 8.014 345.906 8.158 345.292 8.158C345.052 8.158 341.93 8.014 339.688 8.014C339.156 8.014 338.916 8.11 338.916 8.402C338.916 8.596 339.108 8.692 339.31 8.692C339.742 8.692 340.588 8.74 340.99 8.84C342.622 9.18 343.016 9.946 343.124 11.6C343.228 13.154 343.228 14.51 343.228 22.084V30.62H343.232ZM347.392 21.296C347.392 17.56 347.392 12.616 347.44 10.97C347.44 10.432 347.582 10.19 348.044 9.994C348.428 9.802 350.262 9.658 351.26 9.658C357.154 9.658 362.812 10.336 367.478 15.14C369.504 17.228 372.232 21.21 372.232 27.37C372.232 31.828 370.846 36.49 368.274 38.96C365.344 41.82 361.082 43.472 356.474 43.472C350.62 43.472 348.68 42.452 348.044 41.528C347.632 41 347.534 39.052 347.494 37.84C347.44 36.92 347.392 32.458 347.392 27.312V21.296ZM383.378 38.328C382.514 40.692 381.562 42.488 379.358 42.774C378.978 42.816 378.306 42.868 377.978 42.868C377.722 42.868 377.542 42.968 377.542 43.154C377.542 43.44 377.832 43.534 378.458 43.534C380.708 43.534 383.326 43.394 383.858 43.394C384.374 43.394 386.438 43.534 387.586 43.534C388.014 43.534 388.298 43.436 388.298 43.154C388.298 42.966 388.16 42.868 387.814 42.868H387.34C386.516 42.868 385.516 42.442 385.516 41.494C385.516 40.64 385.756 39.51 386.184 38.328L389.052 29.952C389.152 29.712 389.284 29.576 389.544 29.576H399.822C400.054 29.576 400.152 29.676 400.248 29.862L404.694 41.494C404.994 42.258 404.694 42.686 404.414 42.774C404.22 42.816 404.074 42.91 404.074 43.102C404.074 43.39 404.608 43.39 405.51 43.432C408.814 43.53 412.298 43.53 413.018 43.53C413.544 43.53 413.978 43.43 413.978 43.15C413.978 42.91 413.786 42.864 413.498 42.864C413.012 42.864 412.292 42.812 411.572 42.578C410.572 42.292 409.192 41.538 407.462 37.33C404.556 30.134 397.048 10.596 396.322 8.8C395.758 7.332 395.574 7.098 395.276 7.098C394.986 7.098 394.792 7.388 394.218 8.946L383.378 38.328ZM390.07 27.868C389.934 27.868 389.83 27.776 389.934 27.542L394.148 14.766C394.37 14.062 394.612 14.062 394.858 14.766L399.394 27.542C399.442 27.728 399.442 27.87 399.21 27.87L390.07 27.868Z"
    class="text"
  />
</svg>
