<svg xmlns="http://www.w3.org/2000/svg" viewBox="0 0 564.358 224.444">

  <title xml:lang="en">Health Research Alliance</title>

  <style>
    :root {
      --color-primary: rgb(0 107 182);
    }

    .icon {
      fill: var(--color-primary);
    }

    .text {
      fill: var(--color-primary);
    }

    @media screen and (forced-colors: active) {
      :root {
        --color-primary: CanvasText;
      }
    }
  </style>

  <g class="text">
    <path d="M236.672,98.572v-53.7h8.219v22.1h31.966v-22.1h8.218v53.7h-8.218v-25.3H244.891v25.3Z" />
    <path
      d="M324.079,85.877l7.867.912a16.674,16.674,0,0,1-6.872,9.3Q320.057,99.4,312.253,99.4q-9.825,0-15.579-5.241t-5.754-14.7q0-9.79,5.818-15.2t15.1-5.407q8.979,0,14.673,5.288t5.691,14.88c0,.389-.013.973-.042,1.75H298.683q.42,6.421,4.182,9.834a13.449,13.449,0,0,0,9.382,3.409,12.745,12.745,0,0,0,7.14-1.938A12.953,12.953,0,0,0,324.079,85.877Zm-24.94-10.5h25.024q-.507-4.891-2.869-7.343a12.443,12.443,0,0,0-9.411-3.8,13.12,13.12,0,0,0-8.8,3.032,11.274,11.274,0,0,0-3.946,8.107Z"
    />
    <path
      d="M366.461,93.732a29.089,29.089,0,0,1-8.13,4.384,27.129,27.129,0,0,1-8.427,1.278q-7.425,0-11.418-3.121A9.7,9.7,0,0,1,334.5,88.3,9.444,9.444,0,0,1,336,83.1a11.489,11.489,0,0,1,3.948-3.779,20.134,20.134,0,0,1,5.5-2.153,63.452,63.452,0,0,1,6.792-.986,79.875,79.875,0,0,0,13.627-2.264c.03-.9.043-1.469.043-1.713q0-4.011-2.176-5.651-2.943-2.225-8.746-2.224-5.421,0-8,1.629t-3.817,5.768l-7.4-.913a13.347,13.347,0,0,1,10.084-10.591,34.406,34.406,0,0,1,10.216-1.373,31,31,0,0,1,9.366,1.171,12.664,12.664,0,0,1,5.3,2.949,9.79,9.79,0,0,1,2.373,4.484,32.055,32.055,0,0,1,.382,6.056v8.74a85.378,85.378,0,0,0,.459,11.607,14.189,14.189,0,0,0,1.823,4.721H367.83A13.8,13.8,0,0,1,366.461,93.732Zm-.639-14.614a64.105,64.105,0,0,1-12.468,2.463,32.975,32.975,0,0,0-6.658,1.3,6.515,6.515,0,0,0-3.012,2.119,5,5,0,0,0-1.061,3.1,5.248,5.248,0,0,0,2.316,4.347q2.317,1.739,6.78,1.739a17.932,17.932,0,0,0,7.861-1.654,11.1,11.1,0,0,0,5.057-4.512,13.674,13.674,0,0,0,1.232-6.515Z"
    />
    <path d="M380.537,98.572v-53.7h7.58v53.7Z" />
    <path
      d="M412.2,92.717l1,5.821a32.507,32.507,0,0,1-5.729.582,14.585,14.585,0,0,1-6.4-1.139,6.8,6.8,0,0,1-3.2-2.989q-.927-1.854-.925-7.8V64.78h-5.571V59.665h5.571V50.036l7.579-3.953V59.665h7.672V64.78h-7.672V87.6a10.118,10.118,0,0,0,.4,3.637,2.926,2.926,0,0,0,1.316,1.287,5.724,5.724,0,0,0,2.607.477A26.127,26.127,0,0,0,412.2,92.717Z"
    />
    <path
      d="M416.692,98.572v-53.7h7.58V64.178a18.118,18.118,0,0,1,13.4-5.334,20.354,20.354,0,0,1,8.637,1.7,10.777,10.777,0,0,1,5.246,4.7q1.579,3,1.58,8.706V98.572h-7.58V73.944q0-4.936-2.467-7.187t-6.972-2.251a13.745,13.745,0,0,0-6.344,1.518,9.109,9.109,0,0,0-4.233,4.116,16.67,16.67,0,0,0-1.265,7.171V98.572Z"
    />
    <path
      d="M236.489,161.089v-53.7h27.424q8.253,0,12.551,1.45a13.374,13.374,0,0,1,6.863,5.119,13.809,13.809,0,0,1,2.57,8.107,12.621,12.621,0,0,1-4.253,9.648q-4.255,3.927-13.14,4.991a22.039,22.039,0,0,1,4.932,2.667A38.059,38.059,0,0,1,280.2,146.5l10.69,14.585H280.675l-8.169-11.151q-3.558-4.822-5.875-7.383a17.8,17.8,0,0,0-4.158-3.6,13.406,13.406,0,0,0-3.74-1.446,27.907,27.907,0,0,0-4.549-.261h-9.476v23.837Zm8.219-29.955h17.563a29.966,29.966,0,0,0,8.765-1.009,9.292,9.292,0,0,0,4.814-3.231,7.961,7.961,0,0,0,1.646-4.83,7.608,7.608,0,0,0-3.184-6.279q-3.189-2.458-10.062-2.46H244.708Z"
    />
    <path
      d="M324.079,148.4l7.867.914a16.679,16.679,0,0,1-6.872,9.3q-5.018,3.306-12.821,3.3-9.825,0-15.579-5.24t-5.754-14.706q0-9.789,5.818-15.2t15.1-5.408q8.979,0,14.673,5.29t5.691,14.879c0,.391-.013.974-.042,1.752H298.683q.42,6.42,4.182,9.831a13.439,13.439,0,0,0,9.382,3.41,12.736,12.736,0,0,0,7.14-1.937A12.948,12.948,0,0,0,324.079,148.4Zm-24.942-10.5h25.024q-.507-4.893-2.869-7.343a12.438,12.438,0,0,0-9.411-3.8,13.109,13.109,0,0,0-8.8,3.035A11.267,11.267,0,0,0,299.137,137.9Z"
    />
    <path
      d="M334.037,149.4l7.489-1a8.818,8.818,0,0,0,3.54,6.032q2.906,2.1,8.123,2.095,5.257,0,7.8-1.849a5.313,5.313,0,0,0,2.544-4.337,3.914,3.914,0,0,0-2.229-3.516q-1.558-.879-7.8-2.235a78.074,78.074,0,0,1-11.638-3.157,10.866,10.866,0,0,1-4.885-3.688,8.8,8.8,0,0,1-1.665-5.205,8.937,8.937,0,0,1,1.374-4.8,11.3,11.3,0,0,1,3.743-3.668,16.95,16.95,0,0,1,4.843-1.919,26.5,26.5,0,0,1,6.576-.787,29.753,29.753,0,0,1,9.282,1.315,11.078,11.078,0,0,1,8.522,9.556l-7.4.912a6.875,6.875,0,0,0-2.953-4.7,12.057,12.057,0,0,0-6.907-1.693q-5.27,0-7.523,1.5a4.26,4.26,0,0,0-2.253,3.517,3.325,3.325,0,0,0,.937,2.306,6.775,6.775,0,0,0,2.932,1.758q1.146.368,6.757,1.685a102.106,102.106,0,0,1,11.283,3.05,11.2,11.2,0,0,1,4.967,3.451,8.741,8.741,0,0,1,1.8,5.622,10.015,10.015,0,0,1-2.219,6.193,14.093,14.093,0,0,1-6.4,4.49,26.488,26.488,0,0,1-9.462,1.588q-8.746,0-13.329-3.155A14.278,14.278,0,0,1,334.037,149.4Z"
    />
    <path
      d="M406.569,148.4l7.867.914a16.674,16.674,0,0,1-6.872,9.3q-5.018,3.306-12.819,3.3-9.823,0-15.579-5.24t-5.756-14.706q0-9.789,5.818-15.2t15.1-5.408q8.984,0,14.674,5.29t5.692,14.879c0,.391-.014.974-.043,1.752H381.173q.422,6.42,4.183,9.831a13.432,13.432,0,0,0,9.383,3.41,12.731,12.731,0,0,0,7.139-1.937A12.94,12.94,0,0,0,406.569,148.4Zm-24.94-10.5h25.026q-.51-4.893-2.872-7.343a12.432,12.432,0,0,0-9.408-3.8,13.116,13.116,0,0,0-8.8,3.035A11.277,11.277,0,0,0,381.629,137.9Z"
    />
    <path
      d="M448.954,156.249a29.01,29.01,0,0,1-8.13,4.384,27.07,27.07,0,0,1-8.427,1.278q-7.428,0-11.419-3.12a9.7,9.7,0,0,1-3.989-7.977,9.451,9.451,0,0,1,1.506-5.2,11.514,11.514,0,0,1,3.947-3.779,20.2,20.2,0,0,1,5.5-2.153,63.544,63.544,0,0,1,6.8-.986,79.873,79.873,0,0,0,13.627-2.263q.043-1.349.044-1.713,0-4.011-2.177-5.65-2.945-2.227-8.746-2.226-5.418,0-8,1.63t-3.82,5.766l-7.4-.912a13.356,13.356,0,0,1,10.085-10.593,34.464,34.464,0,0,1,10.215-1.373,31.011,31.011,0,0,1,9.367,1.173,12.684,12.684,0,0,1,5.3,2.948,9.8,9.8,0,0,1,2.372,4.486,31.782,31.782,0,0,1,.382,6.054v8.742a85.044,85.044,0,0,0,.462,11.606,14.051,14.051,0,0,0,1.822,4.72h-7.946A13.7,13.7,0,0,1,448.954,156.249Zm-.64-14.613a64.182,64.182,0,0,1-12.468,2.464,33.1,33.1,0,0,0-6.658,1.3,6.524,6.524,0,0,0-3.012,2.12,4.994,4.994,0,0,0-1.06,3.095,5.248,5.248,0,0,0,2.316,4.349q2.316,1.737,6.779,1.737a17.957,17.957,0,0,0,7.86-1.652,11.1,11.1,0,0,0,5.058-4.513,13.674,13.674,0,0,0,1.232-6.515Z"
    />
    <path
      d="M463.121,161.089v-38.9h6.851v5.989q2.62-4.159,4.836-5.487a9.339,9.339,0,0,1,4.881-1.327,16.736,16.736,0,0,1,7.818,2.089l-2.631,6.114a12.734,12.734,0,0,0-5.585-1.351,8.058,8.058,0,0,0-4.487,1.3,7.114,7.114,0,0,0-2.832,3.6,22.326,22.326,0,0,0-1.272,7.673V161.1Z"
    />
    <path
      d="M516.855,146.842l7.489.914a16.074,16.074,0,0,1-6.245,10.4,20.047,20.047,0,0,1-12.347,3.756q-9.166,0-14.74-5.206t-5.575-14.923a23.977,23.977,0,0,1,2.395-11,15.468,15.468,0,0,1,7.294-7.068,24.283,24.283,0,0,1,10.659-2.358q7.273,0,11.9,3.212a14.436,14.436,0,0,1,5.928,9.12l-7.4.913a10.349,10.349,0,0,0-3.718-5.882,10.537,10.537,0,0,0-6.444-1.974,12.563,12.563,0,0,0-9.284,3.567q-3.57,3.569-3.569,11.282,0,7.832,3.444,11.378a11.976,11.976,0,0,0,8.993,3.546,11.555,11.555,0,0,0,7.436-2.374Q516.058,151.777,516.855,146.842Z"
    />
    <path
      d="M527.915,161.089v-53.7h7.58v19.3a18.119,18.119,0,0,1,13.4-5.335,20.354,20.354,0,0,1,8.637,1.7,10.788,10.788,0,0,1,5.247,4.7q1.58,3,1.579,8.7V161.08h-7.58V136.464q0-4.938-2.466-7.189t-6.974-2.25A13.745,13.745,0,0,0,541,128.542a9.122,9.122,0,0,0-4.235,4.118,16.664,16.664,0,0,0-1.264,7.17v21.259Z"
    />
    <path
      d="M229.616,223.607l23.612-53.7h8.957l25.26,53.7h-9.308l-7.154-16.257H245.006l-6.69,16.257ZM247.4,201.6h21.018l-6.391-14.939q-2.988-6.753-4.488-11.181a58.423,58.423,0,0,1-3.428,10.306Z"
    />
    <path d="M288.442,223.607v-53.7h7.58v53.7Z" />
    <path d="M303.3,223.607v-53.7h7.579v53.7Z" />
    <path d="M318.423,177.4v-7.49H326v7.49Zm0,46.212V184.7H326v38.906Z" />
    <path
      d="M362.594,218.768a29.029,29.029,0,0,1-8.131,4.384,27.115,27.115,0,0,1-8.425,1.277q-7.43,0-11.419-3.122a9.691,9.691,0,0,1-3.99-7.976,9.469,9.469,0,0,1,1.5-5.2,11.5,11.5,0,0,1,3.949-3.779,20.166,20.166,0,0,1,5.5-2.153,62.952,62.952,0,0,1,6.792-.987A79.7,79.7,0,0,0,362,198.948c.029-.9.042-1.469.042-1.713q0-4.01-2.175-5.65-2.947-2.225-8.746-2.225-5.421,0-8,1.629t-3.819,5.767l-7.4-.913a13.352,13.352,0,0,1,10.087-10.59A34.386,34.386,0,0,1,352.2,183.88a30.941,30.941,0,0,1,9.366,1.172,12.652,12.652,0,0,1,5.3,2.949,9.792,9.792,0,0,1,2.374,4.484,32.054,32.054,0,0,1,.38,6.056v8.741a85.438,85.438,0,0,0,.462,11.6,14.035,14.035,0,0,0,1.822,4.721h-7.946A13.745,13.745,0,0,1,362.594,218.768Zm-.641-14.614a64.234,64.234,0,0,1-12.466,2.463,33.193,33.193,0,0,0-6.66,1.3,6.524,6.524,0,0,0-3.01,2.12,5,5,0,0,0-1.061,3.1,5.243,5.243,0,0,0,2.317,4.347q2.315,1.738,6.777,1.739a17.935,17.935,0,0,0,7.862-1.653,11.1,11.1,0,0,0,5.058-4.513A13.669,13.669,0,0,0,362,206.543Z"
    />
    <path
      d="M376.854,223.607V184.7H383.7v5.528q4.941-6.348,14.268-6.35a21.214,21.214,0,0,1,7.451,1.264,11.719,11.719,0,0,1,5.086,3.309,11.865,11.865,0,0,1,2.363,4.865,32.734,32.734,0,0,1,.423,6.4V223.6h-7.58V200a15.486,15.486,0,0,0-.889-6.008,6.669,6.669,0,0,0-3.15-3.179,11.3,11.3,0,0,0-5.309-1.186,13.537,13.537,0,0,0-8.4,2.667q-3.532,2.667-3.533,10.119v21.188Z"
    />
    <path
      d="M449.747,209.359l7.49.914a16.087,16.087,0,0,1-6.247,10.4,20.038,20.038,0,0,1-12.346,3.756q-9.166,0-14.741-5.206T418.33,204.3a23.941,23.941,0,0,1,2.4-11,15.472,15.472,0,0,1,7.3-7.07,24.249,24.249,0,0,1,10.658-2.356q7.274,0,11.9,3.211a14.432,14.432,0,0,1,5.93,9.118l-7.4.913a10.348,10.348,0,0,0-3.717-5.88,10.533,10.533,0,0,0-6.445-1.973,12.566,12.566,0,0,0-9.282,3.565q-3.57,3.567-3.569,11.284,0,7.827,3.444,11.375a11.97,11.97,0,0,0,8.992,3.548,11.565,11.565,0,0,0,7.437-2.374Q448.95,214.3,449.747,209.359Z"
    />
    <path
      d="M492.961,210.912l7.868.913a16.674,16.674,0,0,1-6.872,9.3q-5.017,3.309-12.82,3.307-9.825,0-15.579-5.242t-5.756-14.7q0-9.788,5.818-15.2t15.1-5.407q8.982,0,14.675,5.29t5.69,14.879c0,.388-.012.971-.042,1.75H467.564q.423,6.422,4.185,9.832a13.434,13.434,0,0,0,9.38,3.41,12.759,12.759,0,0,0,7.142-1.937A12.946,12.946,0,0,0,492.961,210.912Zm-24.939-10.5h25.023q-.508-4.893-2.868-7.343a12.44,12.44,0,0,0-9.412-3.8,13.11,13.11,0,0,0-8.8,3.032,11.281,11.281,0,0,0-3.943,8.108Z"
    />
  </g>

  <g class="icon">
    <path
      d="M223.666,223.631H160.054c14.909-6.959,23.855-20.873,33.794-33.792,3.975-5.967,6.657-12.215,9.406-18.875a91.714,91.714,0,0,0,5.127-17.179,89.4,89.4,0,0,0,1.8-14.96c.3-10.973-1.236-18.7-4.7-28.538-2.045-5.8-6.392-12.037-10.806-16.621-7.2-7.48-16.526-10.895-26.464-12.883-9.7-19.671-24.909-34.877-44.046-46.683a66.225,66.225,0,0,0-10.805-5.263c-3.118-1.169-6.935-2.635-10.948-3.989-.941-.317-2.169-2.7-2.775-3.5C91.322,10.55,71.309,1,68.326,0h155.34Z"
    />
    <path
      d="M49.348,68.869c-16.9,1-36.256-4.3-49.177-15.237C-.1,43.8.037,35.781.037,27.831c0-1,4.969-3.977,4.969-3.977C24.884,12.921,51.22,14.6,71.1,24.542,51.711,31.2,45.894,52.94,49.348,68.869Z"
    />
    <path
      d="M85.226,48.921c-.791,5.9-6.926,10.113-10.942,12.884-1.988-5.963-1.9-12.923,2.077-16.9,1.987-1.988,7.017-5.175,9-3.187C86.358,43.707,85.521,46.719,85.226,48.921Z"
    />
    <path
      d="M131.5,74.689c-11.927,3.975-26.55,10.144-34.5,20.084-2.24-1.7-5.078-5.076-7.065-7.065,12.052-7.894,20.891-20.854,21.886-34.769C111.823,52.939,126.515,64.438,131.5,74.689Z"
    />
    <path
      d="M138.845,123.173c-9.144-1.663-19.917-8.165-26.874-14.129,8.312-9.282,16.761-16.485,27.15-20.641C141.893,93.251,147.156,110.014,138.845,123.173Z"
    />
    <path
      d="M171.4,167.919a99.948,99.948,0,0,1-18.007,19.947c-4.97,3.977-23.412,15.931-41.42,8.036-22.482-9.857-24.8-43.777-13.852-64.832,9.556,3.325,20.086,5.871,30.2,2.354,3.187-1.109,24.8-6.789,31.308-9,13.106-4.459,17.455-21.887,11.774-35.879C189.821,110.3,188.987,142.239,171.4,167.919Z"
    />
    <path
      d="M66.252,157.525c-2.175,23.943,2.363,50.2,22.241,66.106H.037V87.464C17.492,98.515,41.18,101.422,60.712,98.515c4.988,7.48,9.834,14.821,17.453,21.609C72.9,130.513,67.245,146.6,66.252,157.525Z"
    />
  </g>

</svg>
