<svg xmlns="http://www.w3.org/2000/svg" viewBox="0 0 537 86" width="537" height="86">

  <title xml:lang="en">JMIR Publications</title>

  <style>
    #mark .globe {
      fill: rgb(67, 132, 197);
    }

    #mark .lines {
      fill: rgb(255, 255, 255);
    }

    #mark .land {
      fill: rgb(25, 37, 75);
    }

    #name {
      fill: rgb(25, 37, 75);
    }

    #slogan {
      fill: rgb(26, 37, 76);
    }

    @media screen and (forced-colors: active) {
      #mark .globe {
        fill: CanvasText;
      }

      #mark .lines {
        fill: Canvas;
      }

      #mark .land {
        fill: Canvas;
      }

      #name {
        fill: CanvasText;
      }

      #slogan {
        fill: CanvasText;
      }
    }
  </style>

  <g id="mark">
    <path
      class="globe"
      d="M42.05.12c23.01 0 41.66 18.65 41.66 41.66 0 23.01-18.65 41.66-41.66 41.66C19.04 83.44.39 64.79.39 41.79.39 18.78 19.04.13 42.05.13V.12Z"
    />
    <path
      class="lines"
      d="M51.92 53.46c-.93 0-1.83-.29-2.58-.82L41.14 61c1.89 2.67 1.25 6.37-1.43 8.26-2.67 1.89-6.37 1.25-8.26-1.43a5.923 5.923 0 0 1 .46-7.4L21.83 48.07c-4.12 2.07-9.14.41-11.22-3.71-2.07-4.12-.41-9.14 3.71-11.22 4.12-2.07 9.14-.41 11.22 3.71 1.68 3.34.93 7.39-1.83 9.92l9.8 12.41c1.85-.98 4.08-.92 5.87.18l8.53-8.37a4.484 4.484 0 0 1 1.99-6.03 4.484 4.484 0 0 1 6.03 1.99c1.12 2.21.23 4.91-1.99 6.03-.63.32-1.32.48-2.03.48h.01Z"
    />
    <path
      class="land"
      d="M67.83 25.69c.4.51.53 1.18.36 1.8-4.45 6.5-10.77 3.94-10.77 3.94-5.31-2.61-5.21-8.44-5.21-8.44 0-4.42-2.15-3.95-2.15-3.95-3.08 2.35-14.24-.16-16.34-5.39C31.62 8.42 41.79.14 41.79.14a40.07 40.07 0 0 1 26.4 9.11c.81 8.7-3.59 11.04-3.59 11.04-.49 2.04 3.23 5.39 3.23 5.39v.01Zm5.85 43.19s-3.61 3.6-6.7.4c0 0-.03-.07-.06-.13 0 0-.13-5.73-1.8-7a8.261 8.261 0 0 1-1.44-9.16s.66-1.7 6.28-3.95c0 0 3.53-1.88 3.95-5.21 0 0 1.13-4.94-.9-7.54 0 0 5.13-7.74 10.37.59a41.784 41.784 0 0 1-9.71 32h.01Z"
    />
  </g>
  <g id="name">
    <path
      d="M118 3.39h8.79v29.53c0 2.71-.6 5.11-1.8 7.19-1.2 2.08-2.9 3.69-5.08 4.82-2.19 1.13-4.66 1.7-7.41 1.7-4.51 0-8.03-1.15-10.55-3.44-2.52-2.29-3.78-5.54-3.78-9.74h8.85c0 2.09.44 3.63 1.32 4.63.88 1 2.27 1.49 4.16 1.49 1.68 0 3.02-.58 4.01-1.73 1-1.15 1.49-2.79 1.49-4.92V3.39Z"
    />
    <path
      d="m143.41 3.39 10.96 30.94 10.9-30.94h11.54v42.66h-8.82V34.39l.88-20.13-11.51 31.79h-6.04l-11.48-31.76.88 20.1v11.66h-8.79V3.39h11.48Z"
    />
    <path d="M191.43 46.05h-8.79V3.39h8.79v42.66Z" />
    <path
      d="M212.96 30.44h-7v15.62h-8.79V3.39h15.85c5.04 0 8.93 1.12 11.66 3.37 2.73 2.25 4.1 5.42 4.1 9.52 0 2.91-.63 5.34-1.89 7.28-1.26 1.94-3.17 3.49-5.73 4.64l9.23 17.43v.41h-9.43l-8-15.62v.02Zm-7-7.12h7.09c2.21 0 3.92-.56 5.13-1.68 1.21-1.12 1.82-2.67 1.82-4.64 0-1.97-.57-3.59-1.71-4.75-1.14-1.15-2.9-1.73-5.26-1.73h-7.06v12.8h-.01Z"
    />
    <path
      d="M249.7 28.68v17.37h-3.6V3.39h14.53c4.43 0 7.93 1.13 10.5 3.4 2.57 2.27 3.85 5.38 3.85 9.35 0 3.97-1.24 7.09-3.71 9.27-2.47 2.18-6.05 3.27-10.74 3.27h-10.84.01Zm0-3.05h10.93c3.5 0 6.16-.83 8-2.49 1.84-1.66 2.75-3.98 2.75-6.95s-.91-5.31-2.74-7.06-4.42-2.65-7.78-2.68H249.7v19.19-.01Z"
    />
    <path
      d="M300.27 42.04c-2.11 3.07-5.48 4.6-10.11 4.6-3.38 0-5.95-.98-7.71-2.94-1.76-1.96-2.66-4.87-2.7-8.72V14.35h3.49v20.19c0 6.04 2.44 9.05 7.32 9.05 4.88 0 8.29-2.1 9.64-6.3V14.35h3.52v31.7h-3.4l-.06-4.01h.01Z"
    />
    <path
      d="M336.01 30.52c0 4.94-1.09 8.86-3.28 11.76-2.19 2.9-5.13 4.35-8.82 4.35-4.41 0-7.75-1.64-10.02-4.92l-.15 4.34h-3.28v-45h3.49v17.9c2.23-3.46 5.53-5.19 9.9-5.19 3.75 0 6.71 1.43 8.89 4.29 2.18 2.86 3.27 6.84 3.27 11.94v.53Zm-3.52-.62c0-4.18-.81-7.41-2.43-9.68-1.62-2.27-3.91-3.41-6.86-3.41-2.25 0-4.15.55-5.71 1.66-1.56 1.1-2.74 2.72-3.54 4.85v14.3c1.76 3.98 4.86 5.98 9.32 5.98 2.89 0 5.15-1.14 6.78-3.43s2.45-5.7 2.45-10.25l-.01-.02Z"
    />
    <path d="M345.33 46.05h-3.52v-45h3.52v45Z" />
    <path
      d="M352.31 5.2c0-.66.21-1.22.64-1.67.43-.46 1.02-.68 1.76-.68s1.33.23 1.77.68c.44.46.66 1.01.66 1.67 0 .66-.22 1.21-.66 1.66-.44.45-1.03.67-1.77.67s-1.33-.22-1.76-.67c-.43-.45-.64-1-.64-1.66Zm4.13 40.85h-3.52v-31.7h3.52v31.7Z"
    />
    <path
      d="M375.34 43.68c2.44 0 4.49-.69 6.14-2.07 1.65-1.38 2.54-3.16 2.68-5.35h3.37c-.1 1.93-.7 3.7-1.82 5.29-1.11 1.59-2.59 2.84-4.44 3.74-1.85.9-3.82 1.35-5.93 1.35-4.16 0-7.46-1.45-9.89-4.34-2.43-2.89-3.65-6.78-3.65-11.66v-1.05c0-3.12.55-5.89 1.64-8.29 1.09-2.4 2.66-4.26 4.7-5.57 2.04-1.31 4.43-1.96 7.16-1.96 3.48 0 6.34 1.04 8.6 3.11s3.46 4.79 3.62 8.17h-3.37c-.16-2.48-1.05-4.48-2.68-6.01-1.63-1.53-3.69-2.29-6.17-2.29-3.16 0-5.62 1.14-7.37 3.43s-2.62 5.49-2.62 9.61v1.03c0 4.04.87 7.2 2.62 9.46 1.75 2.27 4.21 3.4 7.4 3.4h.01Z"
    />
    <path
      d="M412.2 46.05c-.35-1-.58-2.47-.67-4.42-1.23 1.6-2.8 2.84-4.7 3.71-1.9.87-3.92 1.3-6.05 1.3-3.05 0-5.51-.85-7.4-2.55-1.89-1.7-2.83-3.85-2.83-6.45 0-3.09 1.28-5.53 3.85-7.32 2.57-1.8 6.15-2.7 10.74-2.7h6.36v-3.6c0-2.27-.7-4.05-2.09-5.35-1.4-1.3-3.43-1.95-6.11-1.95-2.44 0-4.46.63-6.06 1.88-1.6 1.25-2.4 2.75-2.4 4.51l-3.52-.03c0-2.52 1.17-4.7 3.52-6.55 2.35-1.85 5.22-2.77 8.64-2.77 3.42 0 6.32.88 8.36 2.65 2.04 1.77 3.09 4.23 3.15 7.4v15c0 3.07.32 5.36.97 6.88v.35h-3.75l-.01.01Zm-11.02-2.52c2.34 0 4.44-.57 6.28-1.7 1.85-1.13 3.19-2.65 4.03-4.54v-6.97h-6.27c-3.5.04-6.23.68-8.2 1.92-1.97 1.24-2.96 2.94-2.96 5.11 0 1.78.66 3.25 1.98 4.42 1.32 1.17 3.03 1.76 5.14 1.76Z"
    />
    <path
      d="M427.44 6.24v8.12H434v2.87h-6.56v21.15c0 1.76.32 3.07.95 3.93.63.86 1.69 1.29 3.18 1.29.59 0 1.53-.1 2.84-.29l.15 2.85c-.92.33-2.17.49-3.75.49-2.4 0-4.15-.7-5.24-2.09-1.09-1.4-1.64-3.45-1.64-6.17V17.22h-5.83v-2.87h5.83V6.23h3.52l-.01.01Z"
    />
    <path
      d="M438.72 5.2c0-.66.21-1.22.64-1.67.43-.46 1.02-.68 1.76-.68s1.33.23 1.77.68c.44.46.66 1.01.66 1.67 0 .66-.22 1.21-.66 1.66-.44.45-1.03.67-1.77.67s-1.33-.22-1.76-.67c-.43-.45-.64-1-.64-1.66Zm4.13 40.85h-3.52v-31.7h3.52v31.7Z"
    />
    <path
      d="M448.1 29.73c0-3.05.59-5.79 1.77-8.23 1.18-2.44 2.85-4.34 5.01-5.7 2.16-1.36 4.6-2.04 7.34-2.04 4.22 0 7.64 1.48 10.25 4.44 2.61 2.96 3.93 6.88 3.93 11.76v.73c0 3.07-.59 5.83-1.77 8.28-1.18 2.45-2.85 4.34-5 5.67s-4.6 1.99-7.35 1.99c-4.2 0-7.61-1.48-10.24-4.44-2.63-2.96-3.94-6.88-3.94-11.76v-.7Zm3.52.97c0 3.79.98 6.9 2.94 9.33 1.96 2.43 4.54 3.65 7.72 3.65 3.18 0 5.73-1.22 7.69-3.65 1.96-2.43 2.94-5.64 2.94-9.62v-.67c0-2.42-.45-4.64-1.35-6.65-.9-2.01-2.16-3.57-3.78-4.67-1.62-1.1-3.48-1.66-5.57-1.66-3.12 0-5.67 1.23-7.65 3.68-1.97 2.45-2.96 5.66-2.96 9.62v.64h.02Z"
    />
    <path
      d="m484.63 14.35.12 5.42c1.19-1.95 2.68-3.44 4.45-4.47 1.77-1.03 3.74-1.54 5.89-1.54 3.4 0 5.93.96 7.59 2.87 1.66 1.91 2.5 4.79 2.52 8.61v20.8h-3.49V25.21c-.02-2.83-.62-4.94-1.8-6.33-1.18-1.39-3.07-2.08-5.67-2.08-2.17 0-4.09.68-5.76 2.04-1.67 1.36-2.91 3.19-3.71 5.49v21.71h-3.49V14.35h3.35Z"
    />
    <path
      d="M530.9 37.99c0-1.74-.7-3.13-2.09-4.19-1.39-1.06-3.5-1.88-6.31-2.48-2.81-.6-5-1.28-6.55-2.05-1.55-.77-2.71-1.71-3.46-2.83s-1.13-2.46-1.13-4.04c0-2.5 1.04-4.57 3.13-6.2s4.77-2.45 8.03-2.45c3.54 0 6.37.87 8.51 2.62 2.14 1.75 3.21 4.03 3.21 6.84h-3.52c0-1.86-.78-3.4-2.33-4.63s-3.51-1.85-5.87-1.85c-2.36 0-4.16.51-5.55 1.54-1.39 1.03-2.09 2.36-2.09 4 0 1.64.58 2.81 1.74 3.68 1.16.87 3.28 1.67 6.36 2.39 3.08.72 5.38 1.49 6.91 2.31 1.53.82 2.67 1.81 3.41 2.96.74 1.15 1.11 2.55 1.11 4.19 0 2.68-1.08 4.81-3.24 6.42-2.16 1.6-4.98 2.4-8.45 2.4-3.69 0-6.68-.89-8.98-2.68-2.3-1.79-3.44-4.05-3.44-6.78h3.52c.14 2.05 1 3.65 2.59 4.79 1.59 1.14 3.7 1.71 6.31 1.71 2.44 0 4.41-.54 5.92-1.61 1.5-1.07 2.26-2.43 2.26-4.07v.01Z"
    />
  </g>
  <g id="slogan">
    <path
      d="M107.01 75.27h-7.45l-1.67 4.65h-2.42l6.79-17.77h2.05l6.8 17.77h-2.4l-1.7-4.65Zm-6.74-1.92h6.04l-3.03-8.31-3.02 8.31h.01Z"
    />
    <path
      d="M112.35 73.2c0-2.03.48-3.66 1.44-4.89.96-1.23 2.22-1.85 3.77-1.85 1.55 0 2.77.53 3.67 1.59v-6.88h2.26v18.75h-2.08l-.11-1.42c-.9 1.11-2.16 1.66-3.77 1.66-1.61 0-2.78-.63-3.74-1.88-.96-1.25-1.45-2.89-1.45-4.91v-.17h.01Zm2.26.26c0 1.5.31 2.67.93 3.52.62.85 1.47 1.27 2.56 1.27 1.43 0 2.48-.64 3.14-1.93v-6.07c-.68-1.25-1.71-1.87-3.11-1.87-1.11 0-1.97.43-2.59 1.28-.62.85-.93 2.12-.93 3.8Z"
    />
    <path d="m131.11 76.85 3.27-10.14h2.31l-4.74 13.21h-1.72l-4.79-13.21h2.31l3.36 10.14Z" />
    <path
      d="M146.76 79.92c-.13-.26-.24-.72-.32-1.39-1.05 1.09-2.3 1.64-3.76 1.64-1.3 0-2.37-.37-3.2-1.1-.83-.74-1.25-1.67-1.25-2.8 0-1.38.52-2.44 1.57-3.2 1.05-.76 2.52-1.14 4.41-1.14h2.2v-1.04c0-.79-.24-1.42-.71-1.89s-1.17-.7-2.09-.7c-.81 0-1.48.2-2.03.61-.55.41-.82.9-.82 1.48h-2.27c0-.66.23-1.3.7-1.91.47-.61 1.1-1.1 1.9-1.46.8-.36 1.68-.54 2.64-.54 1.52 0 2.71.38 3.58 1.14.86.76 1.31 1.81 1.34 3.14v6.08c0 1.21.15 2.18.46 2.89v.2h-2.37l.02-.01Zm-3.75-1.72a3.9 3.9 0 0 0 2.01-.55c.63-.37 1.09-.84 1.38-1.43v-2.71h-1.77c-2.77 0-4.15.81-4.15 2.43 0 .71.24 1.26.71 1.66.47.4 1.08.6 1.82.6Z"
    />
    <path
      d="m154.09 66.71.07 1.66c1.01-1.27 2.33-1.9 3.96-1.9 2.79 0 4.2 1.57 4.22 4.72v8.73h-2.26v-8.74c0-.95-.23-1.66-.65-2.11-.43-.46-1.09-.68-2-.68-.73 0-1.38.2-1.93.59-.55.39-.98.9-1.29 1.54v9.41h-2.26V66.72h2.14v-.01Z"
    />
    <path
      d="M170.8 78.32c.81 0 1.51-.24 2.11-.73.6-.49.94-1.1 1-1.83h2.14c-.04.76-.3 1.48-.78 2.16a5.22 5.22 0 0 1-1.92 1.64c-.8.41-1.65.61-2.54.61-1.8 0-3.23-.6-4.29-1.8-1.06-1.2-1.59-2.84-1.59-4.93v-.38c0-1.29.24-2.43.71-3.43s1.15-1.78 2.03-2.33c.88-.55 1.93-.83 3.13-.83 1.48 0 2.71.44 3.69 1.33.98.89 1.5 2.04 1.57 3.45h-2.14c-.07-.85-.39-1.56-.97-2.11-.58-.55-1.3-.82-2.15-.82-1.15 0-2.04.41-2.67 1.24-.63.83-.95 2.02-.95 3.58v.43c0 1.52.31 2.69.94 3.52.63.82 1.52 1.23 2.69 1.23h-.01Z"
    />
    <path
      d="M178.35 63.21c0-.37.11-.68.34-.93.22-.25.56-.38 1-.38.44 0 .77.13 1 .38.23.25.34.56.34.93s-.11.67-.34.92c-.23.24-.56.37-1 .37-.44 0-.77-.12-1-.37-.22-.24-.34-.55-.34-.92Zm2.44 16.71h-2.26V66.71h2.26v13.21Z"
    />
    <path
      d="m186.29 66.71.07 1.66c1.01-1.27 2.33-1.9 3.96-1.9 2.79 0 4.2 1.57 4.22 4.72v8.73h-2.26v-8.74c0-.95-.23-1.66-.65-2.11-.43-.46-1.09-.68-2-.68-.73 0-1.38.2-1.93.59-.55.39-.98.9-1.29 1.54v9.41h-2.26V66.72h2.14v-.01Z"
    />
    <path
      d="M197.16 73.2c0-2.06.48-3.7 1.43-4.91.95-1.22 2.21-1.83 3.78-1.83 1.57 0 2.87.57 3.77 1.71l.11-1.46h2.06V79.6c0 1.71-.51 3.06-1.52 4.04s-2.37 1.48-4.08 1.48a6.8 6.8 0 0 1-2.8-.61c-.91-.41-1.61-.96-2.09-1.67l1.17-1.35c.97 1.2 2.15 1.79 3.55 1.79 1.1 0 1.96-.31 2.57-.93.61-.62.92-1.49.92-2.61V78.6c-.9 1.04-2.14 1.56-3.7 1.56s-2.8-.62-3.75-1.87c-.96-1.25-1.43-2.94-1.43-5.09h.01Zm2.27.26c0 1.49.31 2.66.92 3.51.61.85 1.46 1.28 2.56 1.28 1.42 0 2.47-.65 3.14-1.94v-6.03c-.69-1.26-1.73-1.89-3.11-1.89-1.1 0-1.96.43-2.58 1.28-.62.85-.93 2.12-.93 3.8v-.01Z"
    />
    <path
      d="M217.77 79.92V62.15h5.02c1.55 0 2.91.34 4.1 1.03 1.19.68 2.11 1.66 2.75 2.92.65 1.26.97 2.71.98 4.35v1.14c0 1.68-.32 3.15-.97 4.41-.65 1.26-1.57 2.23-2.77 2.91-1.2.68-2.6 1.02-4.19 1.04h-4.92v-.03Zm2.34-15.86V78h2.47c1.81 0 3.21-.56 4.22-1.69 1.01-1.12 1.51-2.72 1.51-4.8v-1.04c0-2.02-.47-3.59-1.42-4.71s-2.29-1.69-4.03-1.7h-2.75Z"
    />
    <path
      d="M233.57 63.21c0-.37.11-.68.34-.93.22-.25.56-.38 1-.38.44 0 .77.13 1 .38.23.25.34.56.34.93s-.11.67-.34.92c-.23.24-.56.37-1 .37-.44 0-.77-.12-1-.37-.22-.24-.34-.55-.34-.92Zm2.44 16.71h-2.26V66.71h2.26v13.21Z"
    />
    <path
      d="M238.83 73.2c0-2.06.48-3.7 1.43-4.91.95-1.22 2.21-1.83 3.78-1.83 1.57 0 2.87.57 3.77 1.71l.11-1.46h2.06V79.6c0 1.71-.51 3.06-1.52 4.04s-2.37 1.48-4.08 1.48a6.8 6.8 0 0 1-2.8-.61c-.91-.41-1.61-.96-2.09-1.67l1.17-1.35c.97 1.2 2.15 1.79 3.55 1.79 1.1 0 1.96-.31 2.57-.93.61-.62.92-1.49.92-2.61V78.6c-.9 1.04-2.14 1.56-3.7 1.56s-2.8-.62-3.75-1.87c-.96-1.25-1.43-2.94-1.43-5.09h.01Zm2.27.26c0 1.49.31 2.66.92 3.51.61.85 1.46 1.28 2.56 1.28 1.42 0 2.47-.65 3.14-1.94v-6.03c-.69-1.26-1.73-1.89-3.11-1.89-1.1 0-1.96.43-2.58 1.28-.62.85-.93 2.12-.93 3.8v-.01Z"
    />
    <path
      d="M253.16 63.21c0-.37.11-.68.34-.93.22-.25.56-.38 1-.38.44 0 .77.13 1 .38.23.25.34.56.34.93s-.11.67-.34.92c-.23.24-.56.37-1 .37-.44 0-.77-.12-1-.37-.22-.24-.34-.55-.34-.92Zm2.44 16.71h-2.26V66.71h2.26v13.21Z"
    />
    <path
      d="M262.03 63.51v3.2h2.47v1.75h-2.47v8.2c0 .53.11.93.33 1.19.22.26.59.4 1.12.4.26 0 .62-.05 1.07-.15v1.82c-.59.16-1.17.24-1.73.24-1.01 0-1.77-.31-2.28-.92-.51-.61-.77-1.48-.77-2.6v-8.19h-2.4V66.7h2.4v-3.2h2.26v.01Z"
    />
    <path
      d="M275.04 79.92c-.13-.26-.24-.72-.32-1.39-1.05 1.09-2.3 1.64-3.76 1.64-1.3 0-2.37-.37-3.2-1.1-.83-.74-1.25-1.67-1.25-2.8 0-1.38.52-2.44 1.57-3.2 1.05-.76 2.52-1.14 4.41-1.14h2.2v-1.04c0-.79-.24-1.42-.71-1.89s-1.17-.7-2.09-.7c-.81 0-1.48.2-2.03.61-.55.41-.82.9-.82 1.48h-2.27c0-.66.23-1.3.7-1.91.47-.61 1.1-1.1 1.9-1.46.8-.36 1.68-.54 2.64-.54 1.52 0 2.71.38 3.58 1.14.86.76 1.31 1.81 1.34 3.14v6.08c0 1.21.15 2.18.46 2.89v.2h-2.37l.02-.01Zm-3.75-1.72c.71 0 1.38-.18 2.02-.55.64-.37 1.09-.84 1.38-1.43v-2.71h-1.77c-2.77 0-4.15.81-4.15 2.43 0 .71.24 1.26.71 1.66.47.4 1.08.6 1.82.6h-.01Z"
    />
    <path d="M282.68 79.92h-2.26V61.17h2.26v18.75Z" />
    <path d="M306 79.92h-2.36V71.7h-8.96v8.22h-2.34V62.15h2.34v7.64h8.96v-7.64H306v17.77Z" />
    <path
      d="M315.04 80.16c-1.79 0-3.25-.59-4.37-1.76-1.12-1.18-1.69-2.75-1.69-4.72v-.42c0-1.31.25-2.48.75-3.51.5-1.03 1.2-1.84 2.1-2.42.9-.58 1.87-.87 2.92-.87 1.72 0 3.05.57 4 1.7.95 1.13 1.43 2.75 1.43 4.86v.94h-8.95c.03 1.3.41 2.35 1.14 3.16.73.8 1.65 1.2 2.78 1.2.8 0 1.47-.16 2.03-.49.55-.33 1.04-.76 1.45-1.29l1.38 1.07c-1.11 1.7-2.77 2.55-4.98 2.55h.01Zm-.28-11.84c-.91 0-1.68.33-2.29 1-.62.66-1 1.59-1.15 2.79h6.62v-.17c-.07-1.15-.37-2.04-.93-2.67-.55-.63-1.3-.95-2.25-.95Z"
    />
    <path
      d="M330.71 79.92c-.13-.26-.24-.72-.32-1.39-1.05 1.09-2.3 1.64-3.76 1.64-1.3 0-2.37-.37-3.2-1.1-.83-.74-1.25-1.67-1.25-2.8 0-1.38.52-2.44 1.57-3.2 1.04-.76 2.52-1.14 4.41-1.14h2.2v-1.04c0-.79-.24-1.42-.71-1.89s-1.17-.7-2.09-.7c-.81 0-1.48.2-2.03.61-.54.41-.82.9-.82 1.48h-2.27c0-.66.23-1.3.7-1.91.47-.61 1.1-1.1 1.9-1.46.8-.36 1.68-.54 2.64-.54 1.52 0 2.71.38 3.58 1.14.86.76 1.31 1.81 1.34 3.14v6.08c0 1.21.15 2.18.46 2.89v.2h-2.37l.02-.01Zm-3.75-1.72a3.9 3.9 0 0 0 2.01-.55c.63-.37 1.09-.84 1.38-1.43v-2.71h-1.77c-2.77 0-4.15.81-4.15 2.43 0 .71.24 1.26.71 1.66.47.4 1.08.6 1.82.6Z"
    />
    <path d="M338.35 79.92h-2.26V61.17h2.26v18.75Z" />
    <path
      d="M344.78 63.51v3.2h2.46v1.75h-2.46v8.2c0 .53.11.93.33 1.19.22.26.59.4 1.12.4.26 0 .62-.05 1.07-.15v1.82c-.59.16-1.17.24-1.73.24-1.01 0-1.77-.31-2.28-.92-.51-.61-.77-1.48-.77-2.6v-8.19h-2.41V66.7h2.41v-3.2h2.26v.01Z"
    />
    <path
      d="M351.89 68.31c1-1.23 2.3-1.84 3.91-1.84 2.79 0 4.2 1.57 4.22 4.72v8.73h-2.26v-8.74c0-.95-.23-1.66-.65-2.11-.43-.46-1.09-.68-2-.68-.73 0-1.38.2-1.93.59-.55.39-.99.9-1.29 1.54v9.41h-2.26V61.18h2.26v7.14-.01Z"
    />
    <path
      d="M368.62 75.15c0-.85.24-1.64.71-2.36.48-.72 1.38-1.55 2.73-2.5-.79-.96-1.32-1.73-1.59-2.32-.27-.59-.4-1.17-.4-1.75 0-1.35.4-2.41 1.2-3.17.8-.76 1.88-1.15 3.25-1.15 1.22 0 2.23.36 3.03 1.07.8.71 1.2 1.61 1.2 2.69 0 .72-.18 1.38-.54 1.98-.36.61-1 1.24-1.9 1.91l-1.31.96 3.96 4.72c.55-1.06.83-2.23.83-3.53h2.04c0 2.08-.5 3.8-1.5 5.16l2.54 3.04h-2.71l-1.18-1.4c-.6.54-1.31.95-2.12 1.23s-1.63.42-2.47.42c-1.73 0-3.12-.46-4.17-1.38-1.05-.92-1.58-2.13-1.58-3.64l-.02.02Zm5.75 3.17c1.2 0 2.29-.46 3.28-1.37l-4.33-5.19-.4.29c-1.36 1-2.04 2.03-2.04 3.09 0 .96.31 1.73.93 2.31.62.58 1.48.87 2.56.87Zm-2.04-12.17c0 .78.48 1.76 1.44 2.93l1.44-1.01c.55-.39.93-.76 1.14-1.12.2-.35.31-.78.31-1.29 0-.54-.2-1-.61-1.36-.41-.36-.92-.54-1.54-.54-.67 0-1.2.23-1.59.68-.39.45-.59 1.02-.59 1.71Z"
    />
    <path
      d="M404.35 71.6c0 1.74-.29 3.26-.88 4.56-.59 1.3-1.42 2.29-2.49 2.97-1.07.68-2.33 1.03-3.76 1.03-1.43 0-2.64-.34-3.72-1.03s-1.92-1.67-2.52-2.94c-.6-1.27-.91-2.75-.92-4.42v-1.28c0-1.71.3-3.22.89-4.53.59-1.31 1.43-2.31 2.52-3.01 1.09-.7 2.33-1.04 3.73-1.04s2.68.34 3.77 1.03c1.09.69 1.92 1.68 2.51 2.99.59 1.31.88 2.83.88 4.56v1.12l-.01-.01Zm-2.33-1.15c0-2.11-.42-3.73-1.27-4.85-.85-1.13-2.03-1.69-3.55-1.69s-2.65.56-3.5 1.69c-.85 1.13-1.29 2.69-1.31 4.69v1.31c0 2.04.43 3.65 1.29 4.82.86 1.17 2.04 1.75 3.55 1.75 1.51 0 2.69-.55 3.52-1.65.83-1.1 1.26-2.68 1.28-4.74v-1.32l-.01-.01Z"
    />
    <path
      d="M418.42 73.46c0 2.01-.46 3.63-1.38 4.86-.92 1.23-2.16 1.84-3.73 1.84-1.57 0-2.87-.51-3.79-1.53v6.36h-2.26V66.7h2.06l.11 1.46c.92-1.14 2.2-1.71 3.83-1.71s2.84.6 3.77 1.79c.93 1.19 1.39 2.86 1.39 4.99v.23Zm-2.26-.26c0-1.49-.32-2.67-.95-3.53-.63-.86-1.51-1.29-2.61-1.29-1.37 0-2.39.61-3.08 1.82v6.31c.68 1.2 1.71 1.81 3.1 1.81 1.08 0 1.94-.43 2.58-1.29.64-.86.96-2.13.96-3.83Z"
    />
    <path
      d="M426.52 80.16c-1.79 0-3.25-.59-4.37-1.76-1.12-1.18-1.69-2.75-1.69-4.72v-.42c0-1.31.25-2.48.75-3.51.5-1.03 1.2-1.84 2.1-2.42.9-.58 1.87-.87 2.92-.87 1.72 0 3.05.57 4 1.7.95 1.13 1.43 2.75 1.43 4.86v.94h-8.95c.03 1.3.41 2.35 1.14 3.16.73.8 1.65 1.2 2.78 1.2.8 0 1.47-.16 2.03-.49.55-.33 1.04-.76 1.45-1.29l1.38 1.07c-1.11 1.7-2.77 2.55-4.98 2.55h.01Zm-.28-11.84c-.91 0-1.68.33-2.29 1-.62.66-1 1.59-1.15 2.79h6.62v-.17c-.07-1.15-.37-2.04-.93-2.67-.55-.63-1.3-.95-2.25-.95Z"
    />
    <path
      d="m436.17 66.71.07 1.66c1.01-1.27 2.33-1.9 3.96-1.9 2.79 0 4.2 1.57 4.22 4.72v8.73h-2.26v-8.74c0-.95-.23-1.66-.65-2.11-.43-.46-1.09-.68-2-.68-.73 0-1.38.2-1.93.59-.55.39-.99.9-1.29 1.54v9.41h-2.26V66.72h2.14v-.01Z"
    />
    <path
      d="M459.1 72c-2.01-.58-3.47-1.29-4.39-2.13-.92-.84-1.37-1.88-1.37-3.12 0-1.4.56-2.56 1.68-3.47 1.12-.92 2.57-1.37 4.36-1.37 1.22 0 2.31.24 3.27.71s1.7 1.12 2.22 1.95c.53.83.79 1.74.79 2.72h-2.36c0-1.08-.34-1.93-1.03-2.54-.68-.62-1.65-.92-2.89-.92-1.16 0-2.06.25-2.7.76-.65.51-.97 1.22-.97 2.12 0 .73.31 1.34.92 1.84.61.5 1.66.96 3.14 1.38 1.48.42 2.63.87 3.47 1.37.83.5 1.45 1.08 1.86 1.75.4.67.6 1.45.6 2.36 0 1.44-.56 2.59-1.68 3.46-1.12.87-2.62 1.3-4.5 1.3-1.22 0-2.36-.23-3.42-.7s-1.87-1.11-2.45-1.92c-.57-.81-.86-1.74-.86-2.77h2.36c0 1.07.4 1.92 1.19 2.54.79.62 1.85.93 3.18.93 1.24 0 2.18-.25 2.84-.76.66-.5.99-1.19.99-2.06 0-.87-.3-1.54-.92-2.02-.61-.48-1.72-.95-3.32-1.41h-.01Z"
    />
    <path
      d="M473.39 78.32c.81 0 1.51-.24 2.11-.73.6-.49.94-1.1 1-1.83h2.14c-.04.76-.3 1.48-.78 2.16a5.22 5.22 0 0 1-1.92 1.64c-.8.41-1.65.61-2.54.61-1.8 0-3.23-.6-4.29-1.8-1.06-1.2-1.59-2.84-1.59-4.93v-.38c0-1.29.24-2.43.71-3.43s1.15-1.78 2.03-2.33c.88-.55 1.93-.83 3.13-.83 1.48 0 2.71.44 3.69 1.33.98.89 1.5 2.04 1.57 3.45h-2.14c-.06-.85-.39-1.56-.97-2.11-.58-.55-1.3-.82-2.16-.82-1.15 0-2.04.41-2.67 1.24-.63.83-.95 2.02-.95 3.58v.43c0 1.52.31 2.69.94 3.52.63.82 1.52 1.23 2.69 1.23Z"
    />
    <path
      d="M480.94 63.21c0-.37.11-.68.34-.93.22-.25.56-.38 1-.38.44 0 .77.13 1 .38.23.25.34.56.34.93s-.11.67-.34.92c-.23.25-.56.37-1 .37-.44 0-.77-.12-1-.37-.23-.25-.34-.55-.34-.92Zm2.44 16.71h-2.26V66.71h2.26v13.21Z"
    />
    <path
      d="M492.23 80.16c-1.79 0-3.25-.59-4.37-1.76-1.12-1.18-1.69-2.75-1.69-4.72v-.42c0-1.31.25-2.48.75-3.51.5-1.03 1.2-1.84 2.1-2.42.9-.58 1.87-.87 2.92-.87 1.72 0 3.05.57 4 1.7.95 1.13 1.43 2.75 1.43 4.86v.94h-8.95c.03 1.3.41 2.35 1.14 3.16.73.8 1.65 1.2 2.78 1.2.8 0 1.47-.16 2.03-.49.55-.33 1.04-.76 1.45-1.29l1.38 1.07c-1.11 1.7-2.77 2.55-4.98 2.55h.01Zm-.28-11.84c-.91 0-1.68.33-2.29 1-.62.66-1 1.59-1.15 2.79h6.62v-.17c-.07-1.15-.37-2.04-.93-2.67-.55-.63-1.3-.95-2.25-.95Z"
    />
    <path
      d="m501.88 66.71.07 1.66c1.01-1.27 2.33-1.9 3.96-1.9 2.79 0 4.2 1.57 4.22 4.72v8.73h-2.26v-8.74c0-.95-.23-1.66-.65-2.11-.43-.46-1.09-.68-2-.68-.73 0-1.38.2-1.93.59-.55.39-.99.9-1.29 1.54v9.41h-2.26V66.72h2.14v-.01Z"
    />
    <path
      d="M518.58 78.32c.81 0 1.51-.24 2.11-.73.6-.49.94-1.1 1-1.83h2.14c-.04.76-.3 1.48-.78 2.16a5.22 5.22 0 0 1-1.92 1.64c-.8.41-1.65.61-2.54.61-1.8 0-3.23-.6-4.29-1.8-1.06-1.2-1.59-2.84-1.59-4.93v-.38c0-1.29.24-2.43.71-3.43s1.15-1.78 2.03-2.33c.88-.55 1.93-.83 3.13-.83 1.48 0 2.71.44 3.69 1.33.98.89 1.5 2.04 1.57 3.45h-2.14c-.06-.85-.39-1.56-.97-2.11-.58-.55-1.3-.82-2.16-.82-1.15 0-2.04.41-2.67 1.24-.63.83-.95 2.02-.95 3.58v.43c0 1.52.31 2.69.94 3.52.63.82 1.52 1.23 2.69 1.23Z"
    />
    <path
      d="M531.6 80.16c-1.79 0-3.25-.59-4.37-1.76-1.12-1.18-1.69-2.75-1.69-4.72v-.42c0-1.31.25-2.48.75-3.51.5-1.03 1.2-1.84 2.1-2.42.9-.58 1.87-.87 2.92-.87 1.72 0 3.05.57 4 1.7.95 1.13 1.43 2.75 1.43 4.86v.94h-8.95c.03 1.3.41 2.35 1.14 3.16.73.8 1.65 1.2 2.78 1.2.8 0 1.47-.16 2.03-.49.55-.33 1.04-.76 1.45-1.29l1.38 1.07c-1.11 1.7-2.77 2.55-4.98 2.55h.01Zm-.28-11.84c-.91 0-1.68.33-2.29 1-.62.66-1 1.59-1.15 2.79h6.62v-.17c-.07-1.15-.37-2.04-.93-2.67-.55-.63-1.3-.95-2.25-.95Z"
    />
  </g>
</svg>
