<svg xmlns="http://www.w3.org/2000/svg" viewBox="0 0 275 43" width="1100" height="172">

  <title xml:lang="en">JMIR Publications</title>

  <style>
    :root {
      --color-primary: rgb(26 37 76);
      --color-text-light: rgb(118 124 148);
      --color-sea: rgb(48 136 223);
      --color-symbol: rgb(255 255 255);
      --color-land: var(--color-primary);
    }

    .icon {
      fill: var(--color-primary);
    }

    .text {
      fill: var(--color-primary);
    }

    .slogan {
      fill: var(--color-text-light);
    }

    .icon .sea {
      fill: var(--color-sea);
    }

    .icon .symbol {
      fill: var(--color-symbol);
    }

    .icon .land {
      fill: var(--color-land);
    }

    @media screen and (forced-colors: active) {
      :root {
        --color-background: Canvas;
        --color-primary: CanvasText;
        --color-text-light: CanvasText;
        --color-sea: CanvasText;
        --color-symbol: Canvas;
        --color-land: Canvas;
      }
    }
  </style>

  <g transform="matrix(1.0027199,0,0,1.0030745,-390.69677,-12.620683)">
    <g class="icon" transform="translate(389.637,12.582)">
      <path
        class="sea"
        d="M 20.248,5 A 20.248,20.248 0 1 1 0,25.248 20.248,20.248 0 0 1 20.248,5 Z"
        transform="translate(0,-5)"
      />
      <path
        class="symbol"
        d="M 20.51,10.3 A 2.17,2.17 0 0 1 19.255,9.9 l -3.985,4.063 a 2.88,2.88 0 1 1 -4.484,-0.277 l -4.9,-6 A 4.06,4.06 0 1 1 6.8,7.047 l 4.762,6.032 a 2.881,2.881 0 0 1 2.853,0.086 L 18.564,9.1 a 2.181,2.181 0 1 1 1.946,1.2 z"
        transform="translate(4.538,15.622)"
      />
      <path
        class="land"
        d="m 19.977,34.112 c 0,0 -1.755,1.752 -3.254,0.195 0,0 -0.015,-0.033 -0.027,-0.064 0,0 -0.064,-2.783 -0.873,-3.4 a 4.01,4.01 0 0 1 -0.7,-4.451 c 0,0 0.322,-0.826 3.055,-1.92 a 3.857,3.857 0 0 0 1.92,-2.531 c 0,0 0.547,-2.4 -0.436,-3.666 0,0 2.492,-3.761 5.038,0.288 a 20.3,20.3 0 0 1 -4.723,15.549 z m -2.845,-20.99 a 0.985,0.985 0 0 1 0.175,0.873 4.416,4.416 0 0 1 -5.237,1.92 4.708,4.708 0 0 1 -2.531,-4.1 C 9.539,9.669 8.492,9.895 8.492,9.895 7,11.035 1.57,9.814 0.55,7.274 -0.47,4.734 4.474,0.706 4.474,0.706 a 19.475,19.475 0 0 1 12.833,4.43 C 17.7,9.362 15.561,10.5 15.561,10.5 c -0.24,0.995 1.571,2.622 1.571,2.622 z"
        transform="translate(15.645,-0.694)"
      />
    </g>

    <g class="text" transform="translate(437.081,7.158)">
      <g transform="translate(0,29)">
        <path
          d="M 10.327148,-6.6210937 V -21.328125 h 4.746094 v 14.7070313 q 0,2.1386718 -0.966797,3.6914062 -0.952148,1.5380859 -2.592773,2.38769531 -1.6259767,0.83496094 -3.6767579,0.83496094 -2.109375,0 -3.75,-0.703125 Q 2.4462891,-1.1279297 1.5087891,-2.5927734 0.5859375,-4.0722656 0.5859375,-6.3574219 h 4.7753906 q 0,1.1279297 0.2783203,1.7871094 0.2929688,0.6445312 0.8496094,0.9082031 0.5566406,0.2636719 1.3476563,0.2636719 0.7617187,0 1.3183593,-0.3662109 0.5566407,-0.3808594 0.8642576,-1.0986328 0.307617,-0.7324219 0.307617,-1.7578125 z"
        />
        <path
          d="m 19.659375,-21.328125 h 3.955078 l 5.126953,15.2490234 5.112305,-15.2490234 h 3.955078 L 30.338086,0 h -3.208008 z m -2.285156,0 h 4.02832 L 22.14961,-5.5224609 V 0 h -4.775391 z m 18.691406,0 h 4.042969 V 0 h -4.790039 v -5.5224609 z"
        />
        <path d="M 47.536522,-21.328125 V 0 H 42.77578 v -21.328125 z" />
        <path
          d="m 50.174416,-21.328125 h 8.188476 q 2.446289,0 4.233399,0.732422 1.801757,0.732422 2.768554,2.167969 0.966797,1.435547 0.966797,3.544921 0,1.757813 -0.571289,2.988282 -0.571289,1.230468 -1.611328,2.0361326 -1.025391,0.805664 -2.402344,1.3037109 l -1.552734,0.8496094 h -6.972656 l -0.0293,-3.7060549 h 5.185547 q 1.069336,0 1.772461,-0.380859 0.703125,-0.38086 1.054687,-1.069336 0.366211,-0.703125 0.366211,-1.640625 0,-0.966797 -0.366211,-1.669922 Q 60.838478,-16.875 60.120705,-17.241211 59.41758,-17.62207 58.362892,-17.62207 H 54.949806 V 0 h -4.77539 z M 61.981056,0 l -4.790039,-9.4775391 5.039063,-0.014648 4.863281,9.27246094 V 0 Z"
        />
      </g>

      <g transform="translate(69.837,29)">
        <path
          d="m 16.975586,-8.6865234 h -6.09375 v -1.5527346 h 6.09375 q 1.904297,0 3.09082,-0.615234 1.186524,-0.615235 1.728516,-1.684571 0.55664,-1.069335 0.55664,-2.402343 0,-1.303711 -0.55664,-2.402344 -0.541992,-1.098633 -1.728516,-1.757812 -1.186523,-0.673829 -3.09082,-0.673829 H 11.511719 V 0 H 9.7099609 v -21.328125 h 7.2656251 q 2.34375,0 3.94043,0.805664 1.596679,0.805664 2.416992,2.241211 0.820312,1.435547 0.820312,3.310547 0,1.96289 -0.820312,3.383789 -0.805664,1.40625 -2.416992,2.1533202 -1.59668,0.7470704 -3.94043,0.7470704 z"
        />
        <path
          d="M 37.022852,-3.6621094 V -15.849609 h 1.772461 V 0 h -1.699219 z m 0.322266,-2.9443359 0.908203,-0.029297 q 0,1.4941406 -0.351563,2.7685547 -0.351562,1.2597656 -1.098633,2.1972656 -0.74707,0.92285159 -1.933593,1.45019534 -1.186524,0.51269531 -2.856446,0.51269531 -1.157226,0 -2.124023,-0.33691406 Q 28.936914,-0.38085948 28.248438,-1.0839845 27.559961,-1.8017579 27.179102,-2.944336 26.812891,-4.0869142 26.812891,-5.7128907 V -15.849609 h 1.743164 v 10.1660153 q 0,1.2597656 0.27832,2.1240234 0.292969,0.8496094 0.791016,1.3623047 0.512695,0.4980469 1.171875,0.7177734 0.65918,0.2197266 1.420898,0.2197266 1.933594,0 3.046875,-0.7324219 1.12793,-0.7470703 1.59668,-1.9628906 0.483399,-1.2304688 0.483399,-2.6513672 z"
        />
        <path
          d="m 42.42168,-22.5 h 1.757813 V -3.0761719 L 44.062305,0 H 42.42168 Z m 12.788086,14.4287109 v 0.3076172 q 0,1.772461 -0.410156,3.2519532 -0.395508,1.4648437 -1.171875,2.5488281 -0.776367,1.06933591 -1.904297,1.66992185 -1.127929,0.5859375 -2.563476,0.5859375 -1.420899,0 -2.519532,-0.45410156 -1.098632,-0.45410156 -1.875,-1.27441409 -0.776367,-0.8203125 -1.259765,-1.9482422 -0.46875,-1.1279296 -0.644531,-2.4609375 v -3.9111328 q 0.219726,-1.4355466 0.703125,-2.6074216 0.483398,-1.171875 1.245117,-2.021485 0.776367,-0.849609 1.845703,-1.303711 1.083984,-0.454101 2.475586,-0.454101 1.450195,0 2.578125,0.571289 1.142578,0.556641 1.918945,1.625976 0.776367,1.054688 1.171875,2.548829 0.410156,1.4794918 0.410156,3.3251949 z m -1.772461,0.3076172 v -0.3076172 q 0,-1.3916015 -0.263671,-2.5781249 -0.263672,-1.186524 -0.834961,-2.06543 -0.556641,-0.893554 -1.435547,-1.391601 -0.878906,-0.498047 -2.109375,-0.498047 -1.259766,0 -2.138672,0.424804 -0.878906,0.410157 -1.464844,1.098633 -0.571289,0.673828 -0.908203,1.479492 -0.336914,0.805665 -0.498047,1.582032 v 4.5410154 q 0.249024,1.1132812 0.864258,2.0800781 0.615234,0.9521484 1.640625,1.5527344 1.040039,0.5859375 2.53418,0.5859375 1.201172,0 2.065429,-0.4833985 0.878907,-0.4980468 1.435547,-1.3769531 0.571289,-0.8935547 0.834961,-2.0800781 0.27832,-1.1865234 0.27832,-2.5634766 z"
        />
        <path d="M 60.154491,-22.5 V 0 h -1.757812 v -22.5 z" />
        <path
          d="M 65.992775,-15.849609 V 0 h -1.757813 v -15.849609 z m -2.06543,-4.584961 q 0,-0.498047 0.307617,-0.834961 0.322266,-0.351563 0.893555,-0.351563 0.556641,0 0.878906,0.351563 0.336914,0.336914 0.336914,0.834961 0,0.483398 -0.336914,0.834961 -0.322265,0.336914 -0.878906,0.336914 -0.571289,0 -0.893555,-0.336914 -0.307617,-0.351563 -0.307617,-0.834961 z"
        />
        <path
          d="m 75.727539,-1.2158203 q 1.098633,0 2.06543,-0.4248047 0.981445,-0.4248047 1.611328,-1.2451172 0.644531,-0.8203125 0.732422,-2.0214844 h 1.68457 q -0.07324,1.5087891 -0.922852,2.6806641 -0.849609,1.171875 -2.211914,1.84570312 -1.347656,0.67382813 -2.958984,0.67382813 -1.669922,0 -2.944336,-0.60058594 -1.259766,-0.61523437 -2.109375,-1.68457031 -0.849609,-1.0839844 -1.289062,-2.5195312 -0.424805,-1.4355469 -0.424805,-3.1054688 v -0.6152344 q 0,-1.6699219 0.424805,-3.1054691 0.439453,-1.450195 1.289062,-2.519531 0.849609,-1.083984 2.109375,-1.68457 1.259766,-0.600586 2.929688,-0.600586 1.699218,0 3.046875,0.688476 1.347656,0.688477 2.167968,1.948243 0.820313,1.259765 0.893555,2.988281 h -1.68457 q -0.07324,-1.274414 -0.673828,-2.197266 -0.600586,-0.922851 -1.582032,-1.420898 -0.981445,-0.498047 -2.167968,-0.498047 -1.347657,0 -2.314454,0.527344 -0.952148,0.512695 -1.552734,1.420898 -0.585937,0.893555 -0.864258,2.050781 -0.263672,1.1425785 -0.263672,2.4023441 v 0.6152344 q 0,1.2597656 0.263672,2.4169922 0.278321,1.1425781 0.864258,2.0507812 0.600586,0.8935547 1.552734,1.4208985 0.966797,0.5126953 2.329102,0.5126953 z"
        />
        <path
          d="m 94.075584,-2.8417969 v -8.1738281 q 0,-1.12793 -0.46875,-1.948242 -0.46875,-0.820313 -1.376953,-1.259766 -0.908203,-0.439453 -2.241211,-0.439453 -1.230468,0 -2.197265,0.439453 -0.952149,0.424805 -1.508789,1.157227 -0.541993,0.717773 -0.541993,1.596679 l -1.743164,-0.01465 q 0,-0.893555 0.424805,-1.728516 0.439453,-0.834961 1.245117,-1.49414 0.805664,-0.65918 1.918946,-1.040039 1.127929,-0.395508 2.490234,-0.395508 1.68457,0 2.973633,0.571289 1.303711,0.571289 2.036133,1.713867 0.74707,1.142578 0.74707,2.871094 v 7.6611327 q 0,0.8203125 0.117187,1.6992187 0.131836,0.87890629 0.366211,1.43554691 V 0 h -1.875 q -0.175781,-0.52734375 -0.27832,-1.3183594 -0.08789,-0.805664 -0.08789,-1.5234375 z m 0.410157,-6.3867187 0.0293,1.3476562 h -3.427735 q -1.347656,0 -2.416992,0.2490235 -1.054688,0.234375 -1.787109,0.6884765 -0.732422,0.4541016 -1.12793,1.1132813 -0.380859,0.6445312 -0.380859,1.4648437 0,0.8496094 0.424804,1.5527344 0.424805,0.703125 1.230469,1.1132813 0.805664,0.4101562 1.904297,0.4101562 1.450195,0 2.563476,-0.5273437 1.12793,-0.5419922 1.860352,-1.4208985 0.732422,-0.8789062 0.981445,-1.9189453 l 0.761719,1.0107422 q -0.19043,0.7177734 -0.703125,1.4941406 -0.498047,0.7763672 -1.303711,1.4501953 -0.791016,0.65917971 -1.889648,1.0839844 -1.083985,0.41015625 -2.475586,0.41015625 -1.538086,0 -2.695313,-0.5859375 Q 84.876366,-0.89355469 84.246483,-1.9042969 83.6166,-2.9296875 83.6166,-4.21875 q 0,-1.1572266 0.498047,-2.0800781 0.498047,-0.9375 1.435547,-1.5820313 0.9375,-0.6591797 2.270508,-0.9960937 1.347656,-0.3515625 3.017578,-0.3515625 z"
        />
        <path
          d="m 105.62675,-15.849609 v 1.435546 h -7.954097 v -1.435546 z m -5.03906,-4.072266 h 1.75781 v 16.0546875 q 0,1.0986328 0.27833,1.6699219 0.29296,0.5566406 0.76171,0.7470703 0.4834,0.1757812 1.02539,0.1757812 0.39551,0 0.74707,-0.043945 0.36622,-0.058594 0.67383,-0.102539 l 0.0733,1.47949215 q -0.32227,0.10253906 -0.84961,0.16113281 -0.5127,0.0732422 -1.02539,0.0732422 -1.01075,0 -1.78711,-0.38085937 -0.77637,-0.38085938 -1.21582,-1.28906249 -0.43946,-0.9082032 -0.43946,-2.4902344 z"
        />
        <path
          d="M 110.33711,-15.849609 V 0 h -1.75781 v -15.849609 z m -2.06543,-4.584961 q 0,-0.498047 0.30762,-0.834961 0.32227,-0.351563 0.89355,-0.351563 0.55665,0 0.87891,0.351563 0.33691,0.336914 0.33691,0.834961 0,0.483398 -0.33691,0.834961 -0.32226,0.336914 -0.87891,0.336914 -0.57128,0 -0.89355,-0.336914 -0.30762,-0.351563 -0.30762,-0.834961 z"
        />
        <path
          d="m 113.2457,-7.6904297 v -0.46875 q 0,-1.7285156 0.49805,-3.1933593 0.5127,-1.464844 1.43555,-2.53418 0.92285,-1.069336 2.22656,-1.655273 1.30371,-0.600586 2.90039,-0.600586 1.61133,0 2.91504,0.600586 1.31836,0.585937 2.24121,1.655273 0.9375,1.069336 1.43555,2.53418 0.49805,1.4648437 0.49805,3.1933593 v 0.46875 q 0,1.7285156 -0.49805,3.1933594 -0.49805,1.4501953 -1.43555,2.5341797 -0.92285,1.06933591 -2.22656,1.66992185 -1.28906,0.5859375 -2.90039,0.5859375 -1.61133,0 -2.91504,-0.5859375 -1.30371,-0.60058594 -2.24121,-1.66992185 -0.92285,-1.0839844 -1.43555,-2.5341797 -0.49805,-1.4648438 -0.49805,-3.1933594 z m 1.75782,-0.46875 v 0.46875 q 0,1.303711 0.33691,2.475586 0.35156,1.1572265 1.02539,2.0654296 0.68848,0.8935547 1.68457,1.4208985 0.9961,0.5126953 2.28516,0.5126953 1.28906,0 2.27051,-0.5126953 0.99609,-0.5273438 1.66992,-1.4208985 0.67383,-0.9082031 1.01074,-2.0654296 0.35156,-1.171875 0.35156,-2.475586 v -0.46875 q 0,-1.2890625 -0.35156,-2.4462893 -0.33691,-1.157226 -1.02539,-2.065429 -0.67383,-0.908204 -1.66992,-1.435547 -0.9961,-0.527344 -2.28516,-0.527344 -1.27441,0 -2.27051,0.527344 -0.98144,0.527343 -1.66992,1.435547 -0.67383,0.908203 -1.02539,2.065429 -0.33691,1.1572268 -0.33691,2.4462893 z"
        />
        <path
          d="M 131.87207,-12.46582 V 0 h -1.74316 v -15.849609 h 1.66992 z m -0.38086,3.55957 -0.77637,-0.4394531 q 0.0733,-1.4062499 0.55664,-2.6367189 0.4834,-1.230469 1.30372,-2.167969 0.83496,-0.9375 1.96289,-1.464843 1.12793,-0.527344 2.49023,-0.527344 1.18652,0 2.12402,0.322265 0.9375,0.322266 1.58203,1.025391 0.65918,0.688477 0.9961,1.801758 0.35156,1.098633 0.35156,2.666016 V 0 h -1.75781 v -10.341797 q 0,-1.625976 -0.4541,-2.548828 -0.4541,-0.9375 -1.28907,-1.333008 -0.83496,-0.395508 -1.97753,-0.395508 -1.25977,0 -2.21192,0.556641 -0.9375,0.541992 -1.58203,1.420898 -0.62988,0.864258 -0.9668,1.860352 -0.33691,0.9814453 -0.35156,1.875 z"
        />
        <path
          d="m 155.21524,-4.0429687 q 0,-0.6591797 -0.32227,-1.2744141 -0.32226,-0.6298828 -1.24511,-1.1572266 -0.90821,-0.5273437 -2.66602,-0.8935547 -1.33301,-0.2929687 -2.37304,-0.6591797 -1.0254,-0.3662109 -1.72852,-0.8789062 -0.70313,-0.5126953 -1.06934,-1.230469 -0.36621,-0.717773 -0.36621,-1.699219 0,-0.878906 0.38086,-1.655273 0.39551,-0.791016 1.11328,-1.376953 0.73243,-0.600586 1.75782,-0.9375 1.04003,-0.336914 2.3291,-0.336914 1.8457,0 3.14941,0.629883 1.30371,0.615234 2.00684,1.68457 0.70312,1.069336 0.70312,2.416992 h -1.75781 q 0,-0.820312 -0.4834,-1.552734 -0.46875,-0.732422 -1.3916,-1.201172 -0.9082,-0.46875 -2.22656,-0.46875 -1.36231,0 -2.21192,0.410156 -0.83496,0.410156 -1.23047,1.040039 -0.38085,0.629883 -0.38085,1.303711 0,0.527344 0.16113,0.966797 0.16113,0.424805 0.61523,0.791016 0.4541,0.3662106 1.28906,0.6884762 0.83497,0.3222657 2.15333,0.6152344 1.91894,0.4394531 3.13476,1.0546875 1.23047,0.600586 1.81641,1.4794922 0.60058,0.8789063 0.60058,2.1386719 0,0.9814453 -0.41015,1.8017578 -0.41016,0.8056641 -1.18653,1.40625 -0.76172,0.5859375 -1.8457,0.90820312 -1.06934,0.32226563 -2.40234,0.32226563 -2.00684,0 -3.39844,-0.67382813 -1.3916,-0.67382812 -2.10938,-1.75781252 -0.70312,-1.0839844 -0.70312,-2.3291015 h 1.75781 q 0.0732,1.2451171 0.76172,1.9628906 0.70313,0.703125 1.69922,0.9960937 0.99609,0.2929688 1.99219,0.2929688 1.333,0 2.24121,-0.3955078 0.9082,-0.3955078 1.37695,-1.0400391 0.46875,-0.6591797 0.46875,-1.3916015 z"
        />
      </g>

      <g class="slogan" transform="translate(1.063,45.686)">
        <path
          d="M 4.3212891,-8.0993652 1.3793945,0 H 0.17700195 L 3.5644531,-8.8867188 H 4.3395996 Z M 6.7871094,0 3.8391113,-8.0993652 3.8208008,-8.8867188 H 4.5959473 L 7.9956055,0 Z M 6.6345215,-3.2897949 v 0.9643554 H 1.6418457 v -0.9643554 z"
        />
        <path
          d="M 13.17749,-1.2817383 V -9.375 h 1.135254 V 0 H 13.275146 Z M 8.7341309,-3.2287598 v -0.1281738 q 0,-0.7568359 0.1831054,-1.373291 0.189209,-0.6225586 0.5310059,-1.0681152 0.3479004,-0.4455567 0.8239748,-0.6835938 0.482178,-0.2441406 1.074219,-0.2441406 0.622558,0 1.086425,0.2197265 0.469971,0.2136231 0.793457,0.6286622 0.32959,0.4089355 0.518799,0.9887695 0.189209,0.579834 0.262451,1.3122558 v 0.5615235 q -0.06714,0.7263183 -0.262451,1.3061523 -0.189209,0.579834 -0.518799,0.98876956 -0.323486,0.40893554 -0.793457,0.62866211 -0.46997,0.21362304 -1.098632,0.21362304 -0.579834,0 -1.062012,-0.25024414 Q 9.7961426,-0.37841797 9.4482422,-0.83007813 9.1064453,-1.2817383 8.9172363,-1.8920898 8.7341309,-2.5085449 8.7341309,-3.2287598 Z m 1.1352539,-0.1281738 v 0.1281738 q 0,0.4943848 0.097656,0.9277344 0.1037602,0.4333496 0.3173832,0.7629395 0.213623,0.3295898 0.543213,0.5187988 0.32959,0.18310546 0.787353,0.18310546 0.561524,0 0.921631,-0.23803706 0.366211,-0.2380372 0.585938,-0.6286622 0.219726,-0.390625 0.341796,-0.8483886 v -1.4709473 q -0.07324,-0.3356934 -0.213623,-0.6469727 -0.134277,-0.3173828 -0.354003,-0.5615234 -0.213624,-0.2502441 -0.531006,-0.3967285 -0.31128,-0.1464844 -0.738526,-0.1464844 -0.463867,0 -0.79956,0.1953125 -0.32959,0.189209 -0.543213,0.5249024 -0.213623,0.3295898 -0.3173832,0.7690429 -0.097656,0.4333496 -0.097656,0.9277344 z"
        />
        <path
          d="m 18.07251,-1.0192871 1.80664,-5.5847168 h 1.153565 L 18.658447,0 H 17.901611 Z M 16.564941,-6.6040039 18.426514,-0.98876953 18.554687,0 h -0.756835 l -2.392579,-6.6040039 z"
        />
        <path
          d="m 25.921631,-1.1291504 v -3.3996582 q 0,-0.390625 -0.158692,-0.6774902 -0.152587,-0.2929688 -0.463867,-0.4516602 -0.311279,-0.1586914 -0.769043,-0.1586914 -0.427246,0 -0.750732,0.1464844 -0.317383,0.1464844 -0.500488,0.3845215 -0.177002,0.2380371 -0.177002,0.5126953 h -1.129151 q 0,-0.3540039 0.183106,-0.7019043 0.183105,-0.3479004 0.524902,-0.6286621 0.3479,-0.2868653 0.830078,-0.4516602 0.488281,-0.1708984 1.086426,-0.1708984 0.720215,0 1.269531,0.2441406 0.55542,0.2441406 0.866699,0.7385254 0.317383,0.4882812 0.317383,1.2268066 v 3.0761719 q 0,0.3295899 0.05493,0.70190431 0.06103,0.37231445 0.177002,0.64086914 V 0 h -1.177979 q -0.08545,-0.1953125 -0.134277,-0.51879883 -0.04883,-0.32958984 -0.04883,-0.61035157 z m 0.195312,-2.8747558 0.01221,0.793457 h -1.141357 q -0.482178,0 -0.860596,0.079346 -0.378418,0.073242 -0.634765,0.2258301 -0.256348,0.1525879 -0.390625,0.3845214 -0.134278,0.2258301 -0.134278,0.5310059 0,0.3112793 0.140381,0.567627 0.140381,0.2563476 0.421143,0.4089355 0.286865,0.14648438 0.701904,0.14648438 0.518799,0 0.915527,-0.21972658 0.396729,-0.2197265 0.628662,-0.5371094 0.238038,-0.3173828 0.256348,-0.616455 l 0.482178,0.5432129 q -0.04273,0.2563476 -0.231934,0.5676269 -0.189209,0.31127931 -0.506592,0.59814454 -0.311279,0.28076172 -0.744628,0.4699707 -0.427247,0.18310547 -0.964356,0.18310547 -0.671387,0 -1.177978,-0.26245117 -0.500489,-0.26245117 -0.78125,-0.7019043 -0.274659,-0.44555664 -0.274659,-0.99487304 0,-0.5310059 0.20752,-0.9338379 0.207519,-0.4089355 0.598144,-0.6774902 0.390625,-0.2746582 0.939942,-0.4150391 0.549316,-0.1403808 1.226806,-0.1403808 z"
        />
        <path
          d="M 29.956055,-5.1940918 V 0 h -1.129151 v -6.6040039 h 1.068116 z m -0.268555,1.6418457 -0.469971,-0.018311 q 0.0061,-0.6774903 0.201416,-1.2512207 0.195313,-0.579834 0.549317,-1.0070801 0.354004,-0.4272461 0.842285,-0.6591797 0.494385,-0.2380371 1.092529,-0.2380371 0.488281,0 0.878906,0.1342773 0.390625,0.1281739 0.665284,0.4150391 0.280761,0.2868652 0.427246,0.7446289 0.146484,0.4516602 0.146484,1.1047363 V 0 h -1.135254 v -4.3395996 q 0,-0.5187988 -0.152588,-0.8300781 -0.152588,-0.3173828 -0.445556,-0.4577637 -0.292969,-0.1464844 -0.720215,-0.1464844 -0.421143,0 -0.769043,0.177002 -0.341797,0.1770019 -0.592041,0.4882812 -0.244141,0.3112793 -0.384522,0.7141114 -0.134277,0.3967285 -0.134277,0.8422851 z"
        />
        <path
          d="m 38.372803,-0.80566406 q 0.402832,0 0.744629,-0.16479492 0.341797,-0.16479492 0.561523,-0.45166012 0.219727,-0.2929688 0.250244,-0.6652832 h 1.074219 q -0.03052,0.5859375 -0.396729,1.09252925 -0.360107,0.50048828 -0.946044,0.81176758 -0.585938,0.30517578 -1.287842,0.30517578 -0.744629,0 -1.300049,-0.26245117 -0.549317,-0.26245117 -0.915527,-0.72021484 -0.360108,-0.4577637 -0.543213,-1.0498047 -0.177002,-0.5981445 -0.177002,-1.2634277 v -0.2563477 q 0,-0.6652832 0.177002,-1.2573242 0.183105,-0.5981445 0.543213,-1.0559082 0.36621,-0.4577637 0.915527,-0.7202148 0.55542,-0.2624512 1.300049,-0.2624512 0.775146,0 1.35498,0.3173828 0.579834,0.3112793 0.909424,0.8544922 0.335693,0.5371094 0.366211,1.2207031 h -1.074219 q -0.03052,-0.4089355 -0.231933,-0.7385254 -0.195313,-0.3295898 -0.53711,-0.5249023 -0.335693,-0.201416 -0.787353,-0.201416 -0.518799,0 -0.872803,0.2075195 -0.3479,0.201416 -0.55542,0.5493164 -0.201416,0.3417969 -0.292969,0.7629394 -0.08545,0.4150391 -0.08545,0.8483887 v 0.2563477 q 0,0.4333496 0.08545,0.8544922 0.08545,0.4211425 0.286866,0.7629394 0.207519,0.3417969 0.555419,0.5493164 0.354004,0.20141604 0.878907,0.20141604 z"
        />
        <path
          d="M 43.499756,-6.6040039 V 0 h -1.135254 v -6.6040039 z m -1.220703,-1.751709 q 0,-0.2746582 0.164795,-0.4638672 0.170898,-0.189209 0.500488,-0.189209 0.323486,0 0.494385,0.189209 0.177002,0.189209 0.177002,0.4638672 0,0.2624512 -0.177002,0.4516602 -0.170899,0.1831054 -0.494385,0.1831054 -0.32959,0 -0.500488,-0.1831054 -0.164795,-0.189209 -0.164795,-0.4516602 z"
        />
        <path
          d="M 46.44165,-5.1940918 V 0 H 45.3125 v -6.6040039 h 1.068115 z m -0.268554,1.6418457 -0.469971,-0.018311 q 0.0061,-0.6774903 0.201416,-1.2512207 0.195313,-0.579834 0.549316,-1.0070801 0.354004,-0.4272461 0.842286,-0.6591797 0.494384,-0.2380371 1.092529,-0.2380371 0.488281,0 0.878906,0.1342773 0.390625,0.1281739 0.665283,0.4150391 0.280762,0.2868652 0.427246,0.7446289 0.146485,0.4516602 0.146485,1.1047363 V 0 h -1.135254 v -4.3395996 q 0,-0.5187988 -0.152588,-0.8300781 -0.152588,-0.3173828 -0.445557,-0.4577637 -0.292968,-0.1464844 -0.720214,-0.1464844 -0.421143,0 -0.769043,0.177002 -0.341797,0.1770019 -0.592041,0.4882812 -0.244141,0.3112793 -0.384522,0.7141114 -0.134277,0.3967285 -0.134277,0.8422851 z"
        />
        <path
          d="m 56.494141,-6.6040039 h 1.02539 v 6.46362304 q 0,0.87280273 -0.354004,1.48925786 -0.354004,0.616455 -0.988769,0.9338378 -0.628662,0.3234864 -1.452637,0.3234864 -0.341797,0 -0.805664,-0.1098633 Q 53.460693,2.3925781 53.015137,2.1362305 52.575684,1.8859863 52.276611,1.4587402 l 0.592041,-0.67138668 q 0.415039,0.50048828 0.8667,0.69580078 0.457763,0.1953125 0.90332,0.1953125 0.537109,0 0.927734,-0.201416 0.390625,-0.201416 0.604248,-0.59814455 0.219727,-0.390625 0.219727,-0.96435547 V -5.1513672 Z m -4.54712,3.3752441 v -0.1281738 q 0,-0.7568359 0.177002,-1.373291 0.183106,-0.6225586 0.518799,-1.0681152 0.341797,-0.4455567 0.823975,-0.6835938 0.482178,-0.2441406 1.086426,-0.2441406 0.622558,0 1.086425,0.2197265 0.469971,0.2136231 0.793457,0.6286622 0.32959,0.4089355 0.518799,0.9887695 0.189209,0.579834 0.262451,1.3122558 v 0.5615235 q -0.06714,0.7263183 -0.262451,1.3061523 -0.189209,0.579834 -0.518799,0.98876956 -0.323486,0.40893554 -0.793457,0.62866211 -0.46997,0.21362304 -1.098632,0.21362304 -0.592041,0 -1.074219,-0.25024414 -0.476074,-0.25024414 -0.817871,-0.7019043 -0.341797,-0.45166017 -0.524903,-1.06201167 -0.177002,-0.6164551 -0.177002,-1.33667 z m 1.129151,-0.1281738 v 0.1281738 q 0,0.4943848 0.09766,0.9277344 0.10376,0.4333496 0.311279,0.7629395 0.213623,0.3295898 0.543213,0.5187988 0.32959,0.18310546 0.787354,0.18310546 0.561523,0 0.927734,-0.23803706 0.366211,-0.2380372 0.579834,-0.6286622 0.219727,-0.390625 0.341797,-0.8483886 V -4.0222168 Q 56.5979,-4.3579102 56.45752,-4.6691895 56.323242,-4.9865723 56.103516,-5.2307129 55.889893,-5.480957 55.57251,-5.6274414 q -0.317383,-0.1464844 -0.744629,-0.1464844 -0.463867,0 -0.799561,0.1953125 -0.32959,0.189209 -0.543213,0.5249024 -0.207519,0.3295898 -0.311279,0.7690429 -0.09766,0.4333496 -0.09766,0.9277344 z"
        />
        <path
          d="M 64.910889,0 H 63.05542 l 0.01221,-0.95825195 h 1.843262 q 0.952148,0 1.586914,-0.39672855 0.634765,-0.402832 0.952148,-1.1230468 0.323486,-0.7263184 0.323486,-1.6967774 v -0.5432129 q 0,-0.7629394 -0.183105,-1.3549804 -0.183105,-0.5981446 -0.537109,-1.0070801 -0.354004,-0.4150391 -0.8667,-0.6286621 -0.506591,-0.2136231 -1.165771,-0.2136231 h -2.001953 v -0.9643555 h 2.001953 q 0.872803,0 1.593018,0.2929688 0.720214,0.2868652 1.239013,0.8361816 0.524903,0.5432129 0.805664,1.3183594 0.280762,0.769043 0.280762,1.7333985 v 0.5310058 q 0,0.9643555 -0.280762,1.739502 -0.280761,0.7690429 -0.811767,1.3122558 -0.524903,0.54321292 -1.269532,0.83618167 Q 65.838623,0 64.910889,0 Z M 63.684082,-8.8867188 V 0 h -1.177978 v -8.8867188 z"
        />
        <path
          d="M 71.765137,-6.6040039 V 0 h -1.135254 v -6.6040039 z m -1.220703,-1.751709 q 0,-0.2746582 0.164795,-0.4638672 0.170898,-0.189209 0.500488,-0.189209 0.323486,0 0.494385,0.189209 0.177002,0.189209 0.177002,0.4638672 0,0.2624512 -0.177002,0.4516602 -0.170899,0.1831054 -0.494385,0.1831054 -0.32959,0 -0.500488,-0.1831054 -0.164795,-0.189209 -0.164795,-0.4516602 z"
        />
        <path
          d="m 77.856445,-6.6040039 h 1.025391 v 6.46362304 q 0,0.87280273 -0.354004,1.48925786 -0.354004,0.616455 -0.98877,0.9338378 -0.628662,0.3234864 -1.452636,0.3234864 -0.341797,0 -0.805664,-0.1098633 Q 74.822998,2.3925781 74.377441,2.1362305 73.937988,1.8859863 73.638916,1.4587402 l 0.592041,-0.67138668 q 0.415039,0.50048828 0.866699,0.69580078 0.457764,0.1953125 0.903321,0.1953125 0.537109,0 0.927734,-0.201416 0.390625,-0.201416 0.604248,-0.59814455 0.219727,-0.390625 0.219727,-0.96435547 V -5.1513672 Z m -4.547119,3.3752441 v -0.1281738 q 0,-0.7568359 0.177002,-1.373291 0.183106,-0.6225586 0.518799,-1.0681152 0.341797,-0.4455567 0.823975,-0.6835938 0.482177,-0.2441406 1.086425,-0.2441406 0.622559,0 1.086426,0.2197265 0.469971,0.2136231 0.793457,0.6286622 0.32959,0.4089355 0.518799,0.9887695 0.189209,0.579834 0.262451,1.3122558 v 0.5615235 q -0.06714,0.7263183 -0.262451,1.3061523 -0.189209,0.579834 -0.518799,0.98876956 -0.323486,0.40893554 -0.793457,0.62866211 -0.469971,0.21362304 -1.098633,0.21362304 -0.592041,0 -1.074218,-0.25024414 -0.476075,-0.25024414 -0.817872,-0.7019043 -0.341796,-0.45166017 -0.524902,-1.06201167 -0.177002,-0.6164551 -0.177002,-1.33667 z m 1.129151,-0.1281738 v 0.1281738 q 0,0.4943848 0.09766,0.9277344 0.10376,0.4333496 0.311279,0.7629395 0.213623,0.3295898 0.543213,0.5187988 0.32959,0.18310546 0.787354,0.18310546 0.561523,0 0.927734,-0.23803706 0.366211,-0.2380372 0.579834,-0.6286622 0.219726,-0.390625 0.341797,-0.8483886 v -1.4709473 q -0.06714,-0.3356934 -0.20752,-0.6469727 -0.134277,-0.3173828 -0.354004,-0.5615234 -0.213623,-0.2502441 -0.531006,-0.3967285 -0.317382,-0.1464844 -0.744628,-0.1464844 -0.463868,0 -0.799561,0.1953125 -0.32959,0.189209 -0.543213,0.5249024 -0.207519,0.3295898 -0.311279,0.7690429 -0.09766,0.4333496 -0.09766,0.9277344 z"
        />
        <path
          d="M 81.82373,-6.6040039 V 0 h -1.135253 v -6.6040039 z m -1.220703,-1.751709 q 0,-0.2746582 0.164795,-0.4638672 0.170899,-0.189209 0.500489,-0.189209 0.323486,0 0.494384,0.189209 0.177002,0.189209 0.177002,0.4638672 0,0.2624512 -0.177002,0.4516602 -0.170898,0.1831054 -0.494384,0.1831054 -0.32959,0 -0.500489,-0.1831054 -0.164795,-0.189209 -0.164795,-0.4516602 z"
        />
        <path
          d="m 86.401367,-6.6040039 v 0.8666992 h -3.570556 v -0.8666992 z m -2.36206,-1.6052246 h 1.12915 v 6.5734863 q 0,0.3356934 0.10376,0.5065918 0.10376,0.17089845 0.268554,0.22583009 0.164795,0.0549316 0.354004,0.0549316 0.140381,0 0.292969,-0.0244141 0.158692,-0.0305176 0.238037,-0.0488281 L 86.431885,0 q -0.134278,0.04272461 -0.354004,0.0793457 -0.213623,0.04272461 -0.518799,0.04272461 -0.415039,0 -0.762939,-0.16479492 -0.347901,-0.16479492 -0.55542,-0.54931641 -0.201416,-0.390625 -0.201416,-1.04980468 z"
        />
        <path
          d="m 91.619873,-1.1291504 v -3.3996582 q 0,-0.390625 -0.158691,-0.6774902 -0.152588,-0.2929688 -0.463868,-0.4516602 -0.311279,-0.1586914 -0.769043,-0.1586914 -0.427246,0 -0.750732,0.1464844 -0.317383,0.1464844 -0.500488,0.3845215 -0.177002,0.2380371 -0.177002,0.5126953 h -1.129151 q 0,-0.3540039 0.183106,-0.7019043 0.183105,-0.3479004 0.524902,-0.6286621 0.347901,-0.2868653 0.830078,-0.4516602 0.488282,-0.1708984 1.086426,-0.1708984 0.720215,0 1.269531,0.2441406 0.55542,0.2441406 0.8667,0.7385254 0.317382,0.4882812 0.317382,1.2268066 v 3.0761719 q 0,0.3295899 0.05493,0.70190431 0.06104,0.37231445 0.177002,0.64086914 V 0 h -1.177978 q -0.08545,-0.1953125 -0.134278,-0.51879883 -0.04883,-0.32958984 -0.04883,-0.61035157 z m 0.195313,-2.8747558 0.01221,0.793457 h -1.141358 q -0.482178,0 -0.860596,0.079346 -0.378418,0.073242 -0.634765,0.2258301 -0.256348,0.1525879 -0.390625,0.3845214 -0.134278,0.2258301 -0.134278,0.5310059 0,0.3112793 0.140381,0.567627 0.140381,0.2563476 0.421143,0.4089355 0.286865,0.14648438 0.701904,0.14648438 0.518799,0 0.915528,-0.21972658 0.396728,-0.2197265 0.628662,-0.5371094 0.238037,-0.3173828 0.256347,-0.616455 l 0.482178,0.5432129 q -0.04272,0.2563476 -0.231934,0.5676269 -0.189209,0.31127931 -0.506591,0.59814454 -0.31128,0.28076172 -0.744629,0.4699707 -0.427246,0.18310547 -0.964356,0.18310547 -0.671386,0 -1.177978,-0.26245117 -0.500489,-0.26245117 -0.78125,-0.7019043 -0.274658,-0.44555664 -0.274658,-0.99487304 0,-0.5310059 0.207519,-0.9338379 0.20752,-0.4089355 0.598145,-0.6774902 0.390625,-0.2746582 0.939941,-0.4150391 0.549316,-0.1403808 1.226807,-0.1403808 z"
        />
        <path d="M 95.751953,-9.375 V 0 h -1.135254 v -9.375 z" />
        <path
          d="m 106.64063,-5.065918 v 0.958252 h -4.80958 v -0.958252 z m -4.62647,-3.8208008 V 0 h -1.17798 v -8.8867188 z m 5.65186,0 V 0 h -1.17188 v -8.8867188 z"
        />
        <path
          d="m 112.323,0.12207031 q -0.6897,0 -1.25122,-0.23193359 -0.55542,-0.23803711 -0.95825,-0.6652832 -0.39673,-0.42724612 -0.61036,-1.01318362 -0.21362,-0.5859375 -0.21362,-1.2817383 V -3.326416 q 0,-0.8056641 0.23804,-1.4343262 0.23804,-0.6347656 0.64697,-1.0742187 0.40894,-0.4394532 0.92773,-0.6652832 0.5188,-0.2258301 1.07422,-0.2258301 0.70801,0 1.22071,0.2441406 0.5188,0.2441406 0.84839,0.6835938 0.32959,0.4333496 0.48828,1.0253906 0.15869,0.5859375 0.15869,1.2817383 v 0.5065918 h -4.93164 V -3.90625 h 3.80249 v -0.085449 q -0.0244,-0.4394531 -0.18311,-0.8544922 -0.15259,-0.4150391 -0.48828,-0.6835938 -0.33569,-0.2685546 -0.91553,-0.2685546 -0.38452,0 -0.708,0.1647949 -0.32349,0.1586914 -0.55542,0.4760742 -0.23194,0.3173828 -0.36011,0.7751465 -0.12818,0.4577637 -0.12818,1.0559082 v 0.2563476 q 0,0.4699707 0.12818,0.8850098 0.13428,0.4089356 0.38452,0.7202149 0.25635,0.3112792 0.61646,0.4882812 0.36621,0.17700195 0.83007,0.17700195 0.59815,0 1.01319,-0.24414065 0.41504,-0.2441406 0.72632,-0.6530761 l 0.68359,0.5432128 q -0.21362,0.32348637 -0.54321,0.61645513 -0.32959,0.29296874 -0.81177,0.47607421 -0.47608,0.18310547 -1.12915,0.18310527 z"
        />
        <path
          d="m 120.10498,-1.1291504 v -3.3996582 q 0,-0.390625 -0.15869,-0.6774902 -0.15259,-0.2929688 -0.46387,-0.4516602 -0.31128,-0.1586914 -0.76904,-0.1586914 -0.42725,0 -0.75073,0.1464844 -0.31739,0.1464844 -0.50049,0.3845215 -0.177,0.2380371 -0.177,0.5126953 h -1.12915 q 0,-0.3540039 0.1831,-0.7019043 0.18311,-0.3479004 0.5249,-0.6286621 0.3479,-0.2868653 0.83008,-0.4516602 0.48828,-0.1708984 1.08643,-0.1708984 0.72021,0 1.26953,0.2441406 0.55542,0.2441406 0.8667,0.7385254 0.31738,0.4882812 0.31738,1.2268066 v 3.0761719 q 0,0.3295899 0.0549,0.70190431 0.061,0.37231445 0.177,0.64086914 V 0 h -1.17797 q -0.0854,-0.1953125 -0.13428,-0.51879883 -0.0488,-0.32958984 -0.0488,-0.61035157 z m 0.19531,-2.8747558 0.0122,0.793457 h -1.14136 q -0.48218,0 -0.86059,0.079346 -0.37842,0.073242 -0.63477,0.2258301 -0.25635,0.1525879 -0.39062,0.3845214 -0.13428,0.2258301 -0.13428,0.5310059 0,0.3112793 0.14038,0.567627 0.14038,0.2563476 0.42114,0.4089355 0.28687,0.14648438 0.70191,0.14648438 0.5188,0 0.91552,-0.21972658 0.39673,-0.2197265 0.62867,-0.5371094 0.23803,-0.3173828 0.25634,-0.616455 l 0.48218,0.5432129 q -0.0427,0.2563476 -0.23193,0.5676269 -0.18921,0.31127931 -0.50659,0.59814454 -0.31128,0.28076172 -0.74463,0.4699707 -0.42725,0.18310547 -0.96436,0.18310547 -0.67138,0 -1.17798,-0.26245117 -0.50049,-0.26245117 -0.78125,-0.7019043 -0.27465,-0.44555664 -0.27465,-0.99487304 0,-0.5310059 0.20751,-0.9338379 0.20752,-0.4089355 0.59815,-0.6774902 0.39062,-0.2746582 0.93994,-0.4150391 0.54932,-0.1403808 1.22681,-0.1403808 z"
        />
        <path d="M 124.23706,-9.375 V 0 h -1.13525 v -9.375 z" />
        <path
          d="m 128.8147,-6.6040039 v 0.8666992 h -3.57056 v -0.8666992 z m -2.36206,-1.6052246 h 1.12915 v 6.5734863 q 0,0.3356934 0.10376,0.5065918 0.10376,0.17089845 0.26855,0.22583009 0.1648,0.0549316 0.35401,0.0549316 0.14038,0 0.29296,-0.0244141 0.1587,-0.0305176 0.23804,-0.0488281 L 128.84521,0 q -0.13427,0.04272461 -0.354,0.0793457 -0.21362,0.04272461 -0.5188,0.04272461 -0.41504,0 -0.76294,-0.16479492 -0.3479,-0.16479492 -0.55542,-0.54931641 -0.20141,-0.390625 -0.20141,-1.04980468 z"
        />
        <path
          d="M 131.26831,-9.375 V 0 h -1.12915 v -9.375 z m -0.26855,5.8227539 -0.46997,-0.018311 q 0.006,-0.6774903 0.20141,-1.2512207 0.19531,-0.579834 0.54932,-1.0070801 0.354,-0.4272461 0.84228,-0.6591797 0.49439,-0.2380371 1.09253,-0.2380371 0.48828,0 0.87891,0.1342773 0.39062,0.1281739 0.66528,0.4150391 0.28076,0.2868652 0.42725,0.7446289 0.14648,0.4516602 0.14648,1.1047363 V 0 H 134.198 v -4.3395996 q 0,-0.5187988 -0.15259,-0.8300781 -0.15259,-0.3173828 -0.44556,-0.4577637 -0.29297,-0.1464844 -0.72021,-0.1464844 -0.42114,0 -0.76904,0.177002 -0.3418,0.1770019 -0.59205,0.4882812 -0.24414,0.3112793 -0.38452,0.7141114 -0.13427,0.3967285 -0.13427,0.8422851 z"
        />
        <path
          d="m 141.76636,-4.9316406 1.33056,-0.9460449 q 0.38453,-0.2624512 0.59204,-0.5249024 0.21363,-0.2685547 0.21363,-0.7324219 0,-0.3601074 -0.28076,-0.6530761 -0.28077,-0.2990723 -0.79346,-0.2990723 -0.354,0 -0.59815,0.1647949 -0.24414,0.1647949 -0.36621,0.4394531 -0.12207,0.2685547 -0.12207,0.5920411 0,0.2746582 0.13428,0.5676269 0.13428,0.2929688 0.37232,0.6103516 0.23803,0.3173828 0.54321,0.6713867 L 146.99707,0 h -1.35498 l -3.44849,-4.1259766 q -0.45776,-0.5371093 -0.81787,-0.982666 -0.36011,-0.4516601 -0.56762,-0.8728027 -0.20142,-0.4211426 -0.20142,-0.8728027 0,-0.6958008 0.27466,-1.171875 0.28076,-0.4821778 0.78125,-0.7324219 0.50049,-0.2502442 1.17187,-0.2502442 0.65308,0 1.12305,0.2624512 0.47607,0.2563477 0.73242,0.6835938 0.25635,0.4211425 0.25635,0.9277343 0,0.4272461 -0.15259,0.769043 -0.15259,0.3356934 -0.42724,0.6164551 -0.26856,0.2807617 -0.62867,0.5493164 l -1.76391,1.3122558 q -0.43946,0.3234864 -0.64087,0.6164551 -0.20142,0.2929688 -0.26245,0.5187989 -0.0549,0.22583 -0.0549,0.3601074 0,0.4333496 0.18921,0.793457 0.18921,0.3601074 0.57373,0.579834 0.39063,0.21362304 0.97657,0.21362304 0.51269,0 0.99487,-0.23193364 0.48828,-0.2380371 0.8728,-0.6713867 0.38452,-0.4394531 0.61035,-1.0437011 0.23194,-0.6103516 0.23194,-1.348877 h 1.01318 q 0,0.604248 -0.11597,1.1413574 -0.11596,0.5371094 -0.3601,1.0009766 -0.23804,0.4577637 -0.61035,0.8361816 -0.0549,0.054932 -0.0855,0.12817385 -0.0305,0.0732422 -0.0855,0.12817383 -0.45777,0.49438477 -1.12915,0.74462891 -0.66529,0.24414062 -1.33667,0.24414062 -0.88501,0 -1.53199,-0.32348633 -0.64086,-0.32348632 -0.98877,-0.89111328 -0.3479,-0.5676269 -0.3479,-1.3000488 0,-0.5615235 0.23804,-0.9887696 0.24414,-0.4272461 0.66528,-0.7995605 0.42725,-0.3723145 0.97657,-0.7507324 z"
        />
        <path
          d="m 158.01392,-4.7241211 v 0.5615234 q 0,1.0009766 -0.25025,1.7944336 -0.25024,0.7934571 -0.72021,1.348877 -0.46997,0.55541991 -1.12915,0.84838866 -0.65308,0.29296875 -1.46485,0.29296875 -0.78735,0 -1.44653,-0.29296875 -0.65308,-0.29296875 -1.13525,-0.84838866 -0.47608,-0.5554199 -0.73853,-1.348877 -0.26245,-0.793457 -0.26245,-1.7944336 v -0.5615234 q 0,-1.0009766 0.25635,-1.7883301 0.26245,-0.793457 0.73852,-1.3488769 0.47608,-0.5615235 1.12915,-0.8544922 0.65918,-0.2929688 1.44654,-0.2929688 0.81176,0 1.46484,0.2929688 0.65918,0.2929687 1.12915,0.8544922 0.47607,0.5554199 0.72632,1.3488769 0.25635,0.7873535 0.25635,1.7883301 z m -1.16578,0.5615234 v -0.5737304 q 0,-0.7934571 -0.16479,-1.4038086 -0.15869,-0.6103516 -0.46997,-1.0253906 -0.31128,-0.4150391 -0.76294,-0.6286622 -0.44556,-0.213623 -1.01318,-0.213623 -0.54932,0 -0.99488,0.213623 -0.43945,0.2136231 -0.75683,0.6286622 -0.31128,0.415039 -0.48218,1.0253906 -0.1709,0.6103515 -0.1709,1.4038086 v 0.5737304 q 0,0.7995606 0.1709,1.4160157 0.1709,0.6103515 0.48828,1.0314941 0.32349,0.4150391 0.76294,0.6286621 0.44556,0.21362307 0.99487,0.21362307 0.57373,0 1.01929,-0.21362307 0.44556,-0.213623 0.75073,-0.6286621 0.31128,-0.4211426 0.46997,-1.0314941 0.15869,-0.6164551 0.15869,-1.4160157 z"
        />
        <path
          d="m 160.72998,-5.3344727 v 7.8735352 h -1.13525 v -9.1430664 h 1.03759 z m 4.44946,1.9775391 v 0.1281738 q 0,0.7202149 -0.1709,1.33667 -0.17089,0.6103515 -0.50048,1.06201167 -0.32349,0.45166016 -0.79956,0.7019043 -0.47608,0.25024414 -1.09253,0.25024414 -0.62867,0 -1.11084,-0.20751953 -0.48218,-0.20751953 -0.81787,-0.60424805 -0.3357,-0.39672853 -0.53711,-0.95214843 -0.19532,-0.5554199 -0.26856,-1.2512207 v -0.6835938 q 0.0732,-0.7324218 0.27466,-1.3122558 0.20142,-0.579834 0.53101,-0.9887695 0.33569,-0.4150391 0.81176,-0.6286622 0.47608,-0.2197265 1.09864,-0.2197265 0.62255,0 1.10473,0.2441406 0.48218,0.2380371 0.81177,0.6835938 0.32959,0.4455566 0.49438,1.0681152 0.1709,0.6164551 0.1709,1.373291 z m -1.13525,0.1281738 v -0.1281738 q 0,-0.4943848 -0.10376,-0.9277344 -0.10376,-0.4394531 -0.32349,-0.7690429 -0.21362,-0.3356934 -0.54931,-0.5249024 -0.3357,-0.1953125 -0.79956,-0.1953125 -0.42725,0 -0.74463,0.1464844 -0.31128,0.1464844 -0.53101,0.3967285 -0.21972,0.2441406 -0.36011,0.5615234 -0.13427,0.3112793 -0.20141,0.6469727 v 1.5808105 q 0.12207,0.4272461 0.3418,0.8056641 0.21972,0.3723145 0.58593,0.6042481 0.36621,0.22583004 0.92163,0.22583004 0.45777,0 0.78736,-0.18920899 0.33569,-0.19531245 0.54931,-0.53100585 0.21973,-0.3356934 0.32349,-0.769043 0.10376,-0.4394531 0.10376,-0.9338379 z"
        />
        <path
          d="m 169.36035,0.12207031 q -0.6897,0 -1.25122,-0.23193359 -0.55542,-0.23803711 -0.95825,-0.6652832 -0.39673,-0.42724612 -0.61035,-1.01318362 -0.21363,-0.5859375 -0.21363,-1.2817383 V -3.326416 q 0,-0.8056641 0.23804,-1.4343262 0.23804,-0.6347656 0.64697,-1.0742187 0.40894,-0.4394532 0.92774,-0.6652832 0.5188,-0.2258301 1.07422,-0.2258301 0.708,0 1.2207,0.2441406 0.5188,0.2441406 0.84839,0.6835938 0.32959,0.4333496 0.48828,1.0253906 0.15869,0.5859375 0.15869,1.2817383 v 0.5065918 h -4.93164 V -3.90625 h 3.80249 v -0.085449 q -0.0244,-0.4394531 -0.1831,-0.8544922 -0.15259,-0.4150391 -0.48829,-0.6835938 -0.33569,-0.2685546 -0.91552,-0.2685546 -0.38452,0 -0.70801,0.1647949 -0.32349,0.1586914 -0.55542,0.4760742 -0.23193,0.3173828 -0.36011,0.7751465 -0.12817,0.4577637 -0.12817,1.0559082 v 0.2563476 q 0,0.4699707 0.12817,0.8850098 0.13428,0.4089356 0.38452,0.7202149 0.25635,0.3112792 0.61646,0.4882812 0.36621,0.17700195 0.83008,0.17700195 0.59814,0 1.01318,-0.24414065 0.41504,-0.2441406 0.72632,-0.6530761 l 0.68359,0.5432128 q -0.21362,0.32348637 -0.54321,0.61645513 -0.32959,0.29296874 -0.81177,0.47607421 -0.47607,0.18310547 -1.12915,0.18310527 z"
        />
        <path
          d="M 174.37744,-5.1940918 V 0 h -1.12915 v -6.6040039 h 1.06812 z m -0.26855,1.6418457 -0.46997,-0.018311 q 0.006,-0.6774903 0.20141,-1.2512207 0.19531,-0.579834 0.54932,-1.0070801 0.354,-0.4272461 0.84228,-0.6591797 0.49439,-0.2380371 1.09253,-0.2380371 0.48828,0 0.87891,0.1342773 0.39062,0.1281739 0.66528,0.4150391 0.28076,0.2868652 0.42725,0.7446289 0.14648,0.4516602 0.14648,1.1047363 V 0 h -1.13525 v -4.3395996 q 0,-0.5187988 -0.15259,-0.8300781 -0.15259,-0.3173828 -0.44556,-0.4577637 -0.29296,-0.1464844 -0.72021,-0.1464844 -0.42114,0 -0.76904,0.177002 -0.3418,0.1770019 -0.59204,0.4882812 -0.24415,0.3112793 -0.38453,0.7141114 -0.13427,0.3967285 -0.13427,0.8422851 z"
        />
        <path
          d="m 188.15918,-2.2460938 q 0,-0.3112792 -0.0977,-0.5493164 -0.0916,-0.2441406 -0.32959,-0.4394531 -0.23193,-0.1953125 -0.64697,-0.3723144 -0.40893,-0.177002 -1.0376,-0.3601075 -0.65918,-0.1953125 -1.19018,-0.4333496 -0.53101,-0.2441406 -0.90943,-0.5554199 -0.37841,-0.3112793 -0.57983,-0.7141113 -0.20142,-0.402832 -0.20142,-0.9216309 0,-0.5187988 0.21363,-0.9582519 0.21362,-0.4394532 0.61035,-0.7629395 0.40283,-0.3295898 0.95825,-0.5126953 0.55542,-0.1831055 1.23901,-0.1831055 1.00098,0 1.69678,0.3845215 0.70191,0.378418 1.06812,0.9948731 0.36621,0.6103515 0.36621,1.3061523 h -1.17188 q 0,-0.5004883 -0.21362,-0.8850098 -0.21362,-0.390625 -0.64697,-0.6103515 -0.43335,-0.2258301 -1.09864,-0.2258301 -0.62866,0 -1.03759,0.189209 -0.40894,0.189209 -0.61036,0.5126953 -0.19531,0.3234863 -0.19531,0.7385254 0,0.2807617 0.11597,0.5126953 0.12207,0.2258301 0.37231,0.4211426 0.25635,0.1953125 0.64698,0.3601074 0.39672,0.1647949 0.94604,0.3173828 0.75684,0.2136231 1.30615,0.4760742 0.54932,0.2624512 0.90332,0.5920411 0.36011,0.3234863 0.53101,0.7385253 0.177,0.4089356 0.177,0.9277344 0,0.5432129 -0.21972,0.982666 -0.21973,0.43945316 -0.62867,0.75073246 -0.40893,0.31127929 -0.98266,0.48217773 -0.56763,0.16479492 -1.26953,0.16479492 -0.61646,0 -1.2146,-0.17089843 -0.59204,-0.17089844 -1.08033,-0.51269532 -0.48217,-0.34179687 -0.77514,-0.84228516 -0.28687,-0.5065918 -0.28687,-1.171875 h 1.17188 q 0,0.4577637 0.177,0.7873535 0.177,0.3234864 0.48218,0.5371094 0.31128,0.213623 0.7019,0.31738281 0.39673,0.0976563 0.82398,0.0976563 0.61645,0 1.0437,-0.17089841 0.42724,-0.1708984 0.64697,-0.4882812 0.22583,-0.3173828 0.22583,-0.7507326 z"
        />
        <path
          d="m 193.31665,-0.80566406 q 0.40283,0 0.74463,-0.16479492 0.3418,-0.16479492 0.56152,-0.45166012 0.21973,-0.2929688 0.25025,-0.6652832 h 1.07422 q -0.0305,0.5859375 -0.39673,1.09252925 -0.36011,0.50048828 -0.94605,0.81176758 -0.58594,0.30517578 -1.28784,0.30517578 -0.74463,0 -1.30005,-0.26245117 -0.54931,-0.26245117 -0.91553,-0.72021484 -0.3601,-0.4577637 -0.54321,-1.0498047 -0.177,-0.5981445 -0.177,-1.2634277 v -0.2563477 q 0,-0.6652832 0.177,-1.2573242 0.18311,-0.5981445 0.54321,-1.0559082 0.36622,-0.4577637 0.91553,-0.7202148 0.55542,-0.2624512 1.30005,-0.2624512 0.77515,0 1.35498,0.3173828 0.57983,0.3112793 0.90942,0.8544922 0.3357,0.5371094 0.36622,1.2207031 h -1.07422 q -0.0305,-0.4089355 -0.23194,-0.7385254 -0.19531,-0.3295898 -0.53711,-0.5249023 -0.33569,-0.201416 -0.78735,-0.201416 -0.5188,0 -0.8728,0.2075195 -0.3479,0.201416 -0.55542,0.5493164 -0.20142,0.3417969 -0.29297,0.7629394 -0.0855,0.4150391 -0.0855,0.8483887 v 0.2563477 q 0,0.4333496 0.0855,0.8544922 0.0855,0.4211425 0.28686,0.7629394 0.20752,0.3417969 0.55542,0.5493164 0.35401,0.20141604 0.87891,0.20141604 z"
        />
        <path
          d="M 198.4436,-6.6040039 V 0 h -1.13525 v -6.6040039 z m -1.2207,-1.751709 q 0,-0.2746582 0.1648,-0.4638672 0.17089,-0.189209 0.50048,-0.189209 0.32349,0 0.49439,0.189209 0.177,0.189209 0.177,0.4638672 0,0.2624512 -0.177,0.4516602 -0.1709,0.1831054 -0.49439,0.1831054 -0.32959,0 -0.50048,-0.1831054 -0.1648,-0.189209 -0.1648,-0.4516602 z"
        />
        <path
          d="m 202.99683,0.12207031 q -0.6897,0 -1.25122,-0.23193359 -0.55542,-0.23803711 -0.95826,-0.6652832 -0.39673,-0.42724612 -0.61035,-1.01318362 -0.21362,-0.5859375 -0.21362,-1.2817383 V -3.326416 q 0,-0.8056641 0.23804,-1.4343262 0.23803,-0.6347656 0.64697,-1.0742187 0.40893,-0.4394532 0.92773,-0.6652832 0.5188,-0.2258301 1.07422,-0.2258301 0.70801,0 1.2207,0.2441406 0.5188,0.2441406 0.84839,0.6835938 0.32959,0.4333496 0.48828,1.0253906 0.1587,0.5859375 0.1587,1.2817383 v 0.5065918 h -4.93164 V -3.90625 h 3.80249 v -0.085449 q -0.0244,-0.4394531 -0.18311,-0.8544922 -0.15259,-0.4150391 -0.48828,-0.6835938 -0.33569,-0.2685546 -0.91553,-0.2685546 -0.38452,0 -0.70801,0.1647949 -0.32348,0.1586914 -0.55542,0.4760742 -0.23193,0.3173828 -0.3601,0.7751465 -0.12818,0.4577637 -0.12818,1.0559082 v 0.2563476 q 0,0.4699707 0.12818,0.8850098 0.13427,0.4089356 0.38452,0.7202149 0.25635,0.3112792 0.61645,0.4882812 0.36621,0.17700195 0.83008,0.17700195 0.59815,0 1.01318,-0.24414065 0.41504,-0.2441406 0.72632,-0.6530761 l 0.6836,0.5432128 q -0.21363,0.32348637 -0.54322,0.61645513 -0.32959,0.29296874 -0.81176,0.47607421 -0.47608,0.18310547 -1.12915,0.18310527 z"
        />
        <path
          d="M 208.01392,-5.1940918 V 0 h -1.12915 v -6.6040039 h 1.06811 z m -0.26856,1.6418457 -0.46997,-0.018311 q 0.006,-0.6774903 0.20142,-1.2512207 0.19531,-0.579834 0.54931,-1.0070801 0.35401,-0.4272461 0.84229,-0.6591797 0.49438,-0.2380371 1.09253,-0.2380371 0.48828,0 0.8789,0.1342773 0.39063,0.1281739 0.66529,0.4150391 0.28076,0.2868652 0.42724,0.7446289 0.14649,0.4516602 0.14649,1.1047363 V 0 h -1.13526 v -4.3395996 q 0,-0.5187988 -0.15258,-0.8300781 -0.15259,-0.3173828 -0.44556,-0.4577637 -0.29297,-0.1464844 -0.72022,-0.1464844 -0.42114,0 -0.76904,0.177002 -0.3418,0.1770019 -0.59204,0.4882812 -0.24414,0.3112793 -0.38452,0.7141114 -0.13428,0.3967285 -0.13428,0.8422851 z"
        />
        <path
          d="m 216.43066,-0.80566406 q 0.40284,0 0.74463,-0.16479492 0.3418,-0.16479492 0.56153,-0.45166012 0.21972,-0.2929688 0.25024,-0.6652832 h 1.07422 q -0.0305,0.5859375 -0.39673,1.09252925 -0.36011,0.50048828 -0.94604,0.81176758 -0.58594,0.30517578 -1.28785,0.30517578 -0.74462,0 -1.30004,-0.26245117 -0.54932,-0.26245117 -0.91553,-0.72021484 -0.36011,-0.4577637 -0.54322,-1.0498047 -0.177,-0.5981445 -0.177,-1.2634277 v -0.2563477 q 0,-0.6652832 0.177,-1.2573242 0.18311,-0.5981445 0.54322,-1.0559082 0.36621,-0.4577637 0.91553,-0.7202148 0.55542,-0.2624512 1.30004,-0.2624512 0.77515,0 1.35498,0.3173828 0.57984,0.3112793 0.90943,0.8544922 0.33569,0.5371094 0.36621,1.2207031 h -1.07422 q -0.0305,-0.4089355 -0.23193,-0.7385254 -0.19532,-0.3295898 -0.53711,-0.5249023 -0.3357,-0.201416 -0.78736,-0.201416 -0.51879,0 -0.8728,0.2075195 -0.3479,0.201416 -0.55542,0.5493164 -0.20141,0.3417969 -0.29297,0.7629394 -0.0855,0.4150391 -0.0855,0.8483887 v 0.2563477 q 0,0.4333496 0.0855,0.8544922 0.0854,0.4211425 0.28687,0.7629394 0.20752,0.3417969 0.55542,0.5493164 0.354,0.20141604 0.8789,0.20141604 z"
        />
        <path
          d="m 223.07129,0.12207031 q -0.6897,0 -1.25122,-0.23193359 -0.55542,-0.23803711 -0.95825,-0.6652832 -0.39673,-0.42724612 -0.61036,-1.01318362 -0.21362,-0.5859375 -0.21362,-1.2817383 V -3.326416 q 0,-0.8056641 0.23804,-1.4343262 0.23804,-0.6347656 0.64697,-1.0742187 0.40894,-0.4394532 0.92774,-0.6652832 0.51879,-0.2258301 1.07421,-0.2258301 0.70801,0 1.22071,0.2441406 0.5188,0.2441406 0.84839,0.6835938 0.32959,0.4333496 0.48828,1.0253906 0.15869,0.5859375 0.15869,1.2817383 v 0.5065918 h -4.93164 V -3.90625 h 3.80249 v -0.085449 q -0.0244,-0.4394531 -0.18311,-0.8544922 -0.15258,-0.4150391 -0.48828,-0.6835938 -0.33569,-0.2685546 -0.91553,-0.2685546 -0.38452,0 -0.708,0.1647949 -0.32349,0.1586914 -0.55542,0.4760742 -0.23194,0.3173828 -0.36011,0.7751465 -0.12817,0.4577637 -0.12817,1.0559082 v 0.2563476 q 0,0.4699707 0.12817,0.8850098 0.13428,0.4089356 0.38452,0.7202149 0.25635,0.3112792 0.61646,0.4882812 0.36621,0.17700195 0.83007,0.17700195 0.59815,0 1.01319,-0.24414065 0.41504,-0.2441406 0.72632,-0.6530761 l 0.68359,0.5432128 q -0.21362,0.32348637 -0.54321,0.61645513 -0.32959,0.29296874 -0.81177,0.47607421 -0.47607,0.18310547 -1.12915,0.18310527 z"
        />
      </g>
    </g>
  </g>
</svg>
