<svg xmlns="http://www.w3.org/2000/svg" viewBox="0 0 1326.8292 311.36206" width="2653.6584" height="622.72412">

  <title xml:lang="en">Open Research Funders Group</title>

  <style>
    :root {
      --color-text: rgb(0 0 0);
    }

    .text {
      fill: var(--color-text);
    }

    @media screen and (forced-colors: active) {
      :root {
        --color-text: CanvasText;
      }

      .dots circle {
        fill: var(--color-text);
      }
    }
  </style>

  <g transform="translate(-0.41520691,-0.5)">
    <g class="dots">
      <circle cx="20.487217" cy="169.38551" r="20.07201" fill="#c3e1f2" />
      <circle cx="86.910034" cy="169.61143" r="20.07201" fill="#81c1e6" />
      <circle cx="153.51262" cy="169.61143" r="20.07201" fill="#198ed2" />
    </g>

    <g class="text">
      <path
        d="m 521,310.96733 -8.5,-0.89475 -9.8718,-2.50959 -9.87179,-2.50958 -8.3657,-4.04923 -8.3657,-4.04923 -6.43577,-6.02035 -6.43578,-6.02036 -3.04795,-4.74981 -3.04794,-4.74981 -1.58985,-4.45731 -1.58985,-4.45731 -0.80983,-4.25 -0.80983,-4.25 h 29.99482 29.99483 l 3.80514,4.32287 3.80514,4.32287 5.82093,3.08876 5.82093,3.08876 6.30322,1.22894 6.30322,1.22895 6.69678,-0.5733 6.69678,-0.5733 3.77228,-1.59 3.77227,-1.59 4.05541,-3.66382 4.05541,-3.66382 2.4895,-4.91281 2.48951,-4.9128 1.43281,-7.48862 L 581,238.82406 v -5.48012 -5.48013 l -2.80738,1.99903 -2.80737,1.99903 -6.94263,3.45274 -6.94262,3.45274 -5.53149,1.58074 -5.53149,1.58073 -8.56356,0.97306 -8.56357,0.97306 -10.08143,-0.94858 -10.08143,-0.94859 -8.77417,-2.54265 -8.77417,-2.54266 -7.59816,-3.953 -7.59816,-3.95299 -6.22503,-5.24324 -6.22502,-5.24323 -4.11975,-5.5 -4.11974,-5.5 -3.36234,-7.02869 -3.36234,-7.02869 -1.47671,-6.97131 -1.47671,-6.97131 -0.0174,-11.09004 -0.0174,-11.09003 1.9901,-7.90997 1.9901,-7.90996 4.6717,-9.5 4.67169,-9.5 9.58821,-9.54986 9.5882,-9.54985 9.03866,-4.638074 9.03867,-4.638071 7.46133,-2.166979 7.46134,-2.166978 14.14876,-0.517999 14.14876,-0.517999 7.39451,1.645122 7.39451,1.645123 6.43183,3.041777 6.43184,3.041778 4.19319,3.436 4.19319,3.43601 h 0.58171 0.5817 V 99.5 94 h 29.5 29.5 c -0.004,46.83333 -0.008,93.66667 -0.012,140.5 l -1.44637,9.5 -1.44638,9.5 -2.00257,5.7753 -2.00258,5.7753 -3.29515,6.19796 -3.29516,6.19796 -5.96878,6.38805 -5.96878,6.38805 -5.99639,4.07207 -5.99639,4.07207 -7.60187,3.20606 -7.60187,3.20607 -8.43296,2.09533 -8.43296,2.09533 -7,0.9617 -7,0.9617 -13.5,0.48456 -13.5,0.48456 -8.5,-0.89474 z m 35.46504,-113.50024 5.88523,-1.53291 4.93367,-2.68524 4.93366,-2.68523 3.3832,-3.95251 3.3832,-3.95251 2.10662,-5.57934 2.10662,-5.57935 -0.4367,-7.06717 -0.4367,-7.06717 -2.85832,-5.25168 -2.85833,-5.25168 -3.3314,-2.92501 -3.3314,-2.92501 -3.95087,-2.01559 -3.95088,-2.01558 -6.77132,-1.59324 -6.77132,-1.59324 -8.5,0.49111 -8.5,0.49111 -6,2.27406 -6,2.27407 -6.17267,6.16758 -6.17266,6.16759 -1.69998,5.8477 -1.69997,5.84771 0.48978,6.10163 0.48978,6.10163 2.139,4.19279 2.139,4.19278 2.92501,3.3314 2.92501,3.3314 4.92348,2.6797 4.92348,2.6797 5.39537,1.45089 5.39537,1.4509 7.5399,0.0658 7.5399,0.0658 5.88524,-1.53291 z"
      />
      <path
        d="m 1279,248 v -35 h 2 2 v 4.82858 4.82859 l 4.4558,-4.26937 4.4557,-4.26936 3.7943,-1.05364 3.7942,-1.05365 h 3.5 3.5 l 4,1.09073 4,1.09073 5.0588,5.18508 5.0589,5.18509 1.3133,4.69088 1.3134,4.69088 -0.4304,5.9503 -0.4304,5.9503 -2.9655,4.7965 -2.9654,4.79651 -4.2695,3.00067 -4.2694,3.00067 -6.8656,0.38794 -6.8656,0.38794 -3.5297,-1.1649 -3.5296,-1.1649 -4.0617,-3.94167 L 1283,252.00222 V 267.50111 283 h -2 -2 z m 31.2821,8.64 3.2179,-1.36 2.8429,-2.86922 2.8428,-2.86921 1.491,-2.8833 1.491,-2.88331 0.4948,-5.13748 0.4947,-5.13748 -2.8286,-5.49381 -2.8286,-5.49381 -4.3124,-2.98952 -4.3125,-2.98953 H 1303 h -5.8751 l -4.3125,2.98953 -4.3124,2.98952 -2.8286,5.49381 -2.8286,5.49381 0.4947,5.13748 0.4948,5.13748 1.491,2.88331 1.491,2.8833 2.8428,2.86788 2.8429,2.86788 3,1.32219 3,1.3222 4.2821,0.0391 4.2821,0.0391 3.2179,-1.36 z"
      />
      <path
        d="m 1179.981,260.05041 -3.5191,-1.8612 -2.8315,-2.8315 -2.8315,-2.8315 -1.8457,-3.61803 -1.8458,-3.61803 -0.6644,-5.00838 -0.6644,-5.00838 1.5738,-5.41354 1.5737,-5.41355 3.4935,-4.08129 3.4934,-4.08129 5.2274,-2.24875 5.2273,-2.24875 5.7387,0.4151 5.7387,0.4151 4.801,2.96822 4.801,2.96823 3.0147,4.87618 3.0147,4.87618 0.3669,7.26395 0.3668,7.26396 -1.1346,3.43794 -1.1347,3.43793 -3.6646,4.28133 -3.6647,4.28133 -4.0558,1.8422 -4.0558,1.84221 -6.5,-0.0222 -6.5,-0.0222 -3.519,-1.8612 z m 19.4774,-4.32535 3.9584,-2.24203 2.9564,-4.20646 2.9564,-4.20646 0.4612,-5.56093 0.4612,-5.56093 -1.6569,-4.33829 -1.6568,-4.33829 -3.6021,-3.60218 -3.6022,-3.60218 -3.4856,-1.15034 -3.4856,-1.15034 -4.4943,0.50657 -4.4943,0.50658 -4.0825,2.86926 -4.0824,2.86926 -2.5202,4.89721 -2.5202,4.8972 0.074,5.10564 0.074,5.10564 2.0502,3.98801 2.0501,3.988 2.8416,2.69266 2.8416,2.69266 2.5,0.99395 2.5,0.99396 5,0.0469 5,0.0469 3.9584,-2.24204 z"
      />
      <path d="m 687,229 v -32 h 21 21 v 2 2 H 710.5 692 v 12 12 h 16.5 16.5 v 2 2 H 708.5 692 v 16 16 h -2.5 -2.5 z" />
      <path
        d="m 1234.3237,259.53214 -4.1763,-2.55762 -2.3237,-3.73726 L 1225.5,249.5 1225.1706,231.25 1224.8412,213 h 1.9968 1.9968 l 0.3326,17.4295 0.3326,17.4295 2.0919,2.8205 2.092,2.8205 3.408,2.3385 3.4081,2.3385 5.7634,-0.40328 5.7635,-0.40328 2.7365,-2.03975 2.7366,-2.03975 2,-3.39547 2,-3.39547 0.3508,-16.75 0.3509,-16.75 h 1.8991 1.8992 v 24 24 h -2 -2 v -3.04712 -3.04713 l -4.0992,3.29422 -4.0992,3.29421 -7.6508,0.29779 -7.6508,0.29779 z"
      />
      <path
        d="m 1086.764,261.00429 -2.7359,-0.82381 -3.4851,-2.15392 -3.4851,-2.15391 -3.9956,-4.53923 -3.9956,-4.53923 -2.1185,-5.6471 -2.1186,-5.64709 0.3404,-8.5 0.3403,-8.5 2.4425,-4.97392 2.4424,-4.97392 4.356,-4.35604 4.3561,-4.35604 4.6963,-2.16027 4.6964,-2.16027 8.5,-0.01 8.5,-0.01 5.7388,2.81809 5.7389,2.81809 3.4899,4.25901 3.49,4.25901 1.5346,3.6729 1.5346,3.6729 h -2.286 -2.286 l -1.9039,-3.53533 -1.9039,-3.53533 -4.2466,-3.91438 -4.2466,-3.91438 -5.7288,-1.6654 -5.7287,-1.6654 -4.4388,0.6084 -4.4387,0.6084 -4.1594,1.87113 -4.1594,1.87113 -3.7335,3.78572 -3.7335,3.78573 -2.2665,4.59985 -2.2665,4.59986 0.022,8.5 0.022,8.5 2.1802,4.11647 2.1803,4.11647 2.6532,3.15314 2.6532,3.15315 4.3942,2.57517 4.3942,2.57518 5.9763,0.54192 5.9763,0.54191 4.5342,-1.26948 4.5341,-1.26948 4.5318,-3.98901 4.5317,-3.98901 1.9332,-3.78938 1.9332,-3.78937 0.9187,-4.08884 0.9187,-4.08884 h -13.3937 -13.3937 v -2 -2 h 15.5 15.5 v 16.5 16.5 h -2 -2 v -7.63955 -7.63954 l -2.5932,3.88954 -2.5932,3.88955 -2.1568,1.81629 -2.1568,1.81629 -5,2.42394 -5,2.42394 -7.5,-0.0762 -7.5,-0.0762 -2.736,-0.8238 z"
      />
      <path
        d="m 995.90728,259.67552 -4.40728,-2.32449 -2.25,-3.3234 -2.25,-3.3234 V 248.85212 247 h 1.7726 1.77259 l 1.87542,3.48245 1.87543,3.48245 4.39571,2.12792 4.39575,2.12793 6.9243,-0.39126 6.9243,-0.39126 2.7819,-2.07126 2.782,-2.07127 0.943,-2.64785 0.9431,-2.64785 -0.9482,-2.75 -0.9482,-2.75 -3.6269,-1.77599 -3.6268,-1.77598 -7.9804,-1.40308 -7.98032,-1.40309 -3.57122,-1.49215 -3.57122,-1.49215 -1.56642,-3.02912 -1.56642,-3.02912 0.004,-2.29966 0.004,-2.29966 2.01692,-3.30814 2.01692,-3.30814 4.22934,-1.9199 4.22932,-1.9199 h 6 6 l 4.0414,1.83574 4.0413,1.83574 2.7087,3.21903 2.7086,3.21902 V 224.07673 226 l -1.75,-0.0385 -1.75,-0.0385 -2.0052,-3.21148 -2.0052,-3.21148 -3.4948,-1.74845 -3.4948,-1.74844 -4.2298,-0.002 -4.2297,-0.002 -4.05866,1.62395 -4.05866,1.62395 -1.52666,2.95225 -1.52667,2.95225 1.56509,2.38861 1.56508,2.38862 1.77621,0.9506 1.77621,0.9506 6.47376,1.13118 6.4738,1.13118 5.1634,1.45618 5.1635,1.45617 2.5865,3.07396 2.5866,3.07395 v 4.47294 4.47293 l -1.4727,2.84793 -1.4727,2.84793 -4.343,2.10241 -4.343,2.10241 h -8.027 -8.027 l -4.4073,-2.32448 z"
      />
      <path
        d="m 916.5,260.12116 -4,-1.83492 -2.85053,-2.88001 -2.85053,-2.88002 -1.84578,-3.61803 -1.84578,-3.61803 -0.66439,-5.00838 -0.66438,-5.00838 1.66959,-5.74321 1.6696,-5.74322 4.6911,-4.67116 4.6911,-4.67115 4.11602,-1.22233 L 922.73204,212 h 4.43764 4.43763 l 5.11494,2.54888 5.11494,2.54888 2.6326,3.45151 2.63259,3.45151 1.44881,3.46749 L 950,230.93576 V 234.46788 238 h -21.89469 -21.89469 l 0.73605,3.25 0.73605,3.25 1.56362,3 1.56363,3 2.34502,2.13303 2.34501,2.13302 3.40636,1.72352 3.40637,1.72351 6.33286,-0.40325 6.33287,-0.40324 2.76077,-2.03169 2.76077,-2.03169 2.41754,-3.6716 L 945.33508,246 H 947.16754 949 v 1.04966 1.04966 l -1.41072,2.70034 -1.41073,2.70034 -2.83927,2.63584 -2.83928,2.63584 -3.20034,1.61416 -3.20034,1.61416 -6.79966,-0.022 -6.79966,-0.022 -4,-1.83492 z m 27.99969,-30.87116 -1.52715,-3.75 -3.86583,-3.67377 -3.86583,-3.67378 -4.20705,-1.26046 -4.20706,-1.26047 -4.55791,1.21906 -4.55791,1.21905 -2.78497,1.98308 -2.78498,1.98308 -1.95648,3.2321 -1.95648,3.23211 -0.68141,2.25 -0.68141,2.25 h 19.58081 19.58081 z"
      />
      <path
        d="m 856,259.42932 -4.5,-2.54659 -1.78401,-2.19137 -1.78401,-2.19136 -1.9123,-3.60493 -1.9123,-3.60492 -0.66439,-5.00838 -0.66438,-5.00838 1.66959,-5.74321 1.6696,-5.74322 4.6911,-4.67116 4.6911,-4.67115 4.11602,-1.22233 4.11602,-1.22232 4.38398,0.022 4.38398,0.022 4,1.82701 4,1.82701 3.25,3.34087 3.25,3.34087 v -15.18984 -15.18984 h 2 2 v 34.5 34.5 h -2 -2 v -4.57673 -4.57672 l -2.52334,2.99882 -2.52334,2.99881 -4.29238,2.07791 -4.29239,2.07791 -6.43427,-0.012 -6.43428,-0.012 -4.5,-2.54659 z m 20.09272,-3.75609 4.40728,-2.32678 2.91482,-4.13817 2.91482,-4.13817 0.46116,-5.56093 0.46115,-5.56093 -1.6844,-4.41055 -1.68441,-4.41055 -3.88489,-3.50977 -3.8849,-3.50977 -4.2159,-1.13522 -4.21591,-1.13523 -3.16421,0.59361 -3.16421,0.59361 -4.53245,2.87439 -4.53245,2.8744 -2.35653,4.86341 -2.35653,4.86342 0.0707,5.012 0.0707,5.01199 2.04443,3.98801 2.04442,3.988 2.34732,2.1284 2.34732,2.12841 3,1.58156 3,1.58155 4.59272,0.04 4.59271,0.04 4.40729,-2.32677 z"
      />
      <path
        d="m 747.32369,259.53214 -4.17632,-2.55762 -2.32368,-3.73726 L 738.5,249.5 738.17058,231.25 737.84116,213 h 1.99682 1.99681 l 0.33261,17.4295 0.3326,17.4295 2.09195,2.8205 2.09195,2.8205 3.40805,2.3385 3.40805,2.3385 5.76344,-0.40328 5.76344,-0.40328 2.73656,-2.03975 2.73656,-2.03975 2,-3.39547 2,-3.39547 0.35083,-16.75 0.35083,-16.75 H 777.10083 779 v 24 24 h -2 -2 v -3.04712 -3.04713 l -4.09921,3.29422 -4.09921,3.29421 -7.65079,0.29779 -7.65079,0.29779 z"
      />
      <path
        d="M 1284,122.5 V 88 h 2.5 2.5 v 13.67431 13.67432 l 2.2636,-2.12659 2.2637,-2.12658 3.7042,-1.54773 3.7043,-1.54773 h 4.5642 4.5642 l 3.6813,1.53814 3.6813,1.53814 1.9278,1.71186 1.9279,1.71186 1.8368,4 1.8368,4 0.022,17.25 0.022,17.25 h -2 -2 v -16.28811 -16.28811 l -2.25,-4.46189 -2.25,-4.46189 -3.5,-1.80538 -3.5,-1.80538 -5.2915,0.39109 -5.2914,0.39109 -2.7086,2.00624 -2.7085,2.00624 -2.25,3.30593 -2.25,3.30594 V 140.14788 157 h -2.5 -2.5 v -34.5 z"
      />
      <path
        d="m 354,138 h -28.21682 l 0.525,-2.25 0.52499,-2.25 3.23977,-19.75 L 333.31271,94 H 354 V 56.319925 l 1.97815,-7.734485 1.97815,-7.734485 2.76726,-5.175478 2.76727,-5.175477 8.50715,-8.583645 8.50715,-8.583645 9.49743,-4.6652974 L 399.5,4.002115 406,2.2594773 412.5,0.51683952 426,0.50841976 439.5,0.5 445.75,2.4083269 452,4.3166538 451.946,6.9083269 451.8919,9.5 l -6.47418,36 -10.01479,0.551244 -10.01478,0.551245 -3.94408,2.001105 -3.94408,2.001106 -2.4792,4.94765 L 412.5416,60.5 c -0.25747,11.166667 -0.51493,22.333333 -0.7724,33.5 h 40.23079 v 1.596554 1.596553 l -3.00722,18.153443 -3.00723,18.15345 -0.51182,2.25 -0.51183,2.25 h -32.9619 v 104 h -29 -29 C 353.99998,205.82804 354,175.09037 354,138 Z"
      />
      <path
        d="m 214.49214,237.75 2.6055,-4.25 3.83562,-7.5 3.83561,-7.5 2.99896,-8.5 2.99895,-8.5 1.84838,-8.5 1.84837,-8.5 v -17 -17 l -1.84837,-8.5 -1.84838,-8.5 -2.99838,-8.5 -2.99839,-8.5 -3.49664,-6.94671 -3.49664,-6.94671 -2.38836,-3.783421 L 213,95.039744 V 94.519872 94 h 56 v 5.154988 5.154992 l 1.75,-1.53848 1.75,-1.53848 4.35602,-2.190919 4.35602,-2.190922 6.64398,-1.441678 6.64398,-1.441677 13.86775,-0.642603 13.86776,-0.642604 -0.55428,1.908691 L 321.12696,96.5 c -2.1735,13.40948 -4.34698,26.81897 -6.52047,40.22845 l -8.55325,0.61177 -8.55324,0.61177 -6.12985,2.07524 -6.12985,2.07523 -4.1272,3.53273 -4.12719,3.53272 -2.52142,4.30248 -2.52142,4.30248 -1.45417,6.86356 -1.45417,6.86357 c -0.0116,23.5 -0.0232,47 -0.0347,70.5 h -57.11336 z"
      />
      <path
        d="m 1140,237 v -24 h 2.5 2.5 v 2.51419 2.51419 l 4.0602,-2.68691 4.0602,-2.68691 5.4398,-0.45111 5.4398,-0.45111 V 213.87617 216 h -3.1843 -3.1843 l -4.3491,2.1054 -4.3492,2.10539 -1.9665,3.85477 -1.9666,3.85476 V 244.46016 261 h -2.5 -2.5 z"
      />
      <path
        d="m 960,237 v -24 h 2.5 2.5 v 2.51419 2.51419 l 4.06019,-2.68691 4.06019,-2.68691 5.43981,-0.45111 L 984,211.75234 V 213.87617 216 h -3.18428 -3.18427 l -4.34917,2.1054 -4.34917,2.10539 -1.96656,3.85477 L 965,227.92032 V 244.46016 261 h -2.5 -2.5 z"
      />
      <path
        d="m 793,237 v -24 h 2.5 2.5 v 3.17431 3.17432 l 2.26365,-2.12659 2.26364,-2.12658 3.70424,-1.54773 L 809.93576,212 h 4.56424 4.56424 l 3.68128,1.53814 3.68128,1.53814 1.92783,1.71186 1.92783,1.71186 1.83681,4 1.83681,4 0.022,17.25 0.022,17.25 h -2 -2 v -16.28811 -16.28811 l -2.25,-4.46189 -2.25,-4.46189 -3.5,-1.80538 -3.5,-1.80538 -5.29147,0.39109 -5.29147,0.39109 -2.70853,2.00624 -2.70853,2.00624 -2.25,3.30593 -2.25,3.30594 V 244.14788 261 h -2.5 -2.5 v -24 z"
      />
      <path
        d="m 704.76404,157.00429 -2.73595,-0.82381 -3.48511,-2.15392 -3.4851,-2.15391 -3.9956,-4.53923 -3.99559,-4.53923 -2.11852,-5.6471 -2.11853,-5.64709 0.34035,-8.5 0.34035,-8.5 2.44244,-4.97392 2.44243,-4.97392 4.35604,-4.35604 4.35604,-4.356039 4.69635,-2.160272 4.69636,-2.160273 8.5,0.0043 8.5,0.0043 5,2.649573 5,2.649573 3.69774,3.836398 3.69774,3.8364 2.46385,5.5 2.46385,5.5 0.62906,5 0.62906,5 -1.00073,5.17596 -1.00072,5.17596 -2.14338,4.55985 -2.14338,4.55985 -4.14655,4.16488 -4.14654,4.16489 -5,2.33953 -5,2.33954 -7.5,-0.0762 -7.5,-0.0762 -2.73596,-0.8238 z m 20.73596,-5.3916 5,-2.36777 3.19586,-3.37246 3.19586,-3.37246 2.67643,-5.857 2.67643,-5.85699 -0.44466,-7.68132 -0.44467,-7.68131 -2.88157,-5.29441 -2.88158,-5.29441 -2.92958,-2.46508 -2.92958,-2.465076 -4.11647,-2.127355 -4.11647,-2.127355 -6.5,-0.04523 -6.5,-0.04523 -4.5,2.084805 -4.5,2.084806 -3.73348,3.785725 -3.73347,3.78573 -2.23133,4.59985 -2.23133,4.59986 -0.38678,6.01587 -0.38679,6.01588 1.07696,3.9995 1.07695,3.9995 2.91947,4.60352 2.91946,4.60351 3.60314,2.74825 3.60314,2.74825 3.75203,1.33897 3.75203,1.33896 5.5,0.0341 5.5,0.0341 5,-2.36777 z"
      />
      <path
        d="m 1203,133 v -24 h 2.5 2.5 v 2.51419 2.51419 l 4.0602,-2.68691 4.0602,-2.68691 5.4398,-0.45111 5.4398,-0.45111 V 109.87617 112 h -3.1843 -3.1843 l -4.3491,2.1054 -4.3492,2.10539 -1.9665,3.85477 -1.9666,3.85476 V 140.46016 157 h -2.5 -2.5 z"
      />
      <path
        d="M 945,124.93816 V 92.876316 l 18.43012,0.311842 18.43012,0.311842 2.75809,2.061789 2.75809,2.061788 1.97608,2.646743 1.97608,2.64674 0.45025,5.4294 0.45024,5.42941 -1.17559,3.56208 -1.17559,3.56208 -3.36916,2.95816 -3.36915,2.95815 2.03259,1.83947 2.03259,1.83947 1.39762,2.7027 1.39762,2.7027 v 7.30626 7.30626 l 0.93019,3.2434 0.9302,3.2434 h -2.41114 -2.41115 l -0.48308,-2.25 -0.48309,-2.25 -0.28597,-8.72764 L 985.5,135.04472 982.73008,132.27236 979.96015,129.5 964.98008,129.17795 950,128.85591 V 142.92795 157 h -2.5 -2.5 z m 35.74058,-2.23149 3.24058,-1.74829 1.63389,-2.49362 1.63388,-2.49362 0.43009,-4.23557 L 988.1091,107.5 986.30455,104 984.5,100.5 981,98.751554 977.5,97.003108 963.75,97.001554 950,97 v 14.0959 14.09589 l 13.75,-0.36842 13.75,-0.36841 z"
      />
      <path
        d="m 864,133 v -24 h 2.5 2.5 v 3.17431 3.17432 l 2.26365,-2.12659 2.26364,-2.12658 3.70424,-1.54773 L 880.93576,108 h 4.56424 4.56424 l 3.68128,1.53814 3.68128,1.53814 1.92783,1.71186 1.92783,1.71186 1.83681,4 1.83681,4 0.022,17.25 0.022,17.25 h -2 -2 v -16.28811 -16.28811 l -2.25,-4.46189 -2.25,-4.46189 -3.5,-1.80538 -3.5,-1.80538 -5.29147,0.39109 -5.29147,0.39109 -2.70853,2.00624 -2.70853,2.00624 -2.25,3.30593 -2.25,3.30594 V 140.14788 157 h -2.5 -2.5 v -24 z"
      />
      <path
        d="m 1241,155.42932 -4.5,-2.54659 -1.784,-2.19137 -1.784,-2.19136 -1.9123,-3.60493 -1.9123,-3.60492 -0.6644,-5.00838 -0.6644,-5.00838 1.6696,-5.74321 1.6696,-5.74322 4.6911,-4.67116 4.6911,-4.67115 4.116,-1.22233 4.116,-1.22232 h 3.9848 3.9848 l 3.3992,1.15295 3.3992,1.15295 2.8689,1.99981 2.8689,1.99981 2.8811,4.54302 2.8811,4.54302 V 124.19578 125 l -2.25,-0.0269 -2.25,-0.0269 -2.4737,-4.00901 -2.4737,-4.00901 -5.2993,-2.59268 -5.2992,-2.59269 -4.0778,0.54695 -4.0778,0.54694 -4.5945,2.84057 -4.5945,2.84057 -2.5203,4.89743 -2.5203,4.89743 0.074,5.11959 0.074,5.11959 1.7585,3.47406 1.7585,3.47405 2.1331,2.34732 2.133,2.34732 3.7102,1.90268 3.7101,1.90268 h 4.8055 4.8054 l 3.4844,-1.84879 3.4844,-1.84879 3,-4.09011 3,-4.0901 2.2757,-0.0611 2.2757,-0.0611 -1.6399,3.25 -1.6398,3.25 -2.6359,2.84158 -2.6358,2.84159 -3.7102,1.90841 -3.7101,1.90842 -6.7899,-0.012 -6.7898,-0.012 -4.5,-2.54659 z"
      />
      <path
        d="m 1157.328,156.06183 -4.1721,-1.89424 -1.6613,-2.53545 -1.6613,-2.53545 V 144.5 139.90331 l 1.598,-2.43879 1.5979,-2.43879 3.8805,-1.97967 3.8805,-1.97966 9.3549,-1.10706 9.3549,-1.10706 3.5,-1.67614 3.5,-1.67614 0.3227,-2.81464 0.3226,-2.81463 -1.6504,-2.51889 -1.6505,-2.51889 -3.3901,-1.41648 L 1177.0642,112 h -4.5642 -4.5642 l -3.3429,1.39673 -3.3428,1.39673 -2.8751,3.60324 -2.875,3.60324 -1.8174,3e-5 -1.8174,3e-5 0.7115,-2.25 0.7116,-2.25 1.4593,-2.23239 1.4593,-2.23239 3.6466,-2.26761 L 1163.5,108.5 h 9 9 l 3.1145,1.88554 3.1144,1.88554 1.6356,2.76875 1.6355,2.76875 0.024,15.84571 0.024,15.84571 0.8708,3.75 0.8709,3.75 h -2.3153 -2.3152 l -0.677,-3.08262 -0.6771,-3.08262 -2.1809,2.04882 -2.1808,2.04882 -4.3473,1.5338 -4.3473,1.5338 -6.1242,-0.022 -6.1243,-0.022 -4.172,-1.89425 z m 18.9638,-3.64559 4.6481,-1.58377 3.0301,-3.45103 3.03,-3.45103 v -6.91418 -6.91418 l -3.25,1.32822 -3.25,1.32821 -6,0.65392 -6,0.65392 -4.6982,1.05415 -4.6982,1.05415 -2.5518,2.36494 -2.5518,2.36494 v 2.82524 2.82525 l 1.6283,2.32472 1.6283,2.32473 3.1217,1.35864 3.1217,1.35864 4.0719,0.0391 4.0718,0.0391 4.6481,-1.58376 z"
      />
      <path
        d="m 1110.5,156.12116 -4,-1.83492 -2.8505,-2.88001 -2.8506,-2.88002 -1.8457,-3.61803 -1.8458,-3.61803 -0.6644,-5.00838 -0.6644,-5.00838 1.6696,-5.74321 1.6696,-5.74322 4.6911,-4.67116 4.6911,-4.67115 4.116,-1.22233 4.116,-1.22232 h 4.4377 4.4376 l 5.115,2.54888 5.1149,2.54888 2.6326,3.45151 2.6326,3.45151 1.4488,3.46749 1.4488,3.46749 V 130.46788 134 h -21.8947 -21.8947 l 0.7361,3.25 0.736,3.25 1.5636,3 1.5637,3 2.345,2.13303 2.345,2.13302 3.4064,1.72352 3.4063,1.72351 6.3329,-0.40325 6.3329,-0.40324 2.7607,-2.03169 2.7608,-2.03169 2.4175,-3.6716 2.4176,-3.67161 h 1.8324 1.8325 v 1.04966 1.04966 l -1.4107,2.70034 -1.4107,2.70034 -2.8393,2.63584 -2.8393,2.63584 -3.2003,1.61416 -3.2004,1.61416 -6.7996,-0.022 -6.7997,-0.022 -4,-1.83492 z m 27.9997,-30.87116 -1.5272,-3.75 -3.8658,-3.67377 -3.8658,-3.67378 -4.2071,-1.26046 -4.207,-1.26047 -4.5579,1.21906 -4.5579,1.21905 -2.785,1.98308 -2.785,1.98308 -1.9565,3.2321 -1.9565,3.23211 -0.6814,2.25 -0.6814,2.25 h 19.5808 19.5808 z"
      />
      <path
        d="m 1058.9073,155.67552 -4.4073,-2.32449 -2.25,-3.3234 -2.25,-3.3234 V 144.85212 143 h 1.7726 1.7726 l 1.8754,3.48245 1.8754,3.48245 4.3957,2.12792 4.3958,2.12793 6.9243,-0.39126 6.9243,-0.39126 2.7819,-2.07126 2.782,-2.07127 0.943,-2.64785 0.9431,-2.64785 -0.9482,-2.75 -0.9482,-2.75 -3.6269,-1.77599 -3.6268,-1.77598 -7.9804,-1.40308 -7.9803,-1.40309 -3.5712,-1.49215 -3.5713,-1.49215 -1.5664,-3.02912 L 1052,123.09932 V 120.79966 118.5 l 2.0169,-3.30814 2.0169,-3.30814 4.2294,-1.9199 4.2293,-1.9199 h 6 6 l 4.0414,1.83574 4.0413,1.83574 2.7087,3.21903 2.7086,3.21902 V 120.07673 122 l -1.75,-0.0385 -1.75,-0.0385 -2.0052,-3.21148 -2.0052,-3.21148 -3.4948,-1.74845 -3.4948,-1.74844 -4.2298,-0.002 -4.2297,-0.002 -4.0587,1.62395 -4.0586,1.62395 -1.5267,2.95225 -1.5267,2.95225 1.5651,2.38861 1.5651,2.38862 1.7762,0.9506 1.7762,0.9506 6.4738,1.13118 6.4738,1.13118 5.1634,1.45618 5.1635,1.45617 2.5865,3.07396 2.5866,3.07395 v 4.47294 4.47293 l -1.4727,2.84793 -1.4727,2.84793 -4.343,2.10241 -4.343,2.10241 h -8.027 -8.027 l -4.4073,-2.32448 z"
      />
      <path
        d="m 1012.5,156.12116 -4,-1.83492 -2.8505,-2.88001 -2.8506,-2.88002 -1.8457,-3.61803 -1.84582,-3.61803 -0.66439,-5.00838 -0.66438,-5.00838 1.66959,-5.74321 1.6696,-5.74322 4.6911,-4.67116 4.6911,-4.67115 4.116,-1.22233 4.116,-1.22232 h 4.4377 4.4376 l 5.115,2.54888 5.1149,2.54888 2.6326,3.45151 2.6326,3.45151 1.4488,3.46749 1.4488,3.46749 V 130.46788 134 h -21.8947 -21.8947 l 0.7361,3.25 0.736,3.25 1.5636,3 1.5637,3 2.345,2.13303 2.345,2.13302 3.4064,1.72352 3.4063,1.72351 6.3329,-0.40325 6.3329,-0.40324 2.7607,-2.03169 2.7608,-2.03169 2.4175,-3.6716 2.4176,-3.67161 h 1.8324 1.8325 v 1.04966 1.04966 l -1.4107,2.70034 -1.4107,2.70034 -2.8393,2.63584 -2.8393,2.63584 -3.2003,1.61416 -3.2004,1.61416 -6.7996,-0.022 -6.7997,-0.022 -4,-1.83492 z m 27.9997,-30.87116 -1.5272,-3.75 -3.8658,-3.67377 -3.8658,-3.67378 -4.2071,-1.26046 -4.207,-1.26047 -4.5579,1.21906 -4.5579,1.21905 -2.785,1.98308 -2.785,1.98308 -1.9565,3.2321 -1.9565,3.23211 -0.6814,2.25 -0.6814,2.25 h 19.5808 19.5808 z"
      />
      <path
        d="m 821.5,156.12116 -4,-1.83492 -2.85053,-2.88001 -2.85053,-2.88002 -1.84578,-3.61803 -1.84578,-3.61803 -0.66439,-5.00838 -0.66438,-5.00838 1.66959,-5.74321 1.6696,-5.74322 4.6911,-4.67116 4.6911,-4.67115 4.11602,-1.22233 L 827.73204,108 h 4.43764 4.43763 l 5.11494,2.54888 5.11494,2.54888 2.6326,3.45151 2.63259,3.45151 1.44881,3.46749 L 855,126.93576 V 130.46788 134 h -21.89469 -21.89469 l 0.73605,3.25 0.73605,3.25 1.56362,3 1.56363,3 2.34502,2.13303 2.34501,2.13302 3.40636,1.72352 3.40637,1.72351 6.33286,-0.40325 6.33287,-0.40324 2.76077,-2.03169 2.76077,-2.03169 2.41754,-3.6716 L 850.33508,142 H 852.16754 854 v 1.04966 1.04966 l -1.41072,2.70034 -1.41073,2.70034 -2.83927,2.63584 -2.83928,2.63584 -3.20034,1.61416 -3.20034,1.61416 -6.79966,-0.022 -6.79966,-0.022 -4,-1.83492 z m 27.99969,-30.87116 -1.52715,-3.75 -3.86583,-3.67377 -3.86583,-3.67378 -4.20705,-1.26046 -4.20706,-1.26047 -4.55791,1.21906 -4.55791,1.21905 -2.78497,1.98308 -2.78498,1.98308 -1.95648,3.2321 -1.95648,3.23211 -0.68141,2.25 -0.68141,2.25 h 19.58081 19.58081 z"
      />
      <path
        d="m 755,144 v -35 h 2 2 v 4.82858 4.82859 l 4.45575,-4.26937 4.45576,-4.26936 3.79424,-1.05364 3.79425,-1.05365 h 3.5 3.5 l 4,1.09073 4,1.09073 5.05883,5.18508 5.05883,5.18509 1.31337,4.69088 1.31336,4.69088 -0.4304,5.9503 -0.43041,5.9503 -2.96545,4.7965 -2.96545,4.79651 -4.26943,3.00067 -4.26944,3.00067 -6.8656,0.38794 -6.86559,0.38794 -3.52968,-1.1649 -3.52968,-1.1649 -4.06163,-3.94167 L 759,148.00222 V 163.50111 179 h -2 -2 z m 31.28212,8.64 3.21788,-1.36 2.84285,-2.86922 2.84285,-2.86921 1.49102,-2.8833 1.49101,-2.88331 0.49475,-5.13748 0.49476,-5.13748 -2.82862,-5.49381 -2.82862,-5.49381 -4.31243,-2.98952 -4.31243,-2.98953 H 779 773.12486 l -4.31243,2.98953 -4.31243,2.98952 -2.82862,5.49381 -2.82862,5.49381 0.49476,5.13748 0.49475,5.13748 1.49101,2.88331 1.49102,2.8833 2.84285,2.86788 2.84285,2.86788 3,1.32219 3,1.3222 4.28212,0.0391 4.28212,0.0391 3.21788,-1.36 z"
      />
    </g>
  </g>
</svg>
