<svg xmlns="http://www.w3.org/2000/svg" viewBox="0 0 201.27674 151.07175" width="805.10697" height="604.287">

  <title xml:lang="en">Open Research Funders Group</title>

  <style>
    :root {
      --color-text: rgb(28 33 32);
    }

    .text {
      fill: var(--color-text);
    }

    .title {
      fill: var(--color-text);
    }

    @media screen and (forced-colors: active) {
      :root {
        --color-text: CanvasText;
      }

      .circle > * {
        fill: var(--color-text);
      }
    }
  </style>

  <g class="text" transform="translate(-82.134163,-138.38452)">
    <g class="circle">
      <circle cx="99.237274" cy="189.01079" r="5.9703751" fill="#c3e1f2" />
      <circle cx="118.99459" cy="189.07843" r="5.9703751" fill="#81c1e6" />
      <circle cx="138.80539" cy="189.07843" r="5.9703751" fill="#198ed2" />
      <path
        fill="#198ed2"
        d="m 155.24219,187.13672 h -3.82813 c 0,-17.34766 -14.26172,-31.46094 -31.78906,-31.46094 -17.52734,0 -31.789062,14.11328 -31.789062,31.46094 h -3.832032 c 0,-19.4375 15.980469,-35.25 35.621094,-35.25 19.64062,0 35.61719,15.8125 35.61719,35.25 z m 0,0"
      />
      <path
        fill="#81c1e6"
        d="m 155.24219,190.34766 h -3.82813 c 0,17.34765 -14.26172,31.46093 -31.78906,31.46093 -17.52734,0 -31.789059,-14.11328 -31.789059,-31.46093 h -3.832035 c 0,19.43359 15.980468,35.25 35.621094,35.25 19.64062,0 35.61719,-15.81641 35.61719,-35.25 z m 0,0"
      />
    </g>
    <path
      d="m 156.41866,166.97115 c 3.77981,10.38667 8.14151,18.68345 5.28881,30.15 -1.1658,4.6848 -3.66423,8.60129 -5.28881,13.065 h 16.08 c 0,-12.29618 -3.74563,-30.64095 13.5675,-30.6525 l 2.01,-12.5625 c -5.51946,0 -10.86254,-0.31256 -15.5775,3.015 v -3.015 h -16.08"
    />
    <path
      d="m 264.45616,206.16615 c -0.0221,8.07969 -4.20944,16.13929 -13.5675,13.60418 -2.98987,-0.81003 -4.84159,-3.63408 -7.62292,-4.39939 -4.82903,-1.32911 -11.48565,-0.15979 -16.49708,-0.15979 0.64672,7.40986 6.34155,11.91879 13.065,14.05542 10.91229,3.46876 27.92644,2.36326 36.08704,-6.53752 5.43655,-5.93 5.62046,-14.0298 5.62046,-21.5879 v -34.17 h -17.085 v 3.5175 c -10.15552,-7.80483 -25.8481,-6.41844 -33.90418,4.02 -8.46059,10.96304 -5.46619,28.3425 7.77418,33.93633 4.03558,1.70549 8.21738,2.26377 12.5625,2.24316 4.99686,-0.0236 9.43595,-1.79694 13.5675,-4.52199 m -13.5675,-27.48675 c 14.72275,-2.12608 19.62112,17.04731 4.02,19.23117 -13.88005,1.94317 -18.82516,-17.09304 -4.02,-19.23117"
    />
    <path
      d="m 197.62366,166.97115 h -6.03 l -2.01,12.5625 h 8.04 v 30.6525 h 17.085 v -30.6525 h 9.5475 l 2.01,-12.5625 h -11.5575 c 0,-8.50884 -0.49144,-14.07 9.5475,-14.07 0.49848,-2.64717 2.99591,-9.45052 1.47383,-11.80222 -1.05977,-1.63664 -4.28029,-1.71604 -5.99633,-1.75775 -6.11995,-0.15024 -12.11427,1.72006 -16.57496,6.04407 -6.24356,6.05161 -5.53504,13.57102 -5.53504,21.5859"
    />
  </g>

  <g class="title" transform="translate(-82.134163,-138.38452)">
    <path
      d="m 92.734265,252.20133 c -1.71875,0 -3.289063,-0.39844 -4.703125,-1.20312 -1.40625,-0.80079 -2.523438,-1.92188 -3.34375,-3.35938 -0.824219,-1.44531 -1.234375,-3.07031 -1.234375,-4.875 0,-1.80078 0.410156,-3.42187 1.234375,-4.85937 0.820312,-1.4375 1.9375,-2.55469 3.34375,-3.35938 1.414062,-0.8125 2.984375,-1.21875 4.703125,-1.21875 1.726563,0 3.296875,0.40625 4.703125,1.21875 1.414062,0.80469 2.53125,1.91797 3.34375,3.34375 0.8125,1.42969 1.21875,3.05469 1.21875,4.875 0,1.82422 -0.40625,3.45313 -1.21875,4.89063 -0.8125,1.42968 -1.929688,2.54296 -3.34375,3.34375 -1.40625,0.80468 -2.976562,1.20312 -4.703125,1.20312 z m 0,-2.09375 c 1.28125,0 2.4375,-0.29687 3.46875,-0.89062 1.039063,-0.60157 1.851563,-1.46094 2.4375,-2.57813 0.59375,-1.11328 0.890625,-2.40625 0.890625,-3.875 0,-1.47656 -0.296875,-2.76953 -0.890625,-3.875 -0.585937,-1.10156 -1.390625,-1.95703 -2.421875,-2.5625 -1.023438,-0.60156 -2.183594,-0.90625 -3.484375,-0.90625 -1.3125,0 -2.484375,0.30469 -3.515625,0.90625 -1.023438,0.60547 -1.828125,1.46094 -2.421875,2.5625 -0.585937,1.10547 -0.875,2.39844 -0.875,3.875 0,1.46875 0.289063,2.76172 0.875,3.875 0.59375,1.11719 1.40625,1.97656 2.4375,2.57813 1.039063,0.59375 2.207031,0.89062 3.5,0.89062 z m 0,0"
    />
    <path
      d="m 107.59145,240.17008 c 0.47657,-0.83203 1.1875,-1.52344 2.125,-2.07812 0.94532,-0.5625 2.05079,-0.84375 3.3125,-0.84375 1.28125,0 2.44532,0.3125 3.5,0.9375 1.05079,0.61718 1.87891,1.48437 2.48438,2.60937 0.60156,1.11719 0.90625,2.41797 0.90625,3.90625 0,1.46875 -0.30469,2.77734 -0.90625,3.92188 -0.60547,1.14843 -1.43359,2.03906 -2.48438,2.67187 -1.05468,0.63672 -2.21875,0.95313 -3.5,0.95313 -1.24218,0 -2.33593,-0.27344 -3.28125,-0.82813 -0.94921,-0.5625 -1.66796,-1.25391 -2.15625,-2.07812 v 9.56249 h -2.40625 v -21.40624 h 2.40625 z m 9.85938,4.53125 c 0,-1.09375 -0.22656,-2.04687 -0.67188,-2.85937 -0.4375,-0.8125 -1.03125,-1.42969 -1.78125,-1.85938 -0.75,-0.42578 -1.57812,-0.64062 -2.48437,-0.64062 -0.875,0 -1.69531,0.21875 -2.45313,0.65625 -0.75,0.42968 -1.35156,1.05468 -1.79687,1.875 -0.44922,0.82421 -0.67188,1.77734 -0.67188,2.85937 0,1.09375 0.22266,2.05469 0.67188,2.875 0.44531,0.8125 1.04687,1.4375 1.79687,1.875 0.75782,0.4375 1.57813,0.65625 2.45313,0.65625 0.90625,0 1.73437,-0.21875 2.48437,-0.65625 0.75,-0.4375 1.34375,-1.0625 1.78125,-1.875 0.44532,-0.82031 0.67188,-1.78906 0.67188,-2.90625 z m 0,0"
    />
    <path
      d="m 136.34658,244.20133 c 0,0.46094 -0.0273,0.94531 -0.0781,1.45313 h -11.60937 c 0.082,1.42968 0.5664,2.54687 1.45312,3.35937 0.89453,0.80469 1.98437,1.20313 3.26562,1.20313 1.03907,0 1.91016,-0.24219 2.60938,-0.73438 0.69531,-0.48828 1.1875,-1.14062 1.46875,-1.95312 h 2.59375 c -0.38672,1.39843 -1.16406,2.53125 -2.32813,3.40625 -1.16796,0.875 -2.61718,1.3125 -4.34375,1.3125 -1.38671,0 -2.62109,-0.30469 -3.70312,-0.92188 -1.08594,-0.61328 -1.9375,-1.48828 -2.5625,-2.625 -0.61719,-1.14453 -0.92187,-2.46875 -0.92187,-3.96875 0,-1.50781 0.29687,-2.82812 0.89062,-3.95312 0.60156,-1.13282 1.44531,-2.00391 2.53125,-2.60938 1.09375,-0.61328 2.34766,-0.92187 3.76562,-0.92187 1.375,0 2.58594,0.30468 3.64063,0.90625 1.0625,0.60546 1.87891,1.43359 2.45312,2.48437 0.58204,1.04297 0.875,2.23047 0.875,3.5625 z m -2.5,-0.51562 c 0,-0.91407 -0.20312,-1.70313 -0.60937,-2.35938 -0.40625,-0.66406 -0.96094,-1.17187 -1.65625,-1.51562 -0.69922,-0.34375 -1.46875,-0.51563 -2.3125,-0.51563 -1.21875,0 -2.26172,0.39063 -3.125,1.17188 -0.85547,0.77343 -1.34375,1.84375 -1.46875,3.21875 z m 0,0"
    />
    <path
      d="m 146.58668,237.23258 c 1.76953,0 3.20312,0.53906 4.29687,1.60938 1.09375,1.0625 1.64063,2.60156 1.64063,4.60937 v 8.5625 h -2.375 v -8.21875 c 0,-1.44531 -0.36719,-2.55078 -1.09375,-3.3125 -0.71875,-0.76953 -1.71094,-1.15625 -2.96875,-1.15625 -1.27344,0 -2.28125,0.39844 -3.03125,1.1875 -0.75,0.79297 -1.125,1.94922 -1.125,3.46875 v 8.03125 h -2.40625 v -14.51562 h 2.40625 v 2.0625 c 0.47656,-0.73829 1.125,-1.3125 1.9375,-1.71875 0.82031,-0.40625 1.72656,-0.60938 2.71875,-0.60938 z m 0,0"
    />
    <path
      d="m 173.2749,252.01383 -4.40625,-7.54687 h -2.90625 v 7.54687 h -2.40625 v -18.46875 h 5.95313 c 1.39453,0 2.57031,0.24219 3.53125,0.71875 0.96875,0.46875 1.69141,1.11719 2.17187,1.9375 0.47657,0.8125 0.71875,1.74219 0.71875,2.78125 0,1.27344 -0.37109,2.39063 -1.10937,3.35938 -0.73047,0.96875 -1.82813,1.61718 -3.29688,1.9375 l 4.64063,7.73437 z m -7.3125,-9.48437 h 3.54688 c 1.3125,0 2.28906,-0.32032 2.9375,-0.96875 0.65625,-0.64454 0.98437,-1.50391 0.98437,-2.57813 0,-1.10156 -0.32421,-1.95312 -0.96875,-2.54687 -0.64843,-0.60157 -1.63281,-0.90625 -2.95312,-0.90625 h -3.54688 z m 0,0"
    />
    <path
      d="m 192.91579,244.20133 c 0,0.46094 -0.0273,0.94531 -0.0781,1.45313 h -11.60938 c 0.082,1.42968 0.56641,2.54687 1.45313,3.35937 0.89453,0.80469 1.98437,1.20313 3.26562,1.20313 1.03907,0 1.91016,-0.24219 2.60938,-0.73438 0.69531,-0.48828 1.1875,-1.14062 1.46875,-1.95312 h 2.59375 c -0.38672,1.39843 -1.16406,2.53125 -2.32813,3.40625 -1.16796,0.875 -2.61718,1.3125 -4.34375,1.3125 -1.38671,0 -2.62109,-0.30469 -3.70312,-0.92188 -1.08594,-0.61328 -1.9375,-1.48828 -2.5625,-2.625 -0.61719,-1.14453 -0.92188,-2.46875 -0.92188,-3.96875 0,-1.50781 0.29688,-2.82812 0.89063,-3.95312 0.60156,-1.13282 1.44531,-2.00391 2.53125,-2.60938 1.09375,-0.61328 2.34766,-0.92187 3.76562,-0.92187 1.375,0 2.58594,0.30468 3.64063,0.90625 1.0625,0.60546 1.87891,1.43359 2.45312,2.48437 0.58204,1.04297 0.875,2.23047 0.875,3.5625 z m -2.5,-0.51562 c 0,-0.91407 -0.20312,-1.70313 -0.60937,-2.35938 -0.40625,-0.66406 -0.96094,-1.17187 -1.65625,-1.51562 -0.69922,-0.34375 -1.46875,-0.51563 -2.3125,-0.51563 -1.21875,0 -2.26172,0.39063 -3.125,1.17188 -0.85547,0.77343 -1.34375,1.84375 -1.46875,3.21875 z m 0,0"
    />
    <path
      d="m 201.23401,252.24821 c -1.11719,0 -2.11719,-0.1875 -3,-0.5625 -0.88672,-0.38282 -1.58594,-0.91407 -2.09375,-1.59375 -0.51172,-0.67579 -0.79297,-1.45704 -0.84375,-2.34375 h 2.48437 c 0.0703,0.71875 0.41016,1.3125 1.01563,1.78125 0.61328,0.46093 1.41406,0.6875 2.40625,0.6875 0.91406,0 1.64062,-0.20313 2.17187,-0.60938 0.53125,-0.40625 0.79688,-0.92187 0.79688,-1.54687 0,-0.63282 -0.28906,-1.10157 -0.85938,-1.40625 -0.5625,-0.3125 -1.43359,-0.61719 -2.60937,-0.92188 -1.08594,-0.28125 -1.96484,-0.56641 -2.64063,-0.85937 -0.67968,-0.28907 -1.26171,-0.72266 -1.75,-1.29688 -0.49218,-0.57031 -0.73437,-1.32812 -0.73437,-2.26562 0,-0.73829 0.21875,-1.41407 0.65625,-2.03125 0.44531,-0.625 1.07812,-1.11719 1.89062,-1.48438 0.8125,-0.36328 1.73829,-0.54687 2.78125,-0.54687 1.61329,0 2.91407,0.40625 3.90625,1.21875 0.98829,0.8125 1.51563,1.92968 1.57813,3.34375 h -2.40625 c -0.0547,-0.75782 -0.35938,-1.36719 -0.92188,-1.82813 -0.55468,-0.45703 -1.29687,-0.6875 -2.23437,-0.6875 -0.86719,0 -1.55469,0.1875 -2.0625,0.5625 -0.51172,0.36719 -0.76563,0.85156 -0.76563,1.45313 0,0.48046 0.14844,0.875 0.45313,1.1875 0.3125,0.30468 0.70312,0.54687 1.17187,0.73437 0.46875,0.1875 1.11719,0.39844 1.95313,0.625 1.03906,0.28125 1.88281,0.55859 2.53125,0.82813 0.65625,0.27343 1.21875,0.68359 1.6875,1.23437 0.46875,0.54297 0.71094,1.25781 0.73437,2.14063 0,0.80468 -0.22656,1.52343 -0.67187,2.15625 -0.4375,0.63671 -1.05859,1.13671 -1.85938,1.5 -0.80468,0.35156 -1.72656,0.53125 -2.76562,0.53125 z m 0,0"
    />
    <path
      d="m 223.17435,244.20133 c 0,0.46094 -0.0273,0.94531 -0.0781,1.45313 h -11.60937 c 0.082,1.42968 0.56641,2.54687 1.45313,3.35937 0.89453,0.80469 1.98437,1.20313 3.26562,1.20313 1.03907,0 1.91016,-0.24219 2.60938,-0.73438 0.69531,-0.48828 1.1875,-1.14062 1.46875,-1.95312 h 2.59375 c -0.38672,1.39843 -1.16406,2.53125 -2.32813,3.40625 -1.16796,0.875 -2.61718,1.3125 -4.34375,1.3125 -1.38671,0 -2.62109,-0.30469 -3.70312,-0.92188 -1.08594,-0.61328 -1.9375,-1.48828 -2.5625,-2.625 -0.61719,-1.14453 -0.92188,-2.46875 -0.92188,-3.96875 0,-1.50781 0.29688,-2.82812 0.89063,-3.95312 0.60156,-1.13282 1.44531,-2.00391 2.53125,-2.60938 1.09375,-0.61328 2.34766,-0.92187 3.76562,-0.92187 1.375,0 2.58594,0.30468 3.64063,0.90625 1.0625,0.60546 1.87891,1.43359 2.45312,2.48437 0.58204,1.04297 0.875,2.23047 0.875,3.5625 z m -2.5,-0.51562 c 0,-0.91407 -0.20312,-1.70313 -0.60937,-2.35938 -0.40625,-0.66406 -0.96094,-1.17187 -1.65625,-1.51562 -0.69922,-0.34375 -1.46875,-0.51563 -2.3125,-0.51563 -1.21875,0 -2.26172,0.39063 -3.125,1.17188 -0.85547,0.77343 -1.34375,1.84375 -1.46875,3.21875 z m 0,0"
    />
    <path
      d="m 225.4457,244.70133 c 0,-1.48828 0.29688,-2.78906 0.89063,-3.90625 0.60156,-1.125 1.42969,-1.99219 2.48437,-2.60937 1.05079,-0.625 2.22266,-0.9375 3.51563,-0.9375 1.26953,0 2.375,0.27734 3.3125,0.82812 0.9375,0.54297 1.63281,1.23047 2.09375,2.0625 v -2.64062 h 2.4375 v 14.51562 h -2.4375 v -2.70312 c -0.48047,0.84375 -1.19531,1.54687 -2.14063,2.10937 -0.9375,0.55469 -2.03906,0.82813 -3.29687,0.82813 -1.29297,0 -2.46094,-0.31641 -3.5,-0.95313 -1.04297,-0.63281 -1.86719,-1.52344 -2.46875,-2.67187 -0.59375,-1.14454 -0.89063,-2.45313 -0.89063,-3.92188 z m 12.29688,0.0312 c 0,-1.10156 -0.22656,-2.0625 -0.67188,-2.875 -0.4375,-0.8125 -1.03125,-1.42969 -1.78125,-1.85937 -0.75,-0.4375 -1.57812,-0.65625 -2.48437,-0.65625 -0.89844,0 -1.71875,0.21484 -2.46875,0.64062 -0.74219,0.42969 -1.32813,1.04688 -1.76563,1.85938 -0.4375,0.8125 -0.65625,1.76562 -0.65625,2.85937 0,1.11719 0.21875,2.08594 0.65625,2.90625 0.4375,0.8125 1.02344,1.4375 1.76563,1.875 0.75,0.4375 1.57031,0.65625 2.46875,0.65625 0.90625,0 1.73437,-0.21875 2.48437,-0.65625 0.75,-0.4375 1.34375,-1.0625 1.78125,-1.875 0.44532,-0.82031 0.67188,-1.78125 0.67188,-2.875 z m 0,0"
    />
    <path
      d="m 246.66957,239.85758 c 0.42579,-0.83203 1.03125,-1.47656 1.8125,-1.9375 0.78907,-0.45703 1.75,-0.6875 2.875,-0.6875 v 2.48438 h -0.64062 c -2.69922,0 -4.04688,1.46875 -4.04688,4.40625 v 7.89062 h -2.40625 v -14.51562 h 2.40625 z m 0,0"
    />
    <path
      d="m 253.24012,244.73258 c 0,-1.50781 0.29688,-2.82031 0.89063,-3.9375 0.60156,-1.125 1.4375,-1.99219 2.5,-2.60937 1.07031,-0.625 2.30078,-0.9375 3.6875,-0.9375 1.78125,0 3.25,0.4375 4.40625,1.3125 1.15625,0.86718 1.92188,2.0625 2.29688,3.59375 h -2.59375 c -0.25,-0.88282 -0.73438,-1.58204 -1.45313,-2.09375 -0.71094,-0.50782 -1.59375,-0.76563 -2.65625,-0.76563 -1.38672,0 -2.5,0.47656 -3.34375,1.42188 -0.84375,0.9375 -1.26563,2.27734 -1.26563,4.01562 0,1.75 0.42188,3.10547 1.26563,4.0625 0.84375,0.94922 1.95703,1.42188 3.34375,1.42188 1.0625,0 1.94141,-0.24219 2.64063,-0.73438 0.70703,-0.5 1.19531,-1.20703 1.46875,-2.125 h 2.59375 c -0.38672,1.48047 -1.16407,2.66797 -2.32813,3.5625 -1.16797,0.88672 -2.625,1.32813 -4.375,1.32813 -1.38672,0 -2.61719,-0.30469 -3.6875,-0.92188 -1.0625,-0.61328 -1.89844,-1.48828 -2.5,-2.625 -0.59375,-1.13281 -0.89063,-2.45703 -0.89063,-3.96875 z m 0,0"
    />
    <path
      d="m 277.43264,237.23258 c 1.09375,0 2.08203,0.23438 2.96875,0.70313 0.88281,0.46875 1.57812,1.17187 2.07812,2.10937 0.5,0.92969 0.75,2.0625 0.75,3.40625 v 8.5625 h -2.375 v -8.21875 c 0,-1.44531 -0.36718,-2.55078 -1.09375,-3.3125 -0.71875,-0.76953 -1.71093,-1.15625 -2.96875,-1.15625 -1.27343,0 -2.28125,0.39844 -3.03125,1.1875 -0.75,0.79297 -1.125,1.94922 -1.125,3.46875 v 8.03125 h -2.40625 v -19.60937 h 2.40625 v 7.15625 c 0.47657,-0.73829 1.13282,-1.3125 1.96875,-1.71875 0.84375,-0.40625 1.78516,-0.60938 2.82813,-0.60938 z m 0,0"
    />
    <path
      d="m 98.839733,263.54507 v 1.95312 h -8.03125 v 6.23438 h 6.515625 v 1.95312 h -6.515625 v 8.32813 h -2.40625 v -18.46875 z m 0,0"
    />
    <path
      d="m 114.63127,267.49819 v 14.51563 h -2.40625 v -2.14063 c -0.46875,0.74219 -1.11718,1.32032 -1.9375,1.73438 -0.8125,0.41406 -1.71484,0.625 -2.70312,0.625 -1.13672,0 -2.15625,-0.23438 -3.0625,-0.70313 -0.89844,-0.46875 -1.60547,-1.17187 -2.125,-2.10937 -0.52344,-0.9375 -0.78125,-2.07813 -0.78125,-3.42188 v -8.5 h 2.39062 v 8.1875 c 0,1.42969 0.35938,2.52735 1.07813,3.29688 0.72656,0.77344 1.71875,1.15625 2.96875,1.15625 1.28906,0 2.30469,-0.39453 3.04687,-1.1875 0.75,-0.80078 1.125,-1.96094 1.125,-3.48438 v -7.96875 z m 0,0"
    />
    <path
      d="m 125.77629,267.23257 c 1.76953,0 3.20312,0.53906 4.29687,1.60937 1.09375,1.0625 1.64062,2.60157 1.64062,4.60938 v 8.5625 h -2.375 v -8.21875 c 0,-1.44531 -0.36718,-2.55078 -1.09375,-3.3125 -0.71874,-0.76953 -1.71093,-1.15625 -2.96874,-1.15625 -1.27344,0 -2.28125,0.39844 -3.03125,1.1875 -0.75,0.79297 -1.125,1.94922 -1.125,3.46875 v 8.03125 h -2.40625 v -14.51563 h 2.40625 v 2.0625 c 0.47656,-0.73828 1.125,-1.3125 1.9375,-1.71875 0.82031,-0.40625 1.72656,-0.60937 2.71875,-0.60937 z m 0,0"
    />
    <path
      d="m 134.76504,274.70132 c 0,-1.48828 0.29688,-2.78906 0.89063,-3.90625 0.60156,-1.125 1.42969,-1.99219 2.48437,-2.60938 1.05079,-0.625 2.23438,-0.9375 3.54688,-0.9375 1.125,0 2.17187,0.26172 3.14062,0.78125 0.97657,0.52344 1.72266,1.21094 2.23438,2.0625 v -7.6875 h 2.4375 v 19.60938 h -2.4375 v -2.73438 c -0.48047,0.86719 -1.1875,1.57813 -2.125,2.14063 -0.9375,0.55469 -2.03125,0.82812 -3.28125,0.82812 -1.29297,0 -2.46484,-0.3164 -3.51563,-0.95312 -1.05468,-0.63281 -1.88281,-1.52344 -2.48437,-2.67188 -0.59375,-1.14453 -0.89063,-2.45312 -0.89063,-3.92187 z m 12.29688,0.0312 c 0,-1.10156 -0.22656,-2.0625 -0.67188,-2.875 -0.4375,-0.8125 -1.03125,-1.42969 -1.78125,-1.85938 -0.75,-0.4375 -1.57812,-0.65625 -2.48437,-0.65625 -0.89844,0 -1.71875,0.21485 -2.46875,0.64063 -0.74219,0.42969 -1.32813,1.04687 -1.76563,1.85937 -0.4375,0.8125 -0.65625,1.76563 -0.65625,2.85938 0,1.11719 0.21875,2.08594 0.65625,2.90625 0.4375,0.8125 1.02344,1.4375 1.76563,1.875 0.75,0.4375 1.57031,0.65625 2.46875,0.65625 0.90625,0 1.73437,-0.21875 2.48437,-0.65625 0.75,-0.4375 1.34375,-1.0625 1.78125,-1.875 0.44532,-0.82031 0.67188,-1.78125 0.67188,-2.875 z m 0,0"
    />
    <path
      d="m 166.83267,274.20132 c 0,0.46094 -0.0273,0.94531 -0.0781,1.45312 H 155.1452 c 0.082,1.42969 0.56641,2.54688 1.45313,3.35938 0.89453,0.80469 1.98437,1.20312 3.26562,1.20312 1.03907,0 1.91016,-0.24218 2.60938,-0.73437 0.69531,-0.48828 1.1875,-1.14063 1.46875,-1.95313 h 2.59375 c -0.38672,1.39844 -1.16406,2.53125 -2.32813,3.40625 -1.16796,0.875 -2.61718,1.3125 -4.34375,1.3125 -1.38671,0 -2.62109,-0.30468 -3.70312,-0.92187 -1.08594,-0.61328 -1.9375,-1.48828 -2.5625,-2.625 -0.61719,-1.14453 -0.92188,-2.46875 -0.92188,-3.96875 0,-1.50781 0.29688,-2.82813 0.89063,-3.95313 0.60156,-1.13281 1.44531,-2.0039 2.53125,-2.60937 1.09375,-0.61328 2.34766,-0.92188 3.76562,-0.92188 1.375,0 2.58594,0.30469 3.64063,0.90625 1.0625,0.60547 1.87891,1.4336 2.45312,2.48438 0.58204,1.04297 0.875,2.23047 0.875,3.5625 z m -2.5,-0.51563 c 0,-0.91406 -0.20312,-1.70312 -0.60937,-2.35937 -0.40625,-0.66406 -0.96094,-1.17188 -1.65625,-1.51563 -0.69922,-0.34375 -1.46875,-0.51562 -2.3125,-0.51562 -1.21875,0 -2.26172,0.39062 -3.125,1.17187 -0.85547,0.77344 -1.34375,1.84375 -1.46875,3.21875 z m 0,0"
    />
    <path
      d="m 172.41651,269.85757 c 0.42579,-0.83203 1.03125,-1.47656 1.8125,-1.9375 0.78907,-0.45703 1.75,-0.6875 2.875,-0.6875 v 2.48437 h -0.64062 c -2.69922,0 -4.04688,1.46875 -4.04688,4.40625 v 7.89063 h -2.40625 v -14.51563 h 2.40625 z m 0,0"
    />
    <path
      d="m 185.03394,282.24819 c -1.11719,0 -2.11719,-0.1875 -3,-0.5625 -0.88672,-0.38281 -1.58594,-0.91406 -2.09375,-1.59375 -0.51172,-0.67578 -0.79297,-1.45703 -0.84375,-2.34375 h 2.48437 c 0.0703,0.71875 0.41016,1.3125 1.01563,1.78125 0.61328,0.46094 1.41406,0.6875 2.40625,0.6875 0.91406,0 1.64062,-0.20312 2.17187,-0.60937 0.53125,-0.40625 0.79688,-0.92188 0.79688,-1.54688 0,-0.63281 -0.28906,-1.10156 -0.85938,-1.40625 -0.5625,-0.3125 -1.43359,-0.61718 -2.60937,-0.92187 -1.08594,-0.28125 -1.96484,-0.56641 -2.64063,-0.85938 -0.67968,-0.28906 -1.26171,-0.72265 -1.75,-1.29687 -0.49218,-0.57031 -0.73437,-1.32813 -0.73437,-2.26563 0,-0.73828 0.21875,-1.41406 0.65625,-2.03125 0.44531,-0.625 1.07812,-1.11718 1.89062,-1.48437 0.8125,-0.36328 1.73829,-0.54688 2.78125,-0.54688 1.61329,0 2.91407,0.40625 3.90625,1.21875 0.98829,0.8125 1.51563,1.92969 1.57813,3.34375 h -2.40625 c -0.0547,-0.75781 -0.35938,-1.36718 -0.92188,-1.82812 -0.55468,-0.45703 -1.29687,-0.6875 -2.23437,-0.6875 -0.86719,0 -1.55469,0.1875 -2.0625,0.5625 -0.51172,0.36719 -0.76563,0.85156 -0.76563,1.45312 0,0.48047 0.14844,0.875 0.45313,1.1875 0.3125,0.30469 0.70312,0.54688 1.17187,0.73438 0.46875,0.1875 1.11719,0.39844 1.95313,0.625 1.03906,0.28125 1.88281,0.55859 2.53125,0.82812 0.65625,0.27344 1.21875,0.6836 1.6875,1.23438 0.46875,0.54297 0.71094,1.25781 0.73437,2.14062 0,0.80469 -0.22656,1.52344 -0.67187,2.15625 -0.4375,0.63672 -1.05859,1.13672 -1.85938,1.5 -0.80468,0.35157 -1.72656,0.53125 -2.76562,0.53125 z m 0,0"
    />
    <path
      d="m 214.78312,268.88882 c -0.51172,-1.07031 -1.25781,-1.90625 -2.23438,-2.5 -0.96875,-0.59375 -2.09375,-0.89063 -3.375,-0.89063 -1.29296,0 -2.46093,0.29688 -3.5,0.89063 -1.03125,0.59375 -1.84375,1.44531 -2.4375,2.54687 -0.58593,1.10547 -0.875,2.38282 -0.875,3.82813 0,1.44922 0.28907,2.71875 0.875,3.8125 0.59375,1.09375 1.40625,1.9375 2.4375,2.53125 1.03907,0.59375 2.20704,0.89062 3.5,0.89062 1.80079,0 3.28125,-0.53515 4.4375,-1.60937 1.16407,-1.08203 1.84766,-2.53906 2.04688,-4.375 h -7.35938 v -1.96875 h 9.9375 v 1.85937 c -0.14843,1.52344 -0.625,2.91407 -1.4375,4.17188 -0.8125,1.26172 -1.88281,2.26172 -3.20312,3 -1.32422,0.73047 -2.79688,1.09375 -4.42188,1.09375 -1.71875,0 -3.28906,-0.39844 -4.70312,-1.20313 -1.40625,-0.80078 -2.52344,-1.91406 -3.34375,-3.34375 -0.82422,-1.4375 -1.23438,-3.05468 -1.23438,-4.85937 0,-1.80078 0.41016,-3.42188 1.23438,-4.85938 0.82031,-1.4375 1.9375,-2.55468 3.34375,-3.35937 1.41406,-0.8125 2.98437,-1.21875 4.70312,-1.21875 1.95704,0 3.69141,0.49219 5.20313,1.46875 1.50781,0.96875 2.60937,2.33594 3.29687,4.09375 z m 0,0"
    />
    <path
      d="m 223.81897,269.85757 c 0.42579,-0.83203 1.03125,-1.47656 1.8125,-1.9375 0.78907,-0.45703 1.75,-0.6875 2.875,-0.6875 v 2.48437 h -0.64062 c -2.69922,0 -4.04688,1.46875 -4.04688,4.40625 v 7.89063 h -2.40625 v -14.51563 h 2.40625 z m 0,0"
    />
    <path
      d="m 237.6239,282.24819 c -1.36719,0 -2.60156,-0.30468 -3.70313,-0.92187 -1.10546,-0.61328 -1.96875,-1.48828 -2.59375,-2.625 -0.625,-1.14453 -0.9375,-2.46875 -0.9375,-3.96875 0,-1.48828 0.32032,-2.80078 0.96875,-3.9375 0.64454,-1.14453 1.51954,-2.01953 2.625,-2.625 1.11329,-0.61328 2.36329,-0.92188 3.75,-0.92188 1.375,0 2.61719,0.3086 3.73438,0.92188 1.11328,0.60547 1.99219,1.47656 2.64062,2.60937 0.64454,1.125 0.96875,2.44532 0.96875,3.95313 0,1.5 -0.33593,2.82422 -1,3.96875 -0.66796,1.13672 -1.57031,2.01172 -2.70312,2.625 -1.125,0.61719 -2.375,0.92187 -3.75,0.92187 z m 0,-2.10937 c 0.86328,0 1.67578,-0.20313 2.4375,-0.60938 0.75781,-0.40625 1.375,-1.01562 1.84375,-1.82812 0.46875,-0.8125 0.70312,-1.80078 0.70312,-2.96875 0,-1.16406 -0.23046,-2.15625 -0.6875,-2.96875 -0.46093,-0.8125 -1.0625,-1.41406 -1.8125,-1.8125 -0.74218,-0.40625 -1.54296,-0.60938 -2.40625,-0.60938 -0.88671,0 -1.69921,0.20313 -2.4375,0.60938 -0.73046,0.39844 -1.3125,1 -1.75,1.8125 -0.4375,0.8125 -0.65625,1.80469 -0.65625,2.96875 0,1.17969 0.21094,2.17187 0.64063,2.98437 0.4375,0.8125 1.01562,1.42188 1.73437,1.82813 0.72657,0.39844 1.52344,0.59375 2.39063,0.59375 z m 0,0"
    />
    <path
      d="m 261.12828,267.49819 v 14.51563 h -2.40625 v -2.14063 c -0.46875,0.74219 -1.11718,1.32032 -1.9375,1.73438 -0.8125,0.41406 -1.71484,0.625 -2.70312,0.625 -1.13672,0 -2.15625,-0.23438 -3.0625,-0.70313 -0.89844,-0.46875 -1.60547,-1.17187 -2.125,-2.10937 -0.52344,-0.9375 -0.78125,-2.07813 -0.78125,-3.42188 v -8.5 h 2.39062 v 8.1875 c 0,1.42969 0.35938,2.52735 1.07813,3.29688 0.72656,0.77344 1.71875,1.15625 2.96875,1.15625 1.28906,0 2.30469,-0.39453 3.04687,-1.1875 0.75,-0.80078 1.125,-1.96094 1.125,-3.48438 v -7.96875 z m 0,0"
    />
    <path
      d="m 267.61705,270.17007 c 0.47656,-0.83203 1.1875,-1.52344 2.125,-2.07813 0.94531,-0.5625 2.05078,-0.84375 3.3125,-0.84375 1.28125,0 2.44531,0.3125 3.5,0.9375 1.05078,0.61719 1.8789,1.48438 2.48437,2.60938 0.60156,1.11719 0.90625,2.41797 0.90625,3.90625 0,1.46875 -0.30469,2.77734 -0.90625,3.92187 -0.60547,1.14844 -1.43359,2.03907 -2.48437,2.67188 -1.05469,0.63672 -2.21875,0.95312 -3.5,0.95312 -1.24219,0 -2.33594,-0.27343 -3.28125,-0.82812 -0.94922,-0.5625 -1.66797,-1.25391 -2.15625,-2.07813 v 9.5625 h -2.40625 v -21.40625 h 2.40625 z m 9.85937,4.53125 c 0,-1.09375 -0.22656,-2.04688 -0.67187,-2.85938 -0.4375,-0.8125 -1.03125,-1.42968 -1.78125,-1.85937 -0.75,-0.42578 -1.57813,-0.64063 -2.48438,-0.64063 -0.875,0 -1.69531,0.21875 -2.45312,0.65625 -0.75,0.42969 -1.35157,1.05469 -1.79688,1.875 -0.44922,0.82422 -0.67187,1.77735 -0.67187,2.85938 0,1.09375 0.22265,2.05469 0.67187,2.875 0.44531,0.8125 1.04688,1.4375 1.79688,1.875 0.75781,0.4375 1.57812,0.65625 2.45312,0.65625 0.90625,0 1.73438,-0.21875 2.48438,-0.65625 0.75,-0.4375 1.34375,-1.0625 1.78125,-1.875 0.44531,-0.82031 0.67187,-1.78906 0.67187,-2.90625 z m 0,0"
    />
  </g>
</svg>
