<svg xmlns="http://www.w3.org/2000/svg" version="1.1" viewBox="0 0 256 256" width="512" height="512">
  <title xml:lang="en">ORCID iD</title>

  <metadata
    xmlns:rdf="http://www.w3.org/1999/02/22-rdf-syntax-ns#"
    xmlns:dc="http://purl.org/dc/elements/1.1/"
    xmlns:cc="http://creativecommons.org/ns#"
  >
    <rdf:RDF>
      <cc:Work rdf:about="">
        <dc:format>image/svg+xml</dc:format>
        <dc:type rdf:resource="http://purl.org/dc/dcmitype/StillImage" />
        <cc:license rdf:resource="https://creativecommons.org/publicdomain/zero/1.0/" />
        <cc:attributionName>ORCID iD icon graphics</cc:attributionName>
        <cc:attributionURL rdf:resource="https://doi.org/10.23640/07243.5008697.v4" />
      </cc:Work>
    </rdf:RDF>
  </metadata>

  <style>
    :root {
      --color-primary: rgb(166, 206, 57);
      --color-primary-contrast: rgb(255, 255, 255);
    }

    .shape {
      fill: var(--color-primary);
    }

    .text {
      fill: var(--color-primary-contrast);
    }
  </style>

  <path
    class="shape"
    d="M256,128c0,70.7-57.3,128-128,128C57.3,256,0,198.7,0,128C0,57.3,57.3,0,128,0C198.7,0,256,57.3,256,128z"
  />

  <g class="text">
    <path d="M86.3,186.2H70.9V79.1h15.4v48.4V186.2z" />
    <path
      d="M108.9,79.1h41.6c39.6,0,57,28.3,57,53.6c0,27.5-21.5,53.6-56.8,53.6h-41.8V79.1z
        M124.3,172.4h24.5 c34.9,0,42.9-26.5,42.9-39.7c0-21.5-13.7-39.7-43.7-39.7h-23.7V172.4z"
    />
    <path
      d="M88.7,56.8c0,5.5-4.5,10.1-10.1,10.1c-5.6,0-10.1-4.6-10.1-10.1c0-5.6,4.5-10.1,10.1-10.1
        C84.2,46.7,88.7,51.3,88.7,56.8z"
    />
  </g>

</svg>
