<svg xmlns="http://www.w3.org/2000/svg" viewBox="0 0 2018.5241 326.32599" width="2018.5241" height="326.32599">
  <style>
    :root {
      --color-text: rgb(36 70 141);
    }

    .text {
      fill: var(--color-text);
    }

    @media screen and (forced-colors: active) {
      :root {
        --color-text: CanvasText;
      }

      path {
        fill: var(--color-text);
      }
    }
  </style>

  <g fill="#f5d53f" transform="translate(-219.67674,-305.34103)">
    <path
      d="m 398.41519,362.57859 c -9.87956,-4.30156 -10.71812,-17.18709 -1.51731,-23.31539 L 400.29577,337 H 541.68 c 155.63397,0 146.2858,-0.385 150.29437,6.18982 4.0065,6.57146 1.6198,15.44609 -5.07214,18.86006 -3.73749,1.90672 -6.9557,1.94925 -144.61239,1.91098 -115.57493,-0.0321 -141.34232,-0.27969 -143.87465,-1.38227 z"
    />
    <path
      d="m 314.28754,477.37051 c -4.36997,-2.15468 -7.6492,-8.92579 -6.72041,-13.87663 0.91445,-4.87445 4.74687,-9.20913 9.24715,-10.45905 2.44761,-0.6798 61.12798,-1.02503 174.68572,-1.0277 160.8298,-0.004 171.20393,0.1 174.42892,1.74442 9.63495,4.91299 10.51512,17.72073 1.59658,23.23269 -3.23761,2.00096 -4.53491,2.01559 -176.64353,1.99299 -156.15312,-0.0205 -173.70119,-0.18017 -176.59443,-1.60672 z"
    />
    <path
      d="M 232.5,594.33383 C 222.29953,592.05906 217.95049,584.42169 221.84374,575.62034 225.5436,567.2562 204.34744,568 439,568 c 228.46355,0 212.52567,-0.41945 216.54157,5.69889 2.41077,3.67289 2.41077,10.92933 0,14.60222 -1.01122,1.54061 -3.23424,3.56561 -4.94007,4.5 -2.8876,1.58172 -17.34298,1.70854 -209.6015,1.83881 -113.575,0.077 -207.4,-0.0608 -208.5,-0.30609 z"
    />
  </g>

  <path
    fill="#db6d0e"
    d="m 1953.1361,324.18921 c -24.629,-6.78335 -40.0949,-31.14378 -35.829,-56.43464 3.2018,-18.98264 17.461,-34.85082 35.5511,-39.56269 8.3431,-2.17311 20.8186,-1.97636 28.6818,0.45233 35.4274,10.94241 46.5233,56.07755 20.2832,82.50649 -6.7689,6.81761 -13.4118,10.72932 -22.035,12.97536 -7.0185,1.82811 -20.1311,1.85917 -26.6521,0.0632 z m 20.7657,-32.42657 c 13.2024,-5.99623 13.4699,-24.27696 0.4514,-30.85367 -5.3895,-2.7227 -10.1608,-2.82789 -15.6289,-0.34457 -5.7744,2.62239 -8.7052,7.15018 -9.2181,14.24094 -0.3522,4.86921 -0.011,6.4719 2.1727,10.1976 4.5823,7.81906 13.7503,10.60776 22.2229,6.7597 z"
  />

  <g class="text" transform="translate(-219.67674,-305.34103)">
    <path
      d="M 1998,535.5 V 460 h -13.5 -13.5 v -25 -25 h 13.5 13.5 v -12.27623 c 0,-49.43195 17.3922,-78.85361 52.5451,-88.88824 6.5268,-1.86314 10.4682,-2.2766 21.9549,-2.30316 15.8078,-0.0366 23.423,1.69928 35.5,8.09199 11.8094,6.25109 11.7104,3.61013 0.9605,25.61956 -5.1728,10.59084 -9.7129,19.64135 -10.089,20.11225 -0.3761,0.47089 -3.5386,-0.27861 -7.0277,-1.66554 -13.594,-5.40369 -23.8231,-4.16611 -31.4867,3.80941 -6.8152,7.09255 -8.5826,13.23893 -9.1302,31.74996 L 2050.761,410 H 2084.3805 2118 v 25 25 h -33.5 -33.5 v 75.5 75.5 h -26.5 -26.5 z"
    />
    <path
      d="m 1550.7566,463.41521 0.2566,-147.58485 46.7434,0.46018 c 38.0049,0.37415 48.3324,0.76978 55.2434,2.11625 42.2709,8.23567 69.3246,30.1734 80.2733,65.09321 8.8122,28.10538 4.828,59.76459 -10.4713,83.20856 -8.7271,13.37292 -23.386,27.05788 -35.552,33.18995 -2.3375,1.17818 -4.25,2.58885 -4.25,3.13483 0,0.54598 12.15,24.78137 27,53.85643 14.85,29.07505 27,53.15089 27,53.50186 0,0.35097 -13.3335,0.51893 -29.63,0.37325 L 1677.7401,610.5 1655.12,562.25667 1632.5,514.01334 1617.75,514.00667 1603,514 v 48.5 48.5 l -26.25,3e-5 -26.25,3e-5 z m 95.0037,-0.92078 C 1668.6735,457.09208 1685,437.22179 1685,414.73731 c 0,-18.53522 -9.0751,-34.18443 -24.6111,-42.43974 C 1650.3782,366.9782 1644.5093,366 1622.6057,366 H 1603 v 49 49 l 18.25,-0.0148 c 12.549,-0.0102 20.2056,-0.47586 24.5103,-1.49079 z"
    />
    <path
      d="M 1382,510.5 V 410 h 26.4779 26.478 l 0.272,18.75 0.2721,18.75 3.8824,-6 c 12.6399,-19.53447 33.3834,-30.66473 63.3676,-34.00096 l 6.25,-0.69541 v 31.49189 31.49189 l -4.25,-1.00152 c -6.6257,-1.56136 -22.4688,-1.26299 -29.4986,0.55555 -17.9325,4.63897 -30.3075,16.4314 -36.9354,35.19669 l -2.8122,7.96187 -0.3117,49.25 -0.3118,49.25 H 1408.4402 1382 Z"
    />
    <path
      d="M 736,463.41514 V 315.83029 l 46.75,0.40575 c 43.50693,0.37761 47.49919,0.56009 57.54979,2.63055 43.16007,8.89114 69.73203,31.90082 79.83696,69.13391 2.01396,7.42072 2.30413,10.78411 2.28625,26.4995 -0.0191,16.76743 -0.20912,18.61628 -2.77528,27 -12.40528,40.52842 -45.26308,66.33304 -90.95081,71.42752 C 823.40697,513.51738 812.31109,514 804.03941,514 H 789 V 562.5 611 H 762.5 736 Z m 95.5399,-0.93305 c 17.61294,-4.48564 30.67822,-16.29128 36.56474,-33.03949 2.70371,-7.69255 2.71922,-21.61734 0.0337,-30.24598 C 863.21415,383.37521 850.72311,371.9428 833.5399,367.53045 829.19749,366.41539 822.34416,366 808.2899,366 H 789 v 49 49 h 18.2899 c 13.06926,0 19.99114,-0.43327 24.25,-1.51791 z"
    />
    <path
      d="m 1849,613.93684 c -15.0183,-1.82726 -31.9872,-8.097 -44,-16.25729 -6.63,-4.50373 -17.6145,-15.32764 -22.5087,-22.17955 -8.9579,-12.54107 -15.9772,-29.85287 -18.5068,-45.6433 -1.9976,-12.46912 -0.8226,-38.17578 2.2822,-49.93047 9.7953,-37.0853 32.9288,-61.08701 67.445,-69.97613 12.1449,-3.12773 30.5115,-3.63889 42.2883,-1.17691 48.4149,10.12125 75.7956,48.3152 73.6435,102.72681 -0.3045,7.7 -0.8514,15.0125 -1.2152,16.25 l -0.6616,2.25 h -64.8833 c -74.5316,0 -67.375,-1.24907 -61.3898,10.71449 7.5878,15.16731 22.6375,24.30769 39.9665,24.27364 11.3715,-0.0223 22.7264,-4.35465 33.8823,-12.92731 l 6.8423,-5.258 2.6577,2.46059 c 1.4617,1.35333 8.9576,8.18324 16.6576,15.17759 7.7,6.99434 14.15,13.13137 14.3333,13.63782 0.5191,1.43431 -11.6644,13.67376 -18.3333,18.41746 -19.4354,13.82475 -44.9099,20.31073 -68.5,17.44056 z m 48,-126.30248 c 0,-4.81588 -6.3026,-16.77159 -11.15,-21.1509 -15.6751,-14.16153 -42.7746,-12.96224 -57.27,2.53449 -4.2025,4.49284 -9.2376,13.47619 -11.0595,19.73205 l -0.6553,2.25 H 1856.9326 1897 Z"
    />
    <path
      d="m 1240.5,614.34412 c -18.2955,-2.17234 -34.3704,-8.14912 -48,-17.84669 -6.6491,-4.73087 -18.8548,-16.98489 -18.3333,-18.4058 0.2659,-0.72453 13.956,-13.46949 31.4974,-29.32301 l 2.1641,-1.95587 6.6974,5.1333 c 8.2205,6.30062 14.2606,9.42554 22.1901,11.48029 21.1744,5.48683 42.3234,-3.78766 51.7907,-22.71185 C 1294.4916,528.75093 1301.6482,530 1227.1166,530 h -64.8833 l -0.626,-2.25 c -0.3443,-1.2375 -0.9125,-7.9072 -1.2626,-14.82155 -2.7848,-54.99476 24.75,-93.9315 73.6553,-104.15526 11.848,-2.47685 30.2524,-1.98563 42.2333,1.12721 34.5848,8.9857 58.1028,33.37551 67.3561,69.85309 13.1515,51.84468 -7.5951,103.24522 -50.3011,124.62303 -15.0304,7.52393 -37.5527,11.77664 -52.7883,9.9676 z M 1292.4795,488.75 c -1.8219,-6.25586 -6.857,-15.23921 -11.0595,-19.73205 -14.4368,-15.43408 -41.5969,-16.69421 -57.1409,-2.65113 -4.9215,4.44628 -10.0815,13.91212 -10.9205,20.03339 L 1212.7282,491 h 40.2033 40.2033 z"
    />
    <path
      d="m 1031,613.94448 c -41.15842,-5.04964 -71.48484,-32.2851 -83.24201,-74.75774 -1.85359,-6.69607 -2.1312,-10.39322 -2.15404,-28.68674 -0.0244,-19.56579 0.15195,-21.65385 2.58261,-30.57377 10.20029,-37.43256 33.03191,-61.09293 67.52514,-69.97613 12.1449,-3.12773 30.5115,-3.63889 42.2883,-1.17691 48.8981,10.22227 76.3615,49.04203 73.6735,104.13835 -0.3378,6.92365 -0.905,13.60096 -1.2605,14.83846 l -0.6463,2.25 h -64.8833 c -74.53163,0 -67.37497,-1.24907 -61.3898,10.71449 7.5585,15.10874 22.6062,24.28551 39.8222,24.28551 11.738,0 22.486,-4.10746 34.1586,-13.05395 l 6.6974,-5.1333 2.1641,1.95587 c 17.5414,15.85352 31.2315,28.59848 31.4974,29.32301 0.5216,1.4213 -11.6854,13.6759 -18.3333,18.40465 -19.482,13.8579 -44.93,20.33996 -68.5,17.4482 z m 48,-126.31012 c 0,-4.81588 -6.3026,-16.77159 -11.15,-21.1509 -15.6751,-14.16153 -42.7746,-12.96224 -57.27,2.53449 -4.2025,4.49284 -9.2376,13.47619 -11.05949,19.73205 L 998.86522,491 H 1038.9326 1079 Z"
    />
  </g>
</svg>
