<svg xmlns="http://www.w3.org/2000/svg" viewBox="0 0 570 147" width="570" height="147">
  <title xml:lang="en">PREreview</title>

  <style>
    :root {
      --color-white: rgb(254 254 254);
      --color-black-800: rgb(24 24 24);
      --color-red-600: rgb(228 0 44);
      --color-background: var(--color-white);
      --color-primary: var(--color-red-600);
      --color-text: var(--color-black-800);
    }

    #text {
      fill: var(--color-text);
    }

    #mark .border {
      fill: var(--color-text);
    }

    #mark .line {
      stroke: var(--color-text);
    }

    #mark .paper {
      fill: var(--color-background);
    }

    .primary {
      fill: var(--color-primary);
    }

    @media screen and (forced-colors: active) {
      :root {
        --color-background: Canvas;
        --color-primary: CanvasText;
        --color-text: CanvasText;
      }
    }
  </style>

  <g id="text">
    <g class="primary">
      <path
        d="M146.132 80.149V99H136V48H157.397C166.253 48 171 54.3567 171 64.0745C171 73.7923 166.253 80.149 157.397 80.149H146.132ZM155.845 57.2727H145.872V71.1818H155.845C158.533 71.1818 160.231 69.8641 160.231 66.4234V62.0311C160.231 58.5904 158.533 57.2727 155.845 57.2727Z"
      />
      <path
        d="M204.627 79.7106H197.99V99H188V48H209.098C217.83 48 222.511 54.2106 222.511 63.8553C222.511 71.308 219.717 76.7149 214.477 78.7607L223 99H212.172L204.627 79.7106ZM197.872 57.2727V71.1818H207.845C210.533 71.1818 212.231 69.9373 212.231 66.4234V62.0311C212.231 58.5172 210.533 57.2727 207.845 57.2727H197.872Z"
      />
      <path d="M270 99V89.8668H249.931V77.7378H266.944V68.6777H249.931V57.1332H270V48H240V99H270Z" />
    </g>
    <path
      d="M303.035 77.6648H293.442V99H287V48H305.626C313.748 48 317.95 53.0415 317.95 62.8324C317.95 70.9427 315.079 75.765 309.477 77.2264L319 99H311.858L303.035 77.6648ZM293.222 53.5636V71.1818H305.097C308.962 71.1818 311 69.1133 311 64.6909V60.0545C311 55.6322 308.962 53.5636 305.097 53.5636H293.222Z"
    />
    <path d="M363 99V93.1547H342.289V76.1304H361.291V70.2851H342.289V53.8453H363V48H336V99H363Z" />
    <path
      d="M401.497 99L416 48H409.35L400.224 80.5874L397.96 93.0817H397.182L394.847 80.5874L385.792 48H379L393.503 99H401.497Z"
    />
    <path d="M453 99V93.5201H446.132V53.4799H453V48H432V53.4799H438.868V93.5201H432V99H453Z" />
    <path d="M497 99V93.1547H476.289V76.1304H495.291V70.2851H476.289V53.8453H497V48H470V99H497Z" />
    <path
      d="M532.195 99L539.347 66.7049L541.026 54.3567H541.901L543.58 66.7049L550.44 99H558.542L570 48H563.286L556.863 80.0759L555.111 92.0587H554.309L552.63 80.0759L545.843 48H537.303L530.589 80.0759L528.837 92.0587H528.035L526.283 80.0759L519.86 48H513L523.948 99H532.195Z"
    />
  </g>

  <g id="mark">
    <rect x="3.5" y="15.5" width="94" height="116" class="paper" />
    <path
      d="M90.5 12C96.299 12 101 16.701 101 22.5V124.5H94V22.5C94 20.567 92.433 19 90.5 19H10.5C8.567 19 7 20.567 7 22.5V124.5C7 126.433 8.567 128 10.5 128H70V135H10.5C4.70101 135 0 130.299 0 124.5V22.5C0 16.701 4.70101 12 10.5 12H90.5Z"
      class="border"
    />
    <path d="M24 102.5H77" stroke-width="7" class="line" />
    <path d="M24 73.5H77" stroke-width="7" class="line" />
    <path d="M24 44.5H77" stroke-width="7" class="line" />
    <path d="M85.5 131.5L65.5 146.5V116.5L85.5 131.5Z" class="primary" />
  </g>
</svg>
