<svg xmlns="http://www.w3.org/2000/svg" viewBox="71.8 56.6 259.9 61.9" width="519.8" height="123.8">
  <title xml:lang="en">PREreview</title>

  <style>
    :root {
      --color-black-800: rgb(24 24 24);
      --color-red-600: rgb(228 0 44);
      --color-primary: var(--color-red-600);
      --color-text: var(--color-black-800);
    }

    #text {
      fill: var(--color-text);
    }

    #logo {
      fill: none;
      stroke: var(--color-text);
    }

    .primary {
      fill: var(--color-primary);
      stroke-width: 0;
    }

    @media screen and (forced-colors: active) {
      :root {
        --color-primary: CanvasText;
        --color-text: CanvasText;
      }
    }
  </style>

  <g id="text">
    <g class="primary">
      <path
        d="M156.7,83c0.1,2-0.7,4-2.2,5.3c-1.8,1.3-4,2-6.2,1.8h-2v7.7h-4.6V76.2h6.9c2.1-0.2,4.3,0.4,6,1.7 C156,79.2,156.8,81,156.7,83z M146.3,86.4h1.5c1.1,0.1,2.2-0.2,3.2-0.8c0.7-0.6,1.1-1.5,1.1-2.4c0.1-0.9-0.2-1.8-0.9-2.4 c-0.8-0.6-1.8-0.9-2.8-0.8h-2.1C146.3,80,146.3,86.4,146.3,86.4z"
      />
      <path
        d="M169.6,89.5v8.3h-4.5V76.2h6.3c2.9,0,5.1,0.5,6.5,1.6c2.4,2.1,2.8,5.6,1.1,8.3c-0.8,1-1.8,1.8-3,2.3 c3.3,4.9,5.4,8,6.4,9.4h-5.1l-5.2-8.3H169.6z M169.6,85.8h1.5c1.1,0.1,2.2-0.2,3.2-0.7c0.7-0.5,1.1-1.4,1-2.3 c0.1-0.9-0.3-1.7-1.1-2.2c-1-0.5-2.1-0.7-3.3-0.7h-1.4L169.6,85.8z"
      />
      <path d="M201.7,97.8h-12.5V76.2h12.5V80h-7.9v4.8h7.3v3.8h-7.3v5.6h7.9V97.8z" />
    </g>
    <path
      d="M212.3,88.4v9.4h-1.5V76.2h5.1c2.7,0,4.6,0.5,5.9,1.5c1.3,1.1,2,2.8,1.9,4.5c0,1.3-0.4,2.6-1.1,3.7 c-0.9,1.1-2.1,1.8-3.5,2.2l5.9,9.8h-1.8l-5.6-9.4L212.3,88.4L212.3,88.4L212.3,88.4z M212.3,87.1h4.1c1.5,0.1,3-0.3,4.2-1.2 c1-0.9,1.6-2.2,1.5-3.6c0.1-1.4-0.4-2.7-1.5-3.6c-1-0.7-2.6-1.1-4.8-1.1h-3.6L212.3,87.1z"
    />
    <path d="M244.9,97.8h-11.8V76.2h11.8v1.4h-10.3v8.2h9.7v1.4h-9.7v9.3h10.3V97.8z" />
    <path
      d="M266.8,76.2h1.6l-8,21.6h-1.3L251,76.2h1.6l5.5,14.7c0.8,2.2,1.4,3.9,1.7,5c0.2-0.7,0.6-1.9,1.2-3.4L266.8,76.2z"
    />
    <path d="M275.8,97.8V76.2h1.5v21.6H275.8z" />
    <path d="M299.4,97.8h-11.8V76.2h11.8v1.4h-10.3v8.2h9.7v1.4h-9.7v9.3h10.3V97.8z" />
    <path
      d="M325.8,97.8h-1.2l-4.8-16.7c-0.4-1.4-0.7-2.5-0.9-3.4c-0.2,0.9-0.4,1.9-0.7,3c-0.3,1.1-1.9,6.8-4.8,17.1h-1.3l-6-21.6h1.6 l3.8,13.9l0.4,1.6c0.1,0.5,0.2,0.9,0.4,1.3c0.2,0.4,0.2,0.8,0.3,1.2s0.2,0.8,0.2,1.2c0.2-1.3,0.7-3.4,1.5-6.1l3.7-13.1h1.7l4.3,15 c0.5,1.7,0.9,3.1,1.1,4.2c0.1-0.7,0.3-1.5,0.5-2.3s1.7-6.5,4.6-17h1.5L325.8,97.8z"
    />
  </g>

  <g id="logo">
    <path
      d="M109.9,114.7H74c-0.9,0-1.7-0.8-1.7-1.7l0,0V58.8c0-0.9,0.8-1.7,1.7-1.7l0,0h44.6c0.9,0,1.7,0.8,1.7,1.7l0,0 V113"
    />
    <polyline class="primary" points="105.9,118.5 112.4,114.7 105.9,110.9 " />
    <line x1="83" y1="72" x2="109.9" y2="72" />
    <line x1="83" y1="86.1" x2="109.9" y2="86.1" />
    <line x1="83" y1="100.3" x2="109.9" y2="100.3" />
  </g>
</svg>
