<svg xmlns="http://www.w3.org/2000/svg" viewBox="0 0 100 93" width="1000" height="930">

  <style>
    :root {
      --color-curve: rgb(0 0 0);
      --color-text: rgb(218 32 44);
    }

    .curve {
      fill: var(--color-curve);
    }

    .text {
      fill: var(--color-text);
    }

    @media screen and (forced-colors: active) {
      :root {
        --color-curve: CanvasText;
        --color-text: CanvasText;
      }

      .text {
        stroke: Canvas;
        stroke-width: 1;
      }
    }
  </style>

  <title xml:lang="en">SciELO</title>

  <g class="curve">
    <path
      fill-rule="evenodd"
      d="m 16142,18455.88 c 3385.35,-5253.49 3458.33,-9162.76 -604.92,-3986.15 m 604.92,3986.15 c 4455.22,-4910.04 3778.98,-11102.79 -604.92,-3986.15 m 604.92,3986.15 c 3385.35,-5253.49 3458.33,-9162.76 -604.92,-3986.15 m 604.92,3986.15 c 4455.22,-4910.04 3778.98,-11102.79 -604.92,-3986.15 m 604.92,3986.15 c 3385.35,-5253.49 3458.33,-9162.76 -604.92,-3986.16 m 604.92,3986.16 c 4455.22,-4910.04 3778.98,-11102.79 -604.92,-3986.16"
      transform="matrix(0.01264049,0,0,0.01266241,-160.87217,-141.55084)"
    />
    <path
      d="m 36.503516,44.433704 a 2.6007485,2.6007485 0 0 1 -2.599501,2.600749 2.6007485,2.6007485 0 0 1 -2.601995,-2.598252 2.6007485,2.6007485 0 0 1 2.597002,-2.603242 2.6007485,2.6007485 0 0 1 2.604489,2.595752"
    />
  </g>

  <path
    class="text"
    d="m -647.21289,142.87695 -14.85156,23.66602 c -4.66667,-5.86667 -9.69427,-11.57378 -15.96094,-15.78711 -10.10667,-7.02667 -23.29247,-8.61385 -35.11914,-5.86719 -9.77333,2.28 -18.08107,8.97365 -23.42774,17.32031 -5.21333,8.13334 -7.12,18.00021 -7,27.54688 0.29334,12.21333 6.41321,24.25323 16.53321,31.22656 20.24,14.42667 44.99976,22.23982 62.75976,40.14649 10.70667,10.42666 13.08099,27.79966 6.34766,40.98632 -4.33333,8.36 -12.37328,14.82753 -21.61328,16.88086 -14.81334,3.48 -30.98641,-2.22645 -41.06641,-13.45312 -14.45333,-15.45333 -20.2139,-36.73349 -23.2539,-57.16016 h -4.02735 l 0.0273,75.01367 3.71298,-0.0609 12.40616,-23.9528 c 5.18666,7.12 11.28078,13.73313 18.80078,18.45313 9.82666,6.37333 22.16028,8.61424 33.62695,6.26758 12.92,-2.24 24.12003,-10.96144 30.69336,-22.13477 6.62667,-11.24 8.37391,-24.93302 6.25391,-37.67969 -2.02667,-12.08 -9.76118,-22.41385 -19.20118,-29.86718 -18.89333,-15.78667 -43.29376,-23.18586 -61.78711,-39.50586 -4.69333,-4.24 -9.24028,-9.31935 -10.62695,-15.66602 -1.08,-7.82667 2.12188,-15.99997 7.92188,-21.30664 8.56,-8.56 21.78502,-10.88005 33.31836,-8.38672 10.32,2.22667 18.93393,9.26703 24.94726,17.70703 9.42667,12.88 13.58716,28.5719 17.17383,43.86524 l 3.69336,0.48047 -0.28125,-68.73243 z m 553.210937,54.86914 c -2.570645,0.0618 -5.143591,0.36243 -7.683597,0.91993 -10.29333,2.06666 -19.39979,8.09403 -26.45312,15.7207 -14.96,16 -22.34573,37.69213 -25.03906,59.10547 -2.65334,24.78666 -0.37362,51.17409 12.37304,73.10742 7.96,14.33333 20.89409,26.72078 37.10742,30.80078 12.946675,3.49333 27.038312,0.22635 37.931645,-7.32031 16.333333,-11.14667 26.107526,-29.74654 30.880859,-48.5332 4.88,-20.76 4.559427,-42.69474 -0.253906,-63.44141 -4.546667,-18.48 -13.478802,-36.62521 -28.105469,-49.17188 -8.493333,-7.23666 -19.618352,-11.45516 -30.757812,-11.1875 z m 1.837891,4.67774 c 8.388125,0.26687 16.606718,4.34336 22.386718,10.44336 9.64,9.48 12.639271,23.45185 13.585938,36.47851 1.533333,22.24 1.372422,44.57352 0.732422,66.85352 -0.506667,11.96 -0.959375,24.45372 -6.359375,35.40039 -4.8,9.22667 -12.265938,17.97427 -22.585938,20.96094 -9.933333,3.10666 -21.241123,0.17153 -28.814453,-6.8418 -9.90667,-8.88 -15.10547,-21.98478 -16.10547,-35.07813 -1.82667,-21.73333 -1.30633,-43.57432 -0.98633,-65.34765 0.62667,-13.18667 0.66482,-26.8269 5.77149,-39.24024 4.2,-10.52 12.97367,-19.45388 24.01367,-22.56054 2.749998,-0.82334 5.565286,-1.15732 8.361328,-1.06836 z m -482.078128,0.51172 c -9.81,0.0387 -19.61406,3.79484 -26.66406,10.71484 -23.68,22.69333 -27.23977,62.39815 -9.75977,89.77149 5.89334,9.08 14.29428,17.18716 24.96094,20.17382 11.84,3.37334 25.74611,0.78703 34.43946,-8.29297 10.05332,-9.88 13.59984,-24.28086 14.83984,-37.88085 l -4.30664,-0.0664 c -0.78667,7.93333 -2.16028,15.93383 -5.62696,23.17383 -3.98666,8.30666 -10.73317,15.8938 -19.83984,18.48047 -8.53333,2.57333 -19.09312,1.69351 -25.45312,-5.14649 -5.56,-6.17333 -6.9594,-14.7737 -8.05274,-22.70703 -1.84,-16.46667 -1.40101,-33.09422 -0.041,-49.57422 1.06666,-8.57333 1.84002,-17.73315 6.69336,-25.14648 6.36,-9.46667 19.84145,-11.18649 29.82812,-7.14649 7.73333,3.2 12.23979,10.82688 14.45313,18.54688 -4.08,-3.34667 -10.08079,-4.97232 -14.80079,-1.95899 -7.38666,4.34667 -7.01372,16.73235 0.59961,20.65235 6.38667,3.73333 15.3873,0.18682 17.64063,-6.83985 4.70667,-14.49333 -4.71922,-31.2932 -19.19922,-35.5332 -3.17,-0.83333 -6.44094,-1.23362 -9.71094,-1.2207 z m 245.97657,0.43359 -123.62696,0.0137 v 5 h 25.33399 V 373.7168 h -25.33399 v 5 l 126.38672,0.0254 -0.10547,-69.98633 -3.17383,0.56055 c -1.44,8.81333 -2.5469,17.73296 -5.24023,26.29297 -2.84,10.33332 -7.29391,20.65376 -15.25391,28.09374 -6.90666,6.82667 -16.74536,10.02701 -26.33203,10.01368 l -30.01367,-0.0547 0.0527,-86.95899 c 9.61334,0.0533 20.69441,-1.01374 28.42774,5.90626 8.14667,7.6 8.98664,19.49385 10.30664,29.86718 l 2.51953,1.05274 0.0937,-80.01368 -2.5332,-0.27929 c -0.84,12.45333 -3.49331,26.59971 -14.30664,34.37305 -7,5.39999 -16.22782,4.47945 -24.50782,4.43945 l -0.0391,-73.62695 32.7461,-0.0254 c 10.88,0.14667 22.34559,4.57258 28.57226,13.89258 8.12,12.04 10.41375,26.74771 13.09375,40.73438 l 2.90625,0.69336 z m 28.70703,0.0137 -0.0137,5 23.88086,0.0137 0.11914,165.32032 h -24 c 0,0 3.4e-4,3.33172 0.0137,5.01172 l 125.30664,-0.0117 0.0527,-78.9336 c -0.98667,-0.0267 -1.96026,-0.0531 -2.93359,-0.0664 -1.17334,9.2 -2.73222,18.37203 -5.18555,27.33203 -4.25333,15.97333 -11.89401,32.72068 -27.02734,41.02734 -13.8,7.76 -45.22657,5.64063 -45.22657,5.64063 l 0.0274,-165.38672 24.01367,0.25195 c 0,-1.73333 0.0254,-5.17187 0.0254,-5.17187 z M -525,208.85547 v 4.31836 l 17,0.0137 0.10742,107.56055 L -525,320.85547 v 4.31836 l 52.98633,0.0137 -0.0527,-4.38672 -17.30664,0.0273 0.0137,-111.97265 z"
    transform="matrix(0.13729492,0,0,0.13729492,103.3707,22.223896)"
  />
</svg>
