<svg xmlns="http://www.w3.org/2000/svg" viewBox="0 0 119 36" width="1190" height="360">
  <title xml:lang="en">Sciety</title>

  <style>
    :root {
      --color-text: rgb(52 67 74);
    }

    .text {
      fill: var(--color-text);
    }

    @media screen and (forced-colors: active) {
      :root {
        --color-text: CanvasText;
      }

      .logo path {
        fill: var(--color-text);
      }
    }
  </style>

  <g class="logo" transform="translate(0.47752809,0.28651685)">
    <path
      d="m 0.65214844,10.434724 c -0.11179688,0 -0.20496094,0.01863 -0.26085938,0.0559 C 0.20496094,10.593103 0,10.965759 0,11.692439 v 11.925 c 0,0.72668 0.20496094,1.099336 0.38197266,1.201816 0.17701171,0.102481 0.6055664,0.09316 1.23908204,-0.270175 L 11.785254,18.623845 c 0.633516,-0.36334 0.857109,-0.735996 0.857109,-0.968906 0,-0.23291 -0.223593,-0.59625 -0.857109,-0.968906 L 1.6210547,10.760798 C 1.2018164,10.518572 0.87574219,10.434724 0.65214844,10.434724 Z"
      fill="#b53818"
      transform="translate(0,0.046233)"
    />
    <path
      d="m 32.141602,10.434724 c -0.223594,0 -0.558985,0.08385 -0.968907,0.326074 l -10.164199,5.925235 c -0.633516,0.36334 -0.857109,0.735996 -0.857109,0.968906 0,0.23291 0.223593,0.59625 0.857109,0.968906 l 10.164199,5.925235 c 0.624199,0.363339 1.052754,0.372656 1.239082,0.270175 0.177012,-0.10248 0.381973,-0.475136 0.381973,-1.201816 v -11.925 c 0,-0.72668 -0.204961,-1.099336 -0.381973,-1.201816 -0.06522,-0.03727 -0.149062,-0.0559 -0.270175,-0.0559 z"
      fill="#e8521e"
      transform="translate(0,0.046233)"
    />
    <path
      d="M 3.1209961,8.1894703 13.285195,14.114705 c 0.624199,0.363339 1.052754,0.372656 1.239082,0.270176 0.177012,-0.102481 0.381973,-0.475137 0.381973,-1.201817 V 1.2580641 c 0,-0.72667972 -0.204961,-1.09933597 -0.381973,-1.20181644 -0.177011,-0.10248047 -0.605566,-0.09316406 -1.239082,0.27017578 L 3.1209961,6.2516578 C 2.4874805,6.6149977 2.2638867,6.9876539 2.2638867,7.2205641 c 0,0.2329101 0.2329102,0.59625 0.8571094,0.9689062 z"
      fill="#ed7231"
      transform="translate(0,0.046233)"
    />
    <path
      d="m 3.1209961,29.05822 10.1641989,5.925235 c 0.624199,0.36334 1.052754,0.372656 1.239082,0.270175 0.177012,-0.10248 0.381973,-0.475136 0.381973,-1.201816 v -11.925 c 0,-0.72668 -0.204961,-1.099336 -0.381973,-1.201816 -0.177011,-0.102481 -0.605566,-0.09316 -1.239082,0.270175 L 3.1209961,27.120408 c -0.6335156,0.36334 -0.8571094,0.735996 -0.8571094,0.968906 0,0.23291 0.2329102,0.59625 0.8571094,0.968906 z"
      fill="#e8521e"
      transform="translate(0,0.046233)"
    />
    <path
      d="m 18.539648,20.869099 c -0.111796,0 -0.204961,0.01863 -0.260859,0.0559 -0.177012,0.10248 -0.381973,0.475136 -0.381973,1.201816 v 11.925 c 0,0.72668 0.204961,1.099336 0.381973,1.201816 0.177012,0.102481 0.605567,0.09316 1.239082,-0.270175 L 29.68207,29.05822 c 0.633516,-0.36334 0.85711,-0.735996 0.85711,-0.968906 0,-0.23291 -0.223594,-0.59625 -0.85711,-0.968906 L 19.508555,21.195173 c -0.419239,-0.242226 -0.745313,-0.326074 -0.968907,-0.326074 z"
      fill="#ed7231"
      transform="translate(0,0.046233)"
    />
    <path
      d="m 18.539648,3.4922141e-4 c -0.111796,0 -0.204961,0.0186328086 -0.260859,0.0558984386 C 18.092461,0.15872813 17.8875,0.53138438 17.8875,1.2580641 V 13.183064 c 0,0.72668 0.204961,1.099336 0.381973,1.201817 0.177011,0.10248 0.605566,0.09316 1.239082,-0.270176 L 29.672754,8.1894703 c 0.633515,-0.3633398 0.857109,-0.7359961 0.857109,-0.9689062 0,-0.2329102 -0.223594,-0.59625 -0.857109,-0.9689063 L 19.508555,0.32642344 C 19.089316,0.08419688 18.763242,3.4922141e-4 18.539648,3.4922141e-4 Z"
      fill="#f39c71"
      transform="translate(0,0.046233)"
    />
  </g>

  <g class="text" transform="translate(0.47752809,0.28651685)">
    <path
      d="m 5.0308594,18.260156 c 0.7546289,0 1.2949804,-0.07453 1.6117383,-0.223594 0.3167578,-0.149062 0.4751367,-0.437871 0.4751367,-0.857109 0,-0.335391 -0.204961,-0.624199 -0.6055664,-0.875742 C 6.1022461,16.052168 5.4873633,15.772676 4.6582031,15.455918 4.0153711,15.213691 3.4284375,14.962148 2.8974023,14.710606 2.3663672,14.449746 1.9191797,14.142305 1.5558398,13.778965 1.1831836,13.415625 0.90369141,12.98707 0.69873047,12.493301 0.49376953,11.990215 0.39128906,11.393965 0.39128906,10.695234 c 0,-1.3695113 0.51240235,-2.4502145 1.52789064,-3.242109 1.0154883,-0.7918945 2.4129492,-1.1925 4.1830664,-1.1925 0.8850586,0 1.7328516,0.074531 2.5526953,0.2329102 0.8105274,0.1583789 1.4626756,0.3260742 1.9378126,0.5124023 L 9.8753906,10.220098 C 9.3909375,10.052402 8.8692188,9.9033398 8.3102344,9.7729102 7.75125,9.6424805 7.1177344,9.5772656 6.4096875,9.5772656 c -1.2949805,0 -1.9378125,0.3633399 -1.9378125,1.0807034 0,0.167695 0.027949,0.316758 0.083848,0.447187 0.055898,0.13043 0.1676953,0.251543 0.3353906,0.372657 0.1676953,0.121113 0.391289,0.251543 0.6800976,0.391289 0.2888086,0.139746 0.6521485,0.288808 1.0900196,0.456504 0.9036914,0.33539 1.6490039,0.670781 2.2452539,0.996855 0.5869336,0.326074 1.0620703,0.680098 1.3974603,1.052754 0.344707,0.381973 0.577617,0.801211 0.717364,1.257715 0.139746,0.456504 0.204961,0.996855 0.204961,1.602422 0,1.434726 -0.540352,2.524746 -1.6210549,3.260742 -1.0807031,0.735996 -2.6085937,1.108652 -4.5836718,1.108652 -1.2949805,0 -2.3663672,-0.111797 -3.232793,-0.335391 C 0.93164063,21.045762 0.33539063,20.859434 0,20.710371 l 0.68941406,-3.353906 c 0.69873044,0.279492 1.42541014,0.493769 2.16140624,0.652148 0.7359961,0.177012 1.4626758,0.251543 2.1800391,0.251543 z"
      transform="translate(40.256191,4.782422)"
    />
    <path
      d="m 13.601953,13.937344 c 0,-1.052754 0.167695,-2.04961 0.512403,-2.98125 0.344707,-0.931641 0.838476,-1.7421682 1.481308,-2.4408987 0.642832,-0.6987305 1.434727,-1.239082 2.357051,-1.6490039 0.922324,-0.4099219 1.975078,-0.6055664 3.158262,-0.6055664 0.773261,0 1.490625,0.065215 2.133457,0.2049609 0.642832,0.1397461 1.276347,0.3353907 1.881914,0.59625 l -0.85711,3.2980081 C 23.877949,10.210781 23.458711,10.080352 22.992891,9.9685547 22.52707,9.8567578 22.014668,9.8008594 21.437051,9.8008594 c -1.220449,0 -2.133457,0.3819726 -2.729707,1.1366016 -0.59625,0.754629 -0.903692,1.751484 -0.903692,2.990566 0,1.313614 0.279492,2.329102 0.847793,3.046465 0.558985,0.717363 1.546524,1.080703 2.953301,1.080703 0.503086,0 1.034121,-0.04658 1.611738,-0.139746 0.568301,-0.09316 1.099336,-0.242226 1.583789,-0.447187 l 0.577618,3.381855 c -0.484454,0.204961 -1.080704,0.381973 -1.798067,0.531035 -0.717363,0.149063 -1.518574,0.223594 -2.385,0.223594 -1.332246,0 -2.478164,-0.195644 -3.437754,-0.59625 -0.95959,-0.400605 -1.751484,-0.940957 -2.366367,-1.621055 -0.614883,-0.680097 -1.071387,-1.490625 -1.360195,-2.422265 -0.288809,-0.922324 -0.428555,-1.937813 -0.428555,-3.027832 z"
      transform="translate(40.256191,4.782422)"
    />
    <path
      d="m 32.66332,2.4408984 c 0,0.7546289 -0.242226,1.3508789 -0.735996,1.78875 -0.493769,0.4378711 -1.071387,0.6521485 -1.732851,0.6521485 -0.661465,0 -1.239082,-0.2142774 -1.732852,-0.6521485 -0.493769,-0.4378711 -0.735996,-1.0341211 -0.735996,-1.78875 0,-0.7546289 0.242227,-1.3508789 0.735996,-1.78874996 C 28.955391,0.21427734 29.533008,0 30.194473,0 30.855937,0 31.433555,0.21427734 31.927324,0.65214844 32.421094,1.0900195 32.66332,1.6769531 32.66332,2.4408984 Z M 32.281348,21.23209 H 28.15418 V 6.6519141 h 4.127168 z"
      transform="translate(40.256191,4.782422)"
    />
    <path
      d="m 35.467559,14.049141 c 0,-1.294981 0.195644,-2.422266 0.59625,-3.391172 0.400605,-0.9689065 0.922324,-1.7794338 1.565156,-2.4222659 0.642832,-0.642832 1.388144,-1.1366015 2.226621,-1.4719922 0.838476,-0.3353906 1.704902,-0.5030859 2.589961,-0.5030859 2.068242,0 3.70793,0.6335156 4.909746,1.9005469 1.201816,1.2670312 1.798066,3.1303121 1.798066,5.5805271 0,0.242227 -0.0093,0.503086 -0.02795,0.791895 -0.01863,0.288808 -0.03727,0.540351 -0.0559,0.763945 H 39.70652 c 0.09316,0.847793 0.49377,1.527891 1.1925,2.02166 0.698731,0.503086 1.639688,0.745313 2.822871,0.745313 0.754629,0 1.499942,-0.06522 2.226622,-0.204961 0.726679,-0.139746 1.322929,-0.307442 1.78875,-0.512403 l 0.558984,3.353907 c -0.223594,0.111797 -0.521719,0.223593 -0.885059,0.33539 -0.372656,0.111797 -0.782578,0.204961 -1.229765,0.288809 -0.456504,0.08385 -0.940957,0.149062 -1.45336,0.204961 -0.521718,0.0559 -1.034121,0.08385 -1.555839,0.08385 -1.313614,0 -2.450215,-0.195644 -3.419122,-0.577617 -0.968906,-0.391289 -1.770117,-0.922324 -2.412949,-1.593105 -0.633515,-0.670781 -1.108652,-1.471992 -1.416094,-2.394317 -0.307441,-0.93164 -0.456503,-1.928496 -0.456503,-2.999882 z m 9.698378,-1.574473 c -0.01863,-0.354024 -0.07453,-0.689414 -0.177011,-1.024805 -0.102481,-0.33539 -0.26086,-0.624199 -0.475137,-0.885058 -0.214277,-0.26086 -0.484453,-0.475137 -0.801211,-0.6335159 -0.326074,-0.1676953 -0.72668,-0.251543 -1.201816,-0.251543 -0.465821,0 -0.85711,0.074531 -1.1925,0.2329102 -0.335391,0.1583787 -0.605567,0.3633397 -0.82916,0.6241997 -0.223594,0.260859 -0.391289,0.558984 -0.512403,0.903691 -0.121113,0.344707 -0.204961,0.689414 -0.260859,1.043437 h 5.450097 z"
      transform="translate(40.256191,4.782422)"
    />
    <path
      d="m 52.209141,3.0185156 4.127168,-0.6614648 v 4.2948633 h 4.965644 v 3.4377539 h -4.965644 v 5.124023 c 0,0.866426 0.149062,1.565157 0.456503,2.077559 0.307442,0.521719 0.922325,0.773262 1.844649,0.773262 0.447187,0 0.903691,-0.03727 1.369512,-0.121114 0.475136,-0.08385 0.903691,-0.195644 1.285664,-0.344707 l 0.577617,3.214161 c -0.503086,0.204961 -1.052754,0.381972 -1.65832,0.531035 -0.605567,0.149062 -1.360196,0.223593 -2.245254,0.223593 -1.127286,0 -2.058926,-0.149062 -2.794922,-0.456503 -0.735996,-0.307442 -1.332246,-0.72668 -1.770117,-1.276348 C 52.954453,19.294277 52.647012,18.632812 52.47,17.850234 52.292988,17.076973 52.209141,16.210547 52.209141,15.26959 Z"
      transform="translate(40.256191,4.782422)"
    />
    <path
      d="m 77.894473,6.6519141 c -0.82916,2.8042382 -1.704903,5.4407809 -2.608594,7.9003129 -0.903692,2.459531 -1.900547,4.844531 -2.971934,7.145683 -0.391289,0.82916 -0.773261,1.537207 -1.164551,2.124141 -0.391289,0.577617 -0.810527,1.06207 -1.276347,1.444043 -0.46582,0.381972 -0.987539,0.652148 -1.565156,0.82916 -0.586934,0.177012 -1.267032,0.260859 -2.040293,0.260859 -0.652149,0 -1.248399,-0.0559 -1.78875,-0.177011 -0.549668,-0.121114 -0.996856,-0.251543 -1.341563,-0.400606 l 0.717363,-3.298008 c 0.428555,0.149063 0.801211,0.251543 1.136602,0.307442 0.335391,0.0559 0.680098,0.08385 1.052754,0.08385 0.735996,0 1.304297,-0.195644 1.704902,-0.59625 0.400606,-0.400605 0.735996,-0.950273 1.015488,-1.649004 C 67.823437,18.781875 66.88248,16.704316 65.932207,14.403164 64.99125,12.102012 64.106191,9.5213672 63.267715,6.6612305 h 4.378711 c 0.186328,0.7173632 0.400605,1.4999414 0.652148,2.3384179 0.251543,0.8384766 0.512403,1.6862696 0.791895,2.5526956 0.279492,0.857109 0.558984,1.695586 0.847793,2.506113 0.288808,0.810527 0.558984,1.55584 0.819843,2.217305 0.242227,-0.661465 0.49377,-1.406778 0.754629,-2.217305 0.26086,-0.810527 0.512403,-1.649004 0.763946,-2.506113 0.251543,-0.85711 0.493769,-1.7049026 0.726679,-2.5526956 0.232911,-0.8384765 0.437872,-1.6210547 0.6242,-2.3384179 h 4.266914 z"
      transform="translate(40.256191,4.782422)"
    />
  </g>
</svg>
