<svg xmlns="http://www.w3.org/2000/svg" viewBox="0 0 350.408 190.1">
  <title xml:lang="en">Alfred P. Sloan Foundation</title>

  <style>
    :root {
      --color-icon: rgb(171 152 115);
      --color-text: rgb(23 60 88);
    }

    .icon {
      fill: var(--color-icon);
    }

    .text {
      fill: var(--color-text);
    }

    @media screen and (forced-colors: active) {
      :root {
        --color-icon: CanvasText;
        --color-text: CanvasText;
      }
    }
  </style>

  <path
    class="icon"
    d="M159.386 11.184a35.28 35.28 0 0 1 34.492 1.609 9.413 9.413 0 1 0 4.702-5.868 42.801 42.801 0 0 0-60.503 14.543l52.937 52.936a35.496 35.496 0 0 1-34.492-1.609 9.413 9.413 0 1 0-4.702 5.868 42.848 42.848 0 0 0 60.51-14.535zm40.97 1.48a3.516 3.516 0 1 1 0 4.973 3.493 3.493 0 0 1 0-4.972zm-50.313 60.26a3.516 3.516 0 0 1-4.973 0 3.516 3.516 0 1 1 4.973 0zm50.168-5.12a35.366 35.366 0 0 1-2.786 2.48l-49.71-49.709a34.397 34.397 0 0 1 2.473-2.791 35.589 35.589 0 0 1 2.775-2.492l49.721 49.72a34.587 34.587 0 0 1-2.473 2.792z"
  />

  <path
    class="text"
    d="M27.609 147.946a88.294 88.294 0 0 0-4.673-.106c-1.819 0-3.246 0-4.316.106v-.178c1.034-.357 1.32-.82 1.32-1.534a6.36 6.36 0 0 0-.535-2.212c-.356-.856-.714-1.784-1.141-2.782H8.204c-.286.749-.607 1.462-.891 2.175a8.476 8.476 0 0 0-.75 2.712 1.527 1.527 0 0 0 1.355 1.641v.178c-1.355-.106-2.96-.106-4.137-.106-1.142 0-2.712.035-3.781.106v-.178c1.212-.5 1.748-1.035 3.174-4.245 6.279-13.877 7.705-17.086 9.347-21.047h3.102c1.035 2.855 3.639 8.99 9.169 21.724 1.069 2.463 1.498 3.104 2.817 3.568zm-10.487-9.56c-1.106-2.676-2.355-5.778-3.853-9.382-1.355 3.283-2.639 6.422-3.888 9.382zM39.663 142.81c0 1.462.57 2.069 2.782 2.069 4.102 0 5.387-.857 7.134-3.782l.178.107a54.738 54.738 0 0 0-1.32 6.777c-3.21-.106-7.098-.141-9.88-.141-1.856 0-4.744.035-6.35.106v-.178c1.998-.678 2.32-1.177 2.32-7.741v-9.31c0-6.563-.322-7.063-2.32-7.705v-.178c1.606.071 3.033.106 4.887.106 1.855 0 3.317-.035 5.066-.106v.178c-2.212.642-2.497.963-2.497 6.849zM65.168 147.946c-1.75-.071-3.211-.106-5.067-.106-1.854 0-3.28.035-4.886.106v-.178c1.998-.678 2.319-1.177 2.319-7.741v-9.31c0-6.563-.321-7.063-2.32-7.705v-.178c1.607.071 3.639.106 5.494.106 5.03 0 8.061-.071 11.2-.25a53.501 53.501 0 0 0 .144 6.386l-.178.036c-1.035-2.64-2.283-3.247-6.706-3.247a16.94 16.94 0 0 0-2.498.108v8.026l3.354-.108c3.317-.141 3.994-.499 4.53-1.962h.214a31.928 31.928 0 0 0-.143 3.39 28.376 28.376 0 0 0 .143 3.353h-.215c-.535-1.499-1.248-1.82-4.53-1.926l-3.353-.108v4.245c0 5.886.286 6.207 2.498 6.885zM88.066 147.946a116.59 116.59 0 0 0-5.101-.106c-1.856 0-3.246.035-4.852.106v-.178c1.998-.678 2.32-1.177 2.32-7.741v-9.31c0-6.563-.322-7.063-2.32-7.705v-.178c1.606.071 2.818.106 4.674.106 1.284 0 3.21-.143 5.386-.143 6.777 0 10.237 2.712 10.237 7.1 0 3.495-2.39 5.35-5.101 6.385 2.354 5.564 5.886 9.917 9.203 11.415l-.071.213c-5.815-.748-11.166-2.853-14.303-10.273a17.644 17.644 0 0 1-1.856.107h-.75v3.139c0 5.708.323 6.207 2.534 6.885zm-2.534-12.735h1.5c3.459 0 5.992-1.355 5.992-4.744 0-3.139-2.07-4.708-5.814-4.708a14.639 14.639 0 0 0-1.678.106zM122.557 147.981c-3.282-.106-7.848-.141-10.701-.141-1.89 0-4.209.035-5.815.106v-.178c1.999-.678 2.32-1.177 2.32-7.741v-9.31c0-6.563-.321-7.063-2.32-7.705v-.178c1.606.071 3.638.106 5.494.106 5.28 0 8.312-.071 11.558-.25a53 53 0 0 0 .178 6.386l-.178.036c-1.035-2.64-2.32-3.247-7.242-3.247a19.168 19.168 0 0 0-2.354.108v7.49l3.853-.106c3.317-.108 3.959-.464 4.53-1.927h.213a31.14 31.14 0 0 0-.142 3.354 29.765 29.765 0 0 0 .142 3.389h-.214c-.57-1.535-1.284-1.856-4.53-1.962l-3.852-.072v6.671c0 1.462.535 2.069 2.89 2.069 4.03 0 5.529-.857 7.276-3.604l.178.108a60.704 60.704 0 0 0-1.284 6.598zM129.867 147.768c1.999-.678 2.32-1.177 2.32-7.741v-9.31c0-6.563-.321-7.063-2.32-7.705v-.178a96.04 96.04 0 0 0 4.282.106c1.711 0 3.352-.143 4.958-.143 5.35 0 9.631 1.357 12.627 4.353a11.678 11.678 0 0 1 3.282 8.49c0 7.242-5.137 12.45-14.91 12.45-2.034 0-4.103-.25-5.957-.25-1.357 0-2.676.035-4.282.106zm17.158-18.942a10.983 10.983 0 0 0-7.883-2.96 9.453 9.453 0 0 0-1.819.107v16.872c0 1.606.607 2.177 3.46 2.177 5.102 0 8.703-3.105 8.703-9.06 0-3.176-.891-5.53-2.46-7.136zM181.967 147.946c-1.749-.071-3.21-.106-5.066-.106-1.854 0-3.28.035-4.887.106v-.178c1.999-.678 2.32-1.177 2.32-7.741v-9.31c0-6.563-.321-7.063-2.32-7.705v-.178c1.606.071 3.033.106 4.887.106 1.214 0 3.068-.143 4.959-.143 6.35 0 10.63 2.57 10.63 7.421a6.441 6.441 0 0 1-1.891 4.815c-1.997 2.034-5.422 2.997-9.416 2.997h-1.713v3.21c0 5.351.286 5.85 2.497 6.528zm-2.497-12.698h1.249c2.39 0 4.208-.464 5.208-1.498a4.502 4.502 0 0 0 1.14-3.247c0-3.353-2.283-4.744-5.671-4.744-.749 0-1.462.071-1.926.106zM196.155 148.302a2.926 2.926 0 1 1 2.996-2.924 2.922 2.922 0 0 1-2.996 2.924zM224.819 148.445a17.156 17.156 0 0 1-7.812-1.819 47.982 47.982 0 0 0-.036-6.884l.18-.036c1.604 3.46 4.707 5.672 7.81 5.672 2.247 0 3.996-1.39 3.996-3.567 0-1.856-1.105-2.996-4.887-4.673-4.745-2.176-6.707-4.21-6.707-7.598 0-4.03 3.354-7.205 8.562-7.205a15.51 15.51 0 0 1 6.849 1.64 42.868 42.868 0 0 0 0 6.421l-.178.035c-1.713-3.21-4.245-5.028-6.886-5.028a3.103 3.103 0 0 0-3.28 3.102c0 1.748.926 2.64 4.6 4.28 4.852 2.248 6.992 4.317 6.992 7.884 0 4.602-3.71 7.776-9.203 7.776zM247.574 142.81c0 1.462.57 2.069 2.782 2.069 4.102 0 5.387-.857 7.135-3.782l.178.107a54.738 54.738 0 0 0-1.32 6.777c-3.21-.106-7.098-.141-9.88-.141-1.856 0-4.744.035-6.35.106v-.178c1.998-.678 2.319-1.177 2.319-7.741v-9.31c0-6.563-.32-7.063-2.32-7.705v-.178c1.607.071 3.033.106 4.887.106 1.856 0 3.318-.035 5.067-.106v.178c-2.212.642-2.498.963-2.498 6.849zM262.734 135.39c0-7.634 6.028-13.092 13.59-13.092 8.097 0 13.448 5.886 13.448 13.091 0 7.634-5.992 13.093-13.59 13.093-8.062 0-13.448-5.886-13.448-13.093zm5.564-.322c0 5.815 3.139 10.167 8.097 10.167 4.71 0 7.848-4.102 7.848-9.525 0-5.813-3.139-10.166-8.097-10.166-4.744 0-7.848 4.067-7.848 9.524zM320.126 147.946a88.294 88.294 0 0 0-4.672-.106c-1.82 0-3.246 0-4.317.106v-.178c1.035-.357 1.32-.82 1.32-1.534a6.36 6.36 0 0 0-.535-2.212c-.356-.856-.713-1.784-1.14-2.782h-10.06c-.286.749-.607 1.462-.892 2.175a8.476 8.476 0 0 0-.75 2.712 1.527 1.527 0 0 0 1.356 1.641v.178c-1.355-.106-2.96-.106-4.137-.106-1.142 0-2.712.035-3.781.106v-.178c1.212-.5 1.747-1.035 3.174-4.245 6.278-13.877 7.705-17.086 9.346-21.047h3.103c1.034 2.855 3.638 8.99 9.168 21.724 1.07 2.463 1.498 3.104 2.817 3.568zm-10.487-9.56c-1.106-2.676-2.354-5.778-3.852-9.382-1.356 3.283-2.64 6.422-3.888 9.382zM347.912 148.124h-2.819a39.558 39.558 0 0 0-3.21-4.566l-11.023-13.732.037 10.593c0 6.207.356 6.706 2.46 7.35v.177a103.45 103.45 0 0 0-4.422-.106c-1.499 0-2.57.035-4.245.106v-.178c1.962-.643 2.283-1.285 2.283-8.205l.035-8.525c0-6.778-.285-7.348-2.318-8.026v-.178c1.57.071 2.567.143 4.137.143a20.829 20.829 0 0 0 3.068-.18c.357.572 1.07 1.535 1.819 2.498 1.463 1.89 7.492 9.417 10.523 13.199l-.035-8.204c0-6.207-.357-6.636-2.462-7.278v-.178c1.819.071 3.104.106 4.566.106 1.391 0 2.497-.035 4.102-.106v.178c-1.961.642-2.212 1.213-2.318 8.383zM81.529 189.711a84.226 84.226 0 0 0-7.22 0v-.129c1.45-.492 1.683-.854 1.683-5.615v-6.752c0-4.76-.233-5.123-1.682-5.589v-.129a95.57 95.57 0 0 0 3.984.077c3.648 0 5.847-.051 8.124-.18a38.804 38.804 0 0 0 .103 4.63l-.129.027c-.75-1.915-1.655-2.355-4.863-2.355a12.285 12.285 0 0 0-1.812.078v5.821l2.433-.078c2.406-.103 2.897-.362 3.285-1.423h.155a23.147 23.147 0 0 0-.103 2.458 20.586 20.586 0 0 0 .103 2.432h-.155c-.388-1.086-.906-1.32-3.285-1.396l-2.433-.079v3.08c0 4.268.208 4.501 1.812 4.993zM90.871 180.604c0-5.537 4.372-9.495 9.857-9.495a9.342 9.342 0 0 1 9.754 9.495c0 5.536-4.346 9.496-9.857 9.496a9.357 9.357 0 0 1-9.754-9.496zm4.036-.233c0 4.217 2.276 7.373 5.873 7.373 3.415 0 5.692-2.975 5.692-6.908 0-4.216-2.277-7.373-5.873-7.373-3.44 0-5.692 2.95-5.692 6.908zM130.866 182.596c0 4.528-2.354 7.504-7.658 7.504-4.993 0-7.477-2.795-7.477-7.271v-5.614c0-4.76-.233-5.123-1.656-5.589v-.129c1.165.052 2.173.077 3.519.077s2.432-.025 3.673-.077v.13c-1.604.465-1.81.672-1.81 4.734v6.183c0 3.312 1.449 4.735 4.166 4.735 2.793 0 4.371-1.526 4.371-4.916l-.025-5.588c0-4.372-.26-4.683-1.786-5.149v-.129c1.32.052 2.329.077 3.415.077 1.062 0 1.734-.025 2.95-.077v.13c-1.397.465-1.656.905-1.656 6.08zM153.35 189.84h-2.044a28.692 28.692 0 0 0-2.329-3.311l-7.995-9.96.027 7.683c0 4.502.258 4.864 1.785 5.33v.13a75.03 75.03 0 0 0-3.208-.078c-1.087 0-1.863.025-3.08.077v-.129c1.424-.466 1.657-.932 1.657-5.951l.025-6.183c0-4.916-.206-5.33-1.681-5.822v-.129c1.138.052 1.862.104 3 .104a15.107 15.107 0 0 0 2.226-.13c.259.414.776 1.113 1.319 1.811 1.061 1.371 5.434 6.83 7.633 9.573l-.026-5.95c0-4.502-.259-4.813-1.786-5.279v-.129c1.32.052 2.252.077 3.312.077 1.01 0 1.811-.025 2.975-.077v.13c-1.422.465-1.604.88-1.681 6.08zM159.979 189.582c1.449-.492 1.682-.854 1.682-5.615v-6.752c0-4.76-.233-5.123-1.682-5.589v-.129c1.164.052 2.173.077 3.105.077 1.24 0 2.431-.103 3.596-.103 3.881 0 6.985.984 9.158 3.157a8.47 8.47 0 0 1 2.381 6.158c0 5.252-3.726 9.029-10.815 9.029-1.475 0-2.975-.181-4.32-.181-.984 0-1.94.025-3.105.077zm12.444-13.738a7.966 7.966 0 0 0-5.717-2.148 6.855 6.855 0 0 0-1.32.078v12.237c0 1.164.44 1.579 2.51 1.579 3.7 0 6.312-2.252 6.312-6.572a7.111 7.111 0 0 0-1.785-5.174zM199.917 189.711a64.036 64.036 0 0 0-3.389-.077c-1.32 0-2.354 0-3.13.077v-.129c.75-.259.957-.595.957-1.113a4.613 4.613 0 0 0-.388-1.604c-.259-.62-.518-1.294-.828-2.018h-7.296c-.207.543-.44 1.06-.646 1.578a6.147 6.147 0 0 0-.544 1.967 1.107 1.107 0 0 0 .983 1.19v.13c-.983-.078-2.147-.078-3.001-.078-.828 0-1.967.025-2.742.077v-.129c.879-.363 1.267-.75 2.302-3.079 4.554-10.065 5.588-12.393 6.779-15.265h2.25c.75 2.07 2.639 6.52 6.65 15.756.776 1.786 1.087 2.252 2.043 2.588zm-7.606-6.934c-.802-1.94-1.708-4.191-2.794-6.804-.983 2.38-1.914 4.657-2.82 6.804zM213.586 189.711a99.23 99.23 0 0 0-3.83-.077c-1.344 0-2.353.025-3.828.077v-.129c1.811-.517 1.967-.673 1.967-5.252V173.62h-.777c-3.312.051-4.45 1.215-5.33 3.673l-.129-.025a49.094 49.094 0 0 0 .052-5.822c2.354.078 4.941.13 8.046.13 3.105 0 5.718-.052 8.073-.13a48.889 48.889 0 0 0 .051 5.822l-.13.025c-.879-2.458-2.017-3.622-5.33-3.673h-.801v10.711c0 4.58.18 4.735 1.966 5.252zM225.84 189.634c-1.344 0-2.43.025-3.57.077v-.129c1.501-.492 1.734-.854 1.734-5.615v-6.752c0-4.76-.233-5.123-1.733-5.589v-.129c1.138.052 2.225.077 3.57.077 1.32 0 2.38-.025 3.622-.077v.13c-1.5.465-1.734.828-1.734 5.588v6.752c0 4.761.233 5.123 1.734 5.615v.13a81.832 81.832 0 0 0-3.622-.078zM233.619 180.604c0-5.537 4.371-9.495 9.856-9.495a9.342 9.342 0 0 1 9.754 9.495c0 5.536-4.346 9.496-9.856 9.496a9.357 9.357 0 0 1-9.754-9.496zm4.035-.233c0 4.217 2.277 7.373 5.873 7.373 3.415 0 5.692-2.975 5.692-6.908 0-4.216-2.277-7.373-5.873-7.373-3.44 0-5.692 2.95-5.692 6.908zM274.288 189.84h-2.044a28.692 28.692 0 0 0-2.33-3.311l-7.994-9.96.027 7.683c0 4.502.258 4.864 1.785 5.33v.13a75.028 75.028 0 0 0-3.208-.078c-1.087 0-1.864.025-3.08.077v-.129c1.424-.466 1.657-.932 1.657-5.951l.025-6.183c0-4.916-.206-5.33-1.681-5.822v-.129c1.138.052 1.862.104 3 .104a15.106 15.106 0 0 0 2.225-.13c.26.414.777 1.113 1.32 1.811 1.061 1.371 5.434 6.83 7.632 9.573l-.025-5.95c0-4.502-.26-4.813-1.786-5.279v-.129c1.32.052 2.252.077 3.312.077 1.01 0 1.811-.025 2.975-.077v.13c-1.422.465-1.604.88-1.681 6.08z"
  />
</svg>
