<svg xmlns="http://www.w3.org/2000/svg" viewBox="0 0 181 181" width="543" height="543">

  <title xml:lang="en">Wellcome Trust</title>

  <style>
    :root {
      --color-background: rgb(29 29 27);
      --color-text: rgb(255 255 255);
    }

    .background {
      fill: var(--color-background);
    }

    .text {
      fill: var(--color-text);
    }

    @media screen and (forced-colors: active) {
      :root {
        --color-background: CanvasText;
        --color-text: Canvas;
      }
    }
  </style>

  <rect class="text" height="181.42" width="173.42" x="1.5" y="0" />
  <path
    class="background"
    d="m181.42,181.42l-181.42,0l0,-181.42l181.42,0l0,181.42zm-55,-150.33l-12.17,46.08c-4.62,-17.57 -8.86,-33.46 -9.57,-36.07c-1.85,-6.75 -6.35,-10 -13,-10l-12.41,0l-12.14,46.1l-12.13,-46.11l-27.22,3.17s15,56.92 17.68,67.25c1.75,6.61 5.25,11.08 11.93,12.89c6.91,1.88 21.14,6.11 21.14,6.11l12.16,-46.24c3.69,14 6.51,24.31 7.61,28.36c1.65,6 5.62,9.9 12.54,11.93c9.35,2.75 20.07,5.95 20.07,5.95l22.73,-86.43l-27.22,-2.99zm-21.47,109.38c-4.3,0 -6.84,2.16 -7.85,5.07c-0.85,-3.53 -4.07,-5.07 -7.47,-5.07c-4.28,0 -7.53,2.54 -8.26,6.5l0,-11.97l-5.76,0l0,21.6l5.76,0l0,-5.92c0.72,4.17 3.88,6.32 8.08,6.32c3.6,0 6.57,-1.79 7.67,-5c1,2.89 3.55,5 7.83,5c5.76,0 8.35,-3.9 8.35,-8.26s-2.6,-8.27 -8.35,-8.27zm-13,9.89a2.4,2.4 0 0 1 -2.45,2.33c-1.86,0 -2.54,-1.45 -2.54,-4c0,-1.91 0.47,-4 2.66,-4c1.36,0 2.18,0.91 2.18,2.48l4.88,0a10.34,10.34 0 0 0 0,3.14l-4.73,0.05zm13,2.33c-2.27,0 -2.6,-2.3 -2.6,-4s0.33,-4 2.6,-4s2.6,2.27 2.6,4s-0.34,4 -2.6,4zm42,0.52c-1.89,0 -2.92,-1.3 -3.07,-3.18l11.31,0c0,-6.08 -2.66,-9.56 -8.56,-9.56a7.9,7.9 0 0 0 -7.94,6l0,-0.67c0,-2.54 -1.33,-5.3 -5.23,-5.3a6.11,6.11 0 0 0 -4.46,1.6a3,3 0 0 0 -0.23,0.27c-0.29,0.31 -0.45,0.52 -0.56,0.64a4.55,4.55 0 0 0 -4.13,-2.51a5.53,5.53 0 0 0 -5,2.51l-0.09,0l0,-2.12l-5.69,0l0,15.7l5.76,0l0,-8.5c0,-1.66 0.5,-2.9 2,-2.9c1.86,0 2,1.42 2,2.9l0,8.5l5.79,0l0,-8.5c0,-1.66 0.5,-2.9 2,-2.9c1.83,0 2,1.42 2,2.9l0,8.5l5.76,0l0,-5.37c1,3.71 4.12,5.77 8.2,5.77c3.55,0 6.74,-1.54 7.95,-4.87l-5.36,0a3,3 0 0 1 -2.5,1.08l0.05,0.01zm-0.06,-9a2.67,2.67 0 0 1 2.77,2.79l-5.75,0c0.24,-1.82 1.28,-2.78 2.93,-2.78l0.05,-0.01zm-78.68,1.67c-1,-3.49 -3.62,-5.42 -8,-5.42a7.92,7.92 0 0 0 -7.29,4.26l1.2,-3.87l-6.12,0l-2.15,9.77l-0.12,0l-2.07,-9.77l-5.41,0l-2,9.77l-0.09,0l-2.3,-9.77l-6,0l4.78,15.7l5.94,0l2.3,-9.71l0.12,0l2.24,9.71l5.94,0l2.82,-9.06a9.36,9.36 0 0 0 -0.1,1.27c0,5.23 3.61,8.2 8.51,8.2c3.37,0 6.41,-1.4 7.75,-4.4l0,4l5.76,0l0,-21.56l-5.76,0l0.05,10.88zm-7.75,-1.67a2.67,2.67 0 0 1 2.72,2.79l-5.76,0c0.3,-1.82 1.33,-2.78 2.98,-2.78l0.06,-0.01zm2.54,7.87a3,3 0 0 1 -2.51,1.12c-1.88,0 -2.91,-1.3 -3.07,-3.18l10.74,0l0,2.06l-5.16,0z"
  />

</svg>
