<svg xmlns="http://www.w3.org/2000/svg" viewBox="0 0 24 24">
  <path
    d="M3.048 8.216a.3.3 0 0 0-.15.03c-.106.055-.223.252-.223.638v6.333c0 .386.117.583.218.638.102.054.347.05.709-.144l5.811-3.146c.362-.193.49-.39.49-.514s-.128-.317-.49-.515L3.602 8.39c-.24-.129-.426-.174-.554-.174Z"
  />
  <path
    d="M21.052 8.216c-.128 0-.32.045-.554.174l-5.811 3.146c-.362.193-.49.39-.49.514s.128.317.49.515l5.811 3.146c.357.193.602.198.709.144.1-.055.218-.252.218-.638V8.884c0-.386-.117-.583-.218-.638a.324.324 0 0 0-.155-.03Z"
  />
  <path
    d="m4.46 7.024 5.81 3.146c.358.193.603.198.71.144.1-.055.218-.253.218-.638V3.343c0-.386-.117-.584-.219-.638-.1-.055-.346-.05-.708.143L4.459 5.995c-.362.193-.49.39-.49.514s.134.317.49.515Z"
  />
  <path
    d="m4.46 18.105 5.81 3.147c.358.193.603.198.71.143.1-.054.218-.252.218-.638v-6.333c0-.385-.117-.583-.219-.638-.1-.054-.346-.05-.708.144l-5.812 3.146c-.362.193-.49.391-.49.515 0 .123.134.316.49.514Z"
  />
  <path
    d="M13.275 13.757a.301.301 0 0 0-.15.03c-.1.054-.217.252-.217.637v6.333c0 .386.117.584.218.638.101.055.346.05.708-.143l5.812-3.147c.362-.193.49-.39.49-.514s-.128-.317-.49-.515l-5.817-3.146c-.24-.129-.426-.173-.554-.173Z"
  />
  <path
    d="M13.275 2.675a.3.3 0 0 0-.149.03c-.106.054-.224.252-.224.638v6.333c0 .385.118.583.219.638.1.054.346.05.708-.144l5.812-3.146c.362-.193.49-.391.49-.515 0-.123-.128-.316-.49-.514l-5.812-3.147c-.24-.128-.426-.173-.554-.173Z"
  />
</svg>
